<?xml version="1.0" encoding="utf-8"?>
<!-- Generator: Adobe Illustrator 16.0.4, SVG Export Plug-In . SVG Version: 6.00 Build 0)  -->
<!DOCTYPE svg PUBLIC "-//W3C//DTD SVG 1.1//EN" "http://www.w3.org/Graphics/SVG/1.1/DTD/svg11.dtd">
<svg version="1.1" id="Layer_1" xmlns="http://www.w3.org/2000/svg" xmlns:xlink="http://www.w3.org/1999/xlink" x="0px" y="0px"
	 width="800px" height="400px" viewBox="0 0 800 400" enable-background="new 0 0 800 400" xml:space="preserve">
<g>
	<path fill-rule="evenodd" clip-rule="evenodd" fill="#011C26" d="M800,193.775V193.6c0.517,0.105,1.084,0.213,1.7,0.325
		c-0.077,0.012-0.177,0.021-0.3,0.025C800.592,193.976,800.125,193.917,800,193.775z M380.175,364.55
		c-0.453,0.099-0.911,0.182-1.375,0.25c-0.933,0.134-1.867,0.3-2.8,0.5c-0.48,0.09-0.988,0.141-1.525,0.15
		c0.413-0.079,1.271-0.263,2.575-0.55C378.078,364.688,379.119,364.571,380.175,364.55z M538.225,318.55
		c4.152,0.947,8.228,2.08,12.226,3.4c5.866,1.967,12.066,2.783,18.6,2.45c1.434-0.067,2.884-0.084,4.351-0.051
		c11.8,0.267,23.6,0.4,35.399,0.4c7.367,0,14.75,0.134,22.15,0.4c0.3,0.033,0.6,0.066,0.899,0.1c1.801,0.333,3.551,0.75,5.25,1.25
		c0.101,0.967-0.483,1.434-1.75,1.4c-0.566-0.034-1.166-0.017-1.8,0.05c-4,0.467-7.816,1.149-11.45,2.05
		c-3.066,0.733-6.316,1.083-9.75,1.05c-4.733-0.066-9.416,0.15-14.05,0.65c-0.934,0.1-1.899,0.267-2.899,0.5
		c-1.367,0.333-2.801,0.566-4.301,0.7c-5.199,0.433-10.199,1.066-15,1.899c-1.767,0.3-3.55,0.483-5.35,0.55
		c-6.467,0.334-12.95,0.717-19.45,1.15c-3.8,0.267-7.633,0.533-11.5,0.8c-14.066,0.934-28.233,1.283-42.5,1.05
		c-15.033-0.233-30.066-0.283-45.1-0.149c-24.533,0.166-49.017-0.05-73.45-0.65c-10.333-0.267-20.667-0.316-31-0.149
		c-15.5,0.233-30.833-0.017-46-0.75c-5.9-0.267-11.8-0.384-17.7-0.351c-8,0.033-15.966,0.4-23.9,1.101
		c-1.467,0.133-2.933,0.25-4.4,0.35c-2.067,0.167-4.117,0.366-6.15,0.6c-2.233,0.267-4.067,0.684-5.5,1.25
		c-1.1,0.434-2.233,0.784-3.4,1.051c-10.333,0-20.667-0.101-31-0.301c-7.267-0.166-14.367,0.467-21.3,1.9
		c-2,0.434-4.033,0.717-6.1,0.85c-11.733,0.867-23.533,1.267-35.4,1.2c-11.333-0.1-22.533-1.116-33.6-3.05
		c-8.533-1.5-17.1-2.45-25.7-2.85c-5.9-0.267-11.8-0.45-17.7-0.551c-11.933-0.166-23.733,0.15-35.4,0.95
		c-1.167,0.066-2.333,0.217-3.5,0.45c-0.3,0.066-0.6,0.25-0.9,0.55c-10.045,0-20.079-0.217-30.1-0.649V212.35h16.8v23.226V267.2h23
		v-16.8h13.3v31h11.5v-17.7h13.25v43.35H100V284.9h12.35v6.199h7.1V255.7h9.75v38.95h15.05V272.55h9.7v15h23v-23
		c2.667,0,4.716,0.117,6.15,0.351v28.85h22.2v-16.8h9.7V291.1h14.2V242.45h15v20.35h18.6v13.25h14.15V239.8h8.85v11.5
		c3.367-1.066,7.2-1.05,11.5,0.05V286.7h8v-11.5h10.6v32.75h27.45v-12.4h9.7v13.25H427.4c0.3,3.533,0.6,5.3,0.899,5.3h76.05
		c6.4,1.4,12.9,2.134,19.5,2.2c1.767,0.033,3.534,0.2,5.301,0.5C532.214,317.287,535.238,317.871,538.225,318.55z"/>
	<linearGradient id="SVGID_1_" gradientUnits="userSpaceOnUse" x1="399.9995" y1="7.4502" x2="399.9995" y2="339.3502">
		<stop  offset="0" style="stop-color:#6B0C22"/>
		<stop  offset="1" style="stop-color:#F4CB89"/>
	</linearGradient>
	<path fill-rule="evenodd" clip-rule="evenodd" fill="url(#SVGID_1_)" d="M0,186V0h800v192.425c-0.222-0.108-0.464-0.225-0.725-0.35
		c-2.521-1.213-3.929-1.988-4.226-2.325c-0.733-0.767-1.184-1.483-1.35-2.15c-0.5-2.2-1.4-3.617-2.7-4.25
		c-6.366-3.1-13.417-4.367-21.15-3.8c-0.566,0.034-1.116,0.15-1.649,0.35c-2.367,0.9-4.55,2.184-6.55,3.85
		c-1.301,1.1-2.601,2.2-3.9,3.3c-4.167,3.5-8.4,6.617-12.7,9.35c-1.434,0.934-2.967,1.65-4.6,2.15
		c-2.533,0.833-4.783,0.667-6.75-0.5c-0.367-0.2-0.733-0.367-1.101-0.5c-1.1-0.433-2.216-0.883-3.35-1.35
		c-3.8-1.567-7.616-3.1-11.45-4.6c-4.967-1.934-9.983-3.7-15.05-5.3c-10.134-3.267-20.5-5.783-31.1-7.55
		c-3.534-0.6-6.867-1.65-10-3.15c-6.134-2.967-11.4-1.95-15.801,3.05c-3.033,3.4-6.6,6.267-10.699,8.6
		c-2.5,1.4-4.983,2.85-7.45,4.35c-2.867,1.733-5.7,3.55-8.5,5.45c-9.667,6.533-19.101,13.316-28.3,20.351
		c-4.088,3.102-7.696,6.468-10.825,10.1c-2.125-2.448-4.65-3.948-7.575-4.5c-1.7-0.366-3.134-0.033-4.3,1
		c-3,2.634-6.217,5.05-9.65,7.25c-2.467,1.566-4.75,3.366-6.85,5.4c-2.101,2.033-4.566,2.633-7.4,1.8
		c-3.066-0.867-6.566-2.3-10.5-4.3c-1.899-0.934-3.8-1.867-5.7-2.801c-9.833-4.833-19.8-9.383-29.899-13.649
		c-5-2.101-10.066-4.033-15.2-5.8c-8.833-3-17.616-6.134-26.35-9.4c-5.334-1.967-10.584-4.167-15.75-6.6
		c-5.634-2.6-11.351-5.017-17.15-7.25c-3.467-1.3-6.95-2.617-10.45-3.95c-3.566-1.333-7.184-2.567-10.85-3.7
		c-7.267-2.233-14.883-3.05-22.85-2.45c-2.067,0.133-4.117,0.333-6.15,0.6c-3.567,0.434-6.5,2.383-8.8,5.85
		c-0.533,0.8-1.467,1.65-2.8,2.55c-1.533,1.034-2.934,2.25-4.2,3.65c-1.3,1.4-2.617,2.767-3.95,4.1c-1,1.067-2.034,2.1-3.1,3.1
		c-1.3,1.333-2.65,2.617-4.05,3.85c-4.933,4.434-9.45,9.366-13.55,14.8c-1.001,1.31-2.076,2.426-3.225,3.351
		c-5.493-1.193-10.751-3.177-15.775-5.95c-1.967-1.101-3.9-2.25-5.8-3.45c-9.967-6.233-20.05-12.333-30.25-18.3
		c-4.434-2.567-8.567-5.483-12.4-8.75c-2.767-2.4-5.733-4.467-8.9-6.2c-10.433-5.833-19.95-12.817-28.55-20.95
		c-0.733-0.7-1.583-1.117-2.55-1.25c-7.167-0.867-13.65,0.934-19.45,5.4c-5.333,4.133-11.217,6.233-17.65,6.3
		c-0.567,0-1.067-0.133-1.5-0.4c-1.567-0.934-3.15-1.95-4.75-3.05c-1.4-0.933-2.817-1.9-4.25-2.9c-1.534-1.066-3.067-2.167-4.6-3.3
		c-2.567-1.867-5.184-3.7-7.85-5.5c-9.233-6.333-18.35-12.85-27.35-19.55c-1.833-1.367-3.717-2.667-5.65-3.9
		c-2.2-1.4-4.417-2.8-6.65-4.2c-2.5-1.567-5.05-3-7.65-4.3c-2.1-1.066-4.317-1.95-6.65-2.65c-5.267-1.567-10.283-3.617-15.05-6.15
		c-1.5-0.8-2.867-1.783-4.1-2.95c-1.333-1.3-2.95-1.833-4.85-1.6c-4.1,0.467-8.2,0.95-12.3,1.45c-0.633,0.067-1.233,0.25-1.8,0.55
		c-4,2.167-8.167,4.167-12.5,6c-1.967,0.833-3.767,2.333-5.4,4.5c-0.733,1-1.617,1.85-2.65,2.55c-3.033,2.133-5.566,4.633-7.6,7.5
		c-2.3,3.167-4.933,6.15-7.9,8.95c-1.033,1-2.1,1.983-3.2,2.95c-1.934,1.733-3.5,3.65-4.7,5.75c-2.767,4.733-5.883,9.367-9.35,13.9
		c-0.733,1-1.483,1.983-2.25,2.95c-1,1.367-2.083,2.667-3.25,3.9c-2.633,2.8-5.133,5.617-7.5,8.45c-0.933,1.1-1.917,2.167-2.95,3.2
		C2.252,181.43,0.853,183.63,0,186z"/>
	<path fill-rule="evenodd" clip-rule="evenodd" fill="#1A3A53" d="M538.225,318.55c-2.986-0.679-6.011-1.263-9.074-1.75
		c-1.767-0.3-3.534-0.467-5.301-0.5c-6.6-0.066-13.1-0.8-19.5-2.2H428.3c-0.3,0-0.6-1.767-0.899-5.3H353.05v-13.25h-9.7v12.4H315.9
		V275.2h-10.6v11.5h-8V251.35c-4.3-1.1-8.133-1.116-11.5-0.05v-11.5h-8.85v36.25H262.8V262.8h-18.6v-20.35h-15V291.1H215V276.95
		h-9.7v16.8h-22.2V264.9c-1.434-0.233-3.483-0.351-6.15-0.351v23h-23v-15h-9.7v22.101H129.2V255.7h-9.75V291.1h-7.1V284.9H100
		v22.149H77.85V263.7H64.6v17.7H53.1v-31H39.8v16.8h-23v-31.625c5.731,0.221,11.348-0.388,16.85-1.825
		c11.167-2.866,22.083-6.4,32.75-10.6c11-4.301,22.483-6.267,34.45-5.9c10.6,0.366,20.967,2.167,31.1,5.4
		c2.6,0.833,5.183,1.616,7.75,2.35c2.433,0.733,4.833,1.533,7.2,2.4c2.367,0.899,4.75,1.666,7.15,2.3c2,0.533,4,1.066,6,1.6
		c4.567,1.2,9.017,2.584,13.35,4.15c3.533,1.267,7.367,2.05,11.5,2.35c2.1,0.167,4.2,0.4,6.3,0.7c1.733,0.267,3.483,0.4,5.25,0.4
		c5.6,0,11.15-0.351,16.65-1.051c1.6-0.166,3.2-0.517,4.8-1.05c1.033-0.366,2.117-0.633,3.25-0.8c5.033-0.767,9.8-1.75,14.3-2.95
		c0.833-0.233,1.7-0.383,2.6-0.45c3.267-0.333,6.517-0.816,9.75-1.449c0.567-0.134,1.15-0.2,1.75-0.2c8.333,0.2,16.55-0.3,24.65-1.5
		c1.267-0.167,2.517-0.417,3.75-0.75c1.133-0.267,2.283-0.4,3.45-0.4c8.533,0,17.083,0.134,25.65,0.4c0.9,0.033,1.8,0.116,2.7,0.25
		c0.867,0.133,1.683,0.333,2.45,0.6c1,0.334,1.95,0.767,2.85,1.3c2.5,1.4,5.1,2.301,7.8,2.7c2.167,0.334,4.3,0.834,6.4,1.5
		c11.233,3.601,21.917,8.25,32.05,13.95c2.2,1.233,4.434,2.366,6.7,3.4c10.433,4.6,21.033,8.783,31.8,12.55
		c5.033,1.767,10.117,3,15.25,3.7c1.733,0.233,3.483,0.35,5.25,0.35c10.125,0,20.208,0.517,30.25,1.55
		c9.146,0.147,17.963-1.536,26.45-5.05c4.533-1.866,9.233-2.833,14.1-2.9c3.767-0.033,7.184-0.8,10.25-2.3
		c1.434-0.7,3.017-1.166,4.75-1.399c5.301-0.634,10.634-1,16-1.101c10.9-0.2,21.801-0.3,32.7-0.3c5.9,0,11.8,0.1,17.7,0.3
		c2.066,0.066,4.1,0.367,6.1,0.9c11.167,2.833,21.483,7.8,30.95,14.899c1,0.767,2.017,1.434,3.05,2
		c1.034,0.601,2.117,1.084,3.25,1.45c6.134,1.967,12.367,3.566,18.7,4.8c1.434,0.267,2.884,0.417,4.351,0.45
		c7.066,0.2,13.933-1.083,20.6-3.85c3.1-1.267,6.25-2.417,9.45-3.45c6.934-2.2,12.25-5.083,15.95-8.65c11.5,0,23,0,34.5,0
		c11.8,0,23.6-0.133,35.399-0.399c6.867-0.167,13.367,0.55,19.5,2.149c5.5,1.467,11.117,2.567,16.851,3.301
		c1.166,0.166,2.316,0.366,3.449,0.6c0.334,0.066,0.667,0.15,1,0.25c0.834,0.2,1.684,0.35,2.551,0.45
		c0.601,0.072,1.218,0.23,1.85,0.475v45.375c-8.3,0-15.983,0-23.05,0c-11.5,0-23.017,0-34.55,0c-11.2,0-22.4,0-33.601,0
		c-6.2,0-12.399,0-18.6,0c-10.3,0-20.617,0-30.95,0c-12.667,0-25.35,0-38.05,0c-9.733,0-19.467,0-29.2,0c-13.267,0-26.55,0-39.85,0
		C547.509,318.55,542.866,318.55,538.225,318.55z"/>
	<linearGradient id="SVGID_2_" gradientUnits="userSpaceOnUse" x1="399.9995" y1="315.875" x2="399.9995" y2="393.725">
		<stop  offset="0" style="stop-color:#14344C"/>
		<stop  offset="1" style="stop-color:#001C26"/>
	</linearGradient>
	<path fill-rule="evenodd" clip-rule="evenodd" fill="url(#SVGID_2_)" d="M538.225,318.55c4.642,0,9.284,0,13.926,0
		c13.3,0,26.583,0,39.85,0c9.733,0,19.467,0,29.2,0c12.7,0,25.383,0,38.05,0c10.333,0,20.65,0,30.95,0c6.2,0,12.399,0,18.6,0
		c11.2,0,22.4,0,33.601,0c11.533,0,23.05,0,34.55,0c7.066,0,14.75,0,23.05,0V400H0v-15.05c10.691,0.001,21.042-2.016,31.05-6.05
		c5.434-2.2,11-3.517,16.7-3.95c1.8-0.134,3.567-0.384,5.3-0.75c4.333-0.934,8.767-1.367,13.3-1.3c1.5,0.033,2.983,0,4.45-0.101
		c11.767-0.767,23.567-1.149,35.4-1.149c2.367,0,4.716,0.083,7.05,0.25c2.133,0.133,4.217,0.566,6.25,1.3
		c1.167,0.434,2.333,0.8,3.5,1.1c6.333,1.601,12.8,3.15,19.4,4.65c0.633,0.133,1.267,0.283,1.9,0.45
		c6.1,1.566,12.567,2.283,19.4,2.149c7.966-0.133,15.933-0.333,23.9-0.6c0.3,0,0.566-0.417,0.8-1.25l-0.025-0.025
		c-10.514,0.362-20.822-0.479-30.925-2.524c-10.1-2.034-20.133-4.417-30.1-7.15c-11.033-3-22.217-5.366-33.55-7.1
		c-11.466-1.767-22.95-3.101-34.45-4c-10.3-0.801-20.65-1.067-31.05-0.801c-7.066,0.167-14.117,0.551-21.15,1.15
		c-2.401,0.218-4.784,0.593-7.15,1.125V339.15c10.021,0.433,20.055,0.649,30.1,0.649c0.3-0.3,0.6-0.483,0.9-0.55
		c1.167-0.233,2.333-0.384,3.5-0.45c11.667-0.8,23.467-1.116,35.4-0.95c5.9,0.101,11.8,0.284,17.7,0.551
		c8.6,0.399,17.167,1.35,25.7,2.85c11.067,1.934,22.267,2.95,33.6,3.05c11.867,0.066,23.667-0.333,35.4-1.2
		c2.067-0.133,4.1-0.416,6.1-0.85c6.934-1.434,14.033-2.066,21.3-1.9c10.333,0.2,20.667,0.301,31,0.301
		c1.167-0.267,2.3-0.617,3.4-1.051c1.433-0.566,3.267-0.983,5.5-1.25c2.033-0.233,4.083-0.433,6.15-0.6
		c1.467-0.1,2.933-0.217,4.4-0.35c7.934-0.7,15.9-1.067,23.9-1.101c5.9-0.033,11.8,0.084,17.7,0.351
		c15.167,0.733,30.5,0.983,46,0.75c10.333-0.167,20.667-0.117,31,0.149c24.434,0.601,48.917,0.816,73.45,0.65
		c15.033-0.134,30.066-0.084,45.1,0.149c14.267,0.233,28.434-0.116,42.5-1.05c3.867-0.267,7.7-0.533,11.5-0.8
		c6.5-0.434,12.983-0.816,19.45-1.15c1.8-0.066,3.583-0.25,5.35-0.55c4.801-0.833,9.801-1.467,15-1.899
		c1.5-0.134,2.934-0.367,4.301-0.7c1-0.233,1.966-0.4,2.899-0.5c4.634-0.5,9.316-0.717,14.05-0.65
		c3.434,0.033,6.684-0.316,9.75-1.05c3.634-0.9,7.45-1.583,11.45-2.05c0.634-0.066,1.233-0.084,1.8-0.05
		c1.267,0.033,1.851-0.434,1.75-1.4c-1.699-0.5-3.449-0.917-5.25-1.25c-0.3-0.033-0.6-0.066-0.899-0.1
		c-7.4-0.267-14.783-0.4-22.15-0.4c-11.8,0-23.6-0.134-35.399-0.4c-1.467-0.033-2.917-0.017-4.351,0.051
		c-6.533,0.333-12.733-0.483-18.6-2.45C546.452,320.63,542.377,319.497,538.225,318.55z M380.175,364.55
		c-1.056,0.021-2.097,0.139-3.125,0.351c-1.304,0.287-2.162,0.471-2.575,0.55c0.537-0.01,1.045-0.061,1.525-0.15
		c0.933-0.2,1.867-0.366,2.8-0.5C379.264,364.731,379.722,364.648,380.175,364.55z M708.8,339.8c-1.8,0.434-3.416,1.117-4.85,2.05
		c-0.601,0.4-1.334,0.667-2.2,0.801c-7.1,1.199-13.983,2.966-20.65,5.3c-1.3,0.467-2.666,0.8-4.1,1c-1.667,0.233-3.217,0.6-4.65,1.1
		c-5.366,1.934-10.916,3.184-16.649,3.75c-5.267,0.5-10.566,0.934-15.9,1.3c-1.467,0.134-2.95,0.284-4.45,0.45
		c-0.866,0.101-1.75,0.184-2.649,0.25c-1.667,0.101-3.217,0.55-4.65,1.351c-0.434,0.233-0.95,0.35-1.55,0.35
		c1.033,1.3,2.8,2.017,5.3,2.15c0.601,0.033,1.217,0.1,1.851,0.199c1.433,0.2,2.866,0.4,4.3,0.601c4.767,0.733,9.8,1.083,15.1,1.05
		c1.767-0.033,3.533,0,5.3,0.1c4.434,0.2,8.867,0.4,13.301,0.601c4.133,0.2,7.916-0.316,11.35-1.55c1-0.334,1.983-0.65,2.95-0.95
		c1.1-0.3,2.217-0.566,3.35-0.8c3.733-0.7,7.3-1.733,10.7-3.101c8.467-3.434,16.65-7.116,24.55-11.05c1.3-0.634,2.584-1.3,3.851-2
		c4.733-2.5,9.683-4.417,14.85-5.75c2.316-0.592,4.708-0.899,7.175-0.925c-9.94-0.226-19.698,0.3-29.274,1.575
		C716.884,338.217,712.767,338.934,708.8,339.8z M674.25,370.5c0.6-0.167,1.184-0.417,1.75-0.75c0.237-0.143,0.471-0.259,0.7-0.35
		c-3.33,0.373-6.53,1.006-9.601,1.899c-0.8,0.233-1.649,0.351-2.55,0.351c-2.733,0.033-5.383,0.267-7.95,0.699
		c-5.166,0.867-10.483,1.367-15.949,1.5c-11.2,0.301-22.4,0.567-33.601,0.801c-12,0.233-23.783-0.617-35.35-2.551
		c-1.8-0.3-3.601-0.6-5.4-0.899c-10.833-1.8-21.733-3.2-32.7-4.2c-1.767-0.134-3.533-0.316-5.3-0.55
		c-5.899-0.667-11.8-1.233-17.7-1.7c-11.566-0.866-23.083-2.083-34.55-3.65c-7.3-1-14.666-1.416-22.1-1.25
		c-10.634,0.2-21.25,0.284-31.851,0.25c-12.066-0.033-23.85,0.934-35.35,2.9c-1.7,0.3-3.25,0.65-4.65,1.05
		c-0.63,0.197-1.272,0.364-1.925,0.5c0.108,0,0.216,0,0.325,0c17.567-0.133,34.967,0.55,52.2,2.05c1.5,0.134,2.983,0.267,4.45,0.4
		c7.5,0.733,14.916,2.116,22.25,4.15c2.267,0.633,4.566,1.183,6.899,1.649c1.8,0.4,3.601,0.816,5.4,1.25
		c2.033,0.467,4.05,0.967,6.05,1.5c2.434,0.667,4.767,1.533,7,2.601c3.9,1.933,8.066,3.183,12.5,3.75c1.8,0.233,3.6,0.55,5.4,0.949
		c6.466,1.367,12.949,2.217,19.449,2.551c5.301,0.267,10.601,0.399,15.9,0.399c11.233,0,22.45,0,33.65,0
		c6.166,0,12.35,0.134,18.55,0.4c3.733,0.166,7.316-0.134,10.75-0.9c1.133-0.267,2.283-0.399,3.45-0.399
		c3.866,0.033,7.699-0.217,11.5-0.75c4.899-0.667,9.649-1.467,14.25-2.4c1.399-0.267,2.816-0.517,4.25-0.75
		c2.399-0.4,4.8-0.767,7.199-1.1c1.434-0.2,2.867-0.384,4.301-0.551c0.933-0.133,1.85-0.3,2.75-0.5
		c1.833-0.466,3.633-1.033,5.399-1.699c2-0.733,4.033-1.384,6.101-1.95c1.166-0.3,2.316-0.65,3.449-1.05
		c0.634-0.2,1.267-0.417,1.9-0.65c1.134-0.366,2.316-0.616,3.55-0.75c1.7-0.2,2.983-0.717,3.851-1.55
		C673.233,370.9,673.684,370.667,674.25,370.5z M362.8,380c0.6,0.033,1.2,0.1,1.8,0.2c5.1,0.934,10.4,1.434,15.9,1.5
		c7.7,0.1,14.467-0.934,20.3-3.101c0.634-0.199,1.117-0.533,1.45-1c0.934-1.199,2.25-1.916,3.95-2.149s2.866-0.917,3.5-2.05
		c-16.534,3.233-27.517,3.666-32.95,1.3c-1.333-0.566-2.733-0.983-4.2-1.25c-11.633-2-23.433-2.934-35.4-2.8
		c-5.6,0.066-11.2,0.233-16.8,0.5c-0.9,0.033-1.817,0.133-2.75,0.3c-6.7,1.267-13.217,3.3-19.55,6.1c-0.466,0.2-0.966,0.4-1.5,0.601
		c-4.7,1.733-9.433,3.233-14.2,4.5c-1.233,0.333-2.467,0.683-3.7,1.05c-0.8,0.233-1.633,0.434-2.5,0.6
		c-0.633,0.134-1.267,0.267-1.9,0.4c-0.533,0.133-1.067,0.283-1.6,0.45c-0.367,0.133-0.7,0.35-1,0.649h1.8
		c4.433,0,8.85-0.133,13.25-0.399c0.6-0.034,1.2-0.101,1.8-0.2c8.067-1.467,16.033-2.934,23.9-4.4c1.167-0.2,2.333-0.35,3.5-0.45
		c10.033-0.866,20.35-1.183,30.95-0.949C352.183,379.533,357.5,379.733,362.8,380z M328.3,355.75c11.1-1.5,22.3-2.184,33.6-2.05
		c4.185,0.059,8.368,0.109,12.55,0.149c-0.328-0.075-0.661-0.142-1-0.199c-0.6-0.101-1.217-0.2-1.85-0.301
		c-1.434-0.199-2.883-0.399-4.35-0.6c-2.833-0.434-5.783-0.733-8.85-0.9c-1.5-0.066-2.983-0.199-4.45-0.399
		c-0.867-0.101-1.633-0.351-2.3-0.75c-0.867-0.5-1.867-0.733-3-0.7c-7.1,0.267-14.183,0.533-21.25,0.8
		c-16.4,0.667-32.917,0.75-49.55,0.25c-9.1-0.3-17.934,0.417-26.5,2.15c-0.9,0.2-1.817,0.333-2.75,0.399
		c-7.033,0.601-13.817,2.117-20.35,4.551c-1.133,0.433-2.317,0.733-3.55,0.899c-6.934,0.967-13.717,2.167-20.35,3.601
		c-1.733,0.399-3.483,0.633-5.25,0.699c-5.6,0.2-11.2,0.301-16.8,0.301c-3.833,0-7.667,0-11.5,0c-1.167,0-2.25-0.233-3.25-0.7
		c-0.867-0.4-1.867-0.533-3-0.4c-3.433,0.434-6.7-0.017-9.8-1.35c-3.567-1.533-7.367-2.217-11.4-2.05
		c-1.967,0.066-2.567,0.1-1.8,0.1c0.1,0.733,0.717,1.283,1.85,1.65c1.133,0.366,2.283,0.733,3.45,1.1
		c7.9,2.634,15.566,5.017,23,7.15c0.633,0.199,1.233,0.316,1.8,0.35c3.533,0.233,7.083,0.35,10.65,0.35c11.5,0,23-0.066,34.5-0.199
		c6.5-0.067,12.983-0.233,19.45-0.5c2.367-0.101,4.717-0.267,7.05-0.5c11.567-1.233,23.083-2.884,34.55-4.95
		c7.933-1.4,15.917-2.75,23.95-4.05C310.633,358.25,319.467,356.95,328.3,355.75z"/>
	<path fill-rule="evenodd" clip-rule="evenodd" fill="#0A2B3F" d="M0,360.375c2.366-0.532,4.749-0.907,7.15-1.125
		c7.033-0.6,14.083-0.983,21.15-1.15c10.4-0.267,20.75,0,31.05,0.801c11.5,0.899,22.983,2.233,34.45,4
		c11.333,1.733,22.517,4.1,33.55,7.1c9.967,2.733,20,5.116,30.1,7.15c10.103,2.045,20.411,2.887,30.925,2.524l0.025,0.025
		c-0.233,0.833-0.5,1.25-0.8,1.25c-7.967,0.267-15.934,0.467-23.9,0.6c-6.833,0.134-13.3-0.583-19.4-2.149
		c-0.633-0.167-1.267-0.317-1.9-0.45c-6.6-1.5-13.066-3.05-19.4-4.65c-1.167-0.3-2.333-0.666-3.5-1.1
		c-2.033-0.733-4.117-1.167-6.25-1.3c-2.333-0.167-4.683-0.25-7.05-0.25c-11.833,0-23.633,0.383-35.4,1.149
		c-1.466,0.101-2.95,0.134-4.45,0.101c-4.533-0.067-8.967,0.366-13.3,1.3c-1.733,0.366-3.5,0.616-5.3,0.75
		c-5.7,0.434-11.267,1.75-16.7,3.95c-10.008,4.034-20.358,6.051-31.05,6.05V360.375z M708.8,339.8
		c3.967-0.866,8.084-1.583,12.351-2.149c9.576-1.275,19.334-1.801,29.274-1.575c-2.467,0.025-4.858,0.333-7.175,0.925
		c-5.167,1.333-10.116,3.25-14.85,5.75c-1.267,0.7-2.551,1.366-3.851,2c-7.899,3.934-16.083,7.616-24.55,11.05
		c-3.4,1.367-6.967,2.4-10.7,3.101c-1.133,0.233-2.25,0.5-3.35,0.8c-0.967,0.3-1.95,0.616-2.95,0.95
		c-3.434,1.233-7.217,1.75-11.35,1.55c-4.434-0.2-8.867-0.4-13.301-0.601c-1.767-0.1-3.533-0.133-5.3-0.1
		c-5.3,0.033-10.333-0.316-15.1-1.05c-1.434-0.2-2.867-0.4-4.3-0.601c-0.634-0.1-1.25-0.166-1.851-0.199
		c-2.5-0.134-4.267-0.851-5.3-2.15c0.6,0,1.116-0.116,1.55-0.35c1.434-0.801,2.983-1.25,4.65-1.351
		c0.899-0.066,1.783-0.149,2.649-0.25c1.5-0.166,2.983-0.316,4.45-0.45c5.334-0.366,10.634-0.8,15.9-1.3
		c5.733-0.566,11.283-1.816,16.649-3.75c1.434-0.5,2.983-0.866,4.65-1.1c1.434-0.2,2.8-0.533,4.1-1
		c6.667-2.334,13.551-4.101,20.65-5.3c0.866-0.134,1.6-0.4,2.2-0.801C705.384,340.917,707,340.233,708.8,339.8z M674.25,370.5
		c-0.566,0.167-1.017,0.4-1.35,0.7c-0.867,0.833-2.15,1.35-3.851,1.55c-1.233,0.134-2.416,0.384-3.55,0.75
		c-0.634,0.233-1.267,0.45-1.9,0.65c-1.133,0.399-2.283,0.75-3.449,1.05c-2.067,0.566-4.101,1.217-6.101,1.95
		c-1.767,0.666-3.566,1.233-5.399,1.699c-0.9,0.2-1.817,0.367-2.75,0.5c-1.434,0.167-2.867,0.351-4.301,0.551
		c-2.399,0.333-4.8,0.699-7.199,1.1c-1.434,0.233-2.851,0.483-4.25,0.75c-4.601,0.934-9.351,1.733-14.25,2.4
		c-3.801,0.533-7.634,0.783-11.5,0.75c-1.167,0-2.317,0.133-3.45,0.399c-3.434,0.767-7.017,1.066-10.75,0.9
		c-6.2-0.267-12.384-0.4-18.55-0.4c-11.2,0-22.417,0-33.65,0c-5.3,0-10.6-0.133-15.9-0.399c-6.5-0.334-12.983-1.184-19.449-2.551
		c-1.801-0.399-3.601-0.716-5.4-0.949c-4.434-0.567-8.6-1.817-12.5-3.75c-2.233-1.067-4.566-1.934-7-2.601
		c-2-0.533-4.017-1.033-6.05-1.5c-1.8-0.434-3.601-0.85-5.4-1.25c-2.333-0.467-4.633-1.017-6.899-1.649
		c-7.334-2.034-14.75-3.417-22.25-4.15c-1.467-0.134-2.95-0.267-4.45-0.4c-17.233-1.5-34.633-2.183-52.2-2.05
		c-0.109,0-0.217,0-0.325,0c0.653-0.136,1.295-0.303,1.925-0.5c1.4-0.399,2.95-0.75,4.65-1.05c11.5-1.967,23.283-2.934,35.35-2.9
		c10.601,0.034,21.217-0.05,31.851-0.25c7.434-0.166,14.8,0.25,22.1,1.25c11.467,1.567,22.983,2.784,34.55,3.65
		c5.9,0.467,11.801,1.033,17.7,1.7c1.767,0.233,3.533,0.416,5.3,0.55c10.967,1,21.867,2.4,32.7,4.2c1.8,0.3,3.601,0.6,5.4,0.899
		c11.566,1.934,23.35,2.784,35.35,2.551c11.2-0.233,22.4-0.5,33.601-0.801c5.466-0.133,10.783-0.633,15.949-1.5
		c2.567-0.433,5.217-0.666,7.95-0.699c0.9,0,1.75-0.117,2.55-0.351c3.07-0.894,6.271-1.526,9.601-1.899
		c-0.229,0.091-0.463,0.207-0.7,0.35C675.434,370.083,674.85,370.333,674.25,370.5z M362.8,380c-5.3-0.267-10.617-0.467-15.95-0.6
		c-10.6-0.233-20.917,0.083-30.95,0.949c-1.167,0.101-2.333,0.25-3.5,0.45c-7.867,1.467-15.833,2.934-23.9,4.4
		c-0.6,0.1-1.2,0.166-1.8,0.2c-4.4,0.267-8.817,0.399-13.25,0.399h-1.8c0.3-0.3,0.633-0.517,1-0.649
		c0.533-0.167,1.067-0.317,1.6-0.45c0.633-0.134,1.267-0.267,1.9-0.4c0.867-0.166,1.7-0.366,2.5-0.6
		c1.233-0.367,2.467-0.717,3.7-1.05c4.767-1.267,9.5-2.767,14.2-4.5c0.534-0.2,1.034-0.4,1.5-0.601c6.333-2.8,12.85-4.833,19.55-6.1
		c0.933-0.167,1.85-0.267,2.75-0.3c5.6-0.267,11.2-0.434,16.8-0.5c11.967-0.134,23.767,0.8,35.4,2.8
		c1.467,0.267,2.867,0.684,4.2,1.25c5.433,2.366,16.417,1.934,32.95-1.3c-0.634,1.133-1.8,1.816-3.5,2.05s-3.017,0.95-3.95,2.149
		c-0.333,0.467-0.816,0.801-1.45,1c-5.833,2.167-12.6,3.2-20.3,3.101c-5.5-0.066-10.8-0.566-15.9-1.5
		C364,380.1,363.4,380.033,362.8,380z M328.3,355.75c-8.833,1.2-17.667,2.5-26.5,3.9c-8.033,1.3-16.017,2.649-23.95,4.05
		c-11.467,2.066-22.983,3.717-34.55,4.95c-2.333,0.233-4.683,0.399-7.05,0.5c-6.467,0.267-12.95,0.433-19.45,0.5
		c-11.5,0.133-23,0.199-34.5,0.199c-3.566,0-7.117-0.116-10.65-0.35c-0.566-0.033-1.167-0.15-1.8-0.35
		c-7.434-2.134-15.1-4.517-23-7.15c-1.167-0.366-2.317-0.733-3.45-1.1c-1.133-0.367-1.75-0.917-1.85-1.65
		c-0.767,0-0.167-0.033,1.8-0.1c4.033-0.167,7.833,0.517,11.4,2.05c3.1,1.333,6.367,1.783,9.8,1.35c1.133-0.133,2.133,0,3,0.4
		c1,0.467,2.083,0.7,3.25,0.7c3.833,0,7.667,0,11.5,0c5.6,0,11.2-0.101,16.8-0.301c1.767-0.066,3.517-0.3,5.25-0.699
		c6.633-1.434,13.417-2.634,20.35-3.601c1.233-0.166,2.417-0.467,3.55-0.899c6.533-2.434,13.317-3.95,20.35-4.551
		c0.933-0.066,1.85-0.199,2.75-0.399c8.566-1.733,17.4-2.45,26.5-2.15c16.633,0.5,33.15,0.417,49.55-0.25
		c7.067-0.267,14.15-0.533,21.25-0.8c1.133-0.033,2.133,0.2,3,0.7c0.667,0.399,1.434,0.649,2.3,0.75
		c1.466,0.2,2.95,0.333,4.45,0.399c3.067,0.167,6.017,0.467,8.85,0.9c1.467,0.2,2.917,0.4,4.35,0.6c0.633,0.101,1.25,0.2,1.85,0.301
		c0.339,0.058,0.672,0.124,1,0.199c-4.182-0.04-8.366-0.091-12.55-0.149C350.6,353.566,339.4,354.25,328.3,355.75z"/>
	<path fill-rule="evenodd" clip-rule="evenodd" fill="#5D314A" d="M0,186c0.853-2.37,2.252-4.57,4.2-6.6
		c1.033-1.033,2.017-2.1,2.95-3.2c2.367-2.833,4.867-5.65,7.5-8.45c1.167-1.233,2.25-2.533,3.25-3.9
		c0.767-0.967,1.517-1.95,2.25-2.95c3.467-4.533,6.583-9.167,9.35-13.9c1.2-2.1,2.767-4.017,4.7-5.75c1.1-0.967,2.167-1.95,3.2-2.95
		c2.967-2.8,5.6-5.783,7.9-8.95c2.034-2.867,4.567-5.367,7.6-7.5c1.033-0.7,1.917-1.55,2.65-2.55c1.633-2.167,3.434-3.667,5.4-4.5
		c4.333-1.833,8.5-3.833,12.5-6c0.566-0.3,1.167-0.483,1.8-0.55c4.1-0.5,8.2-0.983,12.3-1.45c1.9-0.233,3.517,0.3,4.85,1.6
		c1.233,1.167,2.6,2.15,4.1,2.95c4.767,2.533,9.783,4.583,15.05,6.15c2.333,0.7,4.55,1.583,6.65,2.65c2.6,1.3,5.15,2.733,7.65,4.3
		c2.233,1.4,4.45,2.8,6.65,4.2c1.933,1.233,3.817,2.533,5.65,3.9c9,6.7,18.117,13.217,27.35,19.55c2.667,1.8,5.283,3.633,7.85,5.5
		c1.533,1.133,3.066,2.233,4.6,3.3c1.433,1,2.85,1.967,4.25,2.9c1.6,1.1,3.183,2.117,4.75,3.05c0.433,0.267,0.933,0.4,1.5,0.4
		c6.433-0.067,12.316-2.167,17.65-6.3c5.8-4.467,12.283-6.267,19.45-5.4c0.967,0.133,1.817,0.55,2.55,1.25
		c8.6,8.133,18.117,15.117,28.55,20.95c3.167,1.733,6.133,3.8,8.9,6.2c3.833,3.267,7.967,6.183,12.4,8.75
		c10.2,5.966,20.283,12.066,30.25,18.3c1.9,1.2,3.833,2.35,5.8,3.45c5.023,2.773,10.282,4.757,15.775,5.95
		c1.149-0.925,2.224-2.041,3.225-3.351c4.1-5.434,8.617-10.366,13.55-14.8c1.4-1.233,2.75-2.517,4.05-3.85
		c1.066-1,2.1-2.033,3.1-3.1c1.333-1.333,2.65-2.7,3.95-4.1c1.267-1.4,2.667-2.617,4.2-3.65c1.333-0.9,2.267-1.75,2.8-2.55
		c2.3-3.467,5.233-5.417,8.8-5.85c2.033-0.267,4.083-0.467,6.15-0.6c7.967-0.6,15.583,0.217,22.85,2.45
		c3.666,1.133,7.283,2.367,10.85,3.7c3.5,1.333,6.983,2.65,10.45,3.95c5.8,2.233,11.517,4.65,17.15,7.25
		c5.166,2.434,10.416,4.633,15.75,6.6c8.733,3.267,17.517,6.4,26.35,9.4c5.134,1.767,10.2,3.699,15.2,5.8
		c10.1,4.267,20.066,8.816,29.899,13.649c1.9,0.934,3.801,1.867,5.7,2.801c3.934,2,7.434,3.433,10.5,4.3
		c2.834,0.833,5.3,0.233,7.4-1.8c2.1-2.034,4.383-3.834,6.85-5.4c3.434-2.2,6.65-4.616,9.65-7.25c1.166-1.033,2.6-1.366,4.3-1
		c2.925,0.552,5.45,2.052,7.575,4.5c3.129-3.632,6.737-6.998,10.825-10.1c9.199-7.034,18.633-13.817,28.3-20.351
		c2.8-1.9,5.633-3.716,8.5-5.45c2.467-1.5,4.95-2.95,7.45-4.35c4.1-2.333,7.666-5.2,10.699-8.6c4.4-5,9.667-6.017,15.801-3.05
		c3.133,1.5,6.466,2.55,10,3.15c10.6,1.767,20.966,4.283,31.1,7.55c5.066,1.6,10.083,3.367,15.05,5.3
		c3.834,1.5,7.65,3.033,11.45,4.6c1.134,0.466,2.25,0.917,3.35,1.35c0.367,0.133,0.733,0.3,1.101,0.5
		c1.967,1.167,4.217,1.333,6.75,0.5c1.633-0.5,3.166-1.216,4.6-2.15c4.3-2.733,8.533-5.85,12.7-9.35c1.3-1.1,2.6-2.2,3.9-3.3
		c2-1.667,4.183-2.95,6.55-3.85c0.533-0.2,1.083-0.316,1.649-0.35c7.733-0.566,14.784,0.7,21.15,3.8c1.3,0.633,2.2,2.05,2.7,4.25
		c0.166,0.667,0.616,1.383,1.35,2.15c0.297,0.337,1.705,1.112,4.226,2.325c0.261,0.125,0.503,0.242,0.725,0.35v1.175v0.175v79.4
		c-0.632-0.244-1.249-0.402-1.85-0.475c-0.867-0.101-1.717-0.25-2.551-0.45c-0.333-0.1-0.666-0.184-1-0.25
		c-1.133-0.233-2.283-0.434-3.449-0.6c-5.733-0.733-11.351-1.834-16.851-3.301c-6.133-1.6-12.633-2.316-19.5-2.149
		c-11.8,0.267-23.6,0.399-35.399,0.399c-11.5,0-23,0-34.5,0c-3.7,3.567-9.017,6.45-15.95,8.65c-3.2,1.033-6.351,2.184-9.45,3.45
		c-6.667,2.767-13.533,4.05-20.6,3.85c-1.467-0.033-2.917-0.184-4.351-0.45c-6.333-1.233-12.566-2.833-18.7-4.8
		c-1.133-0.366-2.216-0.85-3.25-1.45c-1.033-0.566-2.05-1.233-3.05-2c-9.467-7.1-19.783-12.066-30.95-14.899
		c-2-0.533-4.033-0.834-6.1-0.9c-5.9-0.2-11.8-0.3-17.7-0.3c-10.899,0-21.8,0.1-32.7,0.3c-5.366,0.101-10.699,0.467-16,1.101
		c-1.733,0.233-3.316,0.699-4.75,1.399c-3.066,1.5-6.483,2.267-10.25,2.3c-4.866,0.067-9.566,1.034-14.1,2.9
		c-8.487,3.514-17.304,5.197-26.45,5.05c-10.042-1.033-20.125-1.55-30.25-1.55c-1.767,0-3.517-0.116-5.25-0.35
		c-5.133-0.7-10.217-1.934-15.25-3.7c-10.767-3.767-21.367-7.95-31.8-12.55c-2.267-1.034-4.5-2.167-6.7-3.4
		c-10.133-5.7-20.816-10.35-32.05-13.95c-2.1-0.666-4.233-1.166-6.4-1.5c-2.7-0.399-5.3-1.3-7.8-2.7c-0.9-0.533-1.85-0.966-2.85-1.3
		c-0.767-0.267-1.583-0.467-2.45-0.6c-0.9-0.134-1.8-0.217-2.7-0.25c-8.566-0.267-17.117-0.4-25.65-0.4
		c-1.167,0-2.316,0.134-3.45,0.4c-1.233,0.333-2.483,0.583-3.75,0.75c-8.1,1.2-16.317,1.7-24.65,1.5c-0.6,0-1.183,0.066-1.75,0.2
		c-3.233,0.633-6.483,1.116-9.75,1.449c-0.9,0.067-1.767,0.217-2.6,0.45c-4.5,1.2-9.267,2.184-14.3,2.95
		c-1.133,0.167-2.217,0.434-3.25,0.8c-1.6,0.533-3.2,0.884-4.8,1.05c-5.5,0.7-11.05,1.051-16.65,1.051
		c-1.767,0-3.517-0.134-5.25-0.4c-2.1-0.3-4.2-0.533-6.3-0.7c-4.133-0.3-7.967-1.083-11.5-2.35c-4.333-1.566-8.783-2.95-13.35-4.15
		c-2-0.533-4-1.066-6-1.6c-2.4-0.634-4.783-1.4-7.15-2.3c-2.367-0.867-4.767-1.667-7.2-2.4c-2.567-0.733-5.15-1.517-7.75-2.35
		c-10.133-3.233-20.5-5.034-31.1-5.4c-11.967-0.366-23.45,1.6-34.45,5.9c-10.667,4.199-21.583,7.733-32.75,10.6
		c-5.502,1.438-11.119,2.046-16.85,1.825V212.35H0V186z"/>
</g>
</svg>
