<?xml version="1.0" encoding="utf-8"?>
<!-- Generator: Adobe Illustrator 16.0.4, SVG Export Plug-In . SVG Version: 6.00 Build 0)  -->
<!DOCTYPE svg PUBLIC "-//W3C//DTD SVG 1.1//EN" "http://www.w3.org/Graphics/SVG/1.1/DTD/svg11.dtd">
<svg version="1.1" id="city1" xmlns="http://www.w3.org/2000/svg" xmlns:xlink="http://www.w3.org/1999/xlink" x="0px" y="0px"
	 width="720px" height="405px" viewBox="0 0 720 405" enable-background="new 0 0 720 405" xml:space="preserve">
<g>
	<linearGradient id="SVGID_1_" gradientUnits="userSpaceOnUse" x1="358.8623" y1="133.9751" x2="360.6132" y2="5.3671">
		<stop  offset="0" style="stop-color:#FFCC33"/>
		<stop  offset="1" style="stop-color:#ABFCFC"/>
	</linearGradient>
	<polygon fill="url(#SVGID_1_)" points="29.9,65.6 38,62 104,124 108.2,122.9 110.85,119.9 142,92 164.2,108.5 191.5,125 
		198.65,122.5 209.6,117 234.5,109 280.383,115.276 285.05,104 319,89.95 352.95,104 357.277,114.456 388.25,101.5 410.55,86.7 
		423.85,80 434.95,81.8 442.1,84.2 483.7,102.8 502.35,107 521.908,99.485 539.85,64.25 563.95,27.7 588.35,13 597.925,22.1 
		640.4,77 661.437,99.172 670.85,92 683.3,93.25 710.95,101 719.95,104.45 719.95,0.05 0,0.05 0,86.264 18.45,75.45 	"/>
	<polygon fill="#FAAE1D" points="357.277,114.456 352.95,104 319,89.95 285.05,104 280.383,115.276 336.85,123 	"/>
	<polygon fill="#E3DC76" points="683.3,93.25 670.85,92 661.437,99.172 668.062,106.154 	"/>
	<polygon fill="#E3DC76" points="101.35,123.95 115.723,132.929 133.5,121 190.5,156 217.05,141 241.55,122 244,122 248.9,125.2 
		260,130 261.95,128.5 265.5,127 320.85,147 338,144.5 355.55,136.425 356.475,136.25 359.9,139 363.35,141 371.05,137.25 
		384.85,127 393.15,119.15 393.65,118.525 407,109 422.85,93 423.7,93.825 427.55,88.4 434.95,81.8 423.85,80 410.55,86.7 
		388.25,101.5 357.277,114.456 336.85,123 280.383,115.276 234.5,109 209.6,117 198.65,122.5 191.5,125 164.2,108.5 142,92 
		110.85,119.9 108.2,122.9 104,124 38,62 29.9,65.6 18.45,75.45 18.9,75.55 30.65,82.35 58.446,117.095 74.5,113 	"/>
	<polygon fill="#90B2E0" points="502.35,107 483.7,102.8 442.1,84.2 434.95,81.8 427.55,88.4 423.7,93.825 422.85,93 407,109 
		393.65,118.525 393.15,119.15 384.85,127 371.05,137.25 363.35,141 359.9,139 356.475,136.25 355.55,136.425 338,144.5 320.85,147 
		265.5,127 261.95,128.5 260,130 248.9,125.2 244,122 241.55,122 217.05,141 190.5,156 133.5,121 115.723,132.929 174.5,169.65 
		200.5,180.65 211.3,176.7 226.9,167.6 264.5,155.2 315.6,173.5 343.85,190.55 412,131.55 443.35,110.05 453.25,108.05 
		465.45,113.6 471.725,117.225 501.612,139.344 521.908,99.485 	"/>
	<polygon fill="#90B2E0" points="683.3,93.25 668.062,106.154 701.075,140.95 701.85,141 722.95,124.823 722.95,105.6 
		719.95,104.45 710.95,101 	"/>
	<polygon fill="#90B2E0" points="50.975,119 58.446,117.095 30.65,82.35 18.9,75.55 18.45,75.45 0,86.264 -1,86.85 -1,138.665 	"/>
	<polygon fill="#90B2E0" points="618.636,181 618.906,181.1 722.95,181.1 722.95,181 	"/>
	<polygon fill="#E3D076" points="537.85,114 544.3,100.4 553.85,86 554.85,87 554.85,92 556.85,92 560.85,88 561,89.4 561.85,90 
		564.3,79.45 568.85,68 580.85,45 586.05,37.7 592.7,30.15 597.925,22.1 588.35,13 563.95,27.7 539.85,64.25 521.908,99.485 
		501.612,139.344 516.808,150.591 534.85,111 	"/>
	<polygon fill="#E3D076" points="701.85,141 701.075,140.95 704.9,148.65 707.55,152.15 707.85,157 732.35,139.175 731.85,118 
		722.95,124.823 	"/>
	<polygon fill="#6694D2" points="707.85,157 707.55,152.15 704.9,148.65 701.075,140.95 668.062,106.154 661.437,99.172 640.4,77 
		597.925,22.1 592.7,30.15 586.05,37.7 580.85,45 568.85,68 564.3,79.45 561.85,90 561,89.4 560.85,88 556.85,92 554.85,92 
		554.85,87 553.85,86 544.3,100.4 537.85,114 534.85,111 516.808,150.591 524.05,155.95 565.85,180.35 589.85,170.35 618.636,181 
		722.95,181 733.85,181 732.35,139.175 	"/>
	<polygon fill="#6694D2" points="618.906,181.1 668.775,199.55 671.85,200.2 704.65,197 724.95,192.95 724.95,221.2 733.85,221.2 
		733.85,181.1 722.95,181.1 	"/>
	<polygon fill="#E3B276" points="453.25,108.05 443.35,110.05 412,131.55 343.85,190.55 315.6,173.5 264.5,155.2 226.9,167.6 
		211.3,176.7 200.5,180.65 174.5,169.65 115.723,132.929 101.35,123.95 74.5,113 58.446,117.095 50.975,119 58,119 104,156 
		104.9,155.4 105,154 112.45,158.45 117,164 118.2,163.2 119,162 156.643,183.133 158,180 163,180 164.301,187.432 176,194 
		185.472,201 220,201 219.3,196.65 217,192 227,191 228,175 240,174 241.251,185.883 244.05,182.5 254,179.5 256.5,182 257.191,182 
		259.75,180.55 261.8,178.85 270,177.5 277.3,183.25 281.825,189.525 284.35,190.55 288.725,191.775 294.85,190 358.85,216 
		372.9,208.65 392.4,192.7 416.85,161 418.3,162.4 420.85,163 438.65,145.7 452.85,125 453.85,125 455.15,127.3 457.35,129 
		465.95,123.15 471.725,117.225 465.45,113.6 	"/>
	<polygon fill="#417AC6" points="1.2,210.25 8.7,204.75 12.85,195.65 12,185 19,185 19.15,189.5 20,194 26,194 26,168 35,168 
		35.15,173.75 36,178 41,178 40,167 45,167 44.15,159.75 44,152 51,152 50.55,162.6 52,172 54.75,173.5 58.9,174.05 64,184 71,184 
		71,164 79,164 85,190 94,190 94,178 103.5,177 108.6,180.45 108.65,188.4 109.5,197.15 117,203 148,203 148,192 155,192 155.4,186 
		156.643,183.133 119,162 118.2,163.2 117,164 112.45,158.45 105,154 104.9,155.4 104,156 58,119 50.975,119 -1,138.665 -4,139.8 
		-4,210.539 	"/>
	<polygon fill="#417AC6" points="164.301,187.432 166.675,201 185.472,201 176,194 	"/>
	<polygon fill="#417AC6" points="244.05,182.5 241.251,185.883 242,193 249,193 248.25,186.25 253,182 256.5,182 254,179.5 	"/>
	<polygon fill="#417AC6" points="694.15,248 692.85,248.025 692.85,248.525 	"/>
	<polygon fill="#417AC6" points="704.65,197 671.85,200.2 668.775,199.55 618.906,181.1 618.636,181 589.85,170.35 565.85,180.35 
		524.05,155.95 516.808,150.591 501.612,139.344 471.725,117.225 465.95,123.15 457.35,129 455.15,127.3 453.85,125 452.85,125 
		438.65,145.7 420.85,163 418.3,162.4 416.85,161 392.4,192.7 372.9,208.65 358.85,216 294.85,190 288.725,191.775 284.35,190.55 
		281.825,189.525 277.3,183.25 270,177.5 261.8,178.85 259.75,180.55 257.191,182 258,182 265,221 272,221 272,207 271,205.75 
		270,203 271.25,202 274,201 281.85,201 283.85,211 293.85,211 291.85,203 291.85,197 301.85,197 303.85,222 310.85,222 
		310.9,218.6 312.85,214 315.85,214 319.85,240 329.75,238.45 335.85,248 353.85,248 353.85,241 361.85,240 362.9,259.1 
		374.6,264.4 383.05,264.125 382.4,259.45 379.85,250 389.85,250 388.85,226 402.85,226 403.85,251 412.85,251 412.85,237 
		419.85,237 420.75,243 420.85,249 424.85,249 424.85,257 432.85,257 432.85,241 444.85,241 579.375,253.675 577.875,254 
		582.425,253.9 582.85,254 582.85,253.875 591.15,252.45 594.8,249.15 599.15,246.3 614.85,246 641.2,242 643.15,236.3 643.85,230 
		648.85,230 650.85,239 657.85,239 657.85,233 662.85,233 663.75,239 663.85,245 668.85,245 672.85,239.1 677.85,239 678.75,244.9 
		679.7,247.5 683.8,248.1 692.85,248.025 692.85,248 709.85,246.05 724.95,246.006 724.95,221.2 724.95,192.95 	"/>
	<polygon fill="#295FA8" points="709.85,246.05 692.85,248 692.85,248.025 694.15,248 692.85,248.525 692.85,248.025 683.8,248.1 
		679.7,247.5 678.75,244.9 677.85,239 672.85,239.1 668.85,245 663.85,245 663.75,239 662.85,233 657.85,233 657.85,239 650.85,239 
		648.85,230 643.85,230 643.15,236.3 641.2,242 614.85,246 599.15,246.3 594.8,249.15 591.15,252.45 582.85,253.875 582.85,254 
		582.425,253.9 577.875,254 579.375,253.675 444.85,241 432.85,241 432.85,257 424.85,257 424.85,249 420.85,249 420.75,243 
		419.85,237 412.85,237 412.85,251 403.85,251 402.85,226 388.85,226 389.85,250 379.85,250 382.4,259.45 383.05,264.125 
		374.6,264.4 362.9,259.1 361.85,240 353.85,241 353.85,248 335.85,248 329.75,238.45 319.85,240 315.85,214 312.85,214 
		310.9,218.6 310.85,222 303.85,222 301.85,197 291.85,197 291.85,203 293.85,211 283.85,211 281.85,201 274,201 271.25,202 
		270,203 271,205.75 272,207 272,221 265,221 258,182 257.191,182 256.5,182 253,182 248.25,186.25 249,193 242,193 
		241.251,185.883 240,174 228,175 227,191 217,192 219.3,196.65 220,201 185.472,201 166.675,201 164.301,187.432 163,180 158,180 
		156.643,183.133 155.4,186 155,192 148,192 148,203 117,203 109.5,197.15 108.65,188.4 108.6,180.45 103.5,177 94,178 94,190 
		85,190 79,164 71,164 71,184 64,184 58.9,174.05 54.75,173.5 52,172 50.55,162.6 51,152 44,152 44.15,159.75 45,167 40,167 41,178 
		36,178 35.15,173.75 35,168 26,168 26,194 20,194 19.15,189.5 19,185 12,185 12.85,195.65 8.7,204.75 1.2,210.25 -4,210.539 
		-6,210.65 -6,267 1,267 1,251 6,251 6,242 13,242 13,257 20,257 20,226 26,225 37,225 37,269 45,269 46.15,259.05 54,256 57,268 
		68.65,268.65 78,270 78,259 85,258 90,258 93,281 103,281 103,265 108,265 109.5,269.4 110,275 149,279 158,279 158,273 163,273 
		163.65,279 165,285 222,283 221.9,277.15 221,272 228,272 228,261 237,261 237,252 242,252 244,277 252,277 252.7,267.45 
		258.5,265 264.25,271.05 265,281 289.85,281 290.85,288 299.85,288 299.85,281 305.85,281 314.25,291.8 329.65,294.25 347.9,293.1 
		385.1,291.25 394.076,303.91 394.75,303.4 416.85,298 462.85,293 489.25,285.75 647.85,281.025 726.85,287.775 726.85,246 
		724.95,246.006 	"/>
	<polygon fill="#703495" points="726.85,368.838 645.85,367.923 645.85,371.85 653.85,371.85 653.85,372.091 726.85,368.894 
		727.85,368.85 	"/>
	<polygon fill="#703495" points="701.85,326 627.85,352 634.85,352 635.15,352.95 637.3,352 635.35,352 678.85,349 725.3,341.35 
		726.85,340.764 731.85,338.875 731.85,326 726.85,326 	"/>
	<polygon fill="#703495" points="-0.65,385.7 14,385.85 104,366 187,361 110,355 -6,364.802 -11,365.225 -11,383.4 -6,384.512 	"/>
	<polygon fill="#703495" points="560.85,366.85 564.8,366.85 561.9,365.9 	"/>
	<polygon fill="#703495" points="58.9,399 57,400.85 62.175,398.8 	"/>
	<polygon fill="#703495" points="85,382.35 120.325,382.35 150,377.8 304.8,371.2 203,366 126.6,369.7 82.375,382.975 85,382.85 	
		"/>
	<polygon fill="#703495" points="66.325,392.8 66.075,392.975 69.525,392.75 	"/>
	<polygon fill="#703495" points="421.85,386.85 444.15,386.25 500.85,376.85 481.3,369.7 465.35,366.85 417.25,369.55 
		379.65,383.15 421.375,387.3 421.8,387.8 	"/>
	<polygon fill="#703495" points="584.35,368.85 598.85,370.85 606.85,370.85 606.85,367.481 528.85,366.6 501.35,363.3 531.2,370.9 
		586.693,374.574 579.85,368.85 	"/>
	<polygon fill="#703495" points="319.85,363 319.85,363.15 341.4,361.2 377.85,350 411.85,337 351.55,337.3 293.85,343 245.425,356 
		263,356 292,362.6 	"/>
	<polygon fill="#703495" points="583.85,340 526.55,330.65 503.375,330 505.3,329.5 442.85,335 358.85,366.85 287.3,395.425 
		322.75,389.75 403.75,362.35 459.85,349 614.85,341.425 	"/>
	<polygon fill="#703495" points="506.55,329.05 505.3,329.5 507.85,330 	"/>
	<polygon fill="#703495" points="681.7,310.45 644.85,314 584.85,326 639.35,331 685.95,324.65 721.85,310 	"/>
	<linearGradient id="SVGID_2_" gradientUnits="userSpaceOnUse" x1="19.4316" y1="339.5996" x2="719.7066" y2="339.5996">
		<stop  offset="0" style="stop-color:#703495"/>
		<stop  offset="1" style="stop-color:#7152B4"/>
	</linearGradient>
	<polygon fill="url(#SVGID_2_)" points="-6,347.254 -8,347.4 -8,313.976 -11,314 -11,365.225 -6,364.802 	"/>
	<linearGradient id="SVGID_3_" gradientUnits="userSpaceOnUse" x1="19.4316" y1="306.8877" x2="719.7066" y2="306.8877">
		<stop  offset="0" style="stop-color:#703495"/>
		<stop  offset="1" style="stop-color:#7152B4"/>
	</linearGradient>
	<polygon fill="url(#SVGID_3_)" points="731.85,326 732.7,288.275 726.85,287.775 726.85,326 	"/>
	<linearGradient id="SVGID_4_" gradientUnits="userSpaceOnUse" x1="19.4316" y1="380.8623" x2="719.7066" y2="380.8623">
		<stop  offset="0" style="stop-color:#703495"/>
		<stop  offset="1" style="stop-color:#7152B4"/>
	</linearGradient>
	<polygon fill="url(#SVGID_4_)" points="726.85,368.838 727.85,368.85 726.85,368.894 726.85,413.85 -6,413.85 -6,384.512 
		-11,383.4 -11,422.85 731.85,422.85 731.85,338.875 726.85,340.764 	"/>
	<path fill="#295FA8" d="M647.85,281.025l-158.6,4.725l-26.4,7.25l-46,5l-22.1,5.4l-0.674,0.51l0.773,1.09l55-1l41.051,4h32.949
		v-0.075l54-2.925l-1-10h36l0.4,11.65l1.6,9.35h-289l-27,9L-6,347.254v17.548L110,355l77,6l-83,5l-90,19.85L-0.65,385.7L-6,384.512
		v29.338h732.85v-44.956l-73,3.197v9.759l-0.5,0.5l-44.5,1.5L592.7,379.6l-6.007-5.025L531.2,370.9L501.35,363.3l27.5,3.3l78,0.882
		V366h15v-9h5v8h6v-7l6,1v7h7v1.923l81,0.915v-28.074l-1.55,0.586L678.85,349l-43.5,3h1.95l-2.149,0.95L634.85,352h-7l74-26h25
		v-38.225L647.85,281.025z M263,356h-17.575l48.425-13l57.7-5.7l60.3-0.3l-34,13l-36.45,11.2l-21.55,1.95V363L292,362.6L263,356z
		 M126.6,369.7L203,366l101.8,5.2L150,377.8l-29.675,4.55H85v0.5l-2.625,0.125L126.6,369.7z M379.65,383.15l37.6-13.601l48.1-2.7
		l15.95,2.851l19.55,7.149l-56.699,9.4l-22.301,0.6l-0.05,0.95l-0.425-0.5L379.65,383.15z M66.325,392.8l3.2-0.05l-3.45,0.225
		L66.325,392.8z M58.9,399l3.275-0.2L57,400.85L58.9,399z M560.85,366.85l1.051-0.949l2.899,0.949H560.85z M459.85,349l-56.1,13.35
		l-81,27.4l-35.45,5.675l71.55-28.575l84-31.85l62.45-5.5l1.25-0.45l1.3,0.95l-2.55-0.5l-1.925,0.5l23.175,0.65l57.3,9.35l31,1.425
		L459.85,349z M685.95,324.65L639.35,331l-54.5-5l60-12l36.851-3.55L721.85,310L685.95,324.65z"/>
	<linearGradient id="SVGID_5_" gradientUnits="userSpaceOnUse" x1="19.4316" y1="347.4375" x2="719.7066" y2="347.4375">
		<stop  offset="0" style="stop-color:#703495"/>
		<stop  offset="1" style="stop-color:#7152B4"/>
	</linearGradient>
	<path fill="url(#SVGID_5_)" d="M647.85,281.025l-158.6,4.725l-26.4,7.25l-46,5l-22.1,5.4l-0.674,0.51l0.773,1.09l55-1l41.051,4
		h32.949v-0.075l54-2.925l-1-10h36l0.4,11.65l1.6,9.35h-289l-27,9L-6,347.254v17.548L110,355l77,6l-83,5l-90,19.85L-0.65,385.7
		L-6,384.512v29.338h732.85v-44.956l-73,3.197v9.759l-0.5,0.5l-44.5,1.5L592.7,379.6l-6.007-5.025L531.2,370.9L501.35,363.3
		l27.5,3.3l78,0.882V366h15v-9h5v8h6v-7l6,1v7h7v1.923l81,0.915v-28.074l-1.55,0.586L678.85,349l-43.5,3h1.95l-2.149,0.95
		L634.85,352h-7l74-26h25v-38.225L647.85,281.025z M263,356h-17.575l48.425-13l57.7-5.7l60.3-0.3l-34,13l-36.45,11.2l-21.55,1.95
		V363L292,362.6L263,356z M126.6,369.7L203,366l101.8,5.2L150,377.8l-29.675,4.55H85v0.5l-2.625,0.125L126.6,369.7z M379.65,383.15
		l37.6-13.601l48.1-2.7l15.95,2.851l19.55,7.149l-56.699,9.4l-22.301,0.6l-0.05,0.95l-0.425-0.5L379.65,383.15z M66.325,392.8
		l3.2-0.05l-3.45,0.225L66.325,392.8z M58.9,399l3.275-0.2L57,400.85L58.9,399z M560.85,366.85l1.051-0.949l2.899,0.949H560.85z
		 M459.85,349l-56.1,13.35l-81,27.4l-35.45,5.675l71.55-28.575l84-31.85l62.45-5.5l1.25-0.45l1.3,0.95l-2.55-0.5l-1.925,0.5
		l23.175,0.65l57.3,9.35l31,1.425L459.85,349z M685.95,324.65L639.35,331l-54.5-5l60-12l36.851-3.55L721.85,310L685.95,324.65z"/>
	<polygon fill="#1B2C95" points="-6,347.254 298.85,325 325.85,316 614.85,316 613.25,306.65 612.85,295 576.85,295 577.85,305 
		523.85,307.925 523.85,308 490.9,308 449.85,304 394.85,305 394.076,303.91 385.1,291.25 347.9,293.1 329.65,294.25 314.25,291.8 
		305.85,281 299.85,281 299.85,288 290.85,288 289.85,281 265,281 264.25,271.05 258.5,265 252.7,267.45 252,277 244,277 242,252 
		237,252 237,261 228,261 228,272 221,272 221.9,277.15 222,283 165,285 163.65,279 163,273 158,273 158,279 149,279 110,275 
		109.5,269.4 108,265 103,265 103,281 93,281 90,258 85,258 78,259 78,270 68.65,268.65 57,268 54,256 46.15,259.05 45,269 37,269 
		37,225 26,225 20,226 20,257 13,257 13,242 6,242 6,251 1,251 1,267 -6,267 -8,267 -8,313.976 -8,347.4 	"/>
	<polygon fill="#1B2C95" points="645.85,371.85 645.85,367.923 645.85,366 638.85,366 638.85,359 632.85,358 632.85,365 626.85,365 
		626.85,357 621.85,357 621.85,366 606.85,366 606.85,367.481 606.85,370.85 598.85,370.85 584.35,368.85 579.85,368.85 
		586.693,374.574 592.7,379.6 608.85,383.85 653.35,382.35 653.85,381.85 653.85,372.091 653.85,371.85 	"/>
</g>
</svg>
