<svg width="300" height="300" viewBox="0 0 300 300" fill="none" xmlns="http://www.w3.org/2000/svg">
<g clip-path="url(#clip0)">
<rect width="300" height="300" fill="white"/>
<path d="M136.286 31.2777C136.594 26.0446 141.681 16.8955 144.726 12.7085C148.192 5.77795 161.608 21.8295 161.608 27.0575C161.608 33.853 165.979 48.9805 170.423 54.5362C176.64 62.3075 181.19 71.9278 189.461 78.5449C192.633 81.0818 194.139 87.5568 196.683 90.7368C199.343 94.0621 202.122 101.149 202.122 105.555C202.122 128.228 204.119 154.237 194.995 174.767C186.882 193.02 179.141 217.733 160.763 227.943C147.243 235.454 104.471 230.959 99.2411 212.656C93.0008 190.815 101.303 170.554 105.806 150.29C107.931 140.726 120.945 125.959 127.845 119.06C137.366 109.539 141.814 93.7595 144.633 81.0771C147.306 69.046 140.86 58.9378 139.662 48.1589C138.987 42.086 135.889 38.0271 136.286 31.2777Z" fill="black" stroke="black" stroke-linecap="round" stroke-linejoin="round"/>
<path d="M140.922 218.827C140.922 246.533 144.539 277.862 138.389 304.92C136.654 312.557 135.857 320.716 135.857 328.554C135.857 330.897 134.214 340.461 132.481 336.994" stroke="black" stroke-width="5" stroke-linecap="round" stroke-linejoin="round"/>
</g>
<defs>
<clipPath id="clip0">
<rect width="300" height="300" fill="white"/>
</clipPath>
</defs>
</svg>
