<svg width="100" height="100" style="background-color: #FFF" xmlns="http://www.w3.org/2000/svg">
<g transform="translate(50 50)"><g transform="translate(0, 50)"><g transform="scale(0.8)"><line style="stroke: #000; stroke-width: 1; fill: none; vector-effect: non-scaling-stroke" x1="0" y1="0" x2="0" y2="-50"></line><g transform="translate(0, -50)"><circle style="stroke: #000; stroke-width: 1; fill: none; vector-effect: non-scaling-stroke" cx="0" cy="0" r="20"></circle><g transform="scale(0.5449329684260557)"><g transform="rotate(-16.034167258947953)"><line style="stroke: #000; stroke-width: 1; fill: none; vector-effect: non-scaling-stroke" x1="0" y1="0" x2="0" y2="-50"></line><g transform="translate(0, -50)"><circle style="stroke: #000; stroke-width: 1; fill: none; vector-effect: non-scaling-stroke" cx="0" cy="0" r="20"></circle><g transform="scale(0.5848132581984008)"><g transform="rotate(-25.23730821489032)"><line style="stroke: #000; stroke-width: 1; fill: none; vector-effect: non-scaling-stroke" x1="0" y1="0" x2="0" y2="-50"></line><g transform="translate(0, -50)"><circle style="stroke: #000; stroke-width: 1; fill: none; vector-effect: non-scaling-stroke" cx="0" cy="0" r="20"></circle><g transform="scale(0.6907556422870451)"><g transform="rotate(-2.4452422773079547)"><line style="stroke: #000; stroke-width: 1; fill: none; vector-effect: non-scaling-stroke" x1="0" y1="0" x2="0" y2="-50"></line><g transform="translate(0, -50)"><circle style="stroke: #000; stroke-width: 1; fill: none; vector-effect: non-scaling-stroke" cx="0" cy="0" r="20"></circle><g transform="scale(0.6966544935477277)"><g transform="rotate(-12.019737248237988)"><line style="stroke: #000; stroke-width: 1; fill: none; vector-effect: non-scaling-stroke" x1="0" y1="0" x2="0" y2="-50"></line><g transform="translate(0, -50)"><circle style="stroke: #000; stroke-width: 1; fill: none; vector-effect: non-scaling-stroke" cx="0" cy="0" r="20"></circle><g transform="scale(0.5165459945994763)"><g transform="rotate(-9.743910529360626)"><line style="stroke: #000; stroke-width: 1; fill: none; vector-effect: non-scaling-stroke" x1="0" y1="0" x2="0" y2="-50"></line><g transform="translate(0, -50)"><circle style="stroke: #000; stroke-width: 1; fill: none; vector-effect: non-scaling-stroke" cx="0" cy="0" r="20"></circle><g transform="scale(0.6577604000566162)"><g transform="rotate(19.289152504784568)"><line style="stroke: #000; stroke-width: 1; fill: none; vector-effect: non-scaling-stroke" x1="0" y1="0" x2="0" y2="-50"></line><g transform="translate(0, -50)"><circle style="stroke: #000; stroke-width: 1; fill: none; vector-effect: non-scaling-stroke" cx="0" cy="0" r="20"></circle><g transform="scale(0.7657238208623252)"><g transform="rotate(22.50783871230813)"><line style="stroke: #000; stroke-width: 1; fill: none; vector-effect: non-scaling-stroke" x1="0" y1="0" x2="0" y2="-50"></line><g transform="translate(0, -50)"><circle style="stroke: #000; stroke-width: 1; fill: none; vector-effect: non-scaling-stroke" cx="0" cy="0" r="20"></circle><g transform="scale(0.6221799521344641)"><g transform="rotate(-0.7915467005424475)"><line style="stroke: #000; stroke-width: 1; fill: none; vector-effect: non-scaling-stroke" x1="0" y1="0" x2="0" y2="-50"></line><g transform="translate(0, -50)"><circle style="stroke: #000; stroke-width: 1; fill: none; vector-effect: non-scaling-stroke" cx="0" cy="0" r="20"></circle></g></g></g></g></g></g></g></g></g><g transform="scale(0.5446011396733985)"><g transform="rotate(-26.2850885332994)"><line style="stroke: #000; stroke-width: 1; fill: none; vector-effect: non-scaling-stroke" x1="0" y1="0" x2="0" y2="-50"></line><g transform="translate(0, -50)"><circle style="stroke: #000; stroke-width: 1; fill: none; vector-effect: non-scaling-stroke" cx="0" cy="0" r="20"></circle><g transform="scale(0.5937901460419008)"><g transform="rotate(-38.82263742913178)"><line style="stroke: #000; stroke-width: 1; fill: none; vector-effect: non-scaling-stroke" x1="0" y1="0" x2="0" y2="-50"></line><g transform="translate(0, -50)"><circle style="stroke: #000; stroke-width: 1; fill: none; vector-effect: non-scaling-stroke" cx="0" cy="0" r="20"></circle></g></g></g></g></g></g></g></g></g></g></g></g></g></g></g><g transform="scale(0.5272574996229724)"><g transform="rotate(17.74002968219216)"><line style="stroke: #000; stroke-width: 1; fill: none; vector-effect: non-scaling-stroke" x1="0" y1="0" x2="0" y2="-50"></line><g transform="translate(0, -50)"><circle style="stroke: #000; stroke-width: 1; fill: none; vector-effect: non-scaling-stroke" cx="0" cy="0" r="20"></circle><g transform="scale(0.6000773195772716)"><g transform="rotate(18.18252825676364)"><line style="stroke: #000; stroke-width: 1; fill: none; vector-effect: non-scaling-stroke" x1="0" y1="0" x2="0" y2="-50"></line><g transform="translate(0, -50)"><circle style="stroke: #000; stroke-width: 1; fill: none; vector-effect: non-scaling-stroke" cx="0" cy="0" r="20"></circle></g></g></g><g transform="scale(0.403841228900862)"><g transform="rotate(2.9095793220836725)"><line style="stroke: #000; stroke-width: 1; fill: none; vector-effect: non-scaling-stroke" x1="0" y1="0" x2="0" y2="-50"></line><g transform="translate(0, -50)"><circle style="stroke: #000; stroke-width: 1; fill: none; vector-effect: non-scaling-stroke" cx="0" cy="0" r="20"></circle></g></g></g></g></g></g></g></g></g><g transform="scale(0.7607843379927027)"><g transform="rotate(13.815953841353625)"><line style="stroke: #000; stroke-width: 1; fill: none; vector-effect: non-scaling-stroke" x1="0" y1="0" x2="0" y2="-50"></line><g transform="translate(0, -50)"><circle style="stroke: #000; stroke-width: 1; fill: none; vector-effect: non-scaling-stroke" cx="0" cy="0" r="20"></circle><g transform="scale(0.7877565704996655)"><g transform="rotate(23.406370086743237)"><line style="stroke: #000; stroke-width: 1; fill: none; vector-effect: non-scaling-stroke" x1="0" y1="0" x2="0" y2="-50"></line><g transform="translate(0, -50)"><circle style="stroke: #000; stroke-width: 1; fill: none; vector-effect: non-scaling-stroke" cx="0" cy="0" r="20"></circle><g transform="scale(0.7121441205584003)"><g transform="rotate(-38.706353377778)"><line style="stroke: #000; stroke-width: 1; fill: none; vector-effect: non-scaling-stroke" x1="0" y1="0" x2="0" y2="-50"></line><g transform="translate(0, -50)"><circle style="stroke: #000; stroke-width: 1; fill: none; vector-effect: non-scaling-stroke" cx="0" cy="0" r="20"></circle><g transform="scale(0.5308547403425596)"><g transform="rotate(39.0399289684258)"><line style="stroke: #000; stroke-width: 1; fill: none; vector-effect: non-scaling-stroke" x1="0" y1="0" x2="0" y2="-50"></line><g transform="translate(0, -50)"><circle style="stroke: #000; stroke-width: 1; fill: none; vector-effect: non-scaling-stroke" cx="0" cy="0" r="20"></circle></g></g></g></g></g></g></g></g></g></g></g></g></g></g></g><g transform="scale(0.69448406358122)"><g transform="rotate(32.90719099411966)"><line style="stroke: #000; stroke-width: 1; fill: none; vector-effect: non-scaling-stroke" x1="0" y1="0" x2="0" y2="-50"></line><g transform="translate(0, -50)"><circle style="stroke: #000; stroke-width: 1; fill: none; vector-effect: non-scaling-stroke" cx="0" cy="0" r="20"></circle><g transform="scale(0.683733883412744)"><g transform="rotate(-37.015529708049584)"><line style="stroke: #000; stroke-width: 1; fill: none; vector-effect: non-scaling-stroke" x1="0" y1="0" x2="0" y2="-50"></line><g transform="translate(0, -50)"><circle style="stroke: #000; stroke-width: 1; fill: none; vector-effect: non-scaling-stroke" cx="0" cy="0" r="20"></circle></g></g></g></g></g></g></g></g></g></g></svg>
