<svg xmlns="http://www.w3.org/2000/svg" width="300" height="220" viewBox="0 0 300 220" xmlns:xlink="http://www.w3.org/1999/xlink" style="background:#fff">
  <defs>
    <rect id="a" width="164" height="82" x="5" y="4" rx="12"/>
    <filter id="b" width="109.1%" height="118.3%" x="-4.6%" y="-9.1%" filterUnits="objectBoundingBox">
      <feGaussianBlur stdDeviation="7" in="SourceAlpha" result="shadowBlurInner1"/>
      <feOffset dy="1" in="shadowBlurInner1" result="shadowOffsetInner1"/>
      <feComposite in="shadowOffsetInner1" in2="SourceAlpha" operator="arithmetic" k2="-1" k3="1" result="shadowInnerInner1"/>
      <feColorMatrix values="0 0 0 0 0.310665246 0 0 0 0 0.499155218 0 0 0 0 1 0 0 0 0.5 0" in="shadowInnerInner1"/>
    </filter>
    <rect id="c" width="82" height="82" x="5" y="4" rx="12"/>
    <filter id="d" width="118.3%" height="118.3%" x="-9.1%" y="-9.1%" filterUnits="objectBoundingBox">
      <feGaussianBlur stdDeviation="7" in="SourceAlpha" result="shadowBlurInner1"/>
      <feOffset dy="1" in="shadowBlurInner1" result="shadowOffsetInner1"/>
      <feComposite in="shadowOffsetInner1" in2="SourceAlpha" operator="arithmetic" k2="-1" k3="1" result="shadowInnerInner1"/>
      <feColorMatrix values="0 0 0 0 0.310665246 0 0 0 0 0.499155218 0 0 0 0 1 0 0 0 0.5 0" in="shadowInnerInner1"/>
    </filter>
    <rect id="e" width="82" height="82" x="4" y="4" rx="12"/>
    <filter id="f" width="118.3%" height="118.3%" x="-9.1%" y="-9.1%" filterUnits="objectBoundingBox">
      <feGaussianBlur stdDeviation="7" in="SourceAlpha" result="shadowBlurInner1"/>
      <feOffset dy="1" in="shadowBlurInner1" result="shadowOffsetInner1"/>
      <feComposite in="shadowOffsetInner1" in2="SourceAlpha" operator="arithmetic" k2="-1" k3="1" result="shadowInnerInner1"/>
      <feColorMatrix values="0 0 0 0 0.310665246 0 0 0 0 0.499155218 0 0 0 0 1 0 0 0 0.5 0" in="shadowInnerInner1"/>
    </filter>
    <path id="g" d="M132,4 L248,4 C261.254834,4 272,9.372583 272,16 L272,74 C272,80.627417 261.254834,86 248,86 L132,86 C118.745166,86 108,80.627417 108,74 L108,16 C108,9.372583 118.745166,4 132,4 Z"/>
    <filter id="h" width="109.1%" height="118.3%" x="-4.6%" y="-9.1%" filterUnits="objectBoundingBox">
      <feGaussianBlur stdDeviation="7" in="SourceAlpha" result="shadowBlurInner1"/>
      <feOffset dy="1" in="shadowBlurInner1" result="shadowOffsetInner1"/>
      <feComposite in="shadowOffsetInner1" in2="SourceAlpha" operator="arithmetic" k2="-1" k3="1" result="shadowInnerInner1"/>
      <feColorMatrix values="0 0 0 0 0.310665246 0 0 0 0 0.499155218 0 0 0 0 1 0 0 0 0.5 0" in="shadowInnerInner1"/>
    </filter>
  </defs>
  <g fill="none" fill-rule="evenodd">
    <g transform="translate(12 116)">
      <g transform="translate(104)">
        <path stroke="#B7B7B7" d="M-0.5,-0.5 L24.5,-0.5 L24.5,90.5 L-0.5,90.5 L-0.5,-0.5 Z"/>
        <rect width="173" height="25" x="-.5" y="-.5" stroke="#B7B7B7"/>
        <path stroke="#B7B7B7" d="M-0.5,65.5 L172.5,65.5 L172.5,90.5 L-0.5,90.5 L-0.5,65.5 Z"/>
        <path stroke="#B7B7B7" d="M147.5,-0.5 L172.5,-0.5 L172.5,90.5 L147.5,90.5 L147.5,-0.5 Z"/>
        <use fill="#7CAEFF" fill-opacity=".532" xlink:href="#a"/>
        <use fill="black" filter="url(#b)" xlink:href="#a"/>
        <text fill="#000000" font-family="Helvetica" font-size="8">
          <tspan x="10.275" y="15">1</tspan>
        </text>
        <text fill="#000000" font-family="Helvetica" font-size="8">
          <tspan x="10.275" y="49">4</tspan>
        </text>
        <text fill="#000000" font-family="Helvetica" font-size="8">
          <tspan x="10.275" y="81">7</tspan>
        </text>
        <text fill="#000000" font-family="Helvetica" font-size="8">
          <tspan x="84.275" y="15">2</tspan>
        </text>
        <text fill="#000000" font-family="Helvetica" font-size="8">
          <tspan x="84.275" y="49">5</tspan>
        </text>
        <text fill="#000000" font-family="Helvetica" font-size="8">
          <tspan x="84.275" y="81">8</tspan>
        </text>
        <text fill="#000000" font-family="Helvetica" font-size="8">
          <tspan x="158.275" y="15">3</tspan>
        </text>
        <text fill="#000000" font-family="Helvetica" font-size="8">
          <tspan x="158.275" y="49">6</tspan>
        </text>
        <text fill="#000000" font-family="Helvetica" font-size="8">
          <tspan x="158.275" y="81">9</tspan>
        </text>
      </g>
      <path stroke="#B7B7B7" d="M-0.5,-0.5 L24.5,-0.5 L24.5,90.5 L-0.5,90.5 L-0.5,-0.5 Z"/>
      <rect width="93" height="25" x="-.5" y="-.5" stroke="#B7B7B7"/>
      <path stroke="#B7B7B7" d="M-0.5,65.5 L92.5,65.5 L92.5,90.5 L-0.5,90.5 L-0.5,65.5 Z"/>
      <path stroke="#B7B7B7" d="M67.5,-0.5 L92.5,-0.5 L92.5,90.5 L67.5,90.5 L67.5,-0.5 Z"/>
      <g style="mix-blend-mode:multiply">
        <use fill="#7CAEFF" fill-opacity=".532" xlink:href="#c"/>
        <use fill="black" filter="url(#d)" xlink:href="#c"/>
      </g>
      <text fill="#000000" font-family="Helvetica" font-size="8">
        <tspan x="10.275" y="15">1</tspan>
      </text>
      <text fill="#000000" font-family="Helvetica" font-size="8">
        <tspan x="10.275" y="49">4</tspan>
      </text>
      <text fill="#000000" font-family="Helvetica" font-size="8">
        <tspan x="10.275" y="79">7</tspan>
      </text>
      <text fill="#000000" font-family="Helvetica" font-size="8">
        <tspan x="44.275" y="15">2</tspan>
      </text>
      <text fill="#000000" font-family="Helvetica" font-size="8">
        <tspan x="44.275" y="49">5</tspan>
      </text>
      <text fill="#000000" font-family="Helvetica" font-size="8">
        <tspan x="44.275" y="79">8</tspan>
      </text>
      <text fill="#000000" font-family="Helvetica" font-size="8">
        <tspan x="78.275" y="15">3</tspan>
      </text>
      <text fill="#000000" font-family="Helvetica" font-size="8">
        <tspan x="78.275" y="49">6</tspan>
      </text>
      <text fill="#000000" font-family="Helvetica" font-size="8">
        <tspan x="78.275" y="79">9</tspan>
      </text>
    </g>
    <g transform="translate(12 12)">
      <rect width="91" height="91" x="-.5" y="-.5" stroke="#B7B7B7"/>
      <rect width="173" height="91" x="103.5" y="-.5" stroke="#B7B7B7"/>
      <g style="mix-blend-mode:multiply">
        <use fill="#7CAEFF" fill-opacity=".532" xlink:href="#e"/>
        <use fill="black" filter="url(#f)" xlink:href="#e"/>
      </g>
      <g style="mix-blend-mode:multiply">
        <use fill="#7CAEFF" fill-opacity=".532" xlink:href="#g"/>
        <use fill="black" filter="url(#h)" xlink:href="#g"/>
      </g>
    </g>
  </g>
</svg>
