<svg width="200" height="200" viewBox="0 0 200 200" fill="none" xmlns="http://www.w3.org/2000/svg">
<g clip-path="url(#clip0_1_2)">
<rect width="200" height="200" fill="#F6F6F6"/>
<path d="M151.2 30.4C150.667 35.4667 150.267 40.4 150 45.2C149.867 49.8667 149.8 53.4667 149.8 56C149.8 59.2 149.867 62.2 150 65C150.133 67.8 150.267 70.2667 150.4 72.4H145.8C144.867 63.0667 143.6 55.7333 142 50.4C140.4 44.9333 137.6 41 133.6 38.6C129.6 36.2 123.4 35 115 35H102.4C97.8667 35 94.4 35.4 92 36.2C89.7333 36.8667 88.2 38.4 87.4 40.8C86.6 43.0667 86.2 46.6667 86.2 51.6V150.8C86.2 155.6 86.6667 159.2 87.6 161.6C88.6667 164 90.6667 165.6 93.6 166.4C96.5333 167.2 100.8 167.733 106.4 168V172C102.933 171.733 98.5333 171.6 93.2 171.6C87.8667 171.467 82.4667 171.4 77 171.4C71.8 171.4 66.9333 171.467 62.4 171.6C57.8667 171.6 54.2 171.733 51.4 172V168C55.9333 167.733 59.3333 167.2 61.6 166.4C64 165.6 65.6 164 66.4 161.6C67.2 159.2 67.6 155.6 67.6 150.8V51.6C67.6 46.6667 67.2 43.0667 66.4 40.8C65.6 38.4 64 36.8 61.6 36C59.3333 35.0667 55.9333 34.5333 51.4 34.4V30.4C56.3333 30.5333 61.5333 30.6667 67 30.8C72.4667 30.8 77.8667 30.8667 83.2 31C88.5333 31 93.4667 31 98 31C102.667 31 106.467 31 109.4 31C115.533 31 122.467 31 130.2 31C138.067 30.8667 145.067 30.6667 151.2 30.4ZM120.2 100.8C120.2 100.8 120.2 101.467 120.2 102.8C120.2 104.133 120.2 104.8 120.2 104.8H80.2C80.2 104.8 80.2 104.133 80.2 102.8C80.2 101.467 80.2 100.8 80.2 100.8H120.2ZM124 74.4C123.467 82 123.2 87.8 123.2 91.8C123.333 95.8 123.4 99.4667 123.4 102.8C123.4 106.133 123.467 109.8 123.6 113.8C123.733 117.8 124.067 123.6 124.6 131.2H120C119.467 126.933 118.8 122.8 118 118.8C117.333 114.667 115.733 111.333 113.2 108.8C110.8 106.133 106.667 104.8 100.8 104.8V100.8C105.2 100.8 108.533 99.9333 110.8 98.2C113.2 96.3333 114.933 94 116 91.2C117.067 88.4 117.8 85.5333 118.2 82.6C118.6 79.5333 119 76.8 119.4 74.4H124Z" fill="#CECECE"/>
<path d="M14.0683 121.934C13.7883 121.934 13.5283 121.891 13.2883 121.804C13.055 121.724 12.845 121.607 12.6583 121.454C12.6317 121.427 12.605 121.397 12.5783 121.364C12.5583 121.331 12.5417 121.294 12.5283 121.254C12.495 121.121 12.4717 120.947 12.4583 120.734C12.4517 120.521 12.4417 120.344 12.4283 120.204C12.4283 120.157 12.4483 120.124 12.4883 120.104C12.5283 120.077 12.575 120.064 12.6283 120.064C12.6617 120.064 12.695 120.074 12.7283 120.094C12.7617 120.107 12.7817 120.134 12.7883 120.174C12.9217 120.687 13.1183 121.054 13.3783 121.274C13.645 121.494 13.9217 121.604 14.2083 121.604C14.4417 121.604 14.6483 121.554 14.8283 121.454C15.0083 121.354 15.1483 121.214 15.2483 121.034C15.355 120.847 15.4083 120.631 15.4083 120.384C15.4083 120.111 15.3617 119.891 15.2683 119.724C15.1817 119.551 15.055 119.401 14.8883 119.274C14.7217 119.147 14.5183 119.011 14.2783 118.864C14.0183 118.697 13.7617 118.531 13.5083 118.364C13.255 118.191 13.045 117.994 12.8783 117.774C12.7117 117.547 12.6283 117.274 12.6283 116.954C12.6283 116.614 12.705 116.307 12.8583 116.034C13.0117 115.761 13.2417 115.544 13.5483 115.384C13.8617 115.217 14.2517 115.134 14.7183 115.134C14.9583 115.134 15.165 115.161 15.3383 115.214C15.5183 115.261 15.6617 115.307 15.7683 115.354C15.8217 115.374 15.865 115.407 15.8983 115.454C15.9383 115.501 15.965 115.551 15.9783 115.604C16.0183 115.744 16.0617 115.904 16.1083 116.084C16.155 116.264 16.1783 116.434 16.1783 116.594C16.1783 116.667 16.1283 116.704 16.0283 116.704C15.9683 116.704 15.9083 116.691 15.8483 116.664C15.795 116.637 15.7617 116.604 15.7483 116.564C15.6083 116.211 15.445 115.941 15.2583 115.754C15.0717 115.567 14.835 115.474 14.5483 115.474C14.3483 115.474 14.1617 115.511 13.9883 115.584C13.815 115.657 13.6717 115.777 13.5583 115.944C13.4517 116.111 13.3983 116.334 13.3983 116.614C13.3983 116.814 13.4617 116.997 13.5883 117.164C13.7217 117.324 13.895 117.477 14.1083 117.624C14.3217 117.771 14.5517 117.921 14.7983 118.074C15.0317 118.214 15.2583 118.367 15.4783 118.534C15.705 118.701 15.8883 118.901 16.0283 119.134C16.175 119.361 16.2483 119.641 16.2483 119.974C16.2483 120.367 16.1583 120.714 15.9783 121.014C15.7983 121.307 15.545 121.534 15.2183 121.694C14.8917 121.854 14.5083 121.934 14.0683 121.934ZM18.5668 121.914C18.2401 121.914 17.9834 121.814 17.7968 121.614C17.6168 121.414 17.5268 121.117 17.5268 120.724V118.404C17.5268 118.351 17.5068 118.314 17.4668 118.294C17.4268 118.267 17.3401 118.254 17.2068 118.254H17.1468C17.1134 118.254 17.0834 118.234 17.0568 118.194C17.0368 118.147 17.0268 118.101 17.0268 118.054C17.0268 118.041 17.0368 118.021 17.0568 117.994C17.0768 117.967 17.0901 117.951 17.0968 117.944C17.2301 117.851 17.3501 117.757 17.4568 117.664C17.5701 117.571 17.6701 117.481 17.7568 117.394C17.8501 117.301 17.9268 117.217 17.9868 117.144C18.0201 117.111 18.0468 117.084 18.0668 117.064C18.0934 117.037 18.1234 117.024 18.1568 117.024C18.1901 117.024 18.2201 117.031 18.2468 117.044C18.2801 117.057 18.2934 117.087 18.2868 117.134L18.2368 117.584C18.2301 117.657 18.2468 117.707 18.2868 117.734C18.3268 117.761 18.3901 117.774 18.4768 117.774H19.6168C19.6434 117.774 19.6668 117.797 19.6868 117.844C19.7068 117.884 19.7168 117.934 19.7168 117.994C19.7168 118.054 19.7068 118.114 19.6868 118.174C19.6668 118.227 19.6434 118.254 19.6168 118.254H18.6268C18.4601 118.254 18.3501 118.267 18.2968 118.294C18.2501 118.321 18.2268 118.401 18.2268 118.534V120.504C18.2268 120.771 18.2834 120.981 18.3968 121.134C18.5101 121.287 18.6734 121.364 18.8868 121.364C19.0801 121.364 19.2301 121.351 19.3368 121.324C19.4434 121.291 19.5401 121.244 19.6268 121.184C19.6401 121.171 19.6534 121.164 19.6668 121.164C19.6934 121.164 19.7101 121.181 19.7168 121.214C19.7301 121.241 19.7368 121.271 19.7368 121.304C19.7368 121.337 19.6801 121.404 19.5668 121.504C19.4601 121.604 19.3168 121.697 19.1368 121.784C18.9634 121.871 18.7734 121.914 18.5668 121.914ZM20.3113 121.804C20.2446 121.804 20.1946 121.794 20.1613 121.774C20.128 121.761 20.1113 121.734 20.1113 121.694C20.1113 121.641 20.1313 121.607 20.1713 121.594C20.2113 121.574 20.268 121.554 20.3413 121.534C20.468 121.501 20.5613 121.454 20.6213 121.394C20.688 121.327 20.7213 121.247 20.7213 121.154V119.004C20.7213 118.824 20.6946 118.667 20.6413 118.534C20.588 118.401 20.478 118.317 20.3113 118.284C20.2846 118.277 20.2613 118.261 20.2413 118.234C20.2213 118.207 20.2113 118.181 20.2113 118.154C20.2113 118.087 20.2413 118.047 20.3013 118.034C20.4746 117.981 20.6546 117.904 20.8413 117.804C21.0346 117.697 21.1846 117.611 21.2913 117.544C21.3313 117.517 21.3613 117.501 21.3813 117.494C21.408 117.481 21.428 117.474 21.4413 117.474C21.4746 117.474 21.4913 117.497 21.4913 117.544C21.4913 117.564 21.488 117.614 21.4813 117.694C21.4813 117.774 21.478 117.867 21.4713 117.974C21.4713 118.081 21.468 118.187 21.4613 118.294C21.4613 118.307 21.468 118.314 21.4813 118.314C21.588 118.181 21.7046 118.064 21.8313 117.964C21.9646 117.864 22.098 117.784 22.2313 117.724C22.3713 117.664 22.5046 117.634 22.6313 117.634C22.7713 117.634 22.8846 117.664 22.9713 117.724C23.0646 117.784 23.1113 117.861 23.1113 117.954C23.1113 118.021 23.0913 118.094 23.0513 118.174C23.018 118.254 22.9713 118.324 22.9113 118.384C22.8513 118.444 22.788 118.474 22.7213 118.474C22.6813 118.474 22.638 118.467 22.5913 118.454C22.5446 118.434 22.4946 118.411 22.4413 118.384C22.388 118.364 22.3346 118.344 22.2813 118.324C22.228 118.304 22.1746 118.294 22.1213 118.294C21.9613 118.294 21.8046 118.351 21.6513 118.464C21.5046 118.577 21.4313 118.801 21.4313 119.134V121.154C21.4313 121.241 21.478 121.314 21.5713 121.374C21.6646 121.427 21.7946 121.481 21.9613 121.534C22.0346 121.554 22.0913 121.574 22.1313 121.594C22.1713 121.614 22.1913 121.647 22.1913 121.694C22.1913 121.767 22.1246 121.804 21.9913 121.804C21.7913 121.804 21.638 121.794 21.5313 121.774C21.4313 121.761 21.2946 121.754 21.1213 121.754C21.008 121.754 20.9146 121.757 20.8413 121.764C20.7746 121.771 20.7013 121.777 20.6213 121.784C20.548 121.797 20.4446 121.804 20.3113 121.804ZM25.2911 121.924C24.9245 121.924 24.6045 121.834 24.3311 121.654C24.0578 121.474 23.8445 121.221 23.6911 120.894C23.5378 120.561 23.4611 120.177 23.4611 119.744C23.4611 119.357 23.5478 119.007 23.7211 118.694C23.9011 118.374 24.1378 118.117 24.4311 117.924C24.7245 117.731 25.0445 117.634 25.3911 117.634C25.6578 117.634 25.8945 117.687 26.1011 117.794C26.3078 117.901 26.4678 118.051 26.5811 118.244C26.7011 118.431 26.7611 118.647 26.7611 118.894C26.7611 119.101 26.6611 119.204 26.4611 119.204H24.3511C24.2578 119.204 24.1911 119.231 24.1511 119.284C24.1178 119.331 24.1011 119.427 24.1011 119.574C24.1011 119.894 24.1711 120.187 24.3111 120.454C24.4511 120.714 24.6378 120.924 24.8711 121.084C25.1045 121.237 25.3611 121.314 25.6411 121.314C25.8411 121.314 26.0211 121.277 26.1811 121.204C26.3478 121.124 26.4945 121.011 26.6211 120.864C26.6478 120.831 26.6678 120.811 26.6811 120.804C26.6945 120.791 26.7111 120.784 26.7311 120.784C26.7845 120.784 26.8111 120.817 26.8111 120.884C26.8111 121.011 26.7511 121.151 26.6311 121.304C26.5311 121.431 26.4111 121.541 26.2711 121.634C26.1311 121.727 25.9778 121.797 25.8111 121.844C25.6445 121.897 25.4711 121.924 25.2911 121.924ZM24.3711 118.894H25.2811C25.4411 118.894 25.5778 118.891 25.6911 118.884C25.8045 118.877 25.9145 118.864 26.0211 118.844C26.0545 118.837 26.0745 118.817 26.0811 118.784C26.0945 118.744 26.1011 118.691 26.1011 118.624C26.1011 118.431 26.0145 118.267 25.8411 118.134C25.6745 117.994 25.4745 117.924 25.2411 117.924C25.0878 117.924 24.9345 117.971 24.7811 118.064C24.6278 118.151 24.5011 118.261 24.4011 118.394C24.3011 118.527 24.2511 118.661 24.2511 118.794C24.2511 118.861 24.2911 118.894 24.3711 118.894ZM28.9476 121.914C28.621 121.914 28.3643 121.814 28.1776 121.614C27.9976 121.414 27.9076 121.117 27.9076 120.724V118.404C27.9076 118.351 27.8876 118.314 27.8476 118.294C27.8076 118.267 27.721 118.254 27.5876 118.254H27.5276C27.4943 118.254 27.4643 118.234 27.4376 118.194C27.4176 118.147 27.4076 118.101 27.4076 118.054C27.4076 118.041 27.4176 118.021 27.4376 117.994C27.4576 117.967 27.471 117.951 27.4776 117.944C27.611 117.851 27.731 117.757 27.8376 117.664C27.951 117.571 28.051 117.481 28.1376 117.394C28.231 117.301 28.3076 117.217 28.3676 117.144C28.401 117.111 28.4276 117.084 28.4476 117.064C28.4743 117.037 28.5043 117.024 28.5376 117.024C28.571 117.024 28.601 117.031 28.6276 117.044C28.661 117.057 28.6743 117.087 28.6676 117.134L28.6176 117.584C28.611 117.657 28.6276 117.707 28.6676 117.734C28.7076 117.761 28.771 117.774 28.8576 117.774H29.9976C30.0243 117.774 30.0476 117.797 30.0676 117.844C30.0876 117.884 30.0976 117.934 30.0976 117.994C30.0976 118.054 30.0876 118.114 30.0676 118.174C30.0476 118.227 30.0243 118.254 29.9976 118.254H29.0076C28.841 118.254 28.731 118.267 28.6776 118.294C28.631 118.321 28.6076 118.401 28.6076 118.534V120.504C28.6076 120.771 28.6643 120.981 28.7776 121.134C28.891 121.287 29.0543 121.364 29.2676 121.364C29.461 121.364 29.611 121.351 29.7176 121.324C29.8243 121.291 29.921 121.244 30.0076 121.184C30.021 121.171 30.0343 121.164 30.0476 121.164C30.0743 121.164 30.091 121.181 30.0976 121.214C30.111 121.241 30.1176 121.271 30.1176 121.304C30.1176 121.337 30.061 121.404 29.9476 121.504C29.841 121.604 29.6976 121.697 29.5176 121.784C29.3443 121.871 29.1543 121.914 28.9476 121.914ZM32.3321 121.924C31.9988 121.924 31.6955 121.841 31.4221 121.674C31.1555 121.501 30.9421 121.267 30.7821 120.974C30.6288 120.674 30.5521 120.341 30.5521 119.974C30.5521 119.541 30.6455 119.147 30.8321 118.794C31.0255 118.441 31.2821 118.161 31.6021 117.954C31.9221 117.741 32.2755 117.634 32.6621 117.634C33.0955 117.634 33.4755 117.751 33.8021 117.984C33.8821 118.044 33.9221 118.107 33.9221 118.174C33.9221 118.227 33.8988 118.287 33.8521 118.354C33.8055 118.421 33.7488 118.477 33.6821 118.524C33.6155 118.564 33.5521 118.584 33.4921 118.584C33.4588 118.584 33.4255 118.574 33.3921 118.554C33.3588 118.527 33.3221 118.501 33.2821 118.474C33.1355 118.361 32.9721 118.254 32.7921 118.154C32.6121 118.054 32.4621 118.004 32.3421 118.004C32.0155 118.004 31.7488 118.157 31.5421 118.464C31.3421 118.764 31.2421 119.161 31.2421 119.654C31.2421 119.967 31.3088 120.251 31.4421 120.504C31.5821 120.757 31.7655 120.957 31.9921 121.104C32.2255 121.251 32.4821 121.324 32.7621 121.324C32.9555 121.324 33.1221 121.294 33.2621 121.234C33.4021 121.167 33.5521 121.054 33.7121 120.894C33.7255 120.881 33.7421 120.871 33.7621 120.864C33.7821 120.851 33.7988 120.844 33.8121 120.844C33.8855 120.844 33.9221 120.891 33.9221 120.984C33.9221 121.024 33.9088 121.071 33.8821 121.124C33.8621 121.171 33.8255 121.227 33.7721 121.294C33.6655 121.427 33.5388 121.544 33.3921 121.644C33.2455 121.737 33.0821 121.807 32.9021 121.854C32.7288 121.901 32.5388 121.924 32.3321 121.924ZM34.6644 121.804C34.5311 121.804 34.4644 121.767 34.4644 121.694C34.4644 121.634 34.5411 121.581 34.6944 121.534C34.7944 121.501 34.8877 121.457 34.9744 121.404C35.0677 121.351 35.1177 121.257 35.1244 121.124V116.114C35.1244 115.934 35.0944 115.777 35.0344 115.644C34.9744 115.504 34.8577 115.421 34.6844 115.394C34.6244 115.381 34.5944 115.334 34.5944 115.254C34.5944 115.194 34.6211 115.154 34.6744 115.134C34.7677 115.101 34.8777 115.064 35.0044 115.024C35.1377 114.984 35.2744 114.941 35.4144 114.894C35.5544 114.841 35.6777 114.791 35.7844 114.744C35.8111 114.731 35.8311 114.724 35.8444 114.724C35.8644 114.724 35.8811 114.731 35.8944 114.744C35.9077 114.757 35.9144 114.774 35.9144 114.794C35.9144 114.834 35.9044 114.891 35.8844 114.964C35.8711 115.037 35.8577 115.164 35.8444 115.344C35.8311 115.524 35.8244 115.794 35.8244 116.154V117.894C35.8244 118.001 35.8277 118.077 35.8344 118.124C35.8477 118.171 35.8677 118.217 35.8944 118.264C36.0011 118.184 36.1311 118.097 36.2844 118.004C36.4444 117.904 36.6211 117.817 36.8144 117.744C37.0077 117.671 37.2077 117.634 37.4144 117.634C37.7411 117.634 38.0111 117.764 38.2244 118.024C38.4444 118.277 38.5544 118.601 38.5544 118.994V121.094C38.5544 121.227 38.5977 121.327 38.6844 121.394C38.7711 121.454 38.8644 121.501 38.9644 121.534C39.0377 121.554 39.0944 121.577 39.1344 121.604C39.1744 121.624 39.1944 121.654 39.1944 121.694C39.1944 121.767 39.1277 121.804 38.9944 121.804C38.8611 121.804 38.7577 121.797 38.6844 121.784C38.6177 121.777 38.5511 121.771 38.4844 121.764C38.4244 121.757 38.3344 121.754 38.2144 121.754C38.1011 121.754 38.0111 121.757 37.9444 121.764C37.8777 121.771 37.8077 121.777 37.7344 121.784C37.6677 121.797 37.5677 121.804 37.4344 121.804C37.3011 121.804 37.2344 121.767 37.2344 121.694C37.2344 121.647 37.2544 121.617 37.2944 121.604C37.3344 121.584 37.3911 121.561 37.4644 121.534C37.5644 121.501 37.6544 121.454 37.7344 121.394C37.8144 121.327 37.8544 121.227 37.8544 121.094V119.054C37.8544 118.887 37.8044 118.737 37.7044 118.604C37.6111 118.464 37.4944 118.354 37.3544 118.274C37.2144 118.194 37.0711 118.154 36.9244 118.154C36.7977 118.154 36.6511 118.174 36.4844 118.214C36.3177 118.247 36.1877 118.301 36.0944 118.374C35.9877 118.461 35.9144 118.551 35.8744 118.644C35.8411 118.737 35.8244 118.887 35.8244 119.094V121.124C35.8311 121.257 35.8711 121.351 35.9444 121.404C36.0244 121.457 36.1144 121.501 36.2144 121.534C36.2877 121.554 36.3411 121.577 36.3744 121.604C36.4144 121.624 36.4344 121.654 36.4344 121.694C36.4344 121.767 36.3677 121.804 36.2344 121.804C36.1011 121.804 36.0011 121.797 35.9344 121.784C35.8677 121.777 35.8044 121.771 35.7444 121.764C35.6844 121.757 35.5944 121.754 35.4744 121.754C35.3611 121.754 35.2677 121.757 35.1944 121.764C35.1277 121.771 35.0544 121.777 34.9744 121.784C34.9011 121.797 34.7977 121.804 34.6644 121.804ZM12.0192 134.964C12.0059 134.964 11.9826 134.951 11.9492 134.924C11.9226 134.897 11.9092 134.877 11.9092 134.864C11.9092 134.797 11.9159 134.704 11.9292 134.584C11.9492 134.457 11.9592 134.351 11.9592 134.264V134.204C11.8592 134.357 11.6992 134.514 11.4792 134.674C11.2592 134.834 10.9826 134.914 10.6492 134.914C10.2692 134.914 9.93922 134.814 9.65922 134.614C9.38589 134.414 9.17255 134.157 9.01922 133.844C8.87255 133.531 8.79922 133.207 8.79922 132.874C8.79922 132.487 8.88922 132.124 9.06922 131.784C9.24922 131.444 9.50589 131.167 9.83922 130.954C10.1792 130.741 10.5826 130.634 11.0492 130.634C11.1826 130.634 11.3159 130.647 11.4492 130.674C11.5892 130.694 11.6959 130.717 11.7692 130.744C11.8292 130.764 11.8726 130.774 11.8992 130.774C11.9459 130.774 11.9692 130.694 11.9692 130.534V129.114C11.9692 128.841 11.9259 128.657 11.8392 128.564C11.7526 128.471 11.6292 128.411 11.4692 128.384C11.4092 128.371 11.3792 128.327 11.3792 128.254C11.3792 128.194 11.4059 128.154 11.4592 128.134C11.7526 128.061 11.9826 127.991 12.1492 127.924C12.3159 127.857 12.4459 127.804 12.5392 127.764C12.5659 127.751 12.5892 127.744 12.6092 127.744C12.6359 127.737 12.6559 127.734 12.6692 127.734C12.7092 127.734 12.7326 127.754 12.7392 127.794C12.7392 127.834 12.7326 127.904 12.7192 128.004C12.7126 128.097 12.7026 128.237 12.6892 128.424C12.6759 128.611 12.6692 128.854 12.6692 129.154V133.674C12.6692 133.901 12.6859 134.067 12.7192 134.174C12.7526 134.274 12.8059 134.324 12.8792 134.324C12.9126 134.324 12.9692 134.321 13.0492 134.314C13.1359 134.307 13.2226 134.301 13.3092 134.294C13.4292 134.287 13.4892 134.317 13.4892 134.384C13.4892 134.431 13.4726 134.474 13.4392 134.514C13.4126 134.547 13.3826 134.564 13.3492 134.564C13.1626 134.591 12.9792 134.631 12.7992 134.684C12.6192 134.731 12.4126 134.804 12.1792 134.904C12.1259 134.931 12.0892 134.947 12.0692 134.954C12.0559 134.961 12.0392 134.964 12.0192 134.964ZM11.0092 134.394C11.1826 134.394 11.3526 134.351 11.5192 134.264C11.6859 134.171 11.8326 134.051 11.9592 133.904L11.9692 132.104C11.9692 131.924 11.9159 131.747 11.8092 131.574C11.7092 131.401 11.5659 131.261 11.3792 131.154C11.1992 131.041 10.9859 130.984 10.7392 130.984C10.5859 130.984 10.4126 131.031 10.2192 131.124C10.0259 131.217 9.85922 131.384 9.71922 131.624C9.57922 131.857 9.50922 132.197 9.50922 132.644C9.50922 133.024 9.56589 133.331 9.67922 133.564C9.79255 133.791 9.92922 133.964 10.0892 134.084C10.2559 134.204 10.4226 134.287 10.5892 134.334C10.7626 134.374 10.9026 134.394 11.0092 134.394ZM13.9478 134.804C13.8878 134.804 13.8378 134.794 13.7978 134.774C13.7645 134.761 13.7478 134.734 13.7478 134.694C13.7478 134.641 13.7711 134.604 13.8178 134.584C13.8711 134.564 13.9245 134.547 13.9778 134.534C14.1178 134.501 14.2245 134.461 14.2978 134.414C14.3711 134.361 14.4078 134.274 14.4078 134.154V131.984C14.4078 131.804 14.3745 131.644 14.3078 131.504C14.2478 131.364 14.1311 131.281 13.9578 131.254C13.9245 131.247 13.8978 131.234 13.8778 131.214C13.8645 131.194 13.8578 131.164 13.8578 131.124C13.8578 131.051 13.8878 131.011 13.9478 131.004C14.2145 130.944 14.4345 130.864 14.6078 130.764C14.7811 130.657 14.9111 130.571 14.9978 130.504C15.0578 130.457 15.1045 130.434 15.1378 130.434C15.1778 130.434 15.1978 130.451 15.1978 130.484C15.1978 130.537 15.1878 130.644 15.1678 130.804C15.1545 130.957 15.1411 131.131 15.1278 131.324C15.1145 131.511 15.1078 131.681 15.1078 131.834V134.154C15.1078 134.267 15.1445 134.351 15.2178 134.404C15.2978 134.457 15.4045 134.501 15.5378 134.534C15.5911 134.547 15.6411 134.564 15.6878 134.584C15.7411 134.604 15.7678 134.641 15.7678 134.694C15.7678 134.767 15.7011 134.804 15.5678 134.804C15.4411 134.804 15.3378 134.797 15.2578 134.784C15.1845 134.777 15.1111 134.771 15.0378 134.764C14.9711 134.757 14.8778 134.754 14.7578 134.754C14.6445 134.754 14.5511 134.757 14.4778 134.764C14.4045 134.771 14.3311 134.777 14.2578 134.784C14.1845 134.797 14.0811 134.804 13.9478 134.804ZM14.7478 129.614C14.6078 129.614 14.4878 129.567 14.3878 129.474C14.2945 129.374 14.2478 129.254 14.2478 129.114C14.2478 128.967 14.2945 128.847 14.3878 128.754C14.4878 128.654 14.6078 128.604 14.7478 128.604C14.8945 128.604 15.0145 128.654 15.1078 128.754C15.2078 128.847 15.2578 128.967 15.2578 129.114C15.2578 129.254 15.2078 129.374 15.1078 129.474C15.0145 129.567 14.8945 129.614 14.7478 129.614ZM16.449 134.804C16.3823 134.804 16.3323 134.794 16.299 134.774C16.2657 134.761 16.249 134.734 16.249 134.694C16.249 134.641 16.269 134.607 16.309 134.594C16.349 134.574 16.4057 134.554 16.479 134.534C16.6057 134.501 16.699 134.454 16.759 134.394C16.8257 134.327 16.859 134.247 16.859 134.154V132.004C16.859 131.824 16.8323 131.667 16.779 131.534C16.7257 131.401 16.6157 131.317 16.449 131.284C16.4223 131.277 16.399 131.261 16.379 131.234C16.359 131.207 16.349 131.181 16.349 131.154C16.349 131.087 16.379 131.047 16.439 131.034C16.6123 130.981 16.7923 130.904 16.979 130.804C17.1723 130.697 17.3223 130.611 17.429 130.544C17.469 130.517 17.499 130.501 17.519 130.494C17.5457 130.481 17.5657 130.474 17.579 130.474C17.6123 130.474 17.629 130.497 17.629 130.544C17.629 130.564 17.6257 130.614 17.619 130.694C17.619 130.774 17.6157 130.867 17.609 130.974C17.609 131.081 17.6057 131.187 17.599 131.294C17.599 131.307 17.6057 131.314 17.619 131.314C17.7257 131.181 17.8423 131.064 17.969 130.964C18.1023 130.864 18.2357 130.784 18.369 130.724C18.509 130.664 18.6423 130.634 18.769 130.634C18.909 130.634 19.0223 130.664 19.109 130.724C19.2023 130.784 19.249 130.861 19.249 130.954C19.249 131.021 19.229 131.094 19.189 131.174C19.1557 131.254 19.109 131.324 19.049 131.384C18.989 131.444 18.9257 131.474 18.859 131.474C18.819 131.474 18.7757 131.467 18.729 131.454C18.6823 131.434 18.6323 131.411 18.579 131.384C18.5257 131.364 18.4723 131.344 18.419 131.324C18.3657 131.304 18.3123 131.294 18.259 131.294C18.099 131.294 17.9423 131.351 17.789 131.464C17.6423 131.577 17.569 131.801 17.569 132.134V134.154C17.569 134.241 17.6157 134.314 17.709 134.374C17.8023 134.427 17.9323 134.481 18.099 134.534C18.1723 134.554 18.229 134.574 18.269 134.594C18.309 134.614 18.329 134.647 18.329 134.694C18.329 134.767 18.2623 134.804 18.129 134.804C17.929 134.804 17.7757 134.794 17.669 134.774C17.569 134.761 17.4323 134.754 17.259 134.754C17.1457 134.754 17.0523 134.757 16.979 134.764C16.9123 134.771 16.839 134.777 16.759 134.784C16.6857 134.797 16.5823 134.804 16.449 134.804ZM21.4288 134.924C21.0622 134.924 20.7422 134.834 20.4688 134.654C20.1955 134.474 19.9822 134.221 19.8288 133.894C19.6755 133.561 19.5988 133.177 19.5988 132.744C19.5988 132.357 19.6855 132.007 19.8588 131.694C20.0388 131.374 20.2755 131.117 20.5688 130.924C20.8622 130.731 21.1822 130.634 21.5288 130.634C21.7955 130.634 22.0322 130.687 22.2388 130.794C22.4455 130.901 22.6055 131.051 22.7188 131.244C22.8388 131.431 22.8988 131.647 22.8988 131.894C22.8988 132.101 22.7988 132.204 22.5988 132.204H20.4888C20.3955 132.204 20.3288 132.231 20.2888 132.284C20.2555 132.331 20.2388 132.427 20.2388 132.574C20.2388 132.894 20.3088 133.187 20.4488 133.454C20.5888 133.714 20.7755 133.924 21.0088 134.084C21.2422 134.237 21.4988 134.314 21.7788 134.314C21.9788 134.314 22.1588 134.277 22.3188 134.204C22.4855 134.124 22.6322 134.011 22.7588 133.864C22.7855 133.831 22.8055 133.811 22.8188 133.804C22.8322 133.791 22.8488 133.784 22.8688 133.784C22.9222 133.784 22.9488 133.817 22.9488 133.884C22.9488 134.011 22.8888 134.151 22.7688 134.304C22.6688 134.431 22.5488 134.541 22.4088 134.634C22.2688 134.727 22.1155 134.797 21.9488 134.844C21.7822 134.897 21.6088 134.924 21.4288 134.924ZM20.5088 131.894H21.4188C21.5788 131.894 21.7155 131.891 21.8288 131.884C21.9422 131.877 22.0522 131.864 22.1588 131.844C22.1922 131.837 22.2122 131.817 22.2188 131.784C22.2322 131.744 22.2388 131.691 22.2388 131.624C22.2388 131.431 22.1522 131.267 21.9788 131.134C21.8122 130.994 21.6122 130.924 21.3788 130.924C21.2255 130.924 21.0722 130.971 20.9188 131.064C20.7655 131.151 20.6388 131.261 20.5388 131.394C20.4388 131.527 20.3888 131.661 20.3888 131.794C20.3888 131.861 20.4288 131.894 20.5088 131.894ZM25.2277 134.924C24.8943 134.924 24.591 134.841 24.3177 134.674C24.051 134.501 23.8377 134.267 23.6777 133.974C23.5243 133.674 23.4477 133.341 23.4477 132.974C23.4477 132.541 23.541 132.147 23.7277 131.794C23.921 131.441 24.1777 131.161 24.4977 130.954C24.8177 130.741 25.171 130.634 25.5577 130.634C25.991 130.634 26.371 130.751 26.6977 130.984C26.7777 131.044 26.8177 131.107 26.8177 131.174C26.8177 131.227 26.7943 131.287 26.7477 131.354C26.701 131.421 26.6443 131.477 26.5777 131.524C26.511 131.564 26.4477 131.584 26.3877 131.584C26.3543 131.584 26.321 131.574 26.2877 131.554C26.2543 131.527 26.2177 131.501 26.1777 131.474C26.031 131.361 25.8677 131.254 25.6877 131.154C25.5077 131.054 25.3577 131.004 25.2377 131.004C24.911 131.004 24.6443 131.157 24.4377 131.464C24.2377 131.764 24.1377 132.161 24.1377 132.654C24.1377 132.967 24.2043 133.251 24.3377 133.504C24.4777 133.757 24.661 133.957 24.8877 134.104C25.121 134.251 25.3777 134.324 25.6577 134.324C25.851 134.324 26.0177 134.294 26.1577 134.234C26.2977 134.167 26.4477 134.054 26.6077 133.894C26.621 133.881 26.6377 133.871 26.6577 133.864C26.6777 133.851 26.6943 133.844 26.7077 133.844C26.781 133.844 26.8177 133.891 26.8177 133.984C26.8177 134.024 26.8043 134.071 26.7777 134.124C26.7577 134.171 26.721 134.227 26.6677 134.294C26.561 134.427 26.4343 134.544 26.2877 134.644C26.141 134.737 25.9777 134.807 25.7977 134.854C25.6243 134.901 25.4343 134.924 25.2277 134.924ZM29.0599 134.914C28.7333 134.914 28.4766 134.814 28.2899 134.614C28.1099 134.414 28.0199 134.117 28.0199 133.724V131.404C28.0199 131.351 27.9999 131.314 27.9599 131.294C27.9199 131.267 27.8333 131.254 27.6999 131.254H27.6399C27.6066 131.254 27.5766 131.234 27.5499 131.194C27.5299 131.147 27.5199 131.101 27.5199 131.054C27.5199 131.041 27.5299 131.021 27.5499 130.994C27.5699 130.967 27.5833 130.951 27.5899 130.944C27.7233 130.851 27.8433 130.757 27.9499 130.664C28.0633 130.571 28.1633 130.481 28.2499 130.394C28.3433 130.301 28.4199 130.217 28.4799 130.144C28.5133 130.111 28.5399 130.084 28.5599 130.064C28.5866 130.037 28.6166 130.024 28.6499 130.024C28.6833 130.024 28.7133 130.031 28.7399 130.044C28.7733 130.057 28.7866 130.087 28.7799 130.134L28.7299 130.584C28.7233 130.657 28.7399 130.707 28.7799 130.734C28.8199 130.761 28.8833 130.774 28.9699 130.774H30.1099C30.1366 130.774 30.1599 130.797 30.1799 130.844C30.1999 130.884 30.2099 130.934 30.2099 130.994C30.2099 131.054 30.1999 131.114 30.1799 131.174C30.1599 131.227 30.1366 131.254 30.1099 131.254H29.1199C28.9533 131.254 28.8433 131.267 28.7899 131.294C28.7433 131.321 28.7199 131.401 28.7199 131.534V133.504C28.7199 133.771 28.7766 133.981 28.8899 134.134C29.0033 134.287 29.1666 134.364 29.3799 134.364C29.5733 134.364 29.7233 134.351 29.8299 134.324C29.9366 134.291 30.0333 134.244 30.1199 134.184C30.1333 134.171 30.1466 134.164 30.1599 134.164C30.1866 134.164 30.2033 134.181 30.2099 134.214C30.2233 134.241 30.2299 134.271 30.2299 134.304C30.2299 134.337 30.1733 134.404 30.0599 134.504C29.9533 134.604 29.8099 134.697 29.6299 134.784C29.4566 134.871 29.2666 134.914 29.0599 134.914ZM30.7545 134.804C30.6945 134.804 30.6445 134.794 30.6045 134.774C30.5711 134.761 30.5545 134.734 30.5545 134.694C30.5545 134.641 30.5778 134.604 30.6245 134.584C30.6778 134.564 30.7311 134.547 30.7845 134.534C30.9245 134.501 31.0311 134.461 31.1045 134.414C31.1778 134.361 31.2145 134.274 31.2145 134.154V131.984C31.2145 131.804 31.1811 131.644 31.1145 131.504C31.0545 131.364 30.9378 131.281 30.7645 131.254C30.7311 131.247 30.7045 131.234 30.6845 131.214C30.6711 131.194 30.6645 131.164 30.6645 131.124C30.6645 131.051 30.6945 131.011 30.7545 131.004C31.0211 130.944 31.2411 130.864 31.4145 130.764C31.5878 130.657 31.7178 130.571 31.8045 130.504C31.8645 130.457 31.9111 130.434 31.9445 130.434C31.9845 130.434 32.0045 130.451 32.0045 130.484C32.0045 130.537 31.9945 130.644 31.9745 130.804C31.9611 130.957 31.9478 131.131 31.9345 131.324C31.9211 131.511 31.9145 131.681 31.9145 131.834V134.154C31.9145 134.267 31.9511 134.351 32.0245 134.404C32.1045 134.457 32.2111 134.501 32.3445 134.534C32.3978 134.547 32.4478 134.564 32.4945 134.584C32.5478 134.604 32.5745 134.641 32.5745 134.694C32.5745 134.767 32.5078 134.804 32.3745 134.804C32.2478 134.804 32.1445 134.797 32.0645 134.784C31.9911 134.777 31.9178 134.771 31.8445 134.764C31.7778 134.757 31.6845 134.754 31.5645 134.754C31.4511 134.754 31.3578 134.757 31.2845 134.764C31.2111 134.771 31.1378 134.777 31.0645 134.784C30.9911 134.797 30.8878 134.804 30.7545 134.804ZM31.5545 129.614C31.4145 129.614 31.2945 129.567 31.1945 129.474C31.1011 129.374 31.0545 129.254 31.0545 129.114C31.0545 128.967 31.1011 128.847 31.1945 128.754C31.2945 128.654 31.4145 128.604 31.5545 128.604C31.7011 128.604 31.8211 128.654 31.9145 128.754C32.0145 128.847 32.0645 128.967 32.0645 129.114C32.0645 129.254 32.0145 129.374 31.9145 129.474C31.8211 129.567 31.7011 129.614 31.5545 129.614ZM35.1056 134.914C34.7323 134.914 34.3956 134.827 34.0956 134.654C33.7956 134.481 33.5556 134.244 33.3756 133.944C33.2023 133.637 33.1156 133.291 33.1156 132.904C33.1156 132.624 33.169 132.351 33.2756 132.084C33.389 131.817 33.5456 131.574 33.7456 131.354C33.9456 131.134 34.179 130.961 34.4456 130.834C34.7123 130.701 34.999 130.634 35.3056 130.634C35.6923 130.634 36.039 130.727 36.3456 130.914C36.659 131.101 36.9056 131.347 37.0856 131.654C37.2723 131.954 37.3656 132.284 37.3656 132.644C37.3656 133.031 37.279 133.397 37.1056 133.744C36.939 134.091 36.689 134.374 36.3556 134.594C36.0223 134.807 35.6056 134.914 35.1056 134.914ZM35.3156 134.614C35.5423 134.614 35.7456 134.571 35.9256 134.484C36.1056 134.397 36.2456 134.257 36.3456 134.064C36.4256 133.911 36.479 133.724 36.5056 133.504C36.5323 133.284 36.5456 133.077 36.5456 132.884C36.5456 132.564 36.4856 132.257 36.3656 131.964C36.2523 131.664 36.089 131.421 35.8756 131.234C35.669 131.041 35.4223 130.944 35.1356 130.944C34.9556 130.944 34.7923 130.974 34.6456 131.034C34.5056 131.087 34.3756 131.191 34.2556 131.344C34.1223 131.511 34.0356 131.714 33.9956 131.954C33.9556 132.194 33.9356 132.434 33.9356 132.674C33.9356 133.001 33.9956 133.314 34.1156 133.614C34.2356 133.907 34.399 134.147 34.6056 134.334C34.8123 134.521 35.049 134.614 35.3156 134.614ZM38.1568 134.804C38.0968 134.804 38.0468 134.794 38.0068 134.774C37.9735 134.761 37.9568 134.734 37.9568 134.694C37.9568 134.641 37.9768 134.607 38.0168 134.594C38.0568 134.574 38.1135 134.554 38.1868 134.534C38.2868 134.507 38.3835 134.471 38.4768 134.424C38.5701 134.377 38.6168 134.287 38.6168 134.154V132.004C38.6168 131.824 38.5968 131.671 38.5568 131.544C38.5235 131.417 38.4201 131.331 38.2468 131.284C38.2201 131.271 38.1968 131.257 38.1768 131.244C38.1568 131.224 38.1468 131.194 38.1468 131.154C38.1468 131.081 38.1768 131.041 38.2368 131.034C38.4701 130.974 38.6601 130.901 38.8068 130.814C38.9535 130.727 39.0968 130.631 39.2368 130.524C39.2568 130.511 39.2735 130.501 39.2868 130.494C39.3068 130.481 39.3268 130.474 39.3468 130.474C39.3601 130.474 39.3701 130.481 39.3768 130.494C39.3901 130.507 39.3968 130.524 39.3968 130.544C39.3968 130.591 39.3868 130.687 39.3668 130.834C39.3535 130.974 39.3468 131.091 39.3468 131.184C39.3468 131.211 39.3468 131.237 39.3468 131.264C39.3535 131.284 39.3601 131.297 39.3668 131.304C39.6001 131.084 39.8468 130.917 40.1068 130.804C40.3735 130.691 40.6635 130.634 40.9768 130.634C41.3035 130.634 41.5735 130.767 41.7868 131.034C42.0001 131.301 42.1068 131.631 42.1068 132.024V134.154C42.1068 134.287 42.1535 134.377 42.2468 134.424C42.3401 134.464 42.4368 134.501 42.5368 134.534C42.5901 134.554 42.6401 134.577 42.6868 134.604C42.7401 134.624 42.7668 134.661 42.7668 134.714C42.7668 134.754 42.7435 134.777 42.6968 134.784C42.6501 134.797 42.6068 134.804 42.5668 134.804C42.4335 134.804 42.3301 134.797 42.2568 134.784C42.1835 134.777 42.1135 134.771 42.0468 134.764C41.9801 134.757 41.8868 134.754 41.7668 134.754C41.6535 134.754 41.5601 134.757 41.4868 134.764C41.4135 134.771 41.3368 134.777 41.2568 134.784C41.1835 134.797 41.0801 134.804 40.9468 134.804C40.9135 134.804 40.8701 134.797 40.8168 134.784C40.7701 134.777 40.7468 134.754 40.7468 134.714C40.7468 134.661 40.7701 134.624 40.8168 134.604C40.8701 134.577 40.9235 134.554 40.9768 134.534C41.0768 134.501 41.1735 134.464 41.2668 134.424C41.3601 134.377 41.4068 134.287 41.4068 134.154V132.054C41.4068 131.761 41.3235 131.534 41.1568 131.374C40.9968 131.207 40.7801 131.121 40.5068 131.114C40.2668 131.114 40.0568 131.154 39.8768 131.234C39.6968 131.307 39.5368 131.401 39.3968 131.514C39.3701 131.541 39.3501 131.577 39.3368 131.624C39.3235 131.664 39.3168 131.704 39.3168 131.744V134.154C39.3168 134.287 39.3635 134.377 39.4568 134.424C39.5501 134.471 39.6468 134.507 39.7468 134.534C39.9001 134.574 39.9768 134.627 39.9768 134.694C39.9768 134.734 39.9601 134.761 39.9268 134.774C39.8935 134.794 39.8435 134.804 39.7768 134.804C39.6435 134.804 39.5368 134.797 39.4568 134.784C39.3835 134.777 39.3135 134.771 39.2468 134.764C39.1801 134.757 39.0868 134.754 38.9668 134.754C38.8535 134.754 38.7601 134.757 38.6868 134.764C38.6201 134.771 38.5468 134.777 38.4668 134.784C38.3935 134.797 38.2901 134.804 38.1568 134.804Z" fill="#56CCF2"/>
<path d="M68.4933 182.05C68.4067 182.05 68.3367 182.04 68.2833 182.02C68.23 182.007 68.2033 181.98 68.2033 181.94C68.2033 181.86 68.3133 181.8 68.5333 181.76C68.7867 181.713 68.96 181.637 69.0533 181.53C69.1533 181.423 69.2033 181.247 69.2033 181V176.78C69.2033 176.48 69.1633 176.25 69.0833 176.09C69.01 175.93 68.8467 175.827 68.5933 175.78C68.48 175.76 68.3967 175.733 68.3433 175.7C68.29 175.667 68.2633 175.627 68.2633 175.58C68.2633 175.54 68.29 175.513 68.3433 175.5C68.3967 175.48 68.4667 175.47 68.5533 175.47C68.8 175.47 69.0067 175.473 69.1733 175.48C69.3467 175.487 69.5167 175.493 69.6833 175.5C69.85 175.5 70.0467 175.5 70.2733 175.5C70.4667 175.5 70.6733 175.5 70.8933 175.5C71.1133 175.5 71.3267 175.5 71.5333 175.5C71.7467 175.5 71.9333 175.483 72.0933 175.45C72.26 175.417 72.4033 175.4 72.5233 175.4C72.5567 175.4 72.5933 175.407 72.6333 175.42C72.6733 175.433 72.6967 175.457 72.7033 175.49C72.7167 175.563 72.7267 175.673 72.7333 175.82C72.74 175.96 72.7433 176.097 72.7433 176.23C72.75 176.363 72.7533 176.453 72.7533 176.5C72.7533 176.64 72.7233 176.71 72.6633 176.71C72.63 176.71 72.6 176.7 72.5733 176.68C72.5467 176.653 72.5267 176.623 72.5133 176.59C72.4867 176.477 72.4533 176.38 72.4133 176.3C72.3733 176.213 72.33 176.147 72.2833 176.1C72.19 175.993 72.0867 175.923 71.9733 175.89C71.86 175.85 71.74 175.83 71.6133 175.83H70.3433C70.19 175.83 70.0967 175.88 70.0633 175.98C70.03 176.08 70.01 176.197 70.0033 176.33C69.9967 176.457 69.9933 176.613 69.9933 176.8C69.9933 176.98 69.9933 177.157 69.9933 177.33C69.9933 177.497 69.9933 177.667 69.9933 177.84C69.9933 178.013 69.9967 178.16 70.0033 178.28C70.0033 178.333 70.0067 178.383 70.0133 178.43C70.0267 178.477 70.0567 178.5 70.1033 178.5C70.3167 178.5 70.5333 178.497 70.7533 178.49C70.9733 178.477 71.1433 178.47 71.2633 178.47C71.41 178.47 71.5367 178.43 71.6433 178.35C71.75 178.27 71.8267 178.173 71.8733 178.06C71.8867 178.033 71.9133 178 71.9533 177.96C71.9933 177.913 72.0267 177.89 72.0533 177.89C72.08 177.89 72.11 177.907 72.1433 177.94C72.1767 177.967 72.19 178.003 72.1833 178.05C72.1767 178.163 72.17 178.263 72.1633 178.35C72.1567 178.437 72.1533 178.52 72.1533 178.6C72.1533 178.7 72.1567 178.803 72.1633 178.91C72.17 179.01 72.1767 179.133 72.1833 179.28C72.1833 179.327 72.1767 179.367 72.1633 179.4C72.1567 179.433 72.1333 179.45 72.0933 179.45C72.0267 179.45 71.9733 179.42 71.9333 179.36C71.9 179.3 71.8767 179.253 71.8633 179.22C71.8167 179.067 71.7467 178.963 71.6533 178.91C71.56 178.85 71.4733 178.82 71.3933 178.82C71.3067 178.82 71.22 178.82 71.1333 178.82C71.0533 178.813 70.9733 178.81 70.8933 178.81C70.78 178.81 70.67 178.81 70.5633 178.81C70.4567 178.81 70.35 178.817 70.2433 178.83C70.1767 178.837 70.12 178.86 70.0733 178.9C70.0267 178.933 70.0033 178.993 70.0033 179.08C70.0033 179.387 70.0033 179.7 70.0033 180.02C70.01 180.333 70.02 180.657 70.0333 180.99C70.0467 181.203 70.0967 181.373 70.1833 181.5C70.2767 181.627 70.4467 181.713 70.6933 181.76C70.8067 181.78 70.89 181.803 70.9433 181.83C70.9967 181.857 71.0233 181.893 71.0233 181.94C71.0233 181.98 70.9967 182.007 70.9433 182.02C70.89 182.04 70.82 182.05 70.7333 182.05C70.5533 182.05 70.4133 182.043 70.3133 182.03C70.22 182.017 70.1333 182.007 70.0533 182C69.98 181.987 69.88 181.98 69.7533 181.98C69.5933 181.98 69.45 181.987 69.3233 182C69.2033 182.007 69.08 182.017 68.9533 182.03C68.8267 182.043 68.6733 182.05 68.4933 182.05ZM75.0578 182.14C74.6844 182.14 74.3478 182.053 74.0478 181.88C73.7478 181.707 73.5078 181.47 73.3278 181.17C73.1544 180.863 73.0678 180.517 73.0678 180.13C73.0678 179.85 73.1211 179.577 73.2278 179.31C73.3411 179.043 73.4978 178.8 73.6978 178.58C73.8978 178.36 74.1311 178.187 74.3978 178.06C74.6644 177.927 74.9511 177.86 75.2578 177.86C75.6444 177.86 75.9911 177.953 76.2978 178.14C76.6111 178.327 76.8578 178.573 77.0378 178.88C77.2244 179.18 77.3178 179.51 77.3178 179.87C77.3178 180.257 77.2311 180.623 77.0578 180.97C76.8911 181.317 76.6411 181.6 76.3078 181.82C75.9744 182.033 75.5578 182.14 75.0578 182.14ZM75.2678 181.84C75.4944 181.84 75.6978 181.797 75.8778 181.71C76.0578 181.623 76.1978 181.483 76.2978 181.29C76.3778 181.137 76.4311 180.95 76.4578 180.73C76.4844 180.51 76.4978 180.303 76.4978 180.11C76.4978 179.79 76.4378 179.483 76.3178 179.19C76.2044 178.89 76.0411 178.647 75.8278 178.46C75.6211 178.267 75.3744 178.17 75.0878 178.17C74.9078 178.17 74.7444 178.2 74.5978 178.26C74.4578 178.313 74.3278 178.417 74.2078 178.57C74.0744 178.737 73.9878 178.94 73.9478 179.18C73.9078 179.42 73.8878 179.66 73.8878 179.9C73.8878 180.227 73.9478 180.54 74.0678 180.84C74.1878 181.133 74.3511 181.373 74.5578 181.56C74.7644 181.747 75.0011 181.84 75.2678 181.84ZM78.1089 182.03C78.0489 182.03 77.9989 182.02 77.9589 182C77.9256 181.987 77.9089 181.96 77.9089 181.92C77.9089 181.867 77.9289 181.833 77.9689 181.82C78.0089 181.8 78.0656 181.78 78.1389 181.76C78.2389 181.733 78.3356 181.697 78.4289 181.65C78.5223 181.603 78.5689 181.513 78.5689 181.38V179.23C78.5689 179.05 78.5489 178.897 78.5089 178.77C78.4756 178.643 78.3723 178.557 78.1989 178.51C78.1723 178.497 78.1489 178.483 78.1289 178.47C78.1089 178.45 78.0989 178.42 78.0989 178.38C78.0989 178.307 78.1289 178.267 78.1889 178.26C78.4223 178.2 78.6123 178.127 78.7589 178.04C78.9056 177.953 79.0489 177.857 79.1889 177.75C79.2089 177.737 79.2256 177.727 79.2389 177.72C79.2589 177.707 79.2789 177.7 79.2989 177.7C79.3123 177.7 79.3223 177.707 79.3289 177.72C79.3423 177.733 79.3489 177.75 79.3489 177.77C79.3489 177.817 79.3389 177.913 79.3189 178.06C79.3056 178.2 79.2989 178.317 79.2989 178.41C79.2989 178.437 79.2989 178.463 79.2989 178.49C79.3056 178.51 79.3123 178.523 79.3189 178.53C79.5523 178.31 79.7989 178.143 80.0589 178.03C80.3256 177.917 80.6156 177.86 80.9289 177.86C81.2556 177.86 81.5256 177.993 81.7389 178.26C81.9523 178.527 82.0589 178.857 82.0589 179.25V181.38C82.0589 181.513 82.1056 181.603 82.1989 181.65C82.2923 181.69 82.3889 181.727 82.4889 181.76C82.5423 181.78 82.5923 181.803 82.6389 181.83C82.6923 181.85 82.7189 181.887 82.7189 181.94C82.7189 181.98 82.6956 182.003 82.6489 182.01C82.6023 182.023 82.5589 182.03 82.5189 182.03C82.3856 182.03 82.2823 182.023 82.2089 182.01C82.1356 182.003 82.0656 181.997 81.9989 181.99C81.9323 181.983 81.8389 181.98 81.7189 181.98C81.6056 181.98 81.5123 181.983 81.4389 181.99C81.3656 181.997 81.2889 182.003 81.2089 182.01C81.1356 182.023 81.0323 182.03 80.8989 182.03C80.8656 182.03 80.8223 182.023 80.7689 182.01C80.7223 182.003 80.6989 181.98 80.6989 181.94C80.6989 181.887 80.7223 181.85 80.7689 181.83C80.8223 181.803 80.8756 181.78 80.9289 181.76C81.0289 181.727 81.1256 181.69 81.2189 181.65C81.3123 181.603 81.3589 181.513 81.3589 181.38V179.28C81.3589 178.987 81.2756 178.76 81.1089 178.6C80.9489 178.433 80.7323 178.347 80.4589 178.34C80.2189 178.34 80.0089 178.38 79.8289 178.46C79.6489 178.533 79.4889 178.627 79.3489 178.74C79.3223 178.767 79.3023 178.803 79.2889 178.85C79.2756 178.89 79.2689 178.93 79.2689 178.97V181.38C79.2689 181.513 79.3156 181.603 79.4089 181.65C79.5023 181.697 79.5989 181.733 79.6989 181.76C79.8523 181.8 79.9289 181.853 79.9289 181.92C79.9289 181.96 79.9123 181.987 79.8789 182C79.8456 182.02 79.7956 182.03 79.7289 182.03C79.5956 182.03 79.4889 182.023 79.4089 182.01C79.3356 182.003 79.2656 181.997 79.1989 181.99C79.1323 181.983 79.0389 181.98 78.9189 181.98C78.8056 181.98 78.7123 181.983 78.6389 181.99C78.5723 181.997 78.4989 182.003 78.4189 182.01C78.3456 182.023 78.2423 182.03 78.1089 182.03ZM84.8421 182.14C84.5155 182.14 84.2588 182.04 84.0721 181.84C83.8921 181.64 83.8021 181.343 83.8021 180.95V178.63C83.8021 178.577 83.7821 178.54 83.7421 178.52C83.7021 178.493 83.6155 178.48 83.4821 178.48H83.4221C83.3888 178.48 83.3588 178.46 83.3321 178.42C83.3121 178.373 83.3021 178.327 83.3021 178.28C83.3021 178.267 83.3121 178.247 83.3321 178.22C83.3521 178.193 83.3655 178.177 83.3721 178.17C83.5055 178.077 83.6255 177.983 83.7321 177.89C83.8455 177.797 83.9455 177.707 84.0321 177.62C84.1255 177.527 84.2021 177.443 84.2621 177.37C84.2955 177.337 84.3221 177.31 84.3421 177.29C84.3688 177.263 84.3988 177.25 84.4321 177.25C84.4655 177.25 84.4955 177.257 84.5221 177.27C84.5555 177.283 84.5688 177.313 84.5621 177.36L84.5121 177.81C84.5055 177.883 84.5221 177.933 84.5621 177.96C84.6021 177.987 84.6655 178 84.7521 178H85.8921C85.9188 178 85.9421 178.023 85.9621 178.07C85.9821 178.11 85.9921 178.16 85.9921 178.22C85.9921 178.28 85.9821 178.34 85.9621 178.4C85.9421 178.453 85.9188 178.48 85.8921 178.48H84.9021C84.7355 178.48 84.6255 178.493 84.5721 178.52C84.5255 178.547 84.5021 178.627 84.5021 178.76V180.73C84.5021 180.997 84.5588 181.207 84.6721 181.36C84.7855 181.513 84.9488 181.59 85.1621 181.59C85.3555 181.59 85.5055 181.577 85.6121 181.55C85.7188 181.517 85.8155 181.47 85.9021 181.41C85.9155 181.397 85.9288 181.39 85.9421 181.39C85.9688 181.39 85.9855 181.407 85.9921 181.44C86.0055 181.467 86.0121 181.497 86.0121 181.53C86.0121 181.563 85.9555 181.63 85.8421 181.73C85.7355 181.83 85.5921 181.923 85.4121 182.01C85.2388 182.097 85.0488 182.14 84.8421 182.14ZM63.2946 195.19C63.2813 195.19 63.2579 195.177 63.2246 195.15C63.1979 195.123 63.1846 195.103 63.1846 195.09C63.1846 195.023 63.1913 194.93 63.2046 194.81C63.2246 194.683 63.2346 194.577 63.2346 194.49V194.43C63.1346 194.583 62.9746 194.74 62.7546 194.9C62.5346 195.06 62.2579 195.14 61.9246 195.14C61.5446 195.14 61.2146 195.04 60.9346 194.84C60.6613 194.64 60.4479 194.383 60.2946 194.07C60.1479 193.757 60.0746 193.433 60.0746 193.1C60.0746 192.713 60.1646 192.35 60.3446 192.01C60.5246 191.67 60.7813 191.393 61.1146 191.18C61.4546 190.967 61.8579 190.86 62.3246 190.86C62.4579 190.86 62.5913 190.873 62.7246 190.9C62.8646 190.92 62.9713 190.943 63.0446 190.97C63.1046 190.99 63.1479 191 63.1746 191C63.2213 191 63.2446 190.92 63.2446 190.76V189.34C63.2446 189.067 63.2013 188.883 63.1146 188.79C63.0279 188.697 62.9046 188.637 62.7446 188.61C62.6846 188.597 62.6546 188.553 62.6546 188.48C62.6546 188.42 62.6813 188.38 62.7346 188.36C63.0279 188.287 63.2579 188.217 63.4246 188.15C63.5913 188.083 63.7213 188.03 63.8146 187.99C63.8413 187.977 63.8646 187.97 63.8846 187.97C63.9113 187.963 63.9313 187.96 63.9446 187.96C63.9846 187.96 64.0079 187.98 64.0146 188.02C64.0146 188.06 64.0079 188.13 63.9946 188.23C63.9879 188.323 63.9779 188.463 63.9646 188.65C63.9513 188.837 63.9446 189.08 63.9446 189.38V193.9C63.9446 194.127 63.9613 194.293 63.9946 194.4C64.0279 194.5 64.0813 194.55 64.1546 194.55C64.1879 194.55 64.2446 194.547 64.3246 194.54C64.4113 194.533 64.4979 194.527 64.5846 194.52C64.7046 194.513 64.7646 194.543 64.7646 194.61C64.7646 194.657 64.7479 194.7 64.7146 194.74C64.6879 194.773 64.6579 194.79 64.6246 194.79C64.4379 194.817 64.2546 194.857 64.0746 194.91C63.8946 194.957 63.6879 195.03 63.4546 195.13C63.4013 195.157 63.3646 195.173 63.3446 195.18C63.3313 195.187 63.3146 195.19 63.2946 195.19ZM62.2846 194.62C62.4579 194.62 62.6279 194.577 62.7946 194.49C62.9613 194.397 63.1079 194.277 63.2346 194.13L63.2446 192.33C63.2446 192.15 63.1913 191.973 63.0846 191.8C62.9846 191.627 62.8413 191.487 62.6546 191.38C62.4746 191.267 62.2613 191.21 62.0146 191.21C61.8613 191.21 61.6879 191.257 61.4946 191.35C61.3013 191.443 61.1346 191.61 60.9946 191.85C60.8546 192.083 60.7846 192.423 60.7846 192.87C60.7846 193.25 60.8413 193.557 60.9546 193.79C61.0679 194.017 61.2046 194.19 61.3646 194.31C61.5313 194.43 61.6979 194.513 61.8646 194.56C62.0379 194.6 62.1779 194.62 62.2846 194.62ZM65.2232 195.03C65.1632 195.03 65.1132 195.02 65.0732 195C65.0399 194.987 65.0232 194.96 65.0232 194.92C65.0232 194.867 65.0465 194.83 65.0932 194.81C65.1465 194.79 65.1999 194.773 65.2532 194.76C65.3932 194.727 65.4999 194.687 65.5732 194.64C65.6465 194.587 65.6832 194.5 65.6832 194.38V192.21C65.6832 192.03 65.6499 191.87 65.5832 191.73C65.5232 191.59 65.4065 191.507 65.2332 191.48C65.1999 191.473 65.1732 191.46 65.1532 191.44C65.1399 191.42 65.1332 191.39 65.1332 191.35C65.1332 191.277 65.1632 191.237 65.2232 191.23C65.4899 191.17 65.7099 191.09 65.8832 190.99C66.0565 190.883 66.1865 190.797 66.2732 190.73C66.3332 190.683 66.3799 190.66 66.4132 190.66C66.4532 190.66 66.4732 190.677 66.4732 190.71C66.4732 190.763 66.4632 190.87 66.4432 191.03C66.4299 191.183 66.4165 191.357 66.4032 191.55C66.3899 191.737 66.3832 191.907 66.3832 192.06V194.38C66.3832 194.493 66.4199 194.577 66.4932 194.63C66.5732 194.683 66.6799 194.727 66.8132 194.76C66.8665 194.773 66.9165 194.79 66.9632 194.81C67.0165 194.83 67.0432 194.867 67.0432 194.92C67.0432 194.993 66.9765 195.03 66.8432 195.03C66.7165 195.03 66.6132 195.023 66.5332 195.01C66.4599 195.003 66.3865 194.997 66.3132 194.99C66.2465 194.983 66.1532 194.98 66.0332 194.98C65.9199 194.98 65.8265 194.983 65.7532 194.99C65.6799 194.997 65.6065 195.003 65.5332 195.01C65.4599 195.023 65.3565 195.03 65.2232 195.03ZM66.0232 189.84C65.8832 189.84 65.7632 189.793 65.6632 189.7C65.5699 189.6 65.5232 189.48 65.5232 189.34C65.5232 189.193 65.5699 189.073 65.6632 188.98C65.7632 188.88 65.8832 188.83 66.0232 188.83C66.1699 188.83 66.2899 188.88 66.3832 188.98C66.4832 189.073 66.5332 189.193 66.5332 189.34C66.5332 189.48 66.4832 189.6 66.3832 189.7C66.2899 189.793 66.1699 189.84 66.0232 189.84ZM67.7244 195.03C67.6577 195.03 67.6077 195.02 67.5744 195C67.541 194.987 67.5244 194.96 67.5244 194.92C67.5244 194.867 67.5444 194.833 67.5844 194.82C67.6244 194.8 67.681 194.78 67.7544 194.76C67.881 194.727 67.9744 194.68 68.0344 194.62C68.101 194.553 68.1344 194.473 68.1344 194.38V192.23C68.1344 192.05 68.1077 191.893 68.0544 191.76C68.001 191.627 67.891 191.543 67.7244 191.51C67.6977 191.503 67.6744 191.487 67.6544 191.46C67.6344 191.433 67.6244 191.407 67.6244 191.38C67.6244 191.313 67.6544 191.273 67.7144 191.26C67.8877 191.207 68.0677 191.13 68.2544 191.03C68.4477 190.923 68.5977 190.837 68.7044 190.77C68.7444 190.743 68.7744 190.727 68.7944 190.72C68.821 190.707 68.841 190.7 68.8544 190.7C68.8877 190.7 68.9044 190.723 68.9044 190.77C68.9044 190.79 68.901 190.84 68.8944 190.92C68.8944 191 68.891 191.093 68.8844 191.2C68.8844 191.307 68.881 191.413 68.8744 191.52C68.8744 191.533 68.881 191.54 68.8944 191.54C69.001 191.407 69.1177 191.29 69.2444 191.19C69.3777 191.09 69.511 191.01 69.6444 190.95C69.7844 190.89 69.9177 190.86 70.0444 190.86C70.1844 190.86 70.2977 190.89 70.3844 190.95C70.4777 191.01 70.5244 191.087 70.5244 191.18C70.5244 191.247 70.5044 191.32 70.4644 191.4C70.431 191.48 70.3844 191.55 70.3244 191.61C70.2644 191.67 70.201 191.7 70.1344 191.7C70.0944 191.7 70.051 191.693 70.0044 191.68C69.9577 191.66 69.9077 191.637 69.8544 191.61C69.801 191.59 69.7477 191.57 69.6944 191.55C69.641 191.53 69.5877 191.52 69.5344 191.52C69.3744 191.52 69.2177 191.577 69.0644 191.69C68.9177 191.803 68.8444 192.027 68.8444 192.36V194.38C68.8444 194.467 68.891 194.54 68.9844 194.6C69.0777 194.653 69.2077 194.707 69.3744 194.76C69.4477 194.78 69.5044 194.8 69.5444 194.82C69.5844 194.84 69.6044 194.873 69.6044 194.92C69.6044 194.993 69.5377 195.03 69.4044 195.03C69.2044 195.03 69.051 195.02 68.9444 195C68.8444 194.987 68.7077 194.98 68.5344 194.98C68.421 194.98 68.3277 194.983 68.2544 194.99C68.1877 194.997 68.1144 195.003 68.0344 195.01C67.961 195.023 67.8577 195.03 67.7244 195.03ZM72.7042 195.15C72.3376 195.15 72.0176 195.06 71.7442 194.88C71.4709 194.7 71.2576 194.447 71.1042 194.12C70.9509 193.787 70.8742 193.403 70.8742 192.97C70.8742 192.583 70.9609 192.233 71.1342 191.92C71.3142 191.6 71.5509 191.343 71.8442 191.15C72.1376 190.957 72.4576 190.86 72.8042 190.86C73.0709 190.86 73.3076 190.913 73.5142 191.02C73.7209 191.127 73.8809 191.277 73.9942 191.47C74.1142 191.657 74.1742 191.873 74.1742 192.12C74.1742 192.327 74.0742 192.43 73.8742 192.43H71.7642C71.6709 192.43 71.6042 192.457 71.5642 192.51C71.5309 192.557 71.5142 192.653 71.5142 192.8C71.5142 193.12 71.5842 193.413 71.7242 193.68C71.8642 193.94 72.0509 194.15 72.2842 194.31C72.5176 194.463 72.7742 194.54 73.0542 194.54C73.2542 194.54 73.4342 194.503 73.5942 194.43C73.7609 194.35 73.9076 194.237 74.0342 194.09C74.0609 194.057 74.0809 194.037 74.0942 194.03C74.1076 194.017 74.1242 194.01 74.1442 194.01C74.1976 194.01 74.2242 194.043 74.2242 194.11C74.2242 194.237 74.1642 194.377 74.0442 194.53C73.9442 194.657 73.8242 194.767 73.6842 194.86C73.5442 194.953 73.3909 195.023 73.2242 195.07C73.0576 195.123 72.8842 195.15 72.7042 195.15ZM71.7842 192.12H72.6942C72.8542 192.12 72.9909 192.117 73.1042 192.11C73.2176 192.103 73.3276 192.09 73.4342 192.07C73.4676 192.063 73.4876 192.043 73.4942 192.01C73.5076 191.97 73.5142 191.917 73.5142 191.85C73.5142 191.657 73.4276 191.493 73.2542 191.36C73.0876 191.22 72.8876 191.15 72.6542 191.15C72.5009 191.15 72.3476 191.197 72.1942 191.29C72.0409 191.377 71.9142 191.487 71.8142 191.62C71.7142 191.753 71.6642 191.887 71.6642 192.02C71.6642 192.087 71.7042 192.12 71.7842 192.12ZM76.503 195.15C76.1697 195.15 75.8664 195.067 75.593 194.9C75.3264 194.727 75.113 194.493 74.953 194.2C74.7997 193.9 74.723 193.567 74.723 193.2C74.723 192.767 74.8164 192.373 75.003 192.02C75.1964 191.667 75.453 191.387 75.773 191.18C76.093 190.967 76.4464 190.86 76.833 190.86C77.2664 190.86 77.6464 190.977 77.973 191.21C78.053 191.27 78.093 191.333 78.093 191.4C78.093 191.453 78.0697 191.513 78.023 191.58C77.9764 191.647 77.9197 191.703 77.853 191.75C77.7864 191.79 77.723 191.81 77.663 191.81C77.6297 191.81 77.5964 191.8 77.563 191.78C77.5297 191.753 77.493 191.727 77.453 191.7C77.3064 191.587 77.143 191.48 76.963 191.38C76.783 191.28 76.633 191.23 76.513 191.23C76.1864 191.23 75.9197 191.383 75.713 191.69C75.513 191.99 75.413 192.387 75.413 192.88C75.413 193.193 75.4797 193.477 75.613 193.73C75.753 193.983 75.9364 194.183 76.163 194.33C76.3964 194.477 76.653 194.55 76.933 194.55C77.1264 194.55 77.293 194.52 77.433 194.46C77.573 194.393 77.723 194.28 77.883 194.12C77.8964 194.107 77.913 194.097 77.933 194.09C77.953 194.077 77.9697 194.07 77.983 194.07C78.0564 194.07 78.093 194.117 78.093 194.21C78.093 194.25 78.0797 194.297 78.053 194.35C78.033 194.397 77.9964 194.453 77.943 194.52C77.8364 194.653 77.7097 194.77 77.563 194.87C77.4164 194.963 77.253 195.033 77.073 195.08C76.8997 195.127 76.7097 195.15 76.503 195.15ZM80.3353 195.14C80.0086 195.14 79.752 195.04 79.5653 194.84C79.3853 194.64 79.2953 194.343 79.2953 193.95V191.63C79.2953 191.577 79.2753 191.54 79.2353 191.52C79.1953 191.493 79.1086 191.48 78.9753 191.48H78.9153C78.882 191.48 78.852 191.46 78.8253 191.42C78.8053 191.373 78.7953 191.327 78.7953 191.28C78.7953 191.267 78.8053 191.247 78.8253 191.22C78.8453 191.193 78.8586 191.177 78.8653 191.17C78.9986 191.077 79.1186 190.983 79.2253 190.89C79.3386 190.797 79.4386 190.707 79.5253 190.62C79.6186 190.527 79.6953 190.443 79.7553 190.37C79.7886 190.337 79.8153 190.31 79.8353 190.29C79.862 190.263 79.892 190.25 79.9253 190.25C79.9586 190.25 79.9886 190.257 80.0153 190.27C80.0486 190.283 80.062 190.313 80.0553 190.36L80.0053 190.81C79.9986 190.883 80.0153 190.933 80.0553 190.96C80.0953 190.987 80.1586 191 80.2453 191H81.3853C81.412 191 81.4353 191.023 81.4553 191.07C81.4753 191.11 81.4853 191.16 81.4853 191.22C81.4853 191.28 81.4753 191.34 81.4553 191.4C81.4353 191.453 81.412 191.48 81.3853 191.48H80.3953C80.2286 191.48 80.1186 191.493 80.0653 191.52C80.0186 191.547 79.9953 191.627 79.9953 191.76V193.73C79.9953 193.997 80.052 194.207 80.1653 194.36C80.2786 194.513 80.442 194.59 80.6553 194.59C80.8486 194.59 80.9986 194.577 81.1053 194.55C81.212 194.517 81.3086 194.47 81.3953 194.41C81.4086 194.397 81.422 194.39 81.4353 194.39C81.462 194.39 81.4786 194.407 81.4853 194.44C81.4986 194.467 81.5053 194.497 81.5053 194.53C81.5053 194.563 81.4486 194.63 81.3353 194.73C81.2286 194.83 81.0853 194.923 80.9053 195.01C80.732 195.097 80.542 195.14 80.3353 195.14ZM82.0298 195.03C81.9698 195.03 81.9198 195.02 81.8798 195C81.8465 194.987 81.8298 194.96 81.8298 194.92C81.8298 194.867 81.8532 194.83 81.8998 194.81C81.9532 194.79 82.0065 194.773 82.0598 194.76C82.1998 194.727 82.3065 194.687 82.3798 194.64C82.4532 194.587 82.4898 194.5 82.4898 194.38V192.21C82.4898 192.03 82.4565 191.87 82.3898 191.73C82.3298 191.59 82.2132 191.507 82.0398 191.48C82.0065 191.473 81.9798 191.46 81.9598 191.44C81.9465 191.42 81.9398 191.39 81.9398 191.35C81.9398 191.277 81.9698 191.237 82.0298 191.23C82.2965 191.17 82.5165 191.09 82.6898 190.99C82.8632 190.883 82.9932 190.797 83.0798 190.73C83.1398 190.683 83.1865 190.66 83.2198 190.66C83.2598 190.66 83.2798 190.677 83.2798 190.71C83.2798 190.763 83.2698 190.87 83.2498 191.03C83.2365 191.183 83.2232 191.357 83.2098 191.55C83.1965 191.737 83.1898 191.907 83.1898 192.06V194.38C83.1898 194.493 83.2265 194.577 83.2998 194.63C83.3798 194.683 83.4865 194.727 83.6198 194.76C83.6732 194.773 83.7232 194.79 83.7698 194.81C83.8232 194.83 83.8498 194.867 83.8498 194.92C83.8498 194.993 83.7832 195.03 83.6498 195.03C83.5232 195.03 83.4198 195.023 83.3398 195.01C83.2665 195.003 83.1932 194.997 83.1198 194.99C83.0532 194.983 82.9598 194.98 82.8398 194.98C82.7265 194.98 82.6332 194.983 82.5598 194.99C82.4865 194.997 82.4132 195.003 82.3398 195.01C82.2665 195.023 82.1632 195.03 82.0298 195.03ZM82.8298 189.84C82.6898 189.84 82.5698 189.793 82.4698 189.7C82.3765 189.6 82.3298 189.48 82.3298 189.34C82.3298 189.193 82.3765 189.073 82.4698 188.98C82.5698 188.88 82.6898 188.83 82.8298 188.83C82.9765 188.83 83.0965 188.88 83.1898 188.98C83.2898 189.073 83.3398 189.193 83.3398 189.34C83.3398 189.48 83.2898 189.6 83.1898 189.7C83.0965 189.793 82.9765 189.84 82.8298 189.84ZM86.381 195.14C86.0077 195.14 85.671 195.053 85.371 194.88C85.071 194.707 84.831 194.47 84.651 194.17C84.4777 193.863 84.391 193.517 84.391 193.13C84.391 192.85 84.4443 192.577 84.551 192.31C84.6643 192.043 84.821 191.8 85.021 191.58C85.221 191.36 85.4543 191.187 85.721 191.06C85.9877 190.927 86.2743 190.86 86.581 190.86C86.9677 190.86 87.3143 190.953 87.621 191.14C87.9343 191.327 88.181 191.573 88.361 191.88C88.5477 192.18 88.641 192.51 88.641 192.87C88.641 193.257 88.5543 193.623 88.381 193.97C88.2143 194.317 87.9643 194.6 87.631 194.82C87.2977 195.033 86.881 195.14 86.381 195.14ZM86.591 194.84C86.8177 194.84 87.021 194.797 87.201 194.71C87.381 194.623 87.521 194.483 87.621 194.29C87.701 194.137 87.7543 193.95 87.781 193.73C87.8077 193.51 87.821 193.303 87.821 193.11C87.821 192.79 87.761 192.483 87.641 192.19C87.5277 191.89 87.3643 191.647 87.151 191.46C86.9443 191.267 86.6977 191.17 86.411 191.17C86.231 191.17 86.0677 191.2 85.921 191.26C85.781 191.313 85.651 191.417 85.531 191.57C85.3977 191.737 85.311 191.94 85.271 192.18C85.231 192.42 85.211 192.66 85.211 192.9C85.211 193.227 85.271 193.54 85.391 193.84C85.511 194.133 85.6743 194.373 85.881 194.56C86.0877 194.747 86.3243 194.84 86.591 194.84ZM89.4322 195.03C89.3722 195.03 89.3222 195.02 89.2822 195C89.2489 194.987 89.2322 194.96 89.2322 194.92C89.2322 194.867 89.2522 194.833 89.2922 194.82C89.3322 194.8 89.3889 194.78 89.4622 194.76C89.5622 194.733 89.6589 194.697 89.7522 194.65C89.8455 194.603 89.8922 194.513 89.8922 194.38V192.23C89.8922 192.05 89.8722 191.897 89.8322 191.77C89.7989 191.643 89.6955 191.557 89.5222 191.51C89.4955 191.497 89.4722 191.483 89.4522 191.47C89.4322 191.45 89.4222 191.42 89.4222 191.38C89.4222 191.307 89.4522 191.267 89.5122 191.26C89.7455 191.2 89.9355 191.127 90.0822 191.04C90.2289 190.953 90.3722 190.857 90.5122 190.75C90.5322 190.737 90.5489 190.727 90.5622 190.72C90.5822 190.707 90.6022 190.7 90.6222 190.7C90.6355 190.7 90.6455 190.707 90.6522 190.72C90.6655 190.733 90.6722 190.75 90.6722 190.77C90.6722 190.817 90.6622 190.913 90.6422 191.06C90.6289 191.2 90.6222 191.317 90.6222 191.41C90.6222 191.437 90.6222 191.463 90.6222 191.49C90.6289 191.51 90.6355 191.523 90.6422 191.53C90.8755 191.31 91.1222 191.143 91.3822 191.03C91.6489 190.917 91.9389 190.86 92.2522 190.86C92.5789 190.86 92.8489 190.993 93.0622 191.26C93.2755 191.527 93.3822 191.857 93.3822 192.25V194.38C93.3822 194.513 93.4289 194.603 93.5222 194.65C93.6155 194.69 93.7122 194.727 93.8122 194.76C93.8655 194.78 93.9155 194.803 93.9622 194.83C94.0155 194.85 94.0422 194.887 94.0422 194.94C94.0422 194.98 94.0189 195.003 93.9722 195.01C93.9255 195.023 93.8822 195.03 93.8422 195.03C93.7089 195.03 93.6055 195.023 93.5322 195.01C93.4589 195.003 93.3889 194.997 93.3222 194.99C93.2555 194.983 93.1622 194.98 93.0422 194.98C92.9289 194.98 92.8355 194.983 92.7622 194.99C92.6889 194.997 92.6122 195.003 92.5322 195.01C92.4589 195.023 92.3555 195.03 92.2222 195.03C92.1889 195.03 92.1455 195.023 92.0922 195.01C92.0455 195.003 92.0222 194.98 92.0222 194.94C92.0222 194.887 92.0455 194.85 92.0922 194.83C92.1455 194.803 92.1989 194.78 92.2522 194.76C92.3522 194.727 92.4489 194.69 92.5422 194.65C92.6355 194.603 92.6822 194.513 92.6822 194.38V192.28C92.6822 191.987 92.5989 191.76 92.4322 191.6C92.2722 191.433 92.0555 191.347 91.7822 191.34C91.5422 191.34 91.3322 191.38 91.1522 191.46C90.9722 191.533 90.8122 191.627 90.6722 191.74C90.6455 191.767 90.6255 191.803 90.6122 191.85C90.5989 191.89 90.5922 191.93 90.5922 191.97V194.38C90.5922 194.513 90.6389 194.603 90.7322 194.65C90.8255 194.697 90.9222 194.733 91.0222 194.76C91.1755 194.8 91.2522 194.853 91.2522 194.92C91.2522 194.96 91.2355 194.987 91.2022 195C91.1689 195.02 91.1189 195.03 91.0522 195.03C90.9189 195.03 90.8122 195.023 90.7322 195.01C90.6589 195.003 90.5889 194.997 90.5222 194.99C90.4555 194.983 90.3622 194.98 90.2422 194.98C90.1289 194.98 90.0355 194.983 89.9622 194.99C89.8955 194.997 89.8222 195.003 89.7422 195.01C89.6689 195.023 89.5655 195.03 89.4322 195.03Z" fill="#9B51E0"/>
<line x1="8.74228e-08" y1="140" x2="200" y2="140" stroke="#56CCF2" stroke-width="2"/>
<line x1="67.6075" y1="140" x2="86.2178" y2="140" stroke="#2F80ED" stroke-width="2"/>
<path d="M25.0175 163.707C25.408 164.098 26.0412 164.098 26.4317 163.707L32.7957 157.343C33.1862 156.953 33.1862 156.319 32.7957 155.929C32.4052 155.538 31.772 155.538 31.3815 155.929L25.7246 161.586L20.0678 155.929C19.6772 155.538 19.0441 155.538 18.6535 155.929C18.263 156.319 18.263 156.953 18.6535 157.343L25.0175 163.707ZM25.7246 141L24.7246 141L24.7246 163L25.7246 163L26.7246 163L26.7246 141L25.7246 141Z" fill="#56CCF2"/>
<path d="M76.2929 163.707C76.6834 164.098 77.3166 164.098 77.7071 163.707L84.0711 157.343C84.4616 156.953 84.4616 156.319 84.0711 155.929C83.6805 155.538 83.0474 155.538 82.6569 155.929L77 161.586L71.3431 155.929C70.9526 155.538 70.3195 155.538 69.9289 155.929C69.5384 156.319 69.5384 156.953 69.9289 157.343L76.2929 163.707ZM77 141L76 141L76 163L77 163L78 163L78 141L77 141Z" fill="#9B51E0"/>
<path d="M126.915 169.82C125.982 169.82 125.308 169.66 124.895 169.34C124.468 169.02 124.255 168.673 124.255 168.3C124.255 167.967 124.368 167.693 124.595 167.48C124.822 167.267 125.055 167.16 125.295 167.16C125.415 167.16 125.555 167.253 125.715 167.44C125.862 167.64 126.002 167.833 126.135 168.02C126.268 168.22 126.415 168.407 126.575 168.58C126.735 168.767 126.935 168.86 127.175 168.86C127.375 168.86 127.555 168.773 127.715 168.6C127.862 168.44 128.008 168.2 128.155 167.88C128.288 167.573 128.415 167.2 128.535 166.76L131.255 157.08C131.308 156.84 131.215 156.72 130.975 156.72L129.775 156.74C129.642 156.74 129.548 156.713 129.495 156.66C129.442 156.607 129.415 156.52 129.415 156.4C129.415 156.293 129.475 156.153 129.595 155.98C129.715 155.807 129.882 155.713 130.095 155.7L131.355 155.64C131.462 155.64 131.542 155.547 131.595 155.36L131.755 154.86C132.142 153.647 132.628 152.68 133.215 151.96C133.815 151.227 134.455 150.7 135.135 150.38C135.815 150.047 136.455 149.88 137.055 149.88C137.655 149.88 138.162 150.02 138.575 150.3C138.988 150.58 139.195 150.94 139.195 151.38C139.195 151.727 139.108 152.047 138.935 152.34C138.762 152.633 138.542 152.78 138.275 152.78C138.048 152.78 137.882 152.673 137.775 152.46C137.682 152.233 137.582 151.987 137.475 151.72C137.368 151.453 137.242 151.22 137.095 151.02C136.948 150.807 136.742 150.7 136.475 150.7C136.222 150.7 135.988 150.827 135.775 151.08C135.562 151.32 135.368 151.647 135.195 152.06C135.022 152.46 134.855 152.92 134.695 153.44C134.615 153.72 134.542 153.987 134.475 154.24C134.422 154.493 134.368 154.733 134.315 154.96C134.302 155.027 134.288 155.093 134.275 155.16C134.275 155.213 134.268 155.273 134.255 155.34C134.242 155.46 134.268 155.54 134.335 155.58C134.402 155.62 134.482 155.64 134.575 155.64C134.935 155.64 135.268 155.633 135.575 155.62C135.882 155.593 136.202 155.58 136.535 155.58C136.668 155.58 136.735 155.673 136.735 155.86C136.735 155.927 136.702 156.027 136.635 156.16C136.568 156.28 136.495 156.393 136.415 156.5C136.335 156.593 136.262 156.64 136.195 156.64L134.575 156.7C134.348 156.713 134.175 156.753 134.055 156.82C133.948 156.887 133.868 157.007 133.815 157.18C133.415 158.607 133.002 160.067 132.575 161.56C132.162 163.053 131.755 164.527 131.355 165.98C131.235 166.433 131.002 166.88 130.655 167.32C130.308 167.773 129.902 168.187 129.435 168.56C128.982 168.947 128.535 169.253 128.095 169.48C127.655 169.707 127.262 169.82 126.915 169.82ZM141.917 157.68C141.824 157.68 141.744 157.653 141.677 157.6C141.624 157.547 141.597 157.493 141.597 157.44C141.597 157.36 141.611 157.247 141.637 157.1C141.677 156.953 141.737 156.827 141.817 156.72C141.897 156.613 142.004 156.56 142.137 156.56H151.917C152.037 156.56 152.137 156.587 152.217 156.64C152.297 156.693 152.337 156.767 152.337 156.86C152.337 157.02 152.271 157.2 152.137 157.4C152.017 157.587 151.871 157.68 151.697 157.68H141.917ZM141.917 161.3C141.824 161.3 141.744 161.273 141.677 161.22C141.624 161.153 141.597 161.093 141.597 161.04C141.597 160.973 141.611 160.867 141.637 160.72C141.677 160.573 141.737 160.447 141.817 160.34C141.897 160.233 142.004 160.18 142.137 160.18H151.917C152.037 160.18 152.137 160.207 152.217 160.26C152.297 160.313 152.337 160.387 152.337 160.48C152.337 160.64 152.271 160.82 152.137 161.02C152.017 161.207 151.871 161.3 151.697 161.3H141.917ZM160.342 164.06C160.262 164.06 160.182 164.033 160.102 163.98C160.022 163.927 159.982 163.86 159.982 163.78C159.982 163.567 160.108 163.427 160.362 163.36C160.735 163.267 161.055 163.173 161.322 163.08C161.588 162.987 161.795 162.86 161.942 162.7C162.088 162.527 162.162 162.3 162.162 162.02V154.78C162.162 154.46 162.075 154.22 161.902 154.06C161.742 153.887 161.528 153.76 161.262 153.68C161.008 153.6 160.735 153.54 160.442 153.5C160.335 153.473 160.222 153.427 160.102 153.36C159.982 153.293 159.922 153.187 159.922 153.04C159.922 152.867 159.982 152.747 160.102 152.68C160.235 152.6 160.382 152.553 160.542 152.54C161.328 152.473 162.035 152.347 162.662 152.16C163.288 151.973 163.908 151.7 164.522 151.34C164.548 151.327 164.582 151.313 164.622 151.3C164.662 151.287 164.702 151.28 164.742 151.28C164.835 151.28 164.922 151.3 165.002 151.34C165.095 151.38 165.142 151.427 165.142 151.48C165.142 151.653 165.122 151.853 165.082 152.08C165.055 152.293 165.042 152.58 165.042 152.94V162.04C165.042 162.293 165.122 162.5 165.282 162.66C165.442 162.82 165.668 162.953 165.962 163.06C166.255 163.153 166.595 163.253 166.982 163.36C167.088 163.4 167.175 163.447 167.242 163.5C167.308 163.553 167.342 163.64 167.342 163.76C167.342 163.947 167.242 164.04 167.042 164.04C166.735 164.04 166.368 164.033 165.942 164.02C165.528 164.007 165.115 163.993 164.702 163.98C164.302 163.967 163.955 163.96 163.662 163.96C163.382 163.96 163.042 163.967 162.642 163.98C162.242 163.993 161.835 164.007 161.422 164.02C161.008 164.047 160.648 164.06 160.342 164.06Z" fill="#6FCF97"/>
</g>
<defs>
<clipPath id="clip0_1_2">
<rect width="200" height="200" fill="white"/>
</clipPath>
</defs>
</svg>
