<svg width="200" height="200" viewBox="0 0 200 200" fill="none" xmlns="http://www.w3.org/2000/svg">
<g clip-path="url(#clip0_1_16)">
<rect width="200" height="200" fill="#F6F6F6"/>
<path d="M151.2 30.4C150.667 35.4667 150.267 40.4 150 45.2C149.867 49.8667 149.8 53.4667 149.8 56C149.8 59.2 149.867 62.2 150 65C150.133 67.8 150.267 70.2667 150.4 72.4H145.8C144.867 63.0667 143.6 55.7333 142 50.4C140.4 44.9333 137.6 41 133.6 38.6C129.6 36.2 123.4 35 115 35H102.4C97.8667 35 94.4 35.4 92 36.2C89.7333 36.8667 88.2 38.4 87.4 40.8C86.6 43.0667 86.2 46.6667 86.2 51.6V150.8C86.2 155.6 86.6667 159.2 87.6 161.6C88.6667 164 90.6667 165.6 93.6 166.4C96.5333 167.2 100.8 167.733 106.4 168V172C102.933 171.733 98.5333 171.6 93.2 171.6C87.8667 171.467 82.4667 171.4 77 171.4C71.8 171.4 66.9333 171.467 62.4 171.6C57.8667 171.6 54.2 171.733 51.4 172V168C55.9333 167.733 59.3333 167.2 61.6 166.4C64 165.6 65.6 164 66.4 161.6C67.2 159.2 67.6 155.6 67.6 150.8V51.6C67.6 46.6667 67.2 43.0667 66.4 40.8C65.6 38.4 64 36.8 61.6 36C59.3333 35.0667 55.9333 34.5333 51.4 34.4V30.4C56.3333 30.5333 61.5333 30.6667 67 30.8C72.4667 30.8 77.8667 30.8667 83.2 31C88.5333 31 93.4667 31 98 31C102.667 31 106.467 31 109.4 31C115.533 31 122.467 31 130.2 31C138.067 30.8667 145.067 30.6667 151.2 30.4ZM120.2 100.8C120.2 100.8 120.2 101.467 120.2 102.8C120.2 104.133 120.2 104.8 120.2 104.8H80.2C80.2 104.8 80.2 104.133 80.2 102.8C80.2 101.467 80.2 100.8 80.2 100.8H120.2ZM124 74.4C123.467 82 123.2 87.8 123.2 91.8C123.333 95.8 123.4 99.4667 123.4 102.8C123.4 106.133 123.467 109.8 123.6 113.8C123.733 117.8 124.067 123.6 124.6 131.2H120C119.467 126.933 118.8 122.8 118 118.8C117.333 114.667 115.733 111.333 113.2 108.8C110.8 106.133 106.667 104.8 100.8 104.8V100.8C105.2 100.8 108.533 99.9333 110.8 98.2C113.2 96.3333 114.933 94 116 91.2C117.067 88.4 117.8 85.5333 118.2 82.6C118.6 79.5333 119 76.8 119.4 74.4H124Z" fill="#CECECE"/>
<path d="M14.0683 14.934C13.7883 14.934 13.5283 14.8907 13.2883 14.804C13.055 14.724 12.845 14.6073 12.6583 14.454C12.6317 14.4273 12.605 14.3973 12.5783 14.364C12.5583 14.3307 12.5417 14.294 12.5283 14.254C12.495 14.1207 12.4717 13.9473 12.4583 13.734C12.4517 13.5207 12.4417 13.344 12.4283 13.204C12.4283 13.1573 12.4483 13.124 12.4883 13.104C12.5283 13.0773 12.575 13.064 12.6283 13.064C12.6617 13.064 12.695 13.074 12.7283 13.094C12.7617 13.1073 12.7817 13.134 12.7883 13.174C12.9217 13.6873 13.1183 14.054 13.3783 14.274C13.645 14.494 13.9217 14.604 14.2083 14.604C14.4417 14.604 14.6483 14.554 14.8283 14.454C15.0083 14.354 15.1483 14.214 15.2483 14.034C15.355 13.8473 15.4083 13.6307 15.4083 13.384C15.4083 13.1107 15.3617 12.8907 15.2683 12.724C15.1817 12.5507 15.055 12.4007 14.8883 12.274C14.7217 12.1473 14.5183 12.0107 14.2783 11.864C14.0183 11.6973 13.7617 11.5307 13.5083 11.364C13.255 11.1907 13.045 10.994 12.8783 10.774C12.7117 10.5473 12.6283 10.274 12.6283 9.95399C12.6283 9.61399 12.705 9.30732 12.8583 9.03399C13.0117 8.76065 13.2417 8.54399 13.5483 8.38399C13.8617 8.21732 14.2517 8.13399 14.7183 8.13399C14.9583 8.13399 15.165 8.16065 15.3383 8.21399C15.5183 8.26065 15.6617 8.30732 15.7683 8.35399C15.8217 8.37399 15.865 8.40732 15.8983 8.45399C15.9383 8.50065 15.965 8.55065 15.9783 8.60399C16.0183 8.74399 16.0617 8.90399 16.1083 9.08399C16.155 9.26399 16.1783 9.43399 16.1783 9.59399C16.1783 9.66732 16.1283 9.70399 16.0283 9.70399C15.9683 9.70399 15.9083 9.69065 15.8483 9.66399C15.795 9.63732 15.7617 9.60399 15.7483 9.56399C15.6083 9.21065 15.445 8.94065 15.2583 8.75399C15.0717 8.56732 14.835 8.47399 14.5483 8.47399C14.3483 8.47399 14.1617 8.51065 13.9883 8.58399C13.815 8.65732 13.6717 8.77732 13.5583 8.94399C13.4517 9.11065 13.3983 9.33399 13.3983 9.61399C13.3983 9.81399 13.4617 9.99732 13.5883 10.164C13.7217 10.324 13.895 10.4773 14.1083 10.624C14.3217 10.7707 14.5517 10.9207 14.7983 11.074C15.0317 11.214 15.2583 11.3673 15.4783 11.534C15.705 11.7007 15.8883 11.9007 16.0283 12.134C16.175 12.3607 16.2483 12.6407 16.2483 12.974C16.2483 13.3673 16.1583 13.714 15.9783 14.014C15.7983 14.3073 15.545 14.534 15.2183 14.694C14.8917 14.854 14.5083 14.934 14.0683 14.934ZM18.5668 14.914C18.2401 14.914 17.9834 14.814 17.7968 14.614C17.6168 14.414 17.5268 14.1173 17.5268 13.724V11.404C17.5268 11.3507 17.5068 11.314 17.4668 11.294C17.4268 11.2673 17.3401 11.254 17.2068 11.254H17.1468C17.1134 11.254 17.0834 11.234 17.0568 11.194C17.0368 11.1473 17.0268 11.1007 17.0268 11.054C17.0268 11.0407 17.0368 11.0207 17.0568 10.994C17.0768 10.9673 17.0901 10.9507 17.0968 10.944C17.2301 10.8507 17.3501 10.7573 17.4568 10.664C17.5701 10.5707 17.6701 10.4807 17.7568 10.394C17.8501 10.3007 17.9268 10.2173 17.9868 10.144C18.0201 10.1107 18.0468 10.084 18.0668 10.064C18.0934 10.0373 18.1234 10.024 18.1568 10.024C18.1901 10.024 18.2201 10.0307 18.2468 10.044C18.2801 10.0573 18.2934 10.0873 18.2868 10.134L18.2368 10.584C18.2301 10.6573 18.2468 10.7073 18.2868 10.734C18.3268 10.7607 18.3901 10.774 18.4768 10.774H19.6168C19.6434 10.774 19.6668 10.7973 19.6868 10.844C19.7068 10.884 19.7168 10.934 19.7168 10.994C19.7168 11.054 19.7068 11.114 19.6868 11.174C19.6668 11.2273 19.6434 11.254 19.6168 11.254H18.6268C18.4601 11.254 18.3501 11.2673 18.2968 11.294C18.2501 11.3207 18.2268 11.4007 18.2268 11.534V13.504C18.2268 13.7707 18.2834 13.9807 18.3968 14.134C18.5101 14.2873 18.6734 14.364 18.8868 14.364C19.0801 14.364 19.2301 14.3507 19.3368 14.324C19.4434 14.2907 19.5401 14.244 19.6268 14.184C19.6401 14.1707 19.6534 14.164 19.6668 14.164C19.6934 14.164 19.7101 14.1807 19.7168 14.214C19.7301 14.2407 19.7368 14.2707 19.7368 14.304C19.7368 14.3373 19.6801 14.404 19.5668 14.504C19.4601 14.604 19.3168 14.6973 19.1368 14.784C18.9634 14.8707 18.7734 14.914 18.5668 14.914ZM20.3113 14.804C20.2446 14.804 20.1946 14.794 20.1613 14.774C20.128 14.7607 20.1113 14.734 20.1113 14.694C20.1113 14.6407 20.1313 14.6073 20.1713 14.594C20.2113 14.574 20.268 14.554 20.3413 14.534C20.468 14.5007 20.5613 14.454 20.6213 14.394C20.688 14.3273 20.7213 14.2473 20.7213 14.154V12.004C20.7213 11.824 20.6946 11.6673 20.6413 11.534C20.588 11.4007 20.478 11.3173 20.3113 11.284C20.2846 11.2773 20.2613 11.2607 20.2413 11.234C20.2213 11.2073 20.2113 11.1807 20.2113 11.154C20.2113 11.0873 20.2413 11.0473 20.3013 11.034C20.4746 10.9807 20.6546 10.904 20.8413 10.804C21.0346 10.6973 21.1846 10.6107 21.2913 10.544C21.3313 10.5173 21.3613 10.5007 21.3813 10.494C21.408 10.4807 21.428 10.474 21.4413 10.474C21.4746 10.474 21.4913 10.4973 21.4913 10.544C21.4913 10.564 21.488 10.614 21.4813 10.694C21.4813 10.774 21.478 10.8673 21.4713 10.974C21.4713 11.0807 21.468 11.1873 21.4613 11.294C21.4613 11.3073 21.468 11.314 21.4813 11.314C21.588 11.1807 21.7046 11.064 21.8313 10.964C21.9646 10.864 22.098 10.784 22.2313 10.724C22.3713 10.664 22.5046 10.634 22.6313 10.634C22.7713 10.634 22.8846 10.664 22.9713 10.724C23.0646 10.784 23.1113 10.8607 23.1113 10.954C23.1113 11.0207 23.0913 11.094 23.0513 11.174C23.018 11.254 22.9713 11.324 22.9113 11.384C22.8513 11.444 22.788 11.474 22.7213 11.474C22.6813 11.474 22.638 11.4673 22.5913 11.454C22.5446 11.434 22.4946 11.4107 22.4413 11.384C22.388 11.364 22.3346 11.344 22.2813 11.324C22.228 11.304 22.1746 11.294 22.1213 11.294C21.9613 11.294 21.8046 11.3507 21.6513 11.464C21.5046 11.5773 21.4313 11.8007 21.4313 12.134V14.154C21.4313 14.2407 21.478 14.314 21.5713 14.374C21.6646 14.4273 21.7946 14.4807 21.9613 14.534C22.0346 14.554 22.0913 14.574 22.1313 14.594C22.1713 14.614 22.1913 14.6473 22.1913 14.694C22.1913 14.7673 22.1246 14.804 21.9913 14.804C21.7913 14.804 21.638 14.794 21.5313 14.774C21.4313 14.7607 21.2946 14.754 21.1213 14.754C21.008 14.754 20.9146 14.7573 20.8413 14.764C20.7746 14.7707 20.7013 14.7773 20.6213 14.784C20.548 14.7973 20.4446 14.804 20.3113 14.804ZM25.2911 14.924C24.9245 14.924 24.6045 14.834 24.3311 14.654C24.0578 14.474 23.8445 14.2207 23.6911 13.894C23.5378 13.5607 23.4611 13.1773 23.4611 12.744C23.4611 12.3573 23.5478 12.0073 23.7211 11.694C23.9011 11.374 24.1378 11.1173 24.4311 10.924C24.7245 10.7307 25.0445 10.634 25.3911 10.634C25.6578 10.634 25.8945 10.6873 26.1011 10.794C26.3078 10.9007 26.4678 11.0507 26.5811 11.244C26.7011 11.4307 26.7611 11.6473 26.7611 11.894C26.7611 12.1007 26.6611 12.204 26.4611 12.204H24.3511C24.2578 12.204 24.1911 12.2307 24.1511 12.284C24.1178 12.3307 24.1011 12.4273 24.1011 12.574C24.1011 12.894 24.1711 13.1873 24.3111 13.454C24.4511 13.714 24.6378 13.924 24.8711 14.084C25.1045 14.2373 25.3611 14.314 25.6411 14.314C25.8411 14.314 26.0211 14.2773 26.1811 14.204C26.3478 14.124 26.4945 14.0107 26.6211 13.864C26.6478 13.8307 26.6678 13.8107 26.6811 13.804C26.6945 13.7907 26.7111 13.784 26.7311 13.784C26.7845 13.784 26.8111 13.8173 26.8111 13.884C26.8111 14.0107 26.7511 14.1507 26.6311 14.304C26.5311 14.4307 26.4111 14.5407 26.2711 14.634C26.1311 14.7273 25.9778 14.7973 25.8111 14.844C25.6445 14.8973 25.4711 14.924 25.2911 14.924ZM24.3711 11.894H25.2811C25.4411 11.894 25.5778 11.8907 25.6911 11.884C25.8045 11.8773 25.9145 11.864 26.0211 11.844C26.0545 11.8373 26.0745 11.8173 26.0811 11.784C26.0945 11.744 26.1011 11.6907 26.1011 11.624C26.1011 11.4307 26.0145 11.2673 25.8411 11.134C25.6745 10.994 25.4745 10.924 25.2411 10.924C25.0878 10.924 24.9345 10.9707 24.7811 11.064C24.6278 11.1507 24.5011 11.2607 24.4011 11.394C24.3011 11.5273 24.2511 11.6607 24.2511 11.794C24.2511 11.8607 24.2911 11.894 24.3711 11.894ZM28.9476 14.914C28.621 14.914 28.3643 14.814 28.1776 14.614C27.9976 14.414 27.9076 14.1173 27.9076 13.724V11.404C27.9076 11.3507 27.8876 11.314 27.8476 11.294C27.8076 11.2673 27.721 11.254 27.5876 11.254H27.5276C27.4943 11.254 27.4643 11.234 27.4376 11.194C27.4176 11.1473 27.4076 11.1007 27.4076 11.054C27.4076 11.0407 27.4176 11.0207 27.4376 10.994C27.4576 10.9673 27.471 10.9507 27.4776 10.944C27.611 10.8507 27.731 10.7573 27.8376 10.664C27.951 10.5707 28.051 10.4807 28.1376 10.394C28.231 10.3007 28.3076 10.2173 28.3676 10.144C28.401 10.1107 28.4276 10.084 28.4476 10.064C28.4743 10.0373 28.5043 10.024 28.5376 10.024C28.571 10.024 28.601 10.0307 28.6276 10.044C28.661 10.0573 28.6743 10.0873 28.6676 10.134L28.6176 10.584C28.611 10.6573 28.6276 10.7073 28.6676 10.734C28.7076 10.7607 28.771 10.774 28.8576 10.774H29.9976C30.0243 10.774 30.0476 10.7973 30.0676 10.844C30.0876 10.884 30.0976 10.934 30.0976 10.994C30.0976 11.054 30.0876 11.114 30.0676 11.174C30.0476 11.2273 30.0243 11.254 29.9976 11.254H29.0076C28.841 11.254 28.731 11.2673 28.6776 11.294C28.631 11.3207 28.6076 11.4007 28.6076 11.534V13.504C28.6076 13.7707 28.6643 13.9807 28.7776 14.134C28.891 14.2873 29.0543 14.364 29.2676 14.364C29.461 14.364 29.611 14.3507 29.7176 14.324C29.8243 14.2907 29.921 14.244 30.0076 14.184C30.021 14.1707 30.0343 14.164 30.0476 14.164C30.0743 14.164 30.091 14.1807 30.0976 14.214C30.111 14.2407 30.1176 14.2707 30.1176 14.304C30.1176 14.3373 30.061 14.404 29.9476 14.504C29.841 14.604 29.6976 14.6973 29.5176 14.784C29.3443 14.8707 29.1543 14.914 28.9476 14.914ZM32.3322 14.924C31.9988 14.924 31.6955 14.8407 31.4222 14.674C31.1555 14.5007 30.9422 14.2673 30.7822 13.974C30.6288 13.674 30.5522 13.3407 30.5522 12.974C30.5522 12.5407 30.6455 12.1473 30.8322 11.794C31.0255 11.4407 31.2822 11.1607 31.6022 10.954C31.9222 10.7407 32.2755 10.634 32.6622 10.634C33.0955 10.634 33.4755 10.7507 33.8022 10.984C33.8822 11.044 33.9222 11.1073 33.9222 11.174C33.9222 11.2273 33.8988 11.2873 33.8522 11.354C33.8055 11.4207 33.7488 11.4773 33.6822 11.524C33.6155 11.564 33.5522 11.584 33.4922 11.584C33.4588 11.584 33.4255 11.574 33.3922 11.554C33.3588 11.5273 33.3222 11.5007 33.2822 11.474C33.1355 11.3607 32.9722 11.254 32.7922 11.154C32.6122 11.054 32.4622 11.004 32.3422 11.004C32.0155 11.004 31.7488 11.1573 31.5422 11.464C31.3422 11.764 31.2422 12.1607 31.2422 12.654C31.2422 12.9673 31.3088 13.2507 31.4422 13.504C31.5822 13.7573 31.7655 13.9573 31.9922 14.104C32.2255 14.2507 32.4822 14.324 32.7622 14.324C32.9555 14.324 33.1222 14.294 33.2622 14.234C33.4022 14.1673 33.5522 14.054 33.7122 13.894C33.7255 13.8807 33.7422 13.8707 33.7622 13.864C33.7822 13.8507 33.7988 13.844 33.8122 13.844C33.8855 13.844 33.9222 13.8907 33.9222 13.984C33.9222 14.024 33.9088 14.0707 33.8822 14.124C33.8622 14.1707 33.8255 14.2273 33.7722 14.294C33.6655 14.4273 33.5388 14.544 33.3922 14.644C33.2455 14.7373 33.0822 14.8073 32.9022 14.854C32.7288 14.9007 32.5388 14.924 32.3322 14.924ZM34.6644 14.804C34.5311 14.804 34.4644 14.7673 34.4644 14.694C34.4644 14.634 34.5411 14.5807 34.6944 14.534C34.7944 14.5007 34.8878 14.4573 34.9744 14.404C35.0678 14.3507 35.1178 14.2573 35.1244 14.124V9.11399C35.1244 8.93399 35.0944 8.77732 35.0344 8.64399C34.9744 8.50399 34.8578 8.42065 34.6844 8.39399C34.6244 8.38065 34.5944 8.33399 34.5944 8.25399C34.5944 8.19399 34.6211 8.15399 34.6744 8.13399C34.7678 8.10065 34.8778 8.06399 35.0044 8.02399C35.1378 7.98399 35.2744 7.94065 35.4144 7.89399C35.5544 7.84065 35.6778 7.79065 35.7844 7.74399C35.8111 7.73065 35.8311 7.72399 35.8444 7.72399C35.8644 7.72399 35.8811 7.73065 35.8944 7.74399C35.9078 7.75732 35.9144 7.77399 35.9144 7.79399C35.9144 7.83399 35.9044 7.89065 35.8844 7.96399C35.8711 8.03732 35.8578 8.16399 35.8444 8.34399C35.8311 8.52399 35.8244 8.79399 35.8244 9.15399V10.894C35.8244 11.0007 35.8278 11.0773 35.8344 11.124C35.8478 11.1707 35.8678 11.2173 35.8944 11.264C36.0011 11.184 36.1311 11.0973 36.2844 11.004C36.4444 10.904 36.6211 10.8173 36.8144 10.744C37.0078 10.6707 37.2078 10.634 37.4144 10.634C37.7411 10.634 38.0111 10.764 38.2244 11.024C38.4444 11.2773 38.5544 11.6007 38.5544 11.994V14.094C38.5544 14.2273 38.5978 14.3273 38.6844 14.394C38.7711 14.454 38.8644 14.5007 38.9644 14.534C39.0378 14.554 39.0944 14.5773 39.1344 14.604C39.1744 14.624 39.1944 14.654 39.1944 14.694C39.1944 14.7673 39.1278 14.804 38.9944 14.804C38.8611 14.804 38.7578 14.7973 38.6844 14.784C38.6178 14.7773 38.5511 14.7707 38.4844 14.764C38.4244 14.7573 38.3344 14.754 38.2144 14.754C38.1011 14.754 38.0111 14.7573 37.9444 14.764C37.8778 14.7707 37.8078 14.7773 37.7344 14.784C37.6678 14.7973 37.5678 14.804 37.4344 14.804C37.3011 14.804 37.2344 14.7673 37.2344 14.694C37.2344 14.6473 37.2544 14.6173 37.2944 14.604C37.3344 14.584 37.3911 14.5607 37.4644 14.534C37.5644 14.5007 37.6544 14.454 37.7344 14.394C37.8144 14.3273 37.8544 14.2273 37.8544 14.094V12.054C37.8544 11.8873 37.8044 11.7373 37.7044 11.604C37.6111 11.464 37.4944 11.354 37.3544 11.274C37.2144 11.194 37.0711 11.154 36.9244 11.154C36.7978 11.154 36.6511 11.174 36.4844 11.214C36.3178 11.2473 36.1878 11.3007 36.0944 11.374C35.9878 11.4607 35.9144 11.5507 35.8744 11.644C35.8411 11.7373 35.8244 11.8873 35.8244 12.094V14.124C35.8311 14.2573 35.8711 14.3507 35.9444 14.404C36.0244 14.4573 36.1144 14.5007 36.2144 14.534C36.2878 14.554 36.3411 14.5773 36.3744 14.604C36.4144 14.624 36.4344 14.654 36.4344 14.694C36.4344 14.7673 36.3678 14.804 36.2344 14.804C36.1011 14.804 36.0011 14.7973 35.9344 14.784C35.8678 14.7773 35.8044 14.7707 35.7444 14.764C35.6844 14.7573 35.5944 14.754 35.4744 14.754C35.3611 14.754 35.2678 14.7573 35.1944 14.764C35.1278 14.7707 35.0544 14.7773 34.9744 14.784C34.9011 14.7973 34.7978 14.804 34.6644 14.804ZM12.0192 27.964C12.0059 27.964 11.9826 27.9507 11.9492 27.924C11.9226 27.8973 11.9092 27.8773 11.9092 27.864C11.9092 27.7973 11.9159 27.704 11.9292 27.584C11.9492 27.4573 11.9592 27.3507 11.9592 27.264V27.204C11.8592 27.3573 11.6992 27.514 11.4792 27.674C11.2592 27.834 10.9826 27.914 10.6492 27.914C10.2692 27.914 9.93923 27.814 9.65923 27.614C9.38589 27.414 9.17256 27.1573 9.01923 26.844C8.87256 26.5307 8.79923 26.2073 8.79923 25.874C8.79923 25.4873 8.88923 25.124 9.06923 24.784C9.24923 24.444 9.50589 24.1673 9.83923 23.954C10.1792 23.7407 10.5826 23.634 11.0492 23.634C11.1826 23.634 11.3159 23.6473 11.4492 23.674C11.5892 23.694 11.6959 23.7173 11.7692 23.744C11.8292 23.764 11.8726 23.774 11.8992 23.774C11.9459 23.774 11.9692 23.694 11.9692 23.534V22.114C11.9692 21.8407 11.9259 21.6573 11.8392 21.564C11.7526 21.4707 11.6292 21.4107 11.4692 21.384C11.4092 21.3707 11.3792 21.3273 11.3792 21.254C11.3792 21.194 11.4059 21.154 11.4592 21.134C11.7526 21.0607 11.9826 20.9907 12.1492 20.924C12.3159 20.8573 12.4459 20.804 12.5392 20.764C12.5659 20.7507 12.5892 20.744 12.6092 20.744C12.6359 20.7373 12.6559 20.734 12.6692 20.734C12.7092 20.734 12.7326 20.754 12.7392 20.794C12.7392 20.834 12.7326 20.904 12.7192 21.004C12.7126 21.0973 12.7026 21.2373 12.6892 21.424C12.6759 21.6107 12.6692 21.854 12.6692 22.154V26.674C12.6692 26.9007 12.6859 27.0673 12.7192 27.174C12.7526 27.274 12.8059 27.324 12.8792 27.324C12.9126 27.324 12.9692 27.3207 13.0492 27.314C13.1359 27.3073 13.2226 27.3007 13.3092 27.294C13.4292 27.2873 13.4892 27.3173 13.4892 27.384C13.4892 27.4307 13.4726 27.474 13.4392 27.514C13.4126 27.5473 13.3826 27.564 13.3492 27.564C13.1626 27.5907 12.9792 27.6307 12.7992 27.684C12.6192 27.7307 12.4126 27.804 12.1792 27.904C12.1259 27.9307 12.0892 27.9473 12.0692 27.954C12.0559 27.9607 12.0392 27.964 12.0192 27.964ZM11.0092 27.394C11.1826 27.394 11.3526 27.3507 11.5192 27.264C11.6859 27.1707 11.8326 27.0507 11.9592 26.904L11.9692 25.104C11.9692 24.924 11.9159 24.7473 11.8092 24.574C11.7092 24.4007 11.5659 24.2607 11.3792 24.154C11.1992 24.0407 10.9859 23.984 10.7392 23.984C10.5859 23.984 10.4126 24.0307 10.2192 24.124C10.0259 24.2173 9.85923 24.384 9.71923 24.624C9.57923 24.8573 9.50923 25.1973 9.50923 25.644C9.50923 26.024 9.56589 26.3307 9.67923 26.564C9.79256 26.7907 9.92923 26.964 10.0892 27.084C10.2559 27.204 10.4226 27.2873 10.5892 27.334C10.7626 27.374 10.9026 27.394 11.0092 27.394ZM13.9478 27.804C13.8878 27.804 13.8378 27.794 13.7978 27.774C13.7645 27.7607 13.7478 27.734 13.7478 27.694C13.7478 27.6407 13.7712 27.604 13.8178 27.584C13.8712 27.564 13.9245 27.5473 13.9778 27.534C14.1178 27.5007 14.2245 27.4607 14.2978 27.414C14.3712 27.3607 14.4078 27.274 14.4078 27.154V24.984C14.4078 24.804 14.3745 24.644 14.3078 24.504C14.2478 24.364 14.1312 24.2807 13.9578 24.254C13.9245 24.2473 13.8978 24.234 13.8778 24.214C13.8645 24.194 13.8578 24.164 13.8578 24.124C13.8578 24.0507 13.8878 24.0107 13.9478 24.004C14.2145 23.944 14.4345 23.864 14.6078 23.764C14.7812 23.6573 14.9112 23.5707 14.9978 23.504C15.0578 23.4573 15.1045 23.434 15.1378 23.434C15.1778 23.434 15.1978 23.4507 15.1978 23.484C15.1978 23.5373 15.1878 23.644 15.1678 23.804C15.1545 23.9573 15.1412 24.1307 15.1278 24.324C15.1145 24.5107 15.1078 24.6807 15.1078 24.834V27.154C15.1078 27.2673 15.1445 27.3507 15.2178 27.404C15.2978 27.4573 15.4045 27.5007 15.5378 27.534C15.5912 27.5473 15.6412 27.564 15.6878 27.584C15.7412 27.604 15.7678 27.6407 15.7678 27.694C15.7678 27.7673 15.7012 27.804 15.5678 27.804C15.4412 27.804 15.3378 27.7973 15.2578 27.784C15.1845 27.7773 15.1112 27.7707 15.0378 27.764C14.9712 27.7573 14.8778 27.754 14.7578 27.754C14.6445 27.754 14.5512 27.7573 14.4778 27.764C14.4045 27.7707 14.3312 27.7773 14.2578 27.784C14.1845 27.7973 14.0812 27.804 13.9478 27.804ZM14.7478 22.614C14.6078 22.614 14.4878 22.5673 14.3878 22.474C14.2945 22.374 14.2478 22.254 14.2478 22.114C14.2478 21.9673 14.2945 21.8473 14.3878 21.754C14.4878 21.654 14.6078 21.604 14.7478 21.604C14.8945 21.604 15.0145 21.654 15.1078 21.754C15.2078 21.8473 15.2578 21.9673 15.2578 22.114C15.2578 22.254 15.2078 22.374 15.1078 22.474C15.0145 22.5673 14.8945 22.614 14.7478 22.614ZM16.449 27.804C16.3823 27.804 16.3323 27.794 16.299 27.774C16.2657 27.7607 16.249 27.734 16.249 27.694C16.249 27.6407 16.269 27.6073 16.309 27.594C16.349 27.574 16.4057 27.554 16.479 27.534C16.6057 27.5007 16.699 27.454 16.759 27.394C16.8257 27.3273 16.859 27.2473 16.859 27.154V25.004C16.859 24.824 16.8323 24.6673 16.779 24.534C16.7257 24.4007 16.6157 24.3173 16.449 24.284C16.4223 24.2773 16.399 24.2607 16.379 24.234C16.359 24.2073 16.349 24.1807 16.349 24.154C16.349 24.0873 16.379 24.0473 16.439 24.034C16.6123 23.9807 16.7923 23.904 16.979 23.804C17.1723 23.6973 17.3223 23.6107 17.429 23.544C17.469 23.5173 17.499 23.5007 17.519 23.494C17.5457 23.4807 17.5657 23.474 17.579 23.474C17.6123 23.474 17.629 23.4973 17.629 23.544C17.629 23.564 17.6257 23.614 17.619 23.694C17.619 23.774 17.6157 23.8673 17.609 23.974C17.609 24.0807 17.6057 24.1873 17.599 24.294C17.599 24.3073 17.6057 24.314 17.619 24.314C17.7257 24.1807 17.8423 24.064 17.969 23.964C18.1023 23.864 18.2357 23.784 18.369 23.724C18.509 23.664 18.6423 23.634 18.769 23.634C18.909 23.634 19.0223 23.664 19.109 23.724C19.2023 23.784 19.249 23.8607 19.249 23.954C19.249 24.0207 19.229 24.094 19.189 24.174C19.1557 24.254 19.109 24.324 19.049 24.384C18.989 24.444 18.9257 24.474 18.859 24.474C18.819 24.474 18.7757 24.4673 18.729 24.454C18.6823 24.434 18.6323 24.4107 18.579 24.384C18.5257 24.364 18.4723 24.344 18.419 24.324C18.3657 24.304 18.3123 24.294 18.259 24.294C18.099 24.294 17.9423 24.3507 17.789 24.464C17.6423 24.5773 17.569 24.8007 17.569 25.134V27.154C17.569 27.2407 17.6157 27.314 17.709 27.374C17.8023 27.4273 17.9323 27.4807 18.099 27.534C18.1723 27.554 18.229 27.574 18.269 27.594C18.309 27.614 18.329 27.6473 18.329 27.694C18.329 27.7673 18.2623 27.804 18.129 27.804C17.929 27.804 17.7757 27.794 17.669 27.774C17.569 27.7607 17.4323 27.754 17.259 27.754C17.1457 27.754 17.0523 27.7573 16.979 27.764C16.9123 27.7707 16.839 27.7773 16.759 27.784C16.6857 27.7973 16.5823 27.804 16.449 27.804ZM21.4288 27.924C21.0622 27.924 20.7422 27.834 20.4688 27.654C20.1955 27.474 19.9822 27.2207 19.8288 26.894C19.6755 26.5607 19.5988 26.1773 19.5988 25.744C19.5988 25.3573 19.6855 25.0073 19.8588 24.694C20.0388 24.374 20.2755 24.1173 20.5688 23.924C20.8622 23.7307 21.1822 23.634 21.5288 23.634C21.7955 23.634 22.0322 23.6873 22.2388 23.794C22.4455 23.9007 22.6055 24.0507 22.7188 24.244C22.8388 24.4307 22.8988 24.6473 22.8988 24.894C22.8988 25.1007 22.7988 25.204 22.5988 25.204H20.4888C20.3955 25.204 20.3288 25.2307 20.2888 25.284C20.2555 25.3307 20.2388 25.4273 20.2388 25.574C20.2388 25.894 20.3088 26.1873 20.4488 26.454C20.5888 26.714 20.7755 26.924 21.0088 27.084C21.2422 27.2373 21.4988 27.314 21.7788 27.314C21.9788 27.314 22.1588 27.2773 22.3188 27.204C22.4855 27.124 22.6322 27.0107 22.7588 26.864C22.7855 26.8307 22.8055 26.8107 22.8188 26.804C22.8322 26.7907 22.8488 26.784 22.8688 26.784C22.9222 26.784 22.9488 26.8173 22.9488 26.884C22.9488 27.0107 22.8888 27.1507 22.7688 27.304C22.6688 27.4307 22.5488 27.5407 22.4088 27.634C22.2688 27.7273 22.1155 27.7973 21.9488 27.844C21.7822 27.8973 21.6088 27.924 21.4288 27.924ZM20.5088 24.894H21.4188C21.5788 24.894 21.7155 24.8907 21.8288 24.884C21.9422 24.8773 22.0522 24.864 22.1588 24.844C22.1922 24.8373 22.2122 24.8173 22.2188 24.784C22.2322 24.744 22.2388 24.6907 22.2388 24.624C22.2388 24.4307 22.1522 24.2673 21.9788 24.134C21.8122 23.994 21.6122 23.924 21.3788 23.924C21.2255 23.924 21.0722 23.9707 20.9188 24.064C20.7655 24.1507 20.6388 24.2607 20.5388 24.394C20.4388 24.5273 20.3888 24.6607 20.3888 24.794C20.3888 24.8607 20.4288 24.894 20.5088 24.894ZM25.2277 27.924C24.8943 27.924 24.591 27.8407 24.3177 27.674C24.051 27.5007 23.8377 27.2673 23.6777 26.974C23.5243 26.674 23.4477 26.3407 23.4477 25.974C23.4477 25.5407 23.541 25.1473 23.7277 24.794C23.921 24.4407 24.1777 24.1607 24.4977 23.954C24.8177 23.7407 25.171 23.634 25.5577 23.634C25.991 23.634 26.371 23.7507 26.6977 23.984C26.7777 24.044 26.8177 24.1073 26.8177 24.174C26.8177 24.2273 26.7943 24.2873 26.7477 24.354C26.701 24.4207 26.6443 24.4773 26.5777 24.524C26.511 24.564 26.4477 24.584 26.3877 24.584C26.3543 24.584 26.321 24.574 26.2877 24.554C26.2543 24.5273 26.2177 24.5007 26.1777 24.474C26.031 24.3607 25.8677 24.254 25.6877 24.154C25.5077 24.054 25.3577 24.004 25.2377 24.004C24.911 24.004 24.6443 24.1573 24.4377 24.464C24.2377 24.764 24.1377 25.1607 24.1377 25.654C24.1377 25.9673 24.2043 26.2507 24.3377 26.504C24.4777 26.7573 24.661 26.9573 24.8877 27.104C25.121 27.2507 25.3777 27.324 25.6577 27.324C25.851 27.324 26.0177 27.294 26.1577 27.234C26.2977 27.1673 26.4477 27.054 26.6077 26.894C26.621 26.8807 26.6377 26.8707 26.6577 26.864C26.6777 26.8507 26.6943 26.844 26.7077 26.844C26.781 26.844 26.8177 26.8907 26.8177 26.984C26.8177 27.024 26.8043 27.0707 26.7777 27.124C26.7577 27.1707 26.721 27.2273 26.6677 27.294C26.561 27.4273 26.4343 27.544 26.2877 27.644C26.141 27.7373 25.9777 27.8073 25.7977 27.854C25.6243 27.9007 25.4343 27.924 25.2277 27.924ZM29.0599 27.914C28.7333 27.914 28.4766 27.814 28.2899 27.614C28.1099 27.414 28.0199 27.1173 28.0199 26.724V24.404C28.0199 24.3507 27.9999 24.314 27.9599 24.294C27.9199 24.2673 27.8333 24.254 27.6999 24.254H27.6399C27.6066 24.254 27.5766 24.234 27.5499 24.194C27.5299 24.1473 27.5199 24.1007 27.5199 24.054C27.5199 24.0407 27.5299 24.0207 27.5499 23.994C27.5699 23.9673 27.5833 23.9507 27.5899 23.944C27.7233 23.8507 27.8433 23.7573 27.9499 23.664C28.0633 23.5707 28.1633 23.4807 28.2499 23.394C28.3433 23.3007 28.4199 23.2173 28.4799 23.144C28.5133 23.1107 28.5399 23.084 28.5599 23.064C28.5866 23.0373 28.6166 23.024 28.6499 23.024C28.6833 23.024 28.7133 23.0307 28.7399 23.044C28.7733 23.0573 28.7866 23.0873 28.7799 23.134L28.7299 23.584C28.7233 23.6573 28.7399 23.7073 28.7799 23.734C28.8199 23.7607 28.8833 23.774 28.9699 23.774H30.1099C30.1366 23.774 30.1599 23.7973 30.1799 23.844C30.1999 23.884 30.2099 23.934 30.2099 23.994C30.2099 24.054 30.1999 24.114 30.1799 24.174C30.1599 24.2273 30.1366 24.254 30.1099 24.254H29.1199C28.9533 24.254 28.8433 24.2673 28.7899 24.294C28.7433 24.3207 28.7199 24.4007 28.7199 24.534V26.504C28.7199 26.7707 28.7766 26.9807 28.8899 27.134C29.0033 27.2873 29.1666 27.364 29.3799 27.364C29.5733 27.364 29.7233 27.3507 29.8299 27.324C29.9366 27.2907 30.0333 27.244 30.1199 27.184C30.1333 27.1707 30.1466 27.164 30.1599 27.164C30.1866 27.164 30.2033 27.1807 30.2099 27.214C30.2233 27.2407 30.2299 27.2707 30.2299 27.304C30.2299 27.3373 30.1733 27.404 30.0599 27.504C29.9533 27.604 29.8099 27.6973 29.6299 27.784C29.4566 27.8707 29.2666 27.914 29.0599 27.914ZM30.7545 27.804C30.6945 27.804 30.6445 27.794 30.6045 27.774C30.5711 27.7607 30.5545 27.734 30.5545 27.694C30.5545 27.6407 30.5778 27.604 30.6245 27.584C30.6778 27.564 30.7311 27.5473 30.7845 27.534C30.9245 27.5007 31.0311 27.4607 31.1045 27.414C31.1778 27.3607 31.2145 27.274 31.2145 27.154V24.984C31.2145 24.804 31.1811 24.644 31.1145 24.504C31.0545 24.364 30.9378 24.2807 30.7645 24.254C30.7311 24.2473 30.7045 24.234 30.6845 24.214C30.6711 24.194 30.6645 24.164 30.6645 24.124C30.6645 24.0507 30.6945 24.0107 30.7545 24.004C31.0211 23.944 31.2411 23.864 31.4145 23.764C31.5878 23.6573 31.7178 23.5707 31.8045 23.504C31.8645 23.4573 31.9111 23.434 31.9445 23.434C31.9845 23.434 32.0045 23.4507 32.0045 23.484C32.0045 23.5373 31.9945 23.644 31.9745 23.804C31.9611 23.9573 31.9478 24.1307 31.9345 24.324C31.9211 24.5107 31.9145 24.6807 31.9145 24.834V27.154C31.9145 27.2673 31.9511 27.3507 32.0245 27.404C32.1045 27.4573 32.2111 27.5007 32.3445 27.534C32.3978 27.5473 32.4478 27.564 32.4945 27.584C32.5478 27.604 32.5745 27.6407 32.5745 27.694C32.5745 27.7673 32.5078 27.804 32.3745 27.804C32.2478 27.804 32.1445 27.7973 32.0645 27.784C31.9911 27.7773 31.9178 27.7707 31.8445 27.764C31.7778 27.7573 31.6845 27.754 31.5645 27.754C31.4511 27.754 31.3578 27.7573 31.2845 27.764C31.2111 27.7707 31.1378 27.7773 31.0645 27.784C30.9911 27.7973 30.8878 27.804 30.7545 27.804ZM31.5545 22.614C31.4145 22.614 31.2945 22.5673 31.1945 22.474C31.1011 22.374 31.0545 22.254 31.0545 22.114C31.0545 21.9673 31.1011 21.8473 31.1945 21.754C31.2945 21.654 31.4145 21.604 31.5545 21.604C31.7011 21.604 31.8211 21.654 31.9145 21.754C32.0145 21.8473 32.0645 21.9673 32.0645 22.114C32.0645 22.254 32.0145 22.374 31.9145 22.474C31.8211 22.5673 31.7011 22.614 31.5545 22.614ZM35.1056 27.914C34.7323 27.914 34.3956 27.8273 34.0956 27.654C33.7956 27.4807 33.5556 27.244 33.3756 26.944C33.2023 26.6373 33.1156 26.2907 33.1156 25.904C33.1156 25.624 33.169 25.3507 33.2756 25.084C33.389 24.8173 33.5456 24.574 33.7456 24.354C33.9456 24.134 34.179 23.9607 34.4456 23.834C34.7123 23.7007 34.999 23.634 35.3056 23.634C35.6923 23.634 36.039 23.7273 36.3456 23.914C36.659 24.1007 36.9056 24.3473 37.0856 24.654C37.2723 24.954 37.3656 25.284 37.3656 25.644C37.3656 26.0307 37.279 26.3973 37.1056 26.744C36.939 27.0907 36.689 27.374 36.3556 27.594C36.0223 27.8073 35.6056 27.914 35.1056 27.914ZM35.3156 27.614C35.5423 27.614 35.7456 27.5707 35.9256 27.484C36.1056 27.3973 36.2456 27.2573 36.3456 27.064C36.4256 26.9107 36.479 26.724 36.5056 26.504C36.5323 26.284 36.5456 26.0773 36.5456 25.884C36.5456 25.564 36.4856 25.2573 36.3656 24.964C36.2523 24.664 36.089 24.4207 35.8756 24.234C35.669 24.0407 35.4223 23.944 35.1356 23.944C34.9556 23.944 34.7923 23.974 34.6456 24.034C34.5056 24.0873 34.3756 24.1907 34.2556 24.344C34.1223 24.5107 34.0356 24.714 33.9956 24.954C33.9556 25.194 33.9356 25.434 33.9356 25.674C33.9356 26.0007 33.9956 26.314 34.1156 26.614C34.2356 26.9073 34.399 27.1473 34.6056 27.334C34.8123 27.5207 35.049 27.614 35.3156 27.614ZM38.1568 27.804C38.0968 27.804 38.0468 27.794 38.0068 27.774C37.9735 27.7607 37.9568 27.734 37.9568 27.694C37.9568 27.6407 37.9768 27.6073 38.0168 27.594C38.0568 27.574 38.1135 27.554 38.1868 27.534C38.2868 27.5073 38.3835 27.4707 38.4768 27.424C38.5701 27.3773 38.6168 27.2873 38.6168 27.154V25.004C38.6168 24.824 38.5968 24.6707 38.5568 24.544C38.5235 24.4173 38.4201 24.3307 38.2468 24.284C38.2201 24.2707 38.1968 24.2573 38.1768 24.244C38.1568 24.224 38.1468 24.194 38.1468 24.154C38.1468 24.0807 38.1768 24.0407 38.2368 24.034C38.4701 23.974 38.6601 23.9007 38.8068 23.814C38.9535 23.7273 39.0968 23.6307 39.2368 23.524C39.2568 23.5107 39.2735 23.5007 39.2868 23.494C39.3068 23.4807 39.3268 23.474 39.3468 23.474C39.3601 23.474 39.3701 23.4807 39.3768 23.494C39.3901 23.5073 39.3968 23.524 39.3968 23.544C39.3968 23.5907 39.3868 23.6873 39.3668 23.834C39.3535 23.974 39.3468 24.0907 39.3468 24.184C39.3468 24.2107 39.3468 24.2373 39.3468 24.264C39.3535 24.284 39.3601 24.2973 39.3668 24.304C39.6001 24.084 39.8468 23.9173 40.1068 23.804C40.3735 23.6907 40.6635 23.634 40.9768 23.634C41.3035 23.634 41.5735 23.7673 41.7868 24.034C42.0001 24.3007 42.1068 24.6307 42.1068 25.024V27.154C42.1068 27.2873 42.1535 27.3773 42.2468 27.424C42.3401 27.464 42.4368 27.5007 42.5368 27.534C42.5901 27.554 42.6401 27.5773 42.6868 27.604C42.7401 27.624 42.7668 27.6607 42.7668 27.714C42.7668 27.754 42.7435 27.7773 42.6968 27.784C42.6501 27.7973 42.6068 27.804 42.5668 27.804C42.4335 27.804 42.3301 27.7973 42.2568 27.784C42.1835 27.7773 42.1135 27.7707 42.0468 27.764C41.9801 27.7573 41.8868 27.754 41.7668 27.754C41.6535 27.754 41.5601 27.7573 41.4868 27.764C41.4135 27.7707 41.3368 27.7773 41.2568 27.784C41.1835 27.7973 41.0801 27.804 40.9468 27.804C40.9135 27.804 40.8701 27.7973 40.8168 27.784C40.7701 27.7773 40.7468 27.754 40.7468 27.714C40.7468 27.6607 40.7701 27.624 40.8168 27.604C40.8701 27.5773 40.9235 27.554 40.9768 27.534C41.0768 27.5007 41.1735 27.464 41.2668 27.424C41.3601 27.3773 41.4068 27.2873 41.4068 27.154V25.054C41.4068 24.7607 41.3235 24.534 41.1568 24.374C40.9968 24.2073 40.7801 24.1207 40.5068 24.114C40.2668 24.114 40.0568 24.154 39.8768 24.234C39.6968 24.3073 39.5368 24.4007 39.3968 24.514C39.3701 24.5407 39.3501 24.5773 39.3368 24.624C39.3235 24.664 39.3168 24.704 39.3168 24.744V27.154C39.3168 27.2873 39.3635 27.3773 39.4568 27.424C39.5501 27.4707 39.6468 27.5073 39.7468 27.534C39.9001 27.574 39.9768 27.6273 39.9768 27.694C39.9768 27.734 39.9601 27.7607 39.9268 27.774C39.8935 27.794 39.8435 27.804 39.7768 27.804C39.6435 27.804 39.5368 27.7973 39.4568 27.784C39.3835 27.7773 39.3135 27.7707 39.2468 27.764C39.1801 27.7573 39.0868 27.754 38.9668 27.754C38.8535 27.754 38.7601 27.7573 38.6868 27.764C38.6201 27.7707 38.5468 27.7773 38.4668 27.784C38.3935 27.7973 38.2901 27.804 38.1568 27.804Z" fill="#56CCF2"/>
<path d="M164.19 11.824C164.103 11.824 164.033 11.814 163.98 11.794C163.926 11.7807 163.9 11.754 163.9 11.714C163.9 11.634 164.01 11.574 164.23 11.534C164.483 11.4873 164.656 11.4107 164.75 11.304C164.85 11.1973 164.9 11.0207 164.9 10.774V6.55399C164.9 6.25399 164.86 6.02399 164.78 5.86399C164.706 5.70399 164.543 5.60065 164.29 5.55399C164.176 5.53399 164.093 5.50732 164.04 5.47399C163.986 5.44065 163.96 5.40065 163.96 5.35399C163.96 5.31399 163.986 5.28732 164.04 5.27399C164.093 5.25399 164.163 5.24399 164.25 5.24399C164.496 5.24399 164.703 5.24732 164.87 5.25399C165.043 5.26065 165.213 5.26732 165.38 5.27399C165.546 5.27399 165.743 5.27399 165.97 5.27399C166.163 5.27399 166.37 5.27399 166.59 5.27399C166.81 5.27399 167.023 5.27399 167.23 5.27399C167.443 5.27399 167.63 5.25732 167.79 5.22399C167.956 5.19065 168.1 5.17399 168.22 5.17399C168.253 5.17399 168.29 5.18065 168.33 5.19399C168.37 5.20732 168.393 5.23065 168.4 5.26399C168.413 5.33732 168.423 5.44732 168.43 5.59399C168.436 5.73399 168.44 5.87065 168.44 6.00399C168.446 6.13732 168.45 6.22732 168.45 6.27399C168.45 6.41399 168.42 6.48399 168.36 6.48399C168.326 6.48399 168.296 6.47399 168.27 6.45399C168.243 6.42732 168.223 6.39732 168.21 6.36399C168.183 6.25065 168.15 6.15399 168.11 6.07399C168.07 5.98732 168.026 5.92065 167.98 5.87399C167.886 5.76732 167.783 5.69732 167.67 5.66399C167.556 5.62399 167.436 5.60399 167.31 5.60399H166.04C165.886 5.60399 165.793 5.65399 165.76 5.75399C165.726 5.85399 165.706 5.97065 165.7 6.10399C165.693 6.23065 165.69 6.38732 165.69 6.57399C165.69 6.75399 165.69 6.93065 165.69 7.10399C165.69 7.27065 165.69 7.44065 165.69 7.61399C165.69 7.78732 165.693 7.93399 165.7 8.05399C165.7 8.10732 165.703 8.15732 165.71 8.20399C165.723 8.25065 165.753 8.27399 165.8 8.27399C166.013 8.27399 166.23 8.27065 166.45 8.26399C166.67 8.25065 166.84 8.24399 166.96 8.24399C167.106 8.24399 167.233 8.20399 167.34 8.12399C167.446 8.04399 167.523 7.94732 167.57 7.83399C167.583 7.80732 167.61 7.77399 167.65 7.73399C167.69 7.68732 167.723 7.66399 167.75 7.66399C167.776 7.66399 167.806 7.68065 167.84 7.71399C167.873 7.74065 167.886 7.77732 167.88 7.82399C167.873 7.93732 167.866 8.03732 167.86 8.12399C167.853 8.21065 167.85 8.29399 167.85 8.37399C167.85 8.47399 167.853 8.57732 167.86 8.68399C167.866 8.78399 167.873 8.90732 167.88 9.05399C167.88 9.10065 167.873 9.14065 167.86 9.17399C167.853 9.20732 167.83 9.22399 167.79 9.22399C167.723 9.22399 167.67 9.19399 167.63 9.13399C167.596 9.07399 167.573 9.02732 167.56 8.99399C167.513 8.84065 167.443 8.73732 167.35 8.68399C167.256 8.62399 167.17 8.59399 167.09 8.59399C167.003 8.59399 166.916 8.59399 166.83 8.59399C166.75 8.58732 166.67 8.58399 166.59 8.58399C166.476 8.58399 166.366 8.58399 166.26 8.58399C166.153 8.58399 166.046 8.59065 165.94 8.60399C165.873 8.61065 165.816 8.63399 165.77 8.67399C165.723 8.70732 165.7 8.76732 165.7 8.85399C165.7 9.16065 165.7 9.47399 165.7 9.79399C165.706 10.1073 165.716 10.4307 165.73 10.764C165.743 10.9773 165.793 11.1473 165.88 11.274C165.973 11.4007 166.143 11.4873 166.39 11.534C166.503 11.554 166.586 11.5773 166.64 11.604C166.693 11.6307 166.72 11.6673 166.72 11.714C166.72 11.754 166.693 11.7807 166.64 11.794C166.586 11.814 166.516 11.824 166.43 11.824C166.25 11.824 166.11 11.8173 166.01 11.804C165.916 11.7907 165.83 11.7807 165.75 11.774C165.676 11.7607 165.576 11.754 165.45 11.754C165.29 11.754 165.146 11.7607 165.02 11.774C164.9 11.7807 164.776 11.7907 164.65 11.804C164.523 11.8173 164.37 11.824 164.19 11.824ZM170.754 11.914C170.381 11.914 170.044 11.8273 169.744 11.654C169.444 11.4807 169.204 11.244 169.024 10.944C168.851 10.6373 168.764 10.2907 168.764 9.90399C168.764 9.62399 168.817 9.35065 168.924 9.08399C169.037 8.81732 169.194 8.57399 169.394 8.35399C169.594 8.13399 169.827 7.96065 170.094 7.83399C170.361 7.70065 170.647 7.63399 170.954 7.63399C171.341 7.63399 171.687 7.72732 171.994 7.91399C172.307 8.10065 172.554 8.34732 172.734 8.65399C172.921 8.95399 173.014 9.28399 173.014 9.64399C173.014 10.0307 172.927 10.3973 172.754 10.744C172.587 11.0907 172.337 11.374 172.004 11.594C171.671 11.8073 171.254 11.914 170.754 11.914ZM170.964 11.614C171.191 11.614 171.394 11.5707 171.574 11.484C171.754 11.3973 171.894 11.2573 171.994 11.064C172.074 10.9107 172.127 10.724 172.154 10.504C172.181 10.284 172.194 10.0773 172.194 9.88399C172.194 9.56399 172.134 9.25732 172.014 8.96399C171.901 8.66399 171.737 8.42065 171.524 8.23399C171.317 8.04065 171.071 7.94399 170.784 7.94399C170.604 7.94399 170.441 7.97399 170.294 8.03399C170.154 8.08732 170.024 8.19065 169.904 8.34399C169.771 8.51065 169.684 8.71399 169.644 8.95399C169.604 9.19399 169.584 9.43399 169.584 9.67399C169.584 10.0007 169.644 10.314 169.764 10.614C169.884 10.9073 170.047 11.1473 170.254 11.334C170.461 11.5207 170.697 11.614 170.964 11.614ZM173.805 11.804C173.745 11.804 173.695 11.794 173.655 11.774C173.622 11.7607 173.605 11.734 173.605 11.694C173.605 11.6407 173.625 11.6073 173.665 11.594C173.705 11.574 173.762 11.554 173.835 11.534C173.935 11.5073 174.032 11.4707 174.125 11.424C174.219 11.3773 174.265 11.2873 174.265 11.154V9.00399C174.265 8.82399 174.245 8.67065 174.205 8.54399C174.172 8.41732 174.069 8.33065 173.895 8.28399C173.869 8.27065 173.845 8.25732 173.825 8.24399C173.805 8.22399 173.795 8.19399 173.795 8.15399C173.795 8.08065 173.825 8.04065 173.885 8.03399C174.119 7.97399 174.309 7.90065 174.455 7.81399C174.602 7.72732 174.745 7.63065 174.885 7.52399C174.905 7.51065 174.922 7.50065 174.935 7.49399C174.955 7.48065 174.975 7.47399 174.995 7.47399C175.009 7.47399 175.019 7.48065 175.025 7.49399C175.039 7.50732 175.045 7.52399 175.045 7.54399C175.045 7.59065 175.035 7.68732 175.015 7.83399C175.002 7.97399 174.995 8.09065 174.995 8.18399C174.995 8.21065 174.995 8.23732 174.995 8.26399C175.002 8.28399 175.009 8.29732 175.015 8.30399C175.249 8.08399 175.495 7.91732 175.755 7.80399C176.022 7.69065 176.312 7.63399 176.625 7.63399C176.952 7.63399 177.222 7.76732 177.435 8.03399C177.649 8.30065 177.755 8.63065 177.755 9.02399V11.154C177.755 11.2873 177.802 11.3773 177.895 11.424C177.989 11.464 178.085 11.5007 178.185 11.534C178.239 11.554 178.289 11.5773 178.335 11.604C178.389 11.624 178.415 11.6607 178.415 11.714C178.415 11.754 178.392 11.7773 178.345 11.784C178.299 11.7973 178.255 11.804 178.215 11.804C178.082 11.804 177.979 11.7973 177.905 11.784C177.832 11.7773 177.762 11.7707 177.695 11.764C177.629 11.7573 177.535 11.754 177.415 11.754C177.302 11.754 177.209 11.7573 177.135 11.764C177.062 11.7707 176.985 11.7773 176.905 11.784C176.832 11.7973 176.729 11.804 176.595 11.804C176.562 11.804 176.519 11.7973 176.465 11.784C176.419 11.7773 176.395 11.754 176.395 11.714C176.395 11.6607 176.419 11.624 176.465 11.604C176.519 11.5773 176.572 11.554 176.625 11.534C176.725 11.5007 176.822 11.464 176.915 11.424C177.009 11.3773 177.055 11.2873 177.055 11.154V9.05399C177.055 8.76065 176.972 8.53399 176.805 8.37399C176.645 8.20732 176.429 8.12065 176.155 8.11399C175.915 8.11399 175.705 8.15399 175.525 8.23399C175.345 8.30732 175.185 8.40065 175.045 8.51399C175.019 8.54065 174.999 8.57732 174.985 8.62399C174.972 8.66399 174.965 8.70399 174.965 8.74399V11.154C174.965 11.2873 175.012 11.3773 175.105 11.424C175.199 11.4707 175.295 11.5073 175.395 11.534C175.549 11.574 175.625 11.6273 175.625 11.694C175.625 11.734 175.609 11.7607 175.575 11.774C175.542 11.794 175.492 11.804 175.425 11.804C175.292 11.804 175.185 11.7973 175.105 11.784C175.032 11.7773 174.962 11.7707 174.895 11.764C174.829 11.7573 174.735 11.754 174.615 11.754C174.502 11.754 174.409 11.7573 174.335 11.764C174.269 11.7707 174.195 11.7773 174.115 11.784C174.042 11.7973 173.939 11.804 173.805 11.804ZM180.539 11.914C180.212 11.914 179.955 11.814 179.769 11.614C179.589 11.414 179.499 11.1173 179.499 10.724V8.40399C179.499 8.35065 179.479 8.31399 179.439 8.29399C179.399 8.26732 179.312 8.25399 179.179 8.25399H179.119C179.085 8.25399 179.055 8.23399 179.029 8.19399C179.009 8.14732 178.999 8.10065 178.999 8.05399C178.999 8.04065 179.009 8.02065 179.029 7.99399C179.049 7.96732 179.062 7.95065 179.069 7.94399C179.202 7.85065 179.322 7.75732 179.429 7.66399C179.542 7.57065 179.642 7.48065 179.729 7.39399C179.822 7.30065 179.899 7.21732 179.959 7.14399C179.992 7.11065 180.019 7.08399 180.039 7.06399C180.065 7.03732 180.095 7.02399 180.129 7.02399C180.162 7.02399 180.192 7.03065 180.219 7.04399C180.252 7.05732 180.265 7.08732 180.259 7.13399L180.209 7.58399C180.202 7.65732 180.219 7.70732 180.259 7.73399C180.299 7.76065 180.362 7.77399 180.449 7.77399H181.589C181.615 7.77399 181.639 7.79732 181.659 7.84399C181.679 7.88399 181.689 7.93399 181.689 7.99399C181.689 8.05399 181.679 8.11399 181.659 8.17399C181.639 8.22732 181.615 8.25399 181.589 8.25399H180.599C180.432 8.25399 180.322 8.26732 180.269 8.29399C180.222 8.32065 180.199 8.40065 180.199 8.53399V10.504C180.199 10.7707 180.255 10.9807 180.369 11.134C180.482 11.2873 180.645 11.364 180.859 11.364C181.052 11.364 181.202 11.3507 181.309 11.324C181.415 11.2907 181.512 11.244 181.599 11.184C181.612 11.1707 181.625 11.164 181.639 11.164C181.665 11.164 181.682 11.1807 181.689 11.214C181.702 11.2407 181.709 11.2707 181.709 11.304C181.709 11.3373 181.652 11.404 181.539 11.504C181.432 11.604 181.289 11.6973 181.109 11.784C180.935 11.8707 180.745 11.914 180.539 11.914ZM158.991 24.964C158.978 24.964 158.954 24.9507 158.921 24.924C158.894 24.8973 158.881 24.8773 158.881 24.864C158.881 24.7973 158.888 24.704 158.901 24.584C158.921 24.4573 158.931 24.3507 158.931 24.264V24.204C158.831 24.3573 158.671 24.514 158.451 24.674C158.231 24.834 157.954 24.914 157.621 24.914C157.241 24.914 156.911 24.814 156.631 24.614C156.358 24.414 156.144 24.1573 155.991 23.844C155.844 23.5307 155.771 23.2073 155.771 22.874C155.771 22.4873 155.861 22.124 156.041 21.784C156.221 21.444 156.478 21.1673 156.811 20.954C157.151 20.7407 157.554 20.634 158.021 20.634C158.154 20.634 158.288 20.6473 158.421 20.674C158.561 20.694 158.668 20.7173 158.741 20.744C158.801 20.764 158.844 20.774 158.871 20.774C158.918 20.774 158.941 20.694 158.941 20.534V19.114C158.941 18.8407 158.898 18.6573 158.811 18.564C158.724 18.4707 158.601 18.4107 158.441 18.384C158.381 18.3707 158.351 18.3273 158.351 18.254C158.351 18.194 158.378 18.154 158.431 18.134C158.724 18.0607 158.954 17.9907 159.121 17.924C159.288 17.8573 159.418 17.804 159.511 17.764C159.538 17.7507 159.561 17.744 159.581 17.744C159.608 17.7373 159.628 17.734 159.641 17.734C159.681 17.734 159.704 17.754 159.711 17.794C159.711 17.834 159.704 17.904 159.691 18.004C159.684 18.0973 159.674 18.2373 159.661 18.424C159.648 18.6107 159.641 18.854 159.641 19.154V23.674C159.641 23.9007 159.658 24.0673 159.691 24.174C159.724 24.274 159.778 24.324 159.851 24.324C159.884 24.324 159.941 24.3207 160.021 24.314C160.108 24.3073 160.194 24.3007 160.281 24.294C160.401 24.2873 160.461 24.3173 160.461 24.384C160.461 24.4307 160.444 24.474 160.411 24.514C160.384 24.5473 160.354 24.564 160.321 24.564C160.134 24.5907 159.951 24.6307 159.771 24.684C159.591 24.7307 159.384 24.804 159.151 24.904C159.098 24.9307 159.061 24.9473 159.041 24.954C159.028 24.9607 159.011 24.964 158.991 24.964ZM157.981 24.394C158.154 24.394 158.324 24.3507 158.491 24.264C158.658 24.1707 158.804 24.0507 158.931 23.904L158.941 22.104C158.941 21.924 158.888 21.7473 158.781 21.574C158.681 21.4007 158.538 21.2607 158.351 21.154C158.171 21.0407 157.958 20.984 157.711 20.984C157.558 20.984 157.384 21.0307 157.191 21.124C156.998 21.2173 156.831 21.384 156.691 21.624C156.551 21.8573 156.481 22.1973 156.481 22.644C156.481 23.024 156.538 23.3307 156.651 23.564C156.764 23.7907 156.901 23.964 157.061 24.084C157.228 24.204 157.394 24.2873 157.561 24.334C157.734 24.374 157.874 24.394 157.981 24.394ZM160.92 24.804C160.86 24.804 160.81 24.794 160.77 24.774C160.736 24.7607 160.72 24.734 160.72 24.694C160.72 24.6407 160.743 24.604 160.79 24.584C160.843 24.564 160.896 24.5473 160.95 24.534C161.09 24.5007 161.196 24.4607 161.27 24.414C161.343 24.3607 161.38 24.274 161.38 24.154V21.984C161.38 21.804 161.346 21.644 161.28 21.504C161.22 21.364 161.103 21.2807 160.93 21.254C160.896 21.2473 160.87 21.234 160.85 21.214C160.836 21.194 160.83 21.164 160.83 21.124C160.83 21.0507 160.86 21.0107 160.92 21.004C161.186 20.944 161.406 20.864 161.58 20.764C161.753 20.6573 161.883 20.5707 161.97 20.504C162.03 20.4573 162.076 20.434 162.11 20.434C162.15 20.434 162.17 20.4507 162.17 20.484C162.17 20.5373 162.16 20.644 162.14 20.804C162.126 20.9573 162.113 21.1307 162.1 21.324C162.086 21.5107 162.08 21.6807 162.08 21.834V24.154C162.08 24.2673 162.116 24.3507 162.19 24.404C162.27 24.4573 162.376 24.5007 162.51 24.534C162.563 24.5473 162.613 24.564 162.66 24.584C162.713 24.604 162.74 24.6407 162.74 24.694C162.74 24.7673 162.673 24.804 162.54 24.804C162.413 24.804 162.31 24.7973 162.23 24.784C162.156 24.7773 162.083 24.7707 162.01 24.764C161.943 24.7573 161.85 24.754 161.73 24.754C161.616 24.754 161.523 24.7573 161.45 24.764C161.376 24.7707 161.303 24.7773 161.23 24.784C161.156 24.7973 161.053 24.804 160.92 24.804ZM161.72 19.614C161.58 19.614 161.46 19.5673 161.36 19.474C161.266 19.374 161.22 19.254 161.22 19.114C161.22 18.9673 161.266 18.8473 161.36 18.754C161.46 18.654 161.58 18.604 161.72 18.604C161.866 18.604 161.986 18.654 162.08 18.754C162.18 18.8473 162.23 18.9673 162.23 19.114C162.23 19.254 162.18 19.374 162.08 19.474C161.986 19.5673 161.866 19.614 161.72 19.614ZM163.421 24.804C163.354 24.804 163.304 24.794 163.271 24.774C163.237 24.7607 163.221 24.734 163.221 24.694C163.221 24.6407 163.241 24.6073 163.281 24.594C163.321 24.574 163.377 24.554 163.451 24.534C163.577 24.5007 163.671 24.454 163.731 24.394C163.797 24.3273 163.831 24.2473 163.831 24.154V22.004C163.831 21.824 163.804 21.6673 163.751 21.534C163.697 21.4007 163.587 21.3173 163.421 21.284C163.394 21.2773 163.371 21.2607 163.351 21.234C163.331 21.2073 163.321 21.1807 163.321 21.154C163.321 21.0873 163.351 21.0473 163.411 21.034C163.584 20.9807 163.764 20.904 163.951 20.804C164.144 20.6973 164.294 20.6107 164.401 20.544C164.441 20.5173 164.471 20.5007 164.491 20.494C164.517 20.4807 164.537 20.474 164.551 20.474C164.584 20.474 164.601 20.4973 164.601 20.544C164.601 20.564 164.597 20.614 164.591 20.694C164.591 20.774 164.587 20.8673 164.581 20.974C164.581 21.0807 164.577 21.1873 164.571 21.294C164.571 21.3073 164.577 21.314 164.591 21.314C164.697 21.1807 164.814 21.064 164.941 20.964C165.074 20.864 165.207 20.784 165.341 20.724C165.481 20.664 165.614 20.634 165.741 20.634C165.881 20.634 165.994 20.664 166.081 20.724C166.174 20.784 166.221 20.8607 166.221 20.954C166.221 21.0207 166.201 21.094 166.161 21.174C166.127 21.254 166.081 21.324 166.021 21.384C165.961 21.444 165.897 21.474 165.831 21.474C165.791 21.474 165.747 21.4673 165.701 21.454C165.654 21.434 165.604 21.4107 165.551 21.384C165.497 21.364 165.444 21.344 165.391 21.324C165.337 21.304 165.284 21.294 165.231 21.294C165.071 21.294 164.914 21.3507 164.761 21.464C164.614 21.5773 164.541 21.8007 164.541 22.134V24.154C164.541 24.2407 164.587 24.314 164.681 24.374C164.774 24.4273 164.904 24.4807 165.071 24.534C165.144 24.554 165.201 24.574 165.241 24.594C165.281 24.614 165.301 24.6473 165.301 24.694C165.301 24.7673 165.234 24.804 165.101 24.804C164.901 24.804 164.747 24.794 164.641 24.774C164.541 24.7607 164.404 24.754 164.231 24.754C164.117 24.754 164.024 24.7573 163.951 24.764C163.884 24.7707 163.811 24.7773 163.731 24.784C163.657 24.7973 163.554 24.804 163.421 24.804ZM168.401 24.924C168.034 24.924 167.714 24.834 167.441 24.654C167.167 24.474 166.954 24.2207 166.801 23.894C166.647 23.5607 166.571 23.1773 166.571 22.744C166.571 22.3573 166.657 22.0073 166.831 21.694C167.011 21.374 167.247 21.1173 167.541 20.924C167.834 20.7307 168.154 20.634 168.501 20.634C168.767 20.634 169.004 20.6873 169.211 20.794C169.417 20.9007 169.577 21.0507 169.691 21.244C169.811 21.4307 169.871 21.6473 169.871 21.894C169.871 22.1007 169.771 22.204 169.571 22.204H167.461C167.367 22.204 167.301 22.2307 167.261 22.284C167.227 22.3307 167.211 22.4273 167.211 22.574C167.211 22.894 167.281 23.1873 167.421 23.454C167.561 23.714 167.747 23.924 167.981 24.084C168.214 24.2373 168.471 24.314 168.751 24.314C168.951 24.314 169.131 24.2773 169.291 24.204C169.457 24.124 169.604 24.0107 169.731 23.864C169.757 23.8307 169.777 23.8107 169.791 23.804C169.804 23.7907 169.821 23.784 169.841 23.784C169.894 23.784 169.921 23.8173 169.921 23.884C169.921 24.0107 169.861 24.1507 169.741 24.304C169.641 24.4307 169.521 24.5407 169.381 24.634C169.241 24.7273 169.087 24.7973 168.921 24.844C168.754 24.8973 168.581 24.924 168.401 24.924ZM167.481 21.894H168.391C168.551 21.894 168.687 21.8907 168.801 21.884C168.914 21.8773 169.024 21.864 169.131 21.844C169.164 21.8373 169.184 21.8173 169.191 21.784C169.204 21.744 169.211 21.6907 169.211 21.624C169.211 21.4307 169.124 21.2673 168.951 21.134C168.784 20.994 168.584 20.924 168.351 20.924C168.197 20.924 168.044 20.9707 167.891 21.064C167.737 21.1507 167.611 21.2607 167.511 21.394C167.411 21.5273 167.361 21.6607 167.361 21.794C167.361 21.8607 167.401 21.894 167.481 21.894ZM172.199 24.924C171.866 24.924 171.563 24.8407 171.289 24.674C171.023 24.5007 170.809 24.2673 170.649 23.974C170.496 23.674 170.419 23.3407 170.419 22.974C170.419 22.5407 170.513 22.1473 170.699 21.794C170.893 21.4407 171.149 21.1607 171.469 20.954C171.789 20.7407 172.143 20.634 172.529 20.634C172.963 20.634 173.343 20.7507 173.669 20.984C173.749 21.044 173.789 21.1073 173.789 21.174C173.789 21.2273 173.766 21.2873 173.719 21.354C173.673 21.4207 173.616 21.4773 173.549 21.524C173.483 21.564 173.419 21.584 173.359 21.584C173.326 21.584 173.293 21.574 173.259 21.554C173.226 21.5273 173.189 21.5007 173.149 21.474C173.003 21.3607 172.839 21.254 172.659 21.154C172.479 21.054 172.329 21.004 172.209 21.004C171.883 21.004 171.616 21.1573 171.409 21.464C171.209 21.764 171.109 22.1607 171.109 22.654C171.109 22.9673 171.176 23.2507 171.309 23.504C171.449 23.7573 171.633 23.9573 171.859 24.104C172.093 24.2507 172.349 24.324 172.629 24.324C172.823 24.324 172.989 24.294 173.129 24.234C173.269 24.1673 173.419 24.054 173.579 23.894C173.593 23.8807 173.609 23.8707 173.629 23.864C173.649 23.8507 173.666 23.844 173.679 23.844C173.753 23.844 173.789 23.8907 173.789 23.984C173.789 24.024 173.776 24.0707 173.749 24.124C173.729 24.1707 173.693 24.2273 173.639 24.294C173.533 24.4273 173.406 24.544 173.259 24.644C173.113 24.7373 172.949 24.8073 172.769 24.854C172.596 24.9007 172.406 24.924 172.199 24.924ZM176.032 24.914C175.705 24.914 175.448 24.814 175.262 24.614C175.082 24.414 174.992 24.1173 174.992 23.724V21.404C174.992 21.3507 174.972 21.314 174.932 21.294C174.892 21.2673 174.805 21.254 174.672 21.254H174.612C174.578 21.254 174.548 21.234 174.522 21.194C174.502 21.1473 174.492 21.1007 174.492 21.054C174.492 21.0407 174.502 21.0207 174.522 20.994C174.542 20.9673 174.555 20.9507 174.562 20.944C174.695 20.8507 174.815 20.7573 174.922 20.664C175.035 20.5707 175.135 20.4807 175.222 20.394C175.315 20.3007 175.392 20.2173 175.452 20.144C175.485 20.1107 175.512 20.084 175.532 20.064C175.558 20.0373 175.588 20.024 175.622 20.024C175.655 20.024 175.685 20.0307 175.712 20.044C175.745 20.0573 175.758 20.0873 175.752 20.134L175.702 20.584C175.695 20.6573 175.712 20.7073 175.752 20.734C175.792 20.7607 175.855 20.774 175.942 20.774H177.082C177.108 20.774 177.132 20.7973 177.152 20.844C177.172 20.884 177.182 20.934 177.182 20.994C177.182 21.054 177.172 21.114 177.152 21.174C177.132 21.2273 177.108 21.254 177.082 21.254H176.092C175.925 21.254 175.815 21.2673 175.762 21.294C175.715 21.3207 175.692 21.4007 175.692 21.534V23.504C175.692 23.7707 175.748 23.9807 175.862 24.134C175.975 24.2873 176.138 24.364 176.352 24.364C176.545 24.364 176.695 24.3507 176.802 24.324C176.908 24.2907 177.005 24.244 177.092 24.184C177.105 24.1707 177.118 24.164 177.132 24.164C177.158 24.164 177.175 24.1807 177.182 24.214C177.195 24.2407 177.202 24.2707 177.202 24.304C177.202 24.3373 177.145 24.404 177.032 24.504C176.925 24.604 176.782 24.6973 176.602 24.784C176.428 24.8707 176.238 24.914 176.032 24.914ZM177.726 24.804C177.666 24.804 177.616 24.794 177.576 24.774C177.543 24.7607 177.526 24.734 177.526 24.694C177.526 24.6407 177.55 24.604 177.596 24.584C177.65 24.564 177.703 24.5473 177.756 24.534C177.896 24.5007 178.003 24.4607 178.076 24.414C178.15 24.3607 178.186 24.274 178.186 24.154V21.984C178.186 21.804 178.153 21.644 178.086 21.504C178.026 21.364 177.91 21.2807 177.736 21.254C177.703 21.2473 177.676 21.234 177.656 21.214C177.643 21.194 177.636 21.164 177.636 21.124C177.636 21.0507 177.666 21.0107 177.726 21.004C177.993 20.944 178.213 20.864 178.386 20.764C178.56 20.6573 178.69 20.5707 178.776 20.504C178.836 20.4573 178.883 20.434 178.916 20.434C178.956 20.434 178.976 20.4507 178.976 20.484C178.976 20.5373 178.966 20.644 178.946 20.804C178.933 20.9573 178.92 21.1307 178.906 21.324C178.893 21.5107 178.886 21.6807 178.886 21.834V24.154C178.886 24.2673 178.923 24.3507 178.996 24.404C179.076 24.4573 179.183 24.5007 179.316 24.534C179.37 24.5473 179.42 24.564 179.466 24.584C179.52 24.604 179.546 24.6407 179.546 24.694C179.546 24.7673 179.48 24.804 179.346 24.804C179.22 24.804 179.116 24.7973 179.036 24.784C178.963 24.7773 178.89 24.7707 178.816 24.764C178.75 24.7573 178.656 24.754 178.536 24.754C178.423 24.754 178.33 24.7573 178.256 24.764C178.183 24.7707 178.11 24.7773 178.036 24.784C177.963 24.7973 177.86 24.804 177.726 24.804ZM178.526 19.614C178.386 19.614 178.266 19.5673 178.166 19.474C178.073 19.374 178.026 19.254 178.026 19.114C178.026 18.9673 178.073 18.8473 178.166 18.754C178.266 18.654 178.386 18.604 178.526 18.604C178.673 18.604 178.793 18.654 178.886 18.754C178.986 18.8473 179.036 18.9673 179.036 19.114C179.036 19.254 178.986 19.374 178.886 19.474C178.793 19.5673 178.673 19.614 178.526 19.614ZM182.077 24.914C181.704 24.914 181.367 24.8273 181.067 24.654C180.767 24.4807 180.527 24.244 180.347 23.944C180.174 23.6373 180.087 23.2907 180.087 22.904C180.087 22.624 180.141 22.3507 180.247 22.084C180.361 21.8173 180.517 21.574 180.717 21.354C180.917 21.134 181.151 20.9607 181.417 20.834C181.684 20.7007 181.971 20.634 182.277 20.634C182.664 20.634 183.011 20.7273 183.317 20.914C183.631 21.1007 183.877 21.3473 184.057 21.654C184.244 21.954 184.337 22.284 184.337 22.644C184.337 23.0307 184.251 23.3973 184.077 23.744C183.911 24.0907 183.661 24.374 183.327 24.594C182.994 24.8073 182.577 24.914 182.077 24.914ZM182.287 24.614C182.514 24.614 182.717 24.5707 182.897 24.484C183.077 24.3973 183.217 24.2573 183.317 24.064C183.397 23.9107 183.451 23.724 183.477 23.504C183.504 23.284 183.517 23.0773 183.517 22.884C183.517 22.564 183.457 22.2573 183.337 21.964C183.224 21.664 183.061 21.4207 182.847 21.234C182.641 21.0407 182.394 20.944 182.107 20.944C181.927 20.944 181.764 20.974 181.617 21.034C181.477 21.0873 181.347 21.1907 181.227 21.344C181.094 21.5107 181.007 21.714 180.967 21.954C180.927 22.194 180.907 22.434 180.907 22.674C180.907 23.0007 180.967 23.314 181.087 23.614C181.207 23.9073 181.371 24.1473 181.577 24.334C181.784 24.5207 182.021 24.614 182.287 24.614ZM185.129 24.804C185.069 24.804 185.019 24.794 184.979 24.774C184.945 24.7607 184.929 24.734 184.929 24.694C184.929 24.6407 184.949 24.6073 184.989 24.594C185.029 24.574 185.085 24.554 185.159 24.534C185.259 24.5073 185.355 24.4707 185.449 24.424C185.542 24.3773 185.589 24.2873 185.589 24.154V22.004C185.589 21.824 185.569 21.6707 185.529 21.544C185.495 21.4173 185.392 21.3307 185.219 21.284C185.192 21.2707 185.169 21.2573 185.149 21.244C185.129 21.224 185.119 21.194 185.119 21.154C185.119 21.0807 185.149 21.0407 185.209 21.034C185.442 20.974 185.632 20.9007 185.779 20.814C185.925 20.7273 186.069 20.6307 186.209 20.524C186.229 20.5107 186.245 20.5007 186.259 20.494C186.279 20.4807 186.299 20.474 186.319 20.474C186.332 20.474 186.342 20.4807 186.349 20.494C186.362 20.5073 186.369 20.524 186.369 20.544C186.369 20.5907 186.359 20.6873 186.339 20.834C186.325 20.974 186.319 21.0907 186.319 21.184C186.319 21.2107 186.319 21.2373 186.319 21.264C186.325 21.284 186.332 21.2973 186.339 21.304C186.572 21.084 186.819 20.9173 187.079 20.804C187.345 20.6907 187.635 20.634 187.949 20.634C188.275 20.634 188.545 20.7673 188.759 21.034C188.972 21.3007 189.079 21.6307 189.079 22.024V24.154C189.079 24.2873 189.125 24.3773 189.219 24.424C189.312 24.464 189.409 24.5007 189.509 24.534C189.562 24.554 189.612 24.5773 189.659 24.604C189.712 24.624 189.739 24.6607 189.739 24.714C189.739 24.754 189.715 24.7773 189.669 24.784C189.622 24.7973 189.579 24.804 189.539 24.804C189.405 24.804 189.302 24.7973 189.229 24.784C189.155 24.7773 189.085 24.7707 189.019 24.764C188.952 24.7573 188.859 24.754 188.739 24.754C188.625 24.754 188.532 24.7573 188.459 24.764C188.385 24.7707 188.309 24.7773 188.229 24.784C188.155 24.7973 188.052 24.804 187.919 24.804C187.885 24.804 187.842 24.7973 187.789 24.784C187.742 24.7773 187.719 24.754 187.719 24.714C187.719 24.6607 187.742 24.624 187.789 24.604C187.842 24.5773 187.895 24.554 187.949 24.534C188.049 24.5007 188.145 24.464 188.239 24.424C188.332 24.3773 188.379 24.2873 188.379 24.154V22.054C188.379 21.7607 188.295 21.534 188.129 21.374C187.969 21.2073 187.752 21.1207 187.479 21.114C187.239 21.114 187.029 21.154 186.849 21.234C186.669 21.3073 186.509 21.4007 186.369 21.514C186.342 21.5407 186.322 21.5773 186.309 21.624C186.295 21.664 186.289 21.704 186.289 21.744V24.154C186.289 24.2873 186.335 24.3773 186.429 24.424C186.522 24.4707 186.619 24.5073 186.719 24.534C186.872 24.574 186.949 24.6273 186.949 24.694C186.949 24.734 186.932 24.7607 186.899 24.774C186.865 24.794 186.815 24.804 186.749 24.804C186.615 24.804 186.509 24.7973 186.429 24.784C186.355 24.7773 186.285 24.7707 186.219 24.764C186.152 24.7573 186.059 24.754 185.939 24.754C185.825 24.754 185.732 24.7573 185.659 24.764C185.592 24.7707 185.519 24.7773 185.439 24.784C185.365 24.7973 185.262 24.804 185.129 24.804Z" fill="#9B51E0"/>
<line x1="8.74228e-08" y1="33" x2="200" y2="33" stroke="#56CCF2" stroke-width="2"/>
<line x1="51.6949" y1="33" x2="150.365" y2="33" stroke="#2F80ED" stroke-width="2"/>
<path d="M25.0175 56.7071C25.408 57.0976 26.0412 57.0976 26.4317 56.7071L32.7957 50.3431C33.1862 49.9526 33.1862 49.3195 32.7957 48.9289C32.4052 48.5384 31.772 48.5384 31.3815 48.9289L25.7246 54.5858L20.0678 48.9289C19.6772 48.5384 19.0441 48.5384 18.6535 48.9289C18.263 49.3195 18.263 49.9526 18.6535 50.3431L25.0175 56.7071ZM25.7246 34L24.7246 34L24.7246 56L25.7246 56L26.7246 56L26.7246 34L25.7246 34Z" fill="#56CCF2"/>
<path d="M173.503 33.7191C173.894 33.3286 173.894 32.6954 173.503 32.3049L167.139 25.9409C166.749 25.5504 166.116 25.5504 165.725 25.9409C165.335 26.3315 165.335 26.9646 165.725 27.3552L171.382 33.012L165.725 38.6689C165.335 39.0594 165.335 39.6926 165.725 40.0831C166.116 40.4736 166.749 40.4736 167.139 40.0831L173.503 33.7191ZM150.365 33.012V34.012H172.796V33.012V32.012H150.365V33.012Z" fill="#9B51E0"/>
<path d="M125.14 173.82C124.207 173.82 123.533 173.66 123.12 173.34C122.693 173.02 122.48 172.673 122.48 172.3C122.48 171.967 122.593 171.693 122.82 171.48C123.047 171.267 123.28 171.16 123.52 171.16C123.64 171.16 123.78 171.253 123.94 171.44C124.087 171.64 124.227 171.833 124.36 172.02C124.493 172.22 124.64 172.407 124.8 172.58C124.96 172.767 125.16 172.86 125.4 172.86C125.6 172.86 125.78 172.773 125.94 172.6C126.087 172.44 126.233 172.2 126.38 171.88C126.513 171.573 126.64 171.2 126.76 170.76L129.48 161.08C129.533 160.84 129.44 160.72 129.2 160.72L128 160.74C127.867 160.74 127.773 160.713 127.72 160.66C127.667 160.607 127.64 160.52 127.64 160.4C127.64 160.293 127.7 160.153 127.82 159.98C127.94 159.807 128.107 159.713 128.32 159.7L129.58 159.64C129.687 159.64 129.767 159.547 129.82 159.36L129.98 158.86C130.367 157.647 130.853 156.68 131.44 155.96C132.04 155.227 132.68 154.7 133.36 154.38C134.04 154.047 134.68 153.88 135.28 153.88C135.88 153.88 136.387 154.02 136.8 154.3C137.213 154.58 137.42 154.94 137.42 155.38C137.42 155.727 137.333 156.047 137.16 156.34C136.987 156.633 136.767 156.78 136.5 156.78C136.273 156.78 136.107 156.673 136 156.46C135.907 156.233 135.807 155.987 135.7 155.72C135.593 155.453 135.467 155.22 135.32 155.02C135.173 154.807 134.967 154.7 134.7 154.7C134.447 154.7 134.213 154.827 134 155.08C133.787 155.32 133.593 155.647 133.42 156.06C133.247 156.46 133.08 156.92 132.92 157.44C132.84 157.72 132.767 157.987 132.7 158.24C132.647 158.493 132.593 158.733 132.54 158.96C132.527 159.027 132.513 159.093 132.5 159.16C132.5 159.213 132.493 159.273 132.48 159.34C132.467 159.46 132.493 159.54 132.56 159.58C132.627 159.62 132.707 159.64 132.8 159.64C133.16 159.64 133.493 159.633 133.8 159.62C134.107 159.593 134.427 159.58 134.76 159.58C134.893 159.58 134.96 159.673 134.96 159.86C134.96 159.927 134.927 160.027 134.86 160.16C134.793 160.28 134.72 160.393 134.64 160.5C134.56 160.593 134.487 160.64 134.42 160.64L132.8 160.7C132.573 160.713 132.4 160.753 132.28 160.82C132.173 160.887 132.093 161.007 132.04 161.18C131.64 162.607 131.227 164.067 130.8 165.56C130.387 167.053 129.98 168.527 129.58 169.98C129.46 170.433 129.227 170.88 128.88 171.32C128.533 171.773 128.127 172.187 127.66 172.56C127.207 172.947 126.76 173.253 126.32 173.48C125.88 173.707 125.487 173.82 125.14 173.82ZM140.142 161.68C140.049 161.68 139.969 161.653 139.902 161.6C139.849 161.547 139.822 161.493 139.822 161.44C139.822 161.36 139.836 161.247 139.862 161.1C139.902 160.953 139.962 160.827 140.042 160.72C140.122 160.613 140.229 160.56 140.362 160.56H150.142C150.262 160.56 150.362 160.587 150.442 160.64C150.522 160.693 150.562 160.767 150.562 160.86C150.562 161.02 150.496 161.2 150.362 161.4C150.242 161.587 150.096 161.68 149.922 161.68H140.142ZM140.142 165.3C140.049 165.3 139.969 165.273 139.902 165.22C139.849 165.153 139.822 165.093 139.822 165.04C139.822 164.973 139.836 164.867 139.862 164.72C139.902 164.573 139.962 164.447 140.042 164.34C140.122 164.233 140.229 164.18 140.362 164.18H150.142C150.262 164.18 150.362 164.207 150.442 164.26C150.522 164.313 150.562 164.387 150.562 164.48C150.562 164.64 150.496 164.82 150.362 165.02C150.242 165.207 150.096 165.3 149.922 165.3H140.142ZM161.447 168.28C160.647 168.28 159.953 168.093 159.367 167.72C158.78 167.347 158.287 166.853 157.887 166.24C157.5 165.613 157.213 164.927 157.027 164.18C156.84 163.433 156.747 162.693 156.747 161.96C156.747 161.2 156.84 160.433 157.027 159.66C157.213 158.887 157.507 158.18 157.907 157.54C158.307 156.887 158.82 156.367 159.447 155.98C160.073 155.58 160.813 155.38 161.667 155.38C162.467 155.38 163.16 155.567 163.747 155.94C164.347 156.313 164.833 156.813 165.207 157.44C165.593 158.053 165.88 158.733 166.067 159.48C166.267 160.213 166.367 160.94 166.367 161.66C166.367 162.42 166.273 163.187 166.087 163.96C165.9 164.733 165.607 165.447 165.207 166.1C164.82 166.753 164.313 167.28 163.687 167.68C163.073 168.08 162.327 168.28 161.447 168.28ZM161.747 167.38C162.173 167.38 162.513 167.133 162.767 166.64C163.033 166.133 163.227 165.473 163.347 164.66C163.467 163.847 163.527 162.967 163.527 162.02C163.527 161.313 163.48 160.62 163.387 159.94C163.293 159.26 163.153 158.647 162.967 158.1C162.78 157.54 162.553 157.1 162.287 156.78C162.02 156.447 161.707 156.28 161.347 156.28C160.92 156.28 160.58 156.533 160.327 157.04C160.073 157.533 159.887 158.187 159.767 159C159.66 159.8 159.607 160.673 159.607 161.62C159.607 162.327 159.647 163.02 159.727 163.7C159.82 164.38 159.953 165 160.127 165.56C160.313 166.107 160.54 166.547 160.807 166.88C161.073 167.213 161.387 167.38 161.747 167.38Z" fill="#EB5757"/>
</g>
<defs>
<clipPath id="clip0_1_16">
<rect width="200" height="200" fill="white"/>
</clipPath>
</defs>
</svg>
