<svg width="200" height="200" viewBox="0 0 200 200" fill="none" xmlns="http://www.w3.org/2000/svg">
<g clip-path="url(#clip0_1_29)">
<rect width="200" height="200" fill="#F6F6F6"/>
<path d="M151.2 30.4C150.667 35.4667 150.267 40.4 150 45.2C149.867 49.8667 149.8 53.4667 149.8 56C149.8 59.2 149.867 62.2 150 65C150.133 67.8 150.267 70.2667 150.4 72.4H145.8C144.867 63.0667 143.6 55.7333 142 50.4C140.4 44.9333 137.6 41 133.6 38.6C129.6 36.2 123.4 35 115 35H102.4C97.8667 35 94.4 35.4 92 36.2C89.7333 36.8667 88.2 38.4 87.4 40.8C86.6 43.0667 86.2 46.6667 86.2 51.6V150.8C86.2 155.6 86.6667 159.2 87.6 161.6C88.6667 164 90.6667 165.6 93.6 166.4C96.5333 167.2 100.8 167.733 106.4 168V172C102.933 171.733 98.5333 171.6 93.2 171.6C87.8667 171.467 82.4667 171.4 77 171.4C71.8 171.4 66.9333 171.467 62.4 171.6C57.8667 171.6 54.2 171.733 51.4 172V168C55.9333 167.733 59.3333 167.2 61.6 166.4C64 165.6 65.6 164 66.4 161.6C67.2 159.2 67.6 155.6 67.6 150.8V51.6C67.6 46.6667 67.2 43.0667 66.4 40.8C65.6 38.4 64 36.8 61.6 36C59.3333 35.0667 55.9333 34.5333 51.4 34.4V30.4C56.3333 30.5333 61.5333 30.6667 67 30.8C72.4667 30.8 77.8667 30.8667 83.2 31C88.5333 31 93.4667 31 98 31C102.667 31 106.467 31 109.4 31C115.533 31 122.467 31 130.2 31C138.067 30.8667 145.067 30.6667 151.2 30.4ZM120.2 100.8C120.2 100.8 120.2 101.467 120.2 102.8C120.2 104.133 120.2 104.8 120.2 104.8H80.2C80.2 104.8 80.2 104.133 80.2 102.8C80.2 101.467 80.2 100.8 80.2 100.8H120.2ZM124 74.4C123.467 82 123.2 87.8 123.2 91.8C123.333 95.8 123.4 99.4667 123.4 102.8C123.4 106.133 123.467 109.8 123.6 113.8C123.733 117.8 124.067 123.6 124.6 131.2H120C119.467 126.933 118.8 122.8 118 118.8C117.333 114.667 115.733 111.333 113.2 108.8C110.8 106.133 106.667 104.8 100.8 104.8V100.8C105.2 100.8 108.533 99.9333 110.8 98.2C113.2 96.3333 114.933 94 116 91.2C117.067 88.4 117.8 85.5333 118.2 82.6C118.6 79.5333 119 76.8 119.4 74.4H124Z" fill="#CECECE"/>
<path d="M14.0683 84.934C13.7883 84.934 13.5283 84.8907 13.2883 84.804C13.055 84.724 12.845 84.6073 12.6583 84.454C12.6317 84.4273 12.605 84.3973 12.5783 84.364C12.5583 84.3307 12.5417 84.294 12.5283 84.254C12.495 84.1207 12.4717 83.9473 12.4583 83.734C12.4517 83.5207 12.4417 83.344 12.4283 83.204C12.4283 83.1573 12.4483 83.124 12.4883 83.104C12.5283 83.0773 12.575 83.064 12.6283 83.064C12.6617 83.064 12.695 83.074 12.7283 83.094C12.7617 83.1073 12.7817 83.134 12.7883 83.174C12.9217 83.6873 13.1183 84.054 13.3783 84.274C13.645 84.494 13.9217 84.604 14.2083 84.604C14.4417 84.604 14.6483 84.554 14.8283 84.454C15.0083 84.354 15.1483 84.214 15.2483 84.034C15.355 83.8473 15.4083 83.6307 15.4083 83.384C15.4083 83.1107 15.3617 82.8907 15.2683 82.724C15.1817 82.5507 15.055 82.4007 14.8883 82.274C14.7217 82.1473 14.5183 82.0107 14.2783 81.864C14.0183 81.6973 13.7617 81.5307 13.5083 81.364C13.255 81.1907 13.045 80.994 12.8783 80.774C12.7117 80.5473 12.6283 80.274 12.6283 79.954C12.6283 79.614 12.705 79.3073 12.8583 79.034C13.0117 78.7607 13.2417 78.544 13.5483 78.384C13.8617 78.2173 14.2517 78.134 14.7183 78.134C14.9583 78.134 15.165 78.1607 15.3383 78.214C15.5183 78.2607 15.6617 78.3073 15.7683 78.354C15.8217 78.374 15.865 78.4073 15.8983 78.454C15.9383 78.5007 15.965 78.5507 15.9783 78.604C16.0183 78.744 16.0617 78.904 16.1083 79.084C16.155 79.264 16.1783 79.434 16.1783 79.594C16.1783 79.6673 16.1283 79.704 16.0283 79.704C15.9683 79.704 15.9083 79.6907 15.8483 79.664C15.795 79.6373 15.7617 79.604 15.7483 79.564C15.6083 79.2107 15.445 78.9407 15.2583 78.754C15.0717 78.5673 14.835 78.474 14.5483 78.474C14.3483 78.474 14.1617 78.5107 13.9883 78.584C13.815 78.6573 13.6717 78.7773 13.5583 78.944C13.4517 79.1107 13.3983 79.334 13.3983 79.614C13.3983 79.814 13.4617 79.9973 13.5883 80.164C13.7217 80.324 13.895 80.4773 14.1083 80.624C14.3217 80.7707 14.5517 80.9207 14.7983 81.074C15.0317 81.214 15.2583 81.3673 15.4783 81.534C15.705 81.7007 15.8883 81.9007 16.0283 82.134C16.175 82.3607 16.2483 82.6407 16.2483 82.974C16.2483 83.3673 16.1583 83.714 15.9783 84.014C15.7983 84.3073 15.545 84.534 15.2183 84.694C14.8917 84.854 14.5083 84.934 14.0683 84.934ZM18.5668 84.914C18.2401 84.914 17.9834 84.814 17.7968 84.614C17.6168 84.414 17.5268 84.1173 17.5268 83.724V81.404C17.5268 81.3507 17.5068 81.314 17.4668 81.294C17.4268 81.2673 17.3401 81.254 17.2068 81.254H17.1468C17.1134 81.254 17.0834 81.234 17.0568 81.194C17.0368 81.1473 17.0268 81.1007 17.0268 81.054C17.0268 81.0407 17.0368 81.0207 17.0568 80.994C17.0768 80.9673 17.0901 80.9507 17.0968 80.944C17.2301 80.8507 17.3501 80.7573 17.4568 80.664C17.5701 80.5707 17.6701 80.4807 17.7568 80.394C17.8501 80.3007 17.9268 80.2173 17.9868 80.144C18.0201 80.1107 18.0468 80.084 18.0668 80.064C18.0934 80.0373 18.1234 80.024 18.1568 80.024C18.1901 80.024 18.2201 80.0307 18.2468 80.044C18.2801 80.0573 18.2934 80.0873 18.2868 80.134L18.2368 80.584C18.2301 80.6573 18.2468 80.7073 18.2868 80.734C18.3268 80.7607 18.3901 80.774 18.4768 80.774H19.6168C19.6434 80.774 19.6668 80.7973 19.6868 80.844C19.7068 80.884 19.7168 80.934 19.7168 80.994C19.7168 81.054 19.7068 81.114 19.6868 81.174C19.6668 81.2273 19.6434 81.254 19.6168 81.254H18.6268C18.4601 81.254 18.3501 81.2673 18.2968 81.294C18.2501 81.3207 18.2268 81.4007 18.2268 81.534V83.504C18.2268 83.7707 18.2834 83.9807 18.3968 84.134C18.5101 84.2873 18.6734 84.364 18.8868 84.364C19.0801 84.364 19.2301 84.3507 19.3368 84.324C19.4434 84.2907 19.5401 84.244 19.6268 84.184C19.6401 84.1707 19.6534 84.164 19.6668 84.164C19.6934 84.164 19.7101 84.1807 19.7168 84.214C19.7301 84.2407 19.7368 84.2707 19.7368 84.304C19.7368 84.3373 19.6801 84.404 19.5668 84.504C19.4601 84.604 19.3168 84.6973 19.1368 84.784C18.9634 84.8707 18.7734 84.914 18.5668 84.914ZM20.3113 84.804C20.2446 84.804 20.1946 84.794 20.1613 84.774C20.128 84.7607 20.1113 84.734 20.1113 84.694C20.1113 84.6407 20.1313 84.6073 20.1713 84.594C20.2113 84.574 20.268 84.554 20.3413 84.534C20.468 84.5007 20.5613 84.454 20.6213 84.394C20.688 84.3273 20.7213 84.2473 20.7213 84.154V82.004C20.7213 81.824 20.6946 81.6673 20.6413 81.534C20.588 81.4007 20.478 81.3173 20.3113 81.284C20.2846 81.2773 20.2613 81.2607 20.2413 81.234C20.2213 81.2073 20.2113 81.1807 20.2113 81.154C20.2113 81.0873 20.2413 81.0473 20.3013 81.034C20.4746 80.9807 20.6546 80.904 20.8413 80.804C21.0346 80.6973 21.1846 80.6107 21.2913 80.544C21.3313 80.5173 21.3613 80.5007 21.3813 80.494C21.408 80.4807 21.428 80.474 21.4413 80.474C21.4746 80.474 21.4913 80.4973 21.4913 80.544C21.4913 80.564 21.488 80.614 21.4813 80.694C21.4813 80.774 21.478 80.8673 21.4713 80.974C21.4713 81.0807 21.468 81.1873 21.4613 81.294C21.4613 81.3073 21.468 81.314 21.4813 81.314C21.588 81.1807 21.7046 81.064 21.8313 80.964C21.9646 80.864 22.098 80.784 22.2313 80.724C22.3713 80.664 22.5046 80.634 22.6313 80.634C22.7713 80.634 22.8846 80.664 22.9713 80.724C23.0646 80.784 23.1113 80.8607 23.1113 80.954C23.1113 81.0207 23.0913 81.094 23.0513 81.174C23.018 81.254 22.9713 81.324 22.9113 81.384C22.8513 81.444 22.788 81.474 22.7213 81.474C22.6813 81.474 22.638 81.4673 22.5913 81.454C22.5446 81.434 22.4946 81.4107 22.4413 81.384C22.388 81.364 22.3346 81.344 22.2813 81.324C22.228 81.304 22.1746 81.294 22.1213 81.294C21.9613 81.294 21.8046 81.3507 21.6513 81.464C21.5046 81.5773 21.4313 81.8007 21.4313 82.134V84.154C21.4313 84.2407 21.478 84.314 21.5713 84.374C21.6646 84.4273 21.7946 84.4807 21.9613 84.534C22.0346 84.554 22.0913 84.574 22.1313 84.594C22.1713 84.614 22.1913 84.6473 22.1913 84.694C22.1913 84.7673 22.1246 84.804 21.9913 84.804C21.7913 84.804 21.638 84.794 21.5313 84.774C21.4313 84.7607 21.2946 84.754 21.1213 84.754C21.008 84.754 20.9146 84.7573 20.8413 84.764C20.7746 84.7707 20.7013 84.7773 20.6213 84.784C20.548 84.7973 20.4446 84.804 20.3113 84.804ZM25.2911 84.924C24.9245 84.924 24.6045 84.834 24.3311 84.654C24.0578 84.474 23.8445 84.2207 23.6911 83.894C23.5378 83.5607 23.4611 83.1773 23.4611 82.744C23.4611 82.3573 23.5478 82.0073 23.7211 81.694C23.9011 81.374 24.1378 81.1173 24.4311 80.924C24.7245 80.7307 25.0445 80.634 25.3911 80.634C25.6578 80.634 25.8945 80.6873 26.1011 80.794C26.3078 80.9007 26.4678 81.0507 26.5811 81.244C26.7011 81.4307 26.7611 81.6473 26.7611 81.894C26.7611 82.1007 26.6611 82.204 26.4611 82.204H24.3511C24.2578 82.204 24.1911 82.2307 24.1511 82.284C24.1178 82.3307 24.1011 82.4273 24.1011 82.574C24.1011 82.894 24.1711 83.1873 24.3111 83.454C24.4511 83.714 24.6378 83.924 24.8711 84.084C25.1045 84.2373 25.3611 84.314 25.6411 84.314C25.8411 84.314 26.0211 84.2773 26.1811 84.204C26.3478 84.124 26.4945 84.0107 26.6211 83.864C26.6478 83.8307 26.6678 83.8107 26.6811 83.804C26.6945 83.7907 26.7111 83.784 26.7311 83.784C26.7845 83.784 26.8111 83.8173 26.8111 83.884C26.8111 84.0107 26.7511 84.1507 26.6311 84.304C26.5311 84.4307 26.4111 84.5407 26.2711 84.634C26.1311 84.7273 25.9778 84.7973 25.8111 84.844C25.6445 84.8973 25.4711 84.924 25.2911 84.924ZM24.3711 81.894H25.2811C25.4411 81.894 25.5778 81.8907 25.6911 81.884C25.8045 81.8773 25.9145 81.864 26.0211 81.844C26.0545 81.8373 26.0745 81.8173 26.0811 81.784C26.0945 81.744 26.1011 81.6907 26.1011 81.624C26.1011 81.4307 26.0145 81.2673 25.8411 81.134C25.6745 80.994 25.4745 80.924 25.2411 80.924C25.0878 80.924 24.9345 80.9707 24.7811 81.064C24.6278 81.1507 24.5011 81.2607 24.4011 81.394C24.3011 81.5273 24.2511 81.6607 24.2511 81.794C24.2511 81.8607 24.2911 81.894 24.3711 81.894ZM28.9476 84.914C28.621 84.914 28.3643 84.814 28.1776 84.614C27.9976 84.414 27.9076 84.1173 27.9076 83.724V81.404C27.9076 81.3507 27.8876 81.314 27.8476 81.294C27.8076 81.2673 27.721 81.254 27.5876 81.254H27.5276C27.4943 81.254 27.4643 81.234 27.4376 81.194C27.4176 81.1473 27.4076 81.1007 27.4076 81.054C27.4076 81.0407 27.4176 81.0207 27.4376 80.994C27.4576 80.9673 27.471 80.9507 27.4776 80.944C27.611 80.8507 27.731 80.7573 27.8376 80.664C27.951 80.5707 28.051 80.4807 28.1376 80.394C28.231 80.3007 28.3076 80.2173 28.3676 80.144C28.401 80.1107 28.4276 80.084 28.4476 80.064C28.4743 80.0373 28.5043 80.024 28.5376 80.024C28.571 80.024 28.601 80.0307 28.6276 80.044C28.661 80.0573 28.6743 80.0873 28.6676 80.134L28.6176 80.584C28.611 80.6573 28.6276 80.7073 28.6676 80.734C28.7076 80.7607 28.771 80.774 28.8576 80.774H29.9976C30.0243 80.774 30.0476 80.7973 30.0676 80.844C30.0876 80.884 30.0976 80.934 30.0976 80.994C30.0976 81.054 30.0876 81.114 30.0676 81.174C30.0476 81.2273 30.0243 81.254 29.9976 81.254H29.0076C28.841 81.254 28.731 81.2673 28.6776 81.294C28.631 81.3207 28.6076 81.4007 28.6076 81.534V83.504C28.6076 83.7707 28.6643 83.9807 28.7776 84.134C28.891 84.2873 29.0543 84.364 29.2676 84.364C29.461 84.364 29.611 84.3507 29.7176 84.324C29.8243 84.2907 29.921 84.244 30.0076 84.184C30.021 84.1707 30.0343 84.164 30.0476 84.164C30.0743 84.164 30.091 84.1807 30.0976 84.214C30.111 84.2407 30.1176 84.2707 30.1176 84.304C30.1176 84.3373 30.061 84.404 29.9476 84.504C29.841 84.604 29.6976 84.6973 29.5176 84.784C29.3443 84.8707 29.1543 84.914 28.9476 84.914ZM32.3322 84.924C31.9988 84.924 31.6955 84.8407 31.4222 84.674C31.1555 84.5007 30.9422 84.2673 30.7822 83.974C30.6288 83.674 30.5522 83.3407 30.5522 82.974C30.5522 82.5407 30.6455 82.1473 30.8322 81.794C31.0255 81.4407 31.2822 81.1607 31.6022 80.954C31.9222 80.7407 32.2755 80.634 32.6622 80.634C33.0955 80.634 33.4755 80.7507 33.8022 80.984C33.8822 81.044 33.9222 81.1073 33.9222 81.174C33.9222 81.2273 33.8988 81.2873 33.8522 81.354C33.8055 81.4207 33.7488 81.4773 33.6822 81.524C33.6155 81.564 33.5522 81.584 33.4922 81.584C33.4588 81.584 33.4255 81.574 33.3922 81.554C33.3588 81.5273 33.3222 81.5007 33.2822 81.474C33.1355 81.3607 32.9722 81.254 32.7922 81.154C32.6122 81.054 32.4622 81.004 32.3422 81.004C32.0155 81.004 31.7488 81.1573 31.5422 81.464C31.3422 81.764 31.2422 82.1607 31.2422 82.654C31.2422 82.9673 31.3088 83.2507 31.4422 83.504C31.5822 83.7573 31.7655 83.9573 31.9922 84.104C32.2255 84.2507 32.4822 84.324 32.7622 84.324C32.9555 84.324 33.1222 84.294 33.2622 84.234C33.4022 84.1673 33.5522 84.054 33.7122 83.894C33.7255 83.8807 33.7422 83.8707 33.7622 83.864C33.7822 83.8507 33.7988 83.844 33.8122 83.844C33.8855 83.844 33.9222 83.8907 33.9222 83.984C33.9222 84.024 33.9088 84.0707 33.8822 84.124C33.8622 84.1707 33.8255 84.2273 33.7722 84.294C33.6655 84.4273 33.5388 84.544 33.3922 84.644C33.2455 84.7373 33.0822 84.8073 32.9022 84.854C32.7288 84.9007 32.5388 84.924 32.3322 84.924ZM34.6644 84.804C34.5311 84.804 34.4644 84.7673 34.4644 84.694C34.4644 84.634 34.5411 84.5807 34.6944 84.534C34.7944 84.5007 34.8878 84.4573 34.9744 84.404C35.0678 84.3507 35.1178 84.2573 35.1244 84.124V79.114C35.1244 78.934 35.0944 78.7773 35.0344 78.644C34.9744 78.504 34.8578 78.4207 34.6844 78.394C34.6244 78.3807 34.5944 78.334 34.5944 78.254C34.5944 78.194 34.6211 78.154 34.6744 78.134C34.7678 78.1007 34.8778 78.064 35.0044 78.024C35.1378 77.984 35.2744 77.9407 35.4144 77.894C35.5544 77.8407 35.6778 77.7907 35.7844 77.744C35.8111 77.7307 35.8311 77.724 35.8444 77.724C35.8644 77.724 35.8811 77.7307 35.8944 77.744C35.9078 77.7573 35.9144 77.774 35.9144 77.794C35.9144 77.834 35.9044 77.8907 35.8844 77.964C35.8711 78.0373 35.8578 78.164 35.8444 78.344C35.8311 78.524 35.8244 78.794 35.8244 79.154V80.894C35.8244 81.0007 35.8278 81.0773 35.8344 81.124C35.8478 81.1707 35.8678 81.2173 35.8944 81.264C36.0011 81.184 36.1311 81.0973 36.2844 81.004C36.4444 80.904 36.6211 80.8173 36.8144 80.744C37.0078 80.6707 37.2078 80.634 37.4144 80.634C37.7411 80.634 38.0111 80.764 38.2244 81.024C38.4444 81.2773 38.5544 81.6007 38.5544 81.994V84.094C38.5544 84.2273 38.5978 84.3273 38.6844 84.394C38.7711 84.454 38.8644 84.5007 38.9644 84.534C39.0378 84.554 39.0944 84.5773 39.1344 84.604C39.1744 84.624 39.1944 84.654 39.1944 84.694C39.1944 84.7673 39.1278 84.804 38.9944 84.804C38.8611 84.804 38.7578 84.7973 38.6844 84.784C38.6178 84.7773 38.5511 84.7707 38.4844 84.764C38.4244 84.7573 38.3344 84.754 38.2144 84.754C38.1011 84.754 38.0111 84.7573 37.9444 84.764C37.8778 84.7707 37.8078 84.7773 37.7344 84.784C37.6678 84.7973 37.5678 84.804 37.4344 84.804C37.3011 84.804 37.2344 84.7673 37.2344 84.694C37.2344 84.6473 37.2544 84.6173 37.2944 84.604C37.3344 84.584 37.3911 84.5607 37.4644 84.534C37.5644 84.5007 37.6544 84.454 37.7344 84.394C37.8144 84.3273 37.8544 84.2273 37.8544 84.094V82.054C37.8544 81.8873 37.8044 81.7373 37.7044 81.604C37.6111 81.464 37.4944 81.354 37.3544 81.274C37.2144 81.194 37.0711 81.154 36.9244 81.154C36.7978 81.154 36.6511 81.174 36.4844 81.214C36.3178 81.2473 36.1878 81.3007 36.0944 81.374C35.9878 81.4607 35.9144 81.5507 35.8744 81.644C35.8411 81.7373 35.8244 81.8873 35.8244 82.094V84.124C35.8311 84.2573 35.8711 84.3507 35.9444 84.404C36.0244 84.4573 36.1144 84.5007 36.2144 84.534C36.2878 84.554 36.3411 84.5773 36.3744 84.604C36.4144 84.624 36.4344 84.654 36.4344 84.694C36.4344 84.7673 36.3678 84.804 36.2344 84.804C36.1011 84.804 36.0011 84.7973 35.9344 84.784C35.8678 84.7773 35.8044 84.7707 35.7444 84.764C35.6844 84.7573 35.5944 84.754 35.4744 84.754C35.3611 84.754 35.2678 84.7573 35.1944 84.764C35.1278 84.7707 35.0544 84.7773 34.9744 84.784C34.9011 84.7973 34.7978 84.804 34.6644 84.804ZM12.0192 97.964C12.0059 97.964 11.9826 97.9507 11.9492 97.924C11.9226 97.8973 11.9092 97.8773 11.9092 97.864C11.9092 97.7973 11.9159 97.704 11.9292 97.584C11.9492 97.4573 11.9592 97.3507 11.9592 97.264V97.204C11.8592 97.3573 11.6992 97.514 11.4792 97.674C11.2592 97.834 10.9826 97.914 10.6492 97.914C10.2692 97.914 9.93923 97.814 9.65923 97.614C9.38589 97.414 9.17256 97.1573 9.01923 96.844C8.87256 96.5307 8.79923 96.2073 8.79923 95.874C8.79923 95.4873 8.88923 95.124 9.06923 94.784C9.24923 94.444 9.50589 94.1673 9.83923 93.954C10.1792 93.7407 10.5826 93.634 11.0492 93.634C11.1826 93.634 11.3159 93.6473 11.4492 93.674C11.5892 93.694 11.6959 93.7173 11.7692 93.744C11.8292 93.764 11.8726 93.774 11.8992 93.774C11.9459 93.774 11.9692 93.694 11.9692 93.534V92.114C11.9692 91.8407 11.9259 91.6573 11.8392 91.564C11.7526 91.4707 11.6292 91.4107 11.4692 91.384C11.4092 91.3707 11.3792 91.3273 11.3792 91.254C11.3792 91.194 11.4059 91.154 11.4592 91.134C11.7526 91.0607 11.9826 90.9907 12.1492 90.924C12.3159 90.8573 12.4459 90.804 12.5392 90.764C12.5659 90.7507 12.5892 90.744 12.6092 90.744C12.6359 90.7373 12.6559 90.734 12.6692 90.734C12.7092 90.734 12.7326 90.754 12.7392 90.794C12.7392 90.834 12.7326 90.904 12.7192 91.004C12.7126 91.0973 12.7026 91.2373 12.6892 91.424C12.6759 91.6107 12.6692 91.854 12.6692 92.154V96.674C12.6692 96.9007 12.6859 97.0673 12.7192 97.174C12.7526 97.274 12.8059 97.324 12.8792 97.324C12.9126 97.324 12.9692 97.3207 13.0492 97.314C13.1359 97.3073 13.2226 97.3007 13.3092 97.294C13.4292 97.2873 13.4892 97.3173 13.4892 97.384C13.4892 97.4307 13.4726 97.474 13.4392 97.514C13.4126 97.5473 13.3826 97.564 13.3492 97.564C13.1626 97.5907 12.9792 97.6307 12.7992 97.684C12.6192 97.7307 12.4126 97.804 12.1792 97.904C12.1259 97.9307 12.0892 97.9473 12.0692 97.954C12.0559 97.9607 12.0392 97.964 12.0192 97.964ZM11.0092 97.394C11.1826 97.394 11.3526 97.3507 11.5192 97.264C11.6859 97.1707 11.8326 97.0507 11.9592 96.904L11.9692 95.104C11.9692 94.924 11.9159 94.7473 11.8092 94.574C11.7092 94.4007 11.5659 94.2607 11.3792 94.154C11.1992 94.0407 10.9859 93.984 10.7392 93.984C10.5859 93.984 10.4126 94.0307 10.2192 94.124C10.0259 94.2173 9.85923 94.384 9.71923 94.624C9.57923 94.8573 9.50923 95.1973 9.50923 95.644C9.50923 96.024 9.56589 96.3307 9.67923 96.564C9.79256 96.7907 9.92923 96.964 10.0892 97.084C10.2559 97.204 10.4226 97.2873 10.5892 97.334C10.7626 97.374 10.9026 97.394 11.0092 97.394ZM13.9478 97.804C13.8878 97.804 13.8378 97.794 13.7978 97.774C13.7645 97.7607 13.7478 97.734 13.7478 97.694C13.7478 97.6407 13.7712 97.604 13.8178 97.584C13.8712 97.564 13.9245 97.5473 13.9778 97.534C14.1178 97.5007 14.2245 97.4607 14.2978 97.414C14.3712 97.3607 14.4078 97.274 14.4078 97.154V94.984C14.4078 94.804 14.3745 94.644 14.3078 94.504C14.2478 94.364 14.1312 94.2807 13.9578 94.254C13.9245 94.2473 13.8978 94.234 13.8778 94.214C13.8645 94.194 13.8578 94.164 13.8578 94.124C13.8578 94.0507 13.8878 94.0107 13.9478 94.004C14.2145 93.944 14.4345 93.864 14.6078 93.764C14.7812 93.6573 14.9112 93.5707 14.9978 93.504C15.0578 93.4573 15.1045 93.434 15.1378 93.434C15.1778 93.434 15.1978 93.4507 15.1978 93.484C15.1978 93.5373 15.1878 93.644 15.1678 93.804C15.1545 93.9573 15.1412 94.1307 15.1278 94.324C15.1145 94.5107 15.1078 94.6807 15.1078 94.834V97.154C15.1078 97.2673 15.1445 97.3507 15.2178 97.404C15.2978 97.4573 15.4045 97.5007 15.5378 97.534C15.5912 97.5473 15.6412 97.564 15.6878 97.584C15.7412 97.604 15.7678 97.6407 15.7678 97.694C15.7678 97.7673 15.7012 97.804 15.5678 97.804C15.4412 97.804 15.3378 97.7973 15.2578 97.784C15.1845 97.7773 15.1112 97.7707 15.0378 97.764C14.9712 97.7573 14.8778 97.754 14.7578 97.754C14.6445 97.754 14.5512 97.7573 14.4778 97.764C14.4045 97.7707 14.3312 97.7773 14.2578 97.784C14.1845 97.7973 14.0812 97.804 13.9478 97.804ZM14.7478 92.614C14.6078 92.614 14.4878 92.5673 14.3878 92.474C14.2945 92.374 14.2478 92.254 14.2478 92.114C14.2478 91.9673 14.2945 91.8473 14.3878 91.754C14.4878 91.654 14.6078 91.604 14.7478 91.604C14.8945 91.604 15.0145 91.654 15.1078 91.754C15.2078 91.8473 15.2578 91.9673 15.2578 92.114C15.2578 92.254 15.2078 92.374 15.1078 92.474C15.0145 92.5673 14.8945 92.614 14.7478 92.614ZM16.449 97.804C16.3823 97.804 16.3323 97.794 16.299 97.774C16.2657 97.7607 16.249 97.734 16.249 97.694C16.249 97.6407 16.269 97.6073 16.309 97.594C16.349 97.574 16.4057 97.554 16.479 97.534C16.6057 97.5007 16.699 97.454 16.759 97.394C16.8257 97.3273 16.859 97.2473 16.859 97.154V95.004C16.859 94.824 16.8323 94.6673 16.779 94.534C16.7257 94.4007 16.6157 94.3173 16.449 94.284C16.4223 94.2773 16.399 94.2607 16.379 94.234C16.359 94.2073 16.349 94.1807 16.349 94.154C16.349 94.0873 16.379 94.0473 16.439 94.034C16.6123 93.9807 16.7923 93.904 16.979 93.804C17.1723 93.6973 17.3223 93.6107 17.429 93.544C17.469 93.5173 17.499 93.5007 17.519 93.494C17.5457 93.4807 17.5657 93.474 17.579 93.474C17.6123 93.474 17.629 93.4973 17.629 93.544C17.629 93.564 17.6257 93.614 17.619 93.694C17.619 93.774 17.6157 93.8673 17.609 93.974C17.609 94.0807 17.6057 94.1873 17.599 94.294C17.599 94.3073 17.6057 94.314 17.619 94.314C17.7257 94.1807 17.8423 94.064 17.969 93.964C18.1023 93.864 18.2357 93.784 18.369 93.724C18.509 93.664 18.6423 93.634 18.769 93.634C18.909 93.634 19.0223 93.664 19.109 93.724C19.2023 93.784 19.249 93.8607 19.249 93.954C19.249 94.0207 19.229 94.094 19.189 94.174C19.1557 94.254 19.109 94.324 19.049 94.384C18.989 94.444 18.9257 94.474 18.859 94.474C18.819 94.474 18.7757 94.4673 18.729 94.454C18.6823 94.434 18.6323 94.4107 18.579 94.384C18.5257 94.364 18.4723 94.344 18.419 94.324C18.3657 94.304 18.3123 94.294 18.259 94.294C18.099 94.294 17.9423 94.3507 17.789 94.464C17.6423 94.5773 17.569 94.8007 17.569 95.134V97.154C17.569 97.2407 17.6157 97.314 17.709 97.374C17.8023 97.4273 17.9323 97.4807 18.099 97.534C18.1723 97.554 18.229 97.574 18.269 97.594C18.309 97.614 18.329 97.6473 18.329 97.694C18.329 97.7673 18.2623 97.804 18.129 97.804C17.929 97.804 17.7757 97.794 17.669 97.774C17.569 97.7607 17.4323 97.754 17.259 97.754C17.1457 97.754 17.0523 97.7573 16.979 97.764C16.9123 97.7707 16.839 97.7773 16.759 97.784C16.6857 97.7973 16.5823 97.804 16.449 97.804ZM21.4288 97.924C21.0622 97.924 20.7422 97.834 20.4688 97.654C20.1955 97.474 19.9822 97.2207 19.8288 96.894C19.6755 96.5607 19.5988 96.1773 19.5988 95.744C19.5988 95.3573 19.6855 95.0073 19.8588 94.694C20.0388 94.374 20.2755 94.1173 20.5688 93.924C20.8622 93.7307 21.1822 93.634 21.5288 93.634C21.7955 93.634 22.0322 93.6873 22.2388 93.794C22.4455 93.9007 22.6055 94.0507 22.7188 94.244C22.8388 94.4307 22.8988 94.6473 22.8988 94.894C22.8988 95.1007 22.7988 95.204 22.5988 95.204H20.4888C20.3955 95.204 20.3288 95.2307 20.2888 95.284C20.2555 95.3307 20.2388 95.4273 20.2388 95.574C20.2388 95.894 20.3088 96.1873 20.4488 96.454C20.5888 96.714 20.7755 96.924 21.0088 97.084C21.2422 97.2373 21.4988 97.314 21.7788 97.314C21.9788 97.314 22.1588 97.2773 22.3188 97.204C22.4855 97.124 22.6322 97.0107 22.7588 96.864C22.7855 96.8307 22.8055 96.8107 22.8188 96.804C22.8322 96.7907 22.8488 96.784 22.8688 96.784C22.9222 96.784 22.9488 96.8173 22.9488 96.884C22.9488 97.0107 22.8888 97.1507 22.7688 97.304C22.6688 97.4307 22.5488 97.5407 22.4088 97.634C22.2688 97.7273 22.1155 97.7973 21.9488 97.844C21.7822 97.8973 21.6088 97.924 21.4288 97.924ZM20.5088 94.894H21.4188C21.5788 94.894 21.7155 94.8907 21.8288 94.884C21.9422 94.8773 22.0522 94.864 22.1588 94.844C22.1922 94.8373 22.2122 94.8173 22.2188 94.784C22.2322 94.744 22.2388 94.6907 22.2388 94.624C22.2388 94.4307 22.1522 94.2673 21.9788 94.134C21.8122 93.994 21.6122 93.924 21.3788 93.924C21.2255 93.924 21.0722 93.9707 20.9188 94.064C20.7655 94.1507 20.6388 94.2607 20.5388 94.394C20.4388 94.5273 20.3888 94.6607 20.3888 94.794C20.3888 94.8607 20.4288 94.894 20.5088 94.894ZM25.2277 97.924C24.8943 97.924 24.591 97.8407 24.3177 97.674C24.051 97.5007 23.8377 97.2673 23.6777 96.974C23.5243 96.674 23.4477 96.3407 23.4477 95.974C23.4477 95.5407 23.541 95.1473 23.7277 94.794C23.921 94.4407 24.1777 94.1607 24.4977 93.954C24.8177 93.7407 25.171 93.634 25.5577 93.634C25.991 93.634 26.371 93.7507 26.6977 93.984C26.7777 94.044 26.8177 94.1073 26.8177 94.174C26.8177 94.2273 26.7943 94.2873 26.7477 94.354C26.701 94.4207 26.6443 94.4773 26.5777 94.524C26.511 94.564 26.4477 94.584 26.3877 94.584C26.3543 94.584 26.321 94.574 26.2877 94.554C26.2543 94.5273 26.2177 94.5007 26.1777 94.474C26.031 94.3607 25.8677 94.254 25.6877 94.154C25.5077 94.054 25.3577 94.004 25.2377 94.004C24.911 94.004 24.6443 94.1573 24.4377 94.464C24.2377 94.764 24.1377 95.1607 24.1377 95.654C24.1377 95.9673 24.2043 96.2507 24.3377 96.504C24.4777 96.7573 24.661 96.9573 24.8877 97.104C25.121 97.2507 25.3777 97.324 25.6577 97.324C25.851 97.324 26.0177 97.294 26.1577 97.234C26.2977 97.1673 26.4477 97.054 26.6077 96.894C26.621 96.8807 26.6377 96.8707 26.6577 96.864C26.6777 96.8507 26.6943 96.844 26.7077 96.844C26.781 96.844 26.8177 96.8907 26.8177 96.984C26.8177 97.024 26.8043 97.0707 26.7777 97.124C26.7577 97.1707 26.721 97.2273 26.6677 97.294C26.561 97.4273 26.4343 97.544 26.2877 97.644C26.141 97.7373 25.9777 97.8073 25.7977 97.854C25.6243 97.9007 25.4343 97.924 25.2277 97.924ZM29.0599 97.914C28.7333 97.914 28.4766 97.814 28.2899 97.614C28.1099 97.414 28.0199 97.1173 28.0199 96.724V94.404C28.0199 94.3507 27.9999 94.314 27.9599 94.294C27.9199 94.2673 27.8333 94.254 27.6999 94.254H27.6399C27.6066 94.254 27.5766 94.234 27.5499 94.194C27.5299 94.1473 27.5199 94.1007 27.5199 94.054C27.5199 94.0407 27.5299 94.0207 27.5499 93.994C27.5699 93.9673 27.5833 93.9507 27.5899 93.944C27.7233 93.8507 27.8433 93.7573 27.9499 93.664C28.0633 93.5707 28.1633 93.4807 28.2499 93.394C28.3433 93.3007 28.4199 93.2173 28.4799 93.144C28.5133 93.1107 28.5399 93.084 28.5599 93.064C28.5866 93.0373 28.6166 93.024 28.6499 93.024C28.6833 93.024 28.7133 93.0307 28.7399 93.044C28.7733 93.0573 28.7866 93.0873 28.7799 93.134L28.7299 93.584C28.7233 93.6573 28.7399 93.7073 28.7799 93.734C28.8199 93.7607 28.8833 93.774 28.9699 93.774H30.1099C30.1366 93.774 30.1599 93.7973 30.1799 93.844C30.1999 93.884 30.2099 93.934 30.2099 93.994C30.2099 94.054 30.1999 94.114 30.1799 94.174C30.1599 94.2273 30.1366 94.254 30.1099 94.254H29.1199C28.9533 94.254 28.8433 94.2673 28.7899 94.294C28.7433 94.3207 28.7199 94.4007 28.7199 94.534V96.504C28.7199 96.7707 28.7766 96.9807 28.8899 97.134C29.0033 97.2873 29.1666 97.364 29.3799 97.364C29.5733 97.364 29.7233 97.3507 29.8299 97.324C29.9366 97.2907 30.0333 97.244 30.1199 97.184C30.1333 97.1707 30.1466 97.164 30.1599 97.164C30.1866 97.164 30.2033 97.1807 30.2099 97.214C30.2233 97.2407 30.2299 97.2707 30.2299 97.304C30.2299 97.3373 30.1733 97.404 30.0599 97.504C29.9533 97.604 29.8099 97.6973 29.6299 97.784C29.4566 97.8707 29.2666 97.914 29.0599 97.914ZM30.7545 97.804C30.6945 97.804 30.6445 97.794 30.6045 97.774C30.5711 97.7607 30.5545 97.734 30.5545 97.694C30.5545 97.6407 30.5778 97.604 30.6245 97.584C30.6778 97.564 30.7311 97.5473 30.7845 97.534C30.9245 97.5007 31.0311 97.4607 31.1045 97.414C31.1778 97.3607 31.2145 97.274 31.2145 97.154V94.984C31.2145 94.804 31.1811 94.644 31.1145 94.504C31.0545 94.364 30.9378 94.2807 30.7645 94.254C30.7311 94.2473 30.7045 94.234 30.6845 94.214C30.6711 94.194 30.6645 94.164 30.6645 94.124C30.6645 94.0507 30.6945 94.0107 30.7545 94.004C31.0211 93.944 31.2411 93.864 31.4145 93.764C31.5878 93.6573 31.7178 93.5707 31.8045 93.504C31.8645 93.4573 31.9111 93.434 31.9445 93.434C31.9845 93.434 32.0045 93.4507 32.0045 93.484C32.0045 93.5373 31.9945 93.644 31.9745 93.804C31.9611 93.9573 31.9478 94.1307 31.9345 94.324C31.9211 94.5107 31.9145 94.6807 31.9145 94.834V97.154C31.9145 97.2673 31.9511 97.3507 32.0245 97.404C32.1045 97.4573 32.2111 97.5007 32.3445 97.534C32.3978 97.5473 32.4478 97.564 32.4945 97.584C32.5478 97.604 32.5745 97.6407 32.5745 97.694C32.5745 97.7673 32.5078 97.804 32.3745 97.804C32.2478 97.804 32.1445 97.7973 32.0645 97.784C31.9911 97.7773 31.9178 97.7707 31.8445 97.764C31.7778 97.7573 31.6845 97.754 31.5645 97.754C31.4511 97.754 31.3578 97.7573 31.2845 97.764C31.2111 97.7707 31.1378 97.7773 31.0645 97.784C30.9911 97.7973 30.8878 97.804 30.7545 97.804ZM31.5545 92.614C31.4145 92.614 31.2945 92.5673 31.1945 92.474C31.1011 92.374 31.0545 92.254 31.0545 92.114C31.0545 91.9673 31.1011 91.8473 31.1945 91.754C31.2945 91.654 31.4145 91.604 31.5545 91.604C31.7011 91.604 31.8211 91.654 31.9145 91.754C32.0145 91.8473 32.0645 91.9673 32.0645 92.114C32.0645 92.254 32.0145 92.374 31.9145 92.474C31.8211 92.5673 31.7011 92.614 31.5545 92.614ZM35.1056 97.914C34.7323 97.914 34.3956 97.8273 34.0956 97.654C33.7956 97.4807 33.5556 97.244 33.3756 96.944C33.2023 96.6373 33.1156 96.2907 33.1156 95.904C33.1156 95.624 33.169 95.3507 33.2756 95.084C33.389 94.8173 33.5456 94.574 33.7456 94.354C33.9456 94.134 34.179 93.9607 34.4456 93.834C34.7123 93.7007 34.999 93.634 35.3056 93.634C35.6923 93.634 36.039 93.7273 36.3456 93.914C36.659 94.1007 36.9056 94.3473 37.0856 94.654C37.2723 94.954 37.3656 95.284 37.3656 95.644C37.3656 96.0307 37.279 96.3973 37.1056 96.744C36.939 97.0907 36.689 97.374 36.3556 97.594C36.0223 97.8073 35.6056 97.914 35.1056 97.914ZM35.3156 97.614C35.5423 97.614 35.7456 97.5707 35.9256 97.484C36.1056 97.3973 36.2456 97.2573 36.3456 97.064C36.4256 96.9107 36.479 96.724 36.5056 96.504C36.5323 96.284 36.5456 96.0773 36.5456 95.884C36.5456 95.564 36.4856 95.2573 36.3656 94.964C36.2523 94.664 36.089 94.4207 35.8756 94.234C35.669 94.0407 35.4223 93.944 35.1356 93.944C34.9556 93.944 34.7923 93.974 34.6456 94.034C34.5056 94.0873 34.3756 94.1907 34.2556 94.344C34.1223 94.5107 34.0356 94.714 33.9956 94.954C33.9556 95.194 33.9356 95.434 33.9356 95.674C33.9356 96.0007 33.9956 96.314 34.1156 96.614C34.2356 96.9073 34.399 97.1473 34.6056 97.334C34.8123 97.5207 35.049 97.614 35.3156 97.614ZM38.1568 97.804C38.0968 97.804 38.0468 97.794 38.0068 97.774C37.9735 97.7607 37.9568 97.734 37.9568 97.694C37.9568 97.6407 37.9768 97.6073 38.0168 97.594C38.0568 97.574 38.1135 97.554 38.1868 97.534C38.2868 97.5073 38.3835 97.4707 38.4768 97.424C38.5701 97.3773 38.6168 97.2873 38.6168 97.154V95.004C38.6168 94.824 38.5968 94.6707 38.5568 94.544C38.5235 94.4173 38.4201 94.3307 38.2468 94.284C38.2201 94.2707 38.1968 94.2573 38.1768 94.244C38.1568 94.224 38.1468 94.194 38.1468 94.154C38.1468 94.0807 38.1768 94.0407 38.2368 94.034C38.4701 93.974 38.6601 93.9007 38.8068 93.814C38.9535 93.7273 39.0968 93.6307 39.2368 93.524C39.2568 93.5107 39.2735 93.5007 39.2868 93.494C39.3068 93.4807 39.3268 93.474 39.3468 93.474C39.3601 93.474 39.3701 93.4807 39.3768 93.494C39.3901 93.5073 39.3968 93.524 39.3968 93.544C39.3968 93.5907 39.3868 93.6873 39.3668 93.834C39.3535 93.974 39.3468 94.0907 39.3468 94.184C39.3468 94.2107 39.3468 94.2373 39.3468 94.264C39.3535 94.284 39.3601 94.2973 39.3668 94.304C39.6001 94.084 39.8468 93.9173 40.1068 93.804C40.3735 93.6907 40.6635 93.634 40.9768 93.634C41.3035 93.634 41.5735 93.7673 41.7868 94.034C42.0001 94.3007 42.1068 94.6307 42.1068 95.024V97.154C42.1068 97.2873 42.1535 97.3773 42.2468 97.424C42.3401 97.464 42.4368 97.5007 42.5368 97.534C42.5901 97.554 42.6401 97.5773 42.6868 97.604C42.7401 97.624 42.7668 97.6607 42.7668 97.714C42.7668 97.754 42.7435 97.7773 42.6968 97.784C42.6501 97.7973 42.6068 97.804 42.5668 97.804C42.4335 97.804 42.3301 97.7973 42.2568 97.784C42.1835 97.7773 42.1135 97.7707 42.0468 97.764C41.9801 97.7573 41.8868 97.754 41.7668 97.754C41.6535 97.754 41.5601 97.7573 41.4868 97.764C41.4135 97.7707 41.3368 97.7773 41.2568 97.784C41.1835 97.7973 41.0801 97.804 40.9468 97.804C40.9135 97.804 40.8701 97.7973 40.8168 97.784C40.7701 97.7773 40.7468 97.754 40.7468 97.714C40.7468 97.6607 40.7701 97.624 40.8168 97.604C40.8701 97.5773 40.9235 97.554 40.9768 97.534C41.0768 97.5007 41.1735 97.464 41.2668 97.424C41.3601 97.3773 41.4068 97.2873 41.4068 97.154V95.054C41.4068 94.7607 41.3235 94.534 41.1568 94.374C40.9968 94.2073 40.7801 94.1207 40.5068 94.114C40.2668 94.114 40.0568 94.154 39.8768 94.234C39.6968 94.3073 39.5368 94.4007 39.3968 94.514C39.3701 94.5407 39.3501 94.5773 39.3368 94.624C39.3235 94.664 39.3168 94.704 39.3168 94.744V97.154C39.3168 97.2873 39.3635 97.3773 39.4568 97.424C39.5501 97.4707 39.6468 97.5073 39.7468 97.534C39.9001 97.574 39.9768 97.6273 39.9768 97.694C39.9768 97.734 39.9601 97.7607 39.9268 97.774C39.8935 97.794 39.8435 97.804 39.7768 97.804C39.6435 97.804 39.5368 97.7973 39.4568 97.784C39.3835 97.7773 39.3135 97.7707 39.2468 97.764C39.1801 97.7573 39.0868 97.754 38.9668 97.754C38.8535 97.754 38.7601 97.7573 38.6868 97.764C38.6201 97.7707 38.5468 97.7773 38.4668 97.784C38.3935 97.7973 38.2901 97.804 38.1568 97.804Z" fill="#56CCF2"/>
<path d="M148.493 113.062C148.407 113.062 148.337 113.052 148.283 113.032C148.23 113.019 148.203 112.992 148.203 112.952C148.203 112.872 148.313 112.812 148.533 112.772C148.787 112.725 148.96 112.649 149.053 112.542C149.153 112.435 149.203 112.259 149.203 112.012V107.792C149.203 107.492 149.163 107.262 149.083 107.102C149.01 106.942 148.847 106.839 148.593 106.792C148.48 106.772 148.397 106.745 148.343 106.712C148.29 106.679 148.263 106.639 148.263 106.592C148.263 106.552 148.29 106.525 148.343 106.512C148.397 106.492 148.467 106.482 148.553 106.482C148.8 106.482 149.007 106.485 149.173 106.492C149.347 106.499 149.517 106.505 149.683 106.512C149.85 106.512 150.047 106.512 150.273 106.512C150.467 106.512 150.673 106.512 150.893 106.512C151.113 106.512 151.327 106.512 151.533 106.512C151.747 106.512 151.933 106.495 152.093 106.462C152.26 106.429 152.403 106.412 152.523 106.412C152.557 106.412 152.593 106.419 152.633 106.432C152.673 106.445 152.697 106.469 152.703 106.502C152.717 106.575 152.727 106.685 152.733 106.832C152.74 106.972 152.743 107.109 152.743 107.242C152.75 107.375 152.753 107.465 152.753 107.512C152.753 107.652 152.723 107.722 152.663 107.722C152.63 107.722 152.6 107.712 152.573 107.692C152.547 107.665 152.527 107.635 152.513 107.602C152.487 107.489 152.453 107.392 152.413 107.312C152.373 107.225 152.33 107.159 152.283 107.112C152.19 107.005 152.087 106.935 151.973 106.902C151.86 106.862 151.74 106.842 151.613 106.842H150.343C150.19 106.842 150.097 106.892 150.063 106.992C150.03 107.092 150.01 107.209 150.003 107.342C149.997 107.469 149.993 107.625 149.993 107.812C149.993 107.992 149.993 108.169 149.993 108.342C149.993 108.509 149.993 108.679 149.993 108.852C149.993 109.025 149.997 109.172 150.003 109.292C150.003 109.345 150.007 109.395 150.013 109.442C150.027 109.489 150.057 109.512 150.103 109.512C150.317 109.512 150.533 109.509 150.753 109.502C150.973 109.489 151.143 109.482 151.263 109.482C151.41 109.482 151.537 109.442 151.643 109.362C151.75 109.282 151.827 109.185 151.873 109.072C151.887 109.045 151.913 109.012 151.953 108.972C151.993 108.925 152.027 108.902 152.053 108.902C152.08 108.902 152.11 108.919 152.143 108.952C152.177 108.979 152.19 109.015 152.183 109.062C152.177 109.175 152.17 109.275 152.163 109.362C152.157 109.449 152.153 109.532 152.153 109.612C152.153 109.712 152.157 109.815 152.163 109.922C152.17 110.022 152.177 110.145 152.183 110.292C152.183 110.339 152.177 110.379 152.163 110.412C152.157 110.445 152.133 110.462 152.093 110.462C152.027 110.462 151.973 110.432 151.933 110.372C151.9 110.312 151.877 110.265 151.863 110.232C151.817 110.079 151.747 109.975 151.653 109.922C151.56 109.862 151.473 109.832 151.393 109.832C151.307 109.832 151.22 109.832 151.133 109.832C151.053 109.825 150.973 109.822 150.893 109.822C150.78 109.822 150.67 109.822 150.563 109.822C150.457 109.822 150.35 109.829 150.243 109.842C150.177 109.849 150.12 109.872 150.073 109.912C150.027 109.945 150.003 110.005 150.003 110.092C150.003 110.399 150.003 110.712 150.003 111.032C150.01 111.345 150.02 111.669 150.033 112.002C150.047 112.215 150.097 112.385 150.183 112.512C150.277 112.639 150.447 112.725 150.693 112.772C150.807 112.792 150.89 112.815 150.943 112.842C150.997 112.869 151.023 112.905 151.023 112.952C151.023 112.992 150.997 113.019 150.943 113.032C150.89 113.052 150.82 113.062 150.733 113.062C150.553 113.062 150.413 113.055 150.313 113.042C150.22 113.029 150.133 113.019 150.053 113.012C149.98 112.999 149.88 112.992 149.753 112.992C149.593 112.992 149.45 112.999 149.323 113.012C149.203 113.019 149.08 113.029 148.953 113.042C148.827 113.055 148.673 113.062 148.493 113.062ZM155.058 113.152C154.684 113.152 154.348 113.065 154.048 112.892C153.748 112.719 153.508 112.482 153.328 112.182C153.154 111.875 153.068 111.529 153.068 111.142C153.068 110.862 153.121 110.589 153.228 110.322C153.341 110.055 153.498 109.812 153.698 109.592C153.898 109.372 154.131 109.199 154.398 109.072C154.664 108.939 154.951 108.872 155.258 108.872C155.644 108.872 155.991 108.965 156.298 109.152C156.611 109.339 156.858 109.585 157.038 109.892C157.224 110.192 157.318 110.522 157.318 110.882C157.318 111.269 157.231 111.635 157.058 111.982C156.891 112.329 156.641 112.612 156.308 112.832C155.974 113.045 155.558 113.152 155.058 113.152ZM155.268 112.852C155.494 112.852 155.698 112.809 155.878 112.722C156.058 112.635 156.198 112.495 156.298 112.302C156.378 112.149 156.431 111.962 156.458 111.742C156.484 111.522 156.498 111.315 156.498 111.122C156.498 110.802 156.438 110.495 156.318 110.202C156.204 109.902 156.041 109.659 155.828 109.472C155.621 109.279 155.374 109.182 155.088 109.182C154.908 109.182 154.744 109.212 154.598 109.272C154.458 109.325 154.328 109.429 154.208 109.582C154.074 109.749 153.988 109.952 153.948 110.192C153.908 110.432 153.888 110.672 153.888 110.912C153.888 111.239 153.948 111.552 154.068 111.852C154.188 112.145 154.351 112.385 154.558 112.572C154.764 112.759 155.001 112.852 155.268 112.852ZM158.109 113.042C158.049 113.042 157.999 113.032 157.959 113.012C157.926 112.999 157.909 112.972 157.909 112.932C157.909 112.879 157.929 112.845 157.969 112.832C158.009 112.812 158.066 112.792 158.139 112.772C158.239 112.745 158.336 112.709 158.429 112.662C158.522 112.615 158.569 112.525 158.569 112.392V110.242C158.569 110.062 158.549 109.909 158.509 109.782C158.476 109.655 158.372 109.569 158.199 109.522C158.172 109.509 158.149 109.495 158.129 109.482C158.109 109.462 158.099 109.432 158.099 109.392C158.099 109.319 158.129 109.279 158.189 109.272C158.422 109.212 158.612 109.139 158.759 109.052C158.906 108.965 159.049 108.869 159.189 108.762C159.209 108.749 159.226 108.739 159.239 108.732C159.259 108.719 159.279 108.712 159.299 108.712C159.312 108.712 159.322 108.719 159.329 108.732C159.342 108.745 159.349 108.762 159.349 108.782C159.349 108.829 159.339 108.925 159.319 109.072C159.306 109.212 159.299 109.329 159.299 109.422C159.299 109.449 159.299 109.475 159.299 109.502C159.306 109.522 159.312 109.535 159.319 109.542C159.552 109.322 159.799 109.155 160.059 109.042C160.326 108.929 160.616 108.872 160.929 108.872C161.256 108.872 161.526 109.005 161.739 109.272C161.952 109.539 162.059 109.869 162.059 110.262V112.392C162.059 112.525 162.106 112.615 162.199 112.662C162.292 112.702 162.389 112.739 162.489 112.772C162.542 112.792 162.592 112.815 162.639 112.842C162.692 112.862 162.719 112.899 162.719 112.952C162.719 112.992 162.696 113.015 162.649 113.022C162.602 113.035 162.559 113.042 162.519 113.042C162.386 113.042 162.282 113.035 162.209 113.022C162.136 113.015 162.066 113.009 161.999 113.002C161.932 112.995 161.839 112.992 161.719 112.992C161.606 112.992 161.512 112.995 161.439 113.002C161.366 113.009 161.289 113.015 161.209 113.022C161.136 113.035 161.032 113.042 160.899 113.042C160.866 113.042 160.822 113.035 160.769 113.022C160.722 113.015 160.699 112.992 160.699 112.952C160.699 112.899 160.722 112.862 160.769 112.842C160.822 112.815 160.876 112.792 160.929 112.772C161.029 112.739 161.126 112.702 161.219 112.662C161.312 112.615 161.359 112.525 161.359 112.392V110.292C161.359 109.999 161.276 109.772 161.109 109.612C160.949 109.445 160.732 109.359 160.459 109.352C160.219 109.352 160.009 109.392 159.829 109.472C159.649 109.545 159.489 109.639 159.349 109.752C159.322 109.779 159.302 109.815 159.289 109.862C159.276 109.902 159.269 109.942 159.269 109.982V112.392C159.269 112.525 159.316 112.615 159.409 112.662C159.502 112.709 159.599 112.745 159.699 112.772C159.852 112.812 159.929 112.865 159.929 112.932C159.929 112.972 159.912 112.999 159.879 113.012C159.846 113.032 159.796 113.042 159.729 113.042C159.596 113.042 159.489 113.035 159.409 113.022C159.336 113.015 159.266 113.009 159.199 113.002C159.132 112.995 159.039 112.992 158.919 112.992C158.806 112.992 158.712 112.995 158.639 113.002C158.572 113.009 158.499 113.015 158.419 113.022C158.346 113.035 158.242 113.042 158.109 113.042ZM164.842 113.152C164.515 113.152 164.259 113.052 164.072 112.852C163.892 112.652 163.802 112.355 163.802 111.962V109.642C163.802 109.589 163.782 109.552 163.742 109.532C163.702 109.505 163.615 109.492 163.482 109.492H163.422C163.389 109.492 163.359 109.472 163.332 109.432C163.312 109.385 163.302 109.339 163.302 109.292C163.302 109.279 163.312 109.259 163.332 109.232C163.352 109.205 163.365 109.189 163.372 109.182C163.505 109.089 163.625 108.995 163.732 108.902C163.845 108.809 163.945 108.719 164.032 108.632C164.125 108.539 164.202 108.455 164.262 108.382C164.295 108.349 164.322 108.322 164.342 108.302C164.369 108.275 164.399 108.262 164.432 108.262C164.465 108.262 164.495 108.269 164.522 108.282C164.555 108.295 164.569 108.325 164.562 108.372L164.512 108.822C164.505 108.895 164.522 108.945 164.562 108.972C164.602 108.999 164.665 109.012 164.752 109.012H165.892C165.919 109.012 165.942 109.035 165.962 109.082C165.982 109.122 165.992 109.172 165.992 109.232C165.992 109.292 165.982 109.352 165.962 109.412C165.942 109.465 165.919 109.492 165.892 109.492H164.902C164.735 109.492 164.625 109.505 164.572 109.532C164.525 109.559 164.502 109.639 164.502 109.772V111.742C164.502 112.009 164.559 112.219 164.672 112.372C164.785 112.525 164.949 112.602 165.162 112.602C165.355 112.602 165.505 112.589 165.612 112.562C165.719 112.529 165.815 112.482 165.902 112.422C165.915 112.409 165.929 112.402 165.942 112.402C165.969 112.402 165.985 112.419 165.992 112.452C166.005 112.479 166.012 112.509 166.012 112.542C166.012 112.575 165.955 112.642 165.842 112.742C165.735 112.842 165.592 112.935 165.412 113.022C165.239 113.109 165.049 113.152 164.842 113.152ZM143.295 126.202C143.281 126.202 143.258 126.189 143.225 126.162C143.198 126.135 143.185 126.115 143.185 126.102C143.185 126.035 143.191 125.942 143.205 125.822C143.225 125.695 143.235 125.589 143.235 125.502V125.442C143.135 125.595 142.975 125.752 142.755 125.912C142.535 126.072 142.258 126.152 141.925 126.152C141.545 126.152 141.215 126.052 140.935 125.852C140.661 125.652 140.448 125.395 140.295 125.082C140.148 124.769 140.075 124.445 140.075 124.112C140.075 123.725 140.165 123.362 140.345 123.022C140.525 122.682 140.781 122.405 141.115 122.192C141.455 121.979 141.858 121.872 142.325 121.872C142.458 121.872 142.591 121.885 142.725 121.912C142.865 121.932 142.971 121.955 143.045 121.982C143.105 122.002 143.148 122.012 143.175 122.012C143.221 122.012 143.245 121.932 143.245 121.772V120.352C143.245 120.079 143.201 119.895 143.115 119.802C143.028 119.709 142.905 119.649 142.745 119.622C142.685 119.609 142.655 119.565 142.655 119.492C142.655 119.432 142.681 119.392 142.735 119.372C143.028 119.299 143.258 119.229 143.425 119.162C143.591 119.095 143.721 119.042 143.815 119.002C143.841 118.989 143.865 118.982 143.885 118.982C143.911 118.975 143.931 118.972 143.945 118.972C143.985 118.972 144.008 118.992 144.015 119.032C144.015 119.072 144.008 119.142 143.995 119.242C143.988 119.335 143.978 119.475 143.965 119.662C143.951 119.849 143.945 120.092 143.945 120.392V124.912C143.945 125.139 143.961 125.305 143.995 125.412C144.028 125.512 144.081 125.562 144.155 125.562C144.188 125.562 144.245 125.559 144.325 125.552C144.411 125.545 144.498 125.539 144.585 125.532C144.705 125.525 144.765 125.555 144.765 125.622C144.765 125.669 144.748 125.712 144.715 125.752C144.688 125.785 144.658 125.802 144.625 125.802C144.438 125.829 144.255 125.869 144.075 125.922C143.895 125.969 143.688 126.042 143.455 126.142C143.401 126.169 143.365 126.185 143.345 126.192C143.331 126.199 143.315 126.202 143.295 126.202ZM142.285 125.632C142.458 125.632 142.628 125.589 142.795 125.502C142.961 125.409 143.108 125.289 143.235 125.142L143.245 123.342C143.245 123.162 143.191 122.985 143.085 122.812C142.985 122.639 142.841 122.499 142.655 122.392C142.475 122.279 142.261 122.222 142.015 122.222C141.861 122.222 141.688 122.269 141.495 122.362C141.301 122.455 141.135 122.622 140.995 122.862C140.855 123.095 140.785 123.435 140.785 123.882C140.785 124.262 140.841 124.569 140.955 124.802C141.068 125.029 141.205 125.202 141.365 125.322C141.531 125.442 141.698 125.525 141.865 125.572C142.038 125.612 142.178 125.632 142.285 125.632ZM145.223 126.042C145.163 126.042 145.113 126.032 145.073 126.012C145.04 125.999 145.023 125.972 145.023 125.932C145.023 125.879 145.047 125.842 145.093 125.822C145.147 125.802 145.2 125.785 145.253 125.772C145.393 125.739 145.5 125.699 145.573 125.652C145.647 125.599 145.683 125.512 145.683 125.392V123.222C145.683 123.042 145.65 122.882 145.583 122.742C145.523 122.602 145.407 122.519 145.233 122.492C145.2 122.485 145.173 122.472 145.153 122.452C145.14 122.432 145.133 122.402 145.133 122.362C145.133 122.289 145.163 122.249 145.223 122.242C145.49 122.182 145.71 122.102 145.883 122.002C146.057 121.895 146.187 121.809 146.273 121.742C146.333 121.695 146.38 121.672 146.413 121.672C146.453 121.672 146.473 121.689 146.473 121.722C146.473 121.775 146.463 121.882 146.443 122.042C146.43 122.195 146.417 122.369 146.403 122.562C146.39 122.749 146.383 122.919 146.383 123.072V125.392C146.383 125.505 146.42 125.589 146.493 125.642C146.573 125.695 146.68 125.739 146.813 125.772C146.867 125.785 146.917 125.802 146.963 125.822C147.017 125.842 147.043 125.879 147.043 125.932C147.043 126.005 146.977 126.042 146.843 126.042C146.717 126.042 146.613 126.035 146.533 126.022C146.46 126.015 146.387 126.009 146.313 126.002C146.247 125.995 146.153 125.992 146.033 125.992C145.92 125.992 145.827 125.995 145.753 126.002C145.68 126.009 145.607 126.015 145.533 126.022C145.46 126.035 145.357 126.042 145.223 126.042ZM146.023 120.852C145.883 120.852 145.763 120.805 145.663 120.712C145.57 120.612 145.523 120.492 145.523 120.352C145.523 120.205 145.57 120.085 145.663 119.992C145.763 119.892 145.883 119.842 146.023 119.842C146.17 119.842 146.29 119.892 146.383 119.992C146.483 120.085 146.533 120.205 146.533 120.352C146.533 120.492 146.483 120.612 146.383 120.712C146.29 120.805 146.17 120.852 146.023 120.852ZM147.724 126.042C147.658 126.042 147.608 126.032 147.574 126.012C147.541 125.999 147.524 125.972 147.524 125.932C147.524 125.879 147.544 125.845 147.584 125.832C147.624 125.812 147.681 125.792 147.754 125.772C147.881 125.739 147.974 125.692 148.034 125.632C148.101 125.565 148.134 125.485 148.134 125.392V123.242C148.134 123.062 148.108 122.905 148.054 122.772C148.001 122.639 147.891 122.555 147.724 122.522C147.698 122.515 147.674 122.499 147.654 122.472C147.634 122.445 147.624 122.419 147.624 122.392C147.624 122.325 147.654 122.285 147.714 122.272C147.888 122.219 148.068 122.142 148.254 122.042C148.448 121.935 148.598 121.849 148.704 121.782C148.744 121.755 148.774 121.739 148.794 121.732C148.821 121.719 148.841 121.712 148.854 121.712C148.888 121.712 148.904 121.735 148.904 121.782C148.904 121.802 148.901 121.852 148.894 121.932C148.894 122.012 148.891 122.105 148.884 122.212C148.884 122.319 148.881 122.425 148.874 122.532C148.874 122.545 148.881 122.552 148.894 122.552C149.001 122.419 149.118 122.302 149.244 122.202C149.378 122.102 149.511 122.022 149.644 121.962C149.784 121.902 149.918 121.872 150.044 121.872C150.184 121.872 150.298 121.902 150.384 121.962C150.478 122.022 150.524 122.099 150.524 122.192C150.524 122.259 150.504 122.332 150.464 122.412C150.431 122.492 150.384 122.562 150.324 122.622C150.264 122.682 150.201 122.712 150.134 122.712C150.094 122.712 150.051 122.705 150.004 122.692C149.958 122.672 149.908 122.649 149.854 122.622C149.801 122.602 149.748 122.582 149.694 122.562C149.641 122.542 149.588 122.532 149.534 122.532C149.374 122.532 149.218 122.589 149.064 122.702C148.918 122.815 148.844 123.039 148.844 123.372V125.392C148.844 125.479 148.891 125.552 148.984 125.612C149.078 125.665 149.208 125.719 149.374 125.772C149.448 125.792 149.504 125.812 149.544 125.832C149.584 125.852 149.604 125.885 149.604 125.932C149.604 126.005 149.538 126.042 149.404 126.042C149.204 126.042 149.051 126.032 148.944 126.012C148.844 125.999 148.708 125.992 148.534 125.992C148.421 125.992 148.328 125.995 148.254 126.002C148.188 126.009 148.114 126.015 148.034 126.022C147.961 126.035 147.858 126.042 147.724 126.042ZM152.704 126.162C152.338 126.162 152.018 126.072 151.744 125.892C151.471 125.712 151.258 125.459 151.104 125.132C150.951 124.799 150.874 124.415 150.874 123.982C150.874 123.595 150.961 123.245 151.134 122.932C151.314 122.612 151.551 122.355 151.844 122.162C152.138 121.969 152.458 121.872 152.804 121.872C153.071 121.872 153.308 121.925 153.514 122.032C153.721 122.139 153.881 122.289 153.994 122.482C154.114 122.669 154.174 122.885 154.174 123.132C154.174 123.339 154.074 123.442 153.874 123.442H151.764C151.671 123.442 151.604 123.469 151.564 123.522C151.531 123.569 151.514 123.665 151.514 123.812C151.514 124.132 151.584 124.425 151.724 124.692C151.864 124.952 152.051 125.162 152.284 125.322C152.518 125.475 152.774 125.552 153.054 125.552C153.254 125.552 153.434 125.515 153.594 125.442C153.761 125.362 153.908 125.249 154.034 125.102C154.061 125.069 154.081 125.049 154.094 125.042C154.108 125.029 154.124 125.022 154.144 125.022C154.198 125.022 154.224 125.055 154.224 125.122C154.224 125.249 154.164 125.389 154.044 125.542C153.944 125.669 153.824 125.779 153.684 125.872C153.544 125.965 153.391 126.035 153.224 126.082C153.058 126.135 152.884 126.162 152.704 126.162ZM151.784 123.132H152.694C152.854 123.132 152.991 123.129 153.104 123.122C153.218 123.115 153.328 123.102 153.434 123.082C153.468 123.075 153.488 123.055 153.494 123.022C153.508 122.982 153.514 122.929 153.514 122.862C153.514 122.669 153.428 122.505 153.254 122.372C153.088 122.232 152.888 122.162 152.654 122.162C152.501 122.162 152.348 122.209 152.194 122.302C152.041 122.389 151.914 122.499 151.814 122.632C151.714 122.765 151.664 122.899 151.664 123.032C151.664 123.099 151.704 123.132 151.784 123.132ZM156.503 126.162C156.17 126.162 155.866 126.079 155.593 125.912C155.326 125.739 155.113 125.505 154.953 125.212C154.8 124.912 154.723 124.579 154.723 124.212C154.723 123.779 154.816 123.385 155.003 123.032C155.196 122.679 155.453 122.399 155.773 122.192C156.093 121.979 156.446 121.872 156.833 121.872C157.266 121.872 157.646 121.989 157.973 122.222C158.053 122.282 158.093 122.345 158.093 122.412C158.093 122.465 158.07 122.525 158.023 122.592C157.976 122.659 157.92 122.715 157.853 122.762C157.786 122.802 157.723 122.822 157.663 122.822C157.63 122.822 157.596 122.812 157.563 122.792C157.53 122.765 157.493 122.739 157.453 122.712C157.306 122.599 157.143 122.492 156.963 122.392C156.783 122.292 156.633 122.242 156.513 122.242C156.186 122.242 155.92 122.395 155.713 122.702C155.513 123.002 155.413 123.399 155.413 123.892C155.413 124.205 155.48 124.489 155.613 124.742C155.753 124.995 155.936 125.195 156.163 125.342C156.396 125.489 156.653 125.562 156.933 125.562C157.126 125.562 157.293 125.532 157.433 125.472C157.573 125.405 157.723 125.292 157.883 125.132C157.896 125.119 157.913 125.109 157.933 125.102C157.953 125.089 157.97 125.082 157.983 125.082C158.056 125.082 158.093 125.129 158.093 125.222C158.093 125.262 158.08 125.309 158.053 125.362C158.033 125.409 157.996 125.465 157.943 125.532C157.836 125.665 157.71 125.782 157.563 125.882C157.416 125.975 157.253 126.045 157.073 126.092C156.9 126.139 156.71 126.162 156.503 126.162ZM160.335 126.152C160.009 126.152 159.752 126.052 159.565 125.852C159.385 125.652 159.295 125.355 159.295 124.962V122.642C159.295 122.589 159.275 122.552 159.235 122.532C159.195 122.505 159.109 122.492 158.975 122.492H158.915C158.882 122.492 158.852 122.472 158.825 122.432C158.805 122.385 158.795 122.339 158.795 122.292C158.795 122.279 158.805 122.259 158.825 122.232C158.845 122.205 158.859 122.189 158.865 122.182C158.999 122.089 159.119 121.995 159.225 121.902C159.339 121.809 159.439 121.719 159.525 121.632C159.619 121.539 159.695 121.455 159.755 121.382C159.789 121.349 159.815 121.322 159.835 121.302C159.862 121.275 159.892 121.262 159.925 121.262C159.959 121.262 159.989 121.269 160.015 121.282C160.049 121.295 160.062 121.325 160.055 121.372L160.005 121.822C159.999 121.895 160.015 121.945 160.055 121.972C160.095 121.999 160.159 122.012 160.245 122.012H161.385C161.412 122.012 161.435 122.035 161.455 122.082C161.475 122.122 161.485 122.172 161.485 122.232C161.485 122.292 161.475 122.352 161.455 122.412C161.435 122.465 161.412 122.492 161.385 122.492H160.395C160.229 122.492 160.119 122.505 160.065 122.532C160.019 122.559 159.995 122.639 159.995 122.772V124.742C159.995 125.009 160.052 125.219 160.165 125.372C160.279 125.525 160.442 125.602 160.655 125.602C160.849 125.602 160.999 125.589 161.105 125.562C161.212 125.529 161.309 125.482 161.395 125.422C161.409 125.409 161.422 125.402 161.435 125.402C161.462 125.402 161.479 125.419 161.485 125.452C161.499 125.479 161.505 125.509 161.505 125.542C161.505 125.575 161.449 125.642 161.335 125.742C161.229 125.842 161.085 125.935 160.905 126.022C160.732 126.109 160.542 126.152 160.335 126.152ZM162.03 126.042C161.97 126.042 161.92 126.032 161.88 126.012C161.847 125.999 161.83 125.972 161.83 125.932C161.83 125.879 161.853 125.842 161.9 125.822C161.953 125.802 162.007 125.785 162.06 125.772C162.2 125.739 162.307 125.699 162.38 125.652C162.453 125.599 162.49 125.512 162.49 125.392V123.222C162.49 123.042 162.457 122.882 162.39 122.742C162.33 122.602 162.213 122.519 162.04 122.492C162.007 122.485 161.98 122.472 161.96 122.452C161.947 122.432 161.94 122.402 161.94 122.362C161.94 122.289 161.97 122.249 162.03 122.242C162.297 122.182 162.517 122.102 162.69 122.002C162.863 121.895 162.993 121.809 163.08 121.742C163.14 121.695 163.187 121.672 163.22 121.672C163.26 121.672 163.28 121.689 163.28 121.722C163.28 121.775 163.27 121.882 163.25 122.042C163.237 122.195 163.223 122.369 163.21 122.562C163.197 122.749 163.19 122.919 163.19 123.072V125.392C163.19 125.505 163.227 125.589 163.3 125.642C163.38 125.695 163.487 125.739 163.62 125.772C163.673 125.785 163.723 125.802 163.77 125.822C163.823 125.842 163.85 125.879 163.85 125.932C163.85 126.005 163.783 126.042 163.65 126.042C163.523 126.042 163.42 126.035 163.34 126.022C163.267 126.015 163.193 126.009 163.12 126.002C163.053 125.995 162.96 125.992 162.84 125.992C162.727 125.992 162.633 125.995 162.56 126.002C162.487 126.009 162.413 126.015 162.34 126.022C162.267 126.035 162.163 126.042 162.03 126.042ZM162.83 120.852C162.69 120.852 162.57 120.805 162.47 120.712C162.377 120.612 162.33 120.492 162.33 120.352C162.33 120.205 162.377 120.085 162.47 119.992C162.57 119.892 162.69 119.842 162.83 119.842C162.977 119.842 163.097 119.892 163.19 119.992C163.29 120.085 163.34 120.205 163.34 120.352C163.34 120.492 163.29 120.612 163.19 120.712C163.097 120.805 162.977 120.852 162.83 120.852ZM166.381 126.152C166.008 126.152 165.671 126.065 165.371 125.892C165.071 125.719 164.831 125.482 164.651 125.182C164.478 124.875 164.391 124.529 164.391 124.142C164.391 123.862 164.444 123.589 164.551 123.322C164.664 123.055 164.821 122.812 165.021 122.592C165.221 122.372 165.454 122.199 165.721 122.072C165.988 121.939 166.274 121.872 166.581 121.872C166.968 121.872 167.314 121.965 167.621 122.152C167.934 122.339 168.181 122.585 168.361 122.892C168.548 123.192 168.641 123.522 168.641 123.882C168.641 124.269 168.554 124.635 168.381 124.982C168.214 125.329 167.964 125.612 167.631 125.832C167.298 126.045 166.881 126.152 166.381 126.152ZM166.591 125.852C166.818 125.852 167.021 125.809 167.201 125.722C167.381 125.635 167.521 125.495 167.621 125.302C167.701 125.149 167.754 124.962 167.781 124.742C167.808 124.522 167.821 124.315 167.821 124.122C167.821 123.802 167.761 123.495 167.641 123.202C167.528 122.902 167.364 122.659 167.151 122.472C166.944 122.279 166.698 122.182 166.411 122.182C166.231 122.182 166.068 122.212 165.921 122.272C165.781 122.325 165.651 122.429 165.531 122.582C165.398 122.749 165.311 122.952 165.271 123.192C165.231 123.432 165.211 123.672 165.211 123.912C165.211 124.239 165.271 124.552 165.391 124.852C165.511 125.145 165.674 125.385 165.881 125.572C166.088 125.759 166.324 125.852 166.591 125.852ZM169.432 126.042C169.372 126.042 169.322 126.032 169.282 126.012C169.249 125.999 169.232 125.972 169.232 125.932C169.232 125.879 169.252 125.845 169.292 125.832C169.332 125.812 169.389 125.792 169.462 125.772C169.562 125.745 169.659 125.709 169.752 125.662C169.846 125.615 169.892 125.525 169.892 125.392V123.242C169.892 123.062 169.872 122.909 169.832 122.782C169.799 122.655 169.696 122.569 169.522 122.522C169.496 122.509 169.472 122.495 169.452 122.482C169.432 122.462 169.422 122.432 169.422 122.392C169.422 122.319 169.452 122.279 169.512 122.272C169.746 122.212 169.936 122.139 170.082 122.052C170.229 121.965 170.372 121.869 170.512 121.762C170.532 121.749 170.549 121.739 170.562 121.732C170.582 121.719 170.602 121.712 170.622 121.712C170.636 121.712 170.646 121.719 170.652 121.732C170.666 121.745 170.672 121.762 170.672 121.782C170.672 121.829 170.662 121.925 170.642 122.072C170.629 122.212 170.622 122.329 170.622 122.422C170.622 122.449 170.622 122.475 170.622 122.502C170.629 122.522 170.636 122.535 170.642 122.542C170.876 122.322 171.122 122.155 171.382 122.042C171.649 121.929 171.939 121.872 172.252 121.872C172.579 121.872 172.849 122.005 173.062 122.272C173.276 122.539 173.382 122.869 173.382 123.262V125.392C173.382 125.525 173.429 125.615 173.522 125.662C173.616 125.702 173.712 125.739 173.812 125.772C173.866 125.792 173.916 125.815 173.962 125.842C174.016 125.862 174.042 125.899 174.042 125.952C174.042 125.992 174.019 126.015 173.972 126.022C173.926 126.035 173.882 126.042 173.842 126.042C173.709 126.042 173.606 126.035 173.532 126.022C173.459 126.015 173.389 126.009 173.322 126.002C173.256 125.995 173.162 125.992 173.042 125.992C172.929 125.992 172.836 125.995 172.762 126.002C172.689 126.009 172.612 126.015 172.532 126.022C172.459 126.035 172.356 126.042 172.222 126.042C172.189 126.042 172.146 126.035 172.092 126.022C172.046 126.015 172.022 125.992 172.022 125.952C172.022 125.899 172.046 125.862 172.092 125.842C172.146 125.815 172.199 125.792 172.252 125.772C172.352 125.739 172.449 125.702 172.542 125.662C172.636 125.615 172.682 125.525 172.682 125.392V123.292C172.682 122.999 172.599 122.772 172.432 122.612C172.272 122.445 172.056 122.359 171.782 122.352C171.542 122.352 171.332 122.392 171.152 122.472C170.972 122.545 170.812 122.639 170.672 122.752C170.646 122.779 170.626 122.815 170.612 122.862C170.599 122.902 170.592 122.942 170.592 122.982V125.392C170.592 125.525 170.639 125.615 170.732 125.662C170.826 125.709 170.922 125.745 171.022 125.772C171.176 125.812 171.252 125.865 171.252 125.932C171.252 125.972 171.236 125.999 171.202 126.012C171.169 126.032 171.119 126.042 171.052 126.042C170.919 126.042 170.812 126.035 170.732 126.022C170.659 126.015 170.589 126.009 170.522 126.002C170.456 125.995 170.362 125.992 170.242 125.992C170.129 125.992 170.036 125.995 169.962 126.002C169.896 126.009 169.822 126.015 169.742 126.022C169.669 126.035 169.566 126.042 169.432 126.042Z" fill="#9B51E0"/>
<line x1="8.74228e-08" y1="103" x2="200" y2="103" stroke="#56CCF2" stroke-width="2"/>
<line x1="67.6075" y1="103" x2="86.2178" y2="103" stroke="#2F80ED" stroke-width="2"/>
<line x1="86.2178" y1="103" x2="123.365" y2="103" stroke="#2F80ED" stroke-width="2"/>
<path d="M25.0175 126.707C25.408 127.098 26.0412 127.098 26.4317 126.707L32.7957 120.343C33.1862 119.953 33.1862 119.319 32.7957 118.929C32.4052 118.538 31.772 118.538 31.3815 118.929L25.7246 124.586L20.0678 118.929C19.6772 118.538 19.0441 118.538 18.6535 118.929C18.263 119.319 18.263 119.953 18.6535 120.343L25.0175 126.707ZM25.7246 104L24.7246 104L24.7246 126L25.7246 126L26.7246 126L26.7246 104L25.7246 104Z" fill="#56CCF2"/>
<path d="M76.2929 126.707C76.6834 127.098 77.3166 127.098 77.7071 126.707L84.0711 120.343C84.4616 119.953 84.4616 119.319 84.0711 118.929C83.6805 118.538 83.0474 118.538 82.6569 118.929L77 124.586L71.3431 118.929C70.9526 118.538 70.3195 118.538 69.9289 118.929C69.5384 119.319 69.5384 119.953 69.9289 120.343L76.2929 126.707ZM77 104L76 104L76 126L77 126L78 126L78 104L77 104Z" fill="#9B51E0"/>
<path d="M146.503 103.719C146.894 103.329 146.894 102.695 146.503 102.305L140.139 95.9409C139.749 95.5504 139.116 95.5504 138.725 95.9409C138.335 96.3315 138.335 96.9646 138.725 97.3552L144.382 103.012L138.725 108.669C138.335 109.059 138.335 109.693 138.725 110.083C139.116 110.474 139.749 110.474 140.139 110.083L146.503 103.719ZM123.365 103.012V104.012H145.796V103.012V102.012H123.365V103.012Z" fill="#9B51E0"/>
<path d="M125.14 169.82C124.207 169.82 123.533 169.66 123.12 169.34C122.693 169.02 122.48 168.673 122.48 168.3C122.48 167.967 122.593 167.693 122.82 167.48C123.047 167.267 123.28 167.16 123.52 167.16C123.64 167.16 123.78 167.253 123.94 167.44C124.087 167.64 124.227 167.833 124.36 168.02C124.493 168.22 124.64 168.407 124.8 168.58C124.96 168.767 125.16 168.86 125.4 168.86C125.6 168.86 125.78 168.773 125.94 168.6C126.087 168.44 126.233 168.2 126.38 167.88C126.513 167.573 126.64 167.2 126.76 166.76L129.48 157.08C129.533 156.84 129.44 156.72 129.2 156.72L128 156.74C127.867 156.74 127.773 156.713 127.72 156.66C127.667 156.607 127.64 156.52 127.64 156.4C127.64 156.293 127.7 156.153 127.82 155.98C127.94 155.807 128.107 155.713 128.32 155.7L129.58 155.64C129.687 155.64 129.767 155.547 129.82 155.36L129.98 154.86C130.367 153.647 130.853 152.68 131.44 151.96C132.04 151.227 132.68 150.7 133.36 150.38C134.04 150.047 134.68 149.88 135.28 149.88C135.88 149.88 136.387 150.02 136.8 150.3C137.213 150.58 137.42 150.94 137.42 151.38C137.42 151.727 137.333 152.047 137.16 152.34C136.987 152.633 136.767 152.78 136.5 152.78C136.273 152.78 136.107 152.673 136 152.46C135.907 152.233 135.807 151.987 135.7 151.72C135.593 151.453 135.467 151.22 135.32 151.02C135.173 150.807 134.967 150.7 134.7 150.7C134.447 150.7 134.213 150.827 134 151.08C133.787 151.32 133.593 151.647 133.42 152.06C133.247 152.46 133.08 152.92 132.92 153.44C132.84 153.72 132.767 153.987 132.7 154.24C132.647 154.493 132.593 154.733 132.54 154.96C132.527 155.027 132.513 155.093 132.5 155.16C132.5 155.213 132.493 155.273 132.48 155.34C132.467 155.46 132.493 155.54 132.56 155.58C132.627 155.62 132.707 155.64 132.8 155.64C133.16 155.64 133.493 155.633 133.8 155.62C134.107 155.593 134.427 155.58 134.76 155.58C134.893 155.58 134.96 155.673 134.96 155.86C134.96 155.927 134.927 156.027 134.86 156.16C134.793 156.28 134.72 156.393 134.64 156.5C134.56 156.593 134.487 156.64 134.42 156.64L132.8 156.7C132.573 156.713 132.4 156.753 132.28 156.82C132.173 156.887 132.093 157.007 132.04 157.18C131.64 158.607 131.227 160.067 130.8 161.56C130.387 163.053 129.98 164.527 129.58 165.98C129.46 166.433 129.227 166.88 128.88 167.32C128.533 167.773 128.127 168.187 127.66 168.56C127.207 168.947 126.76 169.253 126.32 169.48C125.88 169.707 125.487 169.82 125.14 169.82ZM140.142 157.68C140.049 157.68 139.969 157.653 139.902 157.6C139.849 157.547 139.822 157.493 139.822 157.44C139.822 157.36 139.836 157.247 139.862 157.1C139.902 156.953 139.962 156.827 140.042 156.72C140.122 156.613 140.229 156.56 140.362 156.56H150.142C150.262 156.56 150.362 156.587 150.442 156.64C150.522 156.693 150.562 156.767 150.562 156.86C150.562 157.02 150.496 157.2 150.362 157.4C150.242 157.587 150.096 157.68 149.922 157.68H140.142ZM140.142 161.3C140.049 161.3 139.969 161.273 139.902 161.22C139.849 161.153 139.822 161.093 139.822 161.04C139.822 160.973 139.836 160.867 139.862 160.72C139.902 160.573 139.962 160.447 140.042 160.34C140.122 160.233 140.229 160.18 140.362 160.18H150.142C150.262 160.18 150.362 160.207 150.442 160.26C150.522 160.313 150.562 160.387 150.562 160.48C150.562 160.64 150.496 160.82 150.362 161.02C150.242 161.207 150.096 161.3 149.922 161.3H140.142ZM161.447 164.28C160.647 164.28 159.953 164.093 159.367 163.72C158.78 163.347 158.287 162.853 157.887 162.24C157.5 161.613 157.213 160.927 157.027 160.18C156.84 159.433 156.747 158.693 156.747 157.96C156.747 157.2 156.84 156.433 157.027 155.66C157.213 154.887 157.507 154.18 157.907 153.54C158.307 152.887 158.82 152.367 159.447 151.98C160.073 151.58 160.813 151.38 161.667 151.38C162.467 151.38 163.16 151.567 163.747 151.94C164.347 152.313 164.833 152.813 165.207 153.44C165.593 154.053 165.88 154.733 166.067 155.48C166.267 156.213 166.367 156.94 166.367 157.66C166.367 158.42 166.273 159.187 166.087 159.96C165.9 160.733 165.607 161.447 165.207 162.1C164.82 162.753 164.313 163.28 163.687 163.68C163.073 164.08 162.327 164.28 161.447 164.28ZM161.747 163.38C162.173 163.38 162.513 163.133 162.767 162.64C163.033 162.133 163.227 161.473 163.347 160.66C163.467 159.847 163.527 158.967 163.527 158.02C163.527 157.313 163.48 156.62 163.387 155.94C163.293 155.26 163.153 154.647 162.967 154.1C162.78 153.54 162.553 153.1 162.287 152.78C162.02 152.447 161.707 152.28 161.347 152.28C160.92 152.28 160.58 152.533 160.327 153.04C160.073 153.533 159.887 154.187 159.767 155C159.66 155.8 159.607 156.673 159.607 157.62C159.607 158.327 159.647 159.02 159.727 159.7C159.82 160.38 159.953 161 160.127 161.56C160.313 162.107 160.54 162.547 160.807 162.88C161.073 163.213 161.387 163.38 161.747 163.38Z" fill="#EB5757"/>
</g>
<defs>
<clipPath id="clip0_1_29">
<rect width="200" height="200" fill="white"/>
</clipPath>
</defs>
</svg>
