<svg width="200" height="200" viewBox="0 0 200 200" fill="none" xmlns="http://www.w3.org/2000/svg">
<g clip-path="url(#clip0_1_40)">
<rect width="200" height="200" fill="#F6F6F6"/>
<path d="M151.2 30.4C150.667 35.4667 150.267 40.4 150 45.2C149.867 49.8667 149.8 53.4667 149.8 56C149.8 59.2 149.867 62.2 150 65C150.133 67.8 150.267 70.2667 150.4 72.4H145.8C144.867 63.0667 143.6 55.7333 142 50.4C140.4 44.9333 137.6 41 133.6 38.6C129.6 36.2 123.4 35 115 35H102.4C97.8667 35 94.4 35.4 92 36.2C89.7333 36.8667 88.2 38.4 87.4 40.8C86.6 43.0667 86.2 46.6667 86.2 51.6V150.8C86.2 155.6 86.6667 159.2 87.6 161.6C88.6667 164 90.6667 165.6 93.6 166.4C96.5333 167.2 100.8 167.733 106.4 168V172C102.933 171.733 98.5333 171.6 93.2 171.6C87.8667 171.467 82.4667 171.4 77 171.4C71.8 171.4 66.9333 171.467 62.4 171.6C57.8667 171.6 54.2 171.733 51.4 172V168C55.9333 167.733 59.3333 167.2 61.6 166.4C64 165.6 65.6 164 66.4 161.6C67.2 159.2 67.6 155.6 67.6 150.8V51.6C67.6 46.6667 67.2 43.0667 66.4 40.8C65.6 38.4 64 36.8 61.6 36C59.3333 35.0667 55.9333 34.5333 51.4 34.4V30.4C56.3333 30.5333 61.5333 30.6667 67 30.8C72.4667 30.8 77.8667 30.8667 83.2 31C88.5333 31 93.4667 31 98 31C102.667 31 106.467 31 109.4 31C115.533 31 122.467 31 130.2 31C138.067 30.8667 145.067 30.6667 151.2 30.4ZM120.2 100.8C120.2 100.8 120.2 101.467 120.2 102.8C120.2 104.133 120.2 104.8 120.2 104.8H80.2C80.2 104.8 80.2 104.133 80.2 102.8C80.2 101.467 80.2 100.8 80.2 100.8H120.2ZM124 74.4C123.467 82 123.2 87.8 123.2 91.8C123.333 95.8 123.4 99.4667 123.4 102.8C123.4 106.133 123.467 109.8 123.6 113.8C123.733 117.8 124.067 123.6 124.6 131.2H120C119.467 126.933 118.8 122.8 118 118.8C117.333 114.667 115.733 111.333 113.2 108.8C110.8 106.133 106.667 104.8 100.8 104.8V100.8C105.2 100.8 108.533 99.9333 110.8 98.2C113.2 96.3333 114.933 94 116 91.2C117.067 88.4 117.8 85.5333 118.2 82.6C118.6 79.5333 119 76.8 119.4 74.4H124Z" fill="#CECECE"/>
<path d="M14.0683 23.9528C13.7883 23.9528 13.5283 23.9094 13.2883 23.8228C13.055 23.7428 12.845 23.6261 12.6583 23.4728C12.6317 23.4461 12.605 23.4161 12.5783 23.3828C12.5583 23.3494 12.5417 23.3128 12.5283 23.2728C12.495 23.1394 12.4717 22.9661 12.4583 22.7528C12.4517 22.5394 12.4417 22.3628 12.4283 22.2228C12.4283 22.1761 12.4483 22.1428 12.4883 22.1228C12.5283 22.0961 12.575 22.0828 12.6283 22.0828C12.6617 22.0828 12.695 22.0928 12.7283 22.1128C12.7617 22.1261 12.7817 22.1528 12.7883 22.1928C12.9217 22.7061 13.1183 23.0728 13.3783 23.2928C13.645 23.5128 13.9217 23.6228 14.2083 23.6228C14.4417 23.6228 14.6483 23.5728 14.8283 23.4728C15.0083 23.3728 15.1483 23.2328 15.2483 23.0528C15.355 22.8661 15.4083 22.6494 15.4083 22.4028C15.4083 22.1294 15.3617 21.9094 15.2683 21.7428C15.1817 21.5694 15.055 21.4194 14.8883 21.2928C14.7217 21.1661 14.5183 21.0294 14.2783 20.8828C14.0183 20.7161 13.7617 20.5494 13.5083 20.3828C13.255 20.2094 13.045 20.0128 12.8783 19.7928C12.7117 19.5661 12.6283 19.2928 12.6283 18.9728C12.6283 18.6328 12.705 18.3261 12.8583 18.0528C13.0117 17.7794 13.2417 17.5628 13.5483 17.4028C13.8617 17.2361 14.2517 17.1528 14.7183 17.1528C14.9583 17.1528 15.165 17.1794 15.3383 17.2328C15.5183 17.2794 15.6617 17.3261 15.7683 17.3728C15.8217 17.3928 15.865 17.4261 15.8983 17.4728C15.9383 17.5194 15.965 17.5694 15.9783 17.6228C16.0183 17.7628 16.0617 17.9228 16.1083 18.1028C16.155 18.2828 16.1783 18.4528 16.1783 18.6128C16.1783 18.6861 16.1283 18.7228 16.0283 18.7228C15.9683 18.7228 15.9083 18.7094 15.8483 18.6828C15.795 18.6561 15.7617 18.6228 15.7483 18.5828C15.6083 18.2294 15.445 17.9594 15.2583 17.7728C15.0717 17.5861 14.835 17.4928 14.5483 17.4928C14.3483 17.4928 14.1617 17.5294 13.9883 17.6028C13.815 17.6761 13.6717 17.7961 13.5583 17.9628C13.4517 18.1294 13.3983 18.3528 13.3983 18.6328C13.3983 18.8328 13.4617 19.0161 13.5883 19.1828C13.7217 19.3428 13.895 19.4961 14.1083 19.6428C14.3217 19.7894 14.5517 19.9394 14.7983 20.0928C15.0317 20.2328 15.2583 20.3861 15.4783 20.5528C15.705 20.7194 15.8883 20.9194 16.0283 21.1528C16.175 21.3794 16.2483 21.6594 16.2483 21.9928C16.2483 22.3861 16.1583 22.7328 15.9783 23.0328C15.7983 23.3261 15.545 23.5528 15.2183 23.7128C14.8917 23.8728 14.5083 23.9528 14.0683 23.9528ZM18.5668 23.9328C18.2401 23.9328 17.9834 23.8328 17.7968 23.6328C17.6168 23.4328 17.5268 23.1361 17.5268 22.7428V20.4228C17.5268 20.3694 17.5068 20.3328 17.4668 20.3128C17.4268 20.2861 17.3401 20.2728 17.2068 20.2728H17.1468C17.1134 20.2728 17.0834 20.2528 17.0568 20.2128C17.0368 20.1661 17.0268 20.1194 17.0268 20.0728C17.0268 20.0594 17.0368 20.0394 17.0568 20.0128C17.0768 19.9861 17.0901 19.9694 17.0968 19.9628C17.2301 19.8694 17.3501 19.7761 17.4568 19.6828C17.5701 19.5894 17.6701 19.4994 17.7568 19.4128C17.8501 19.3194 17.9268 19.2361 17.9868 19.1628C18.0201 19.1294 18.0468 19.1028 18.0668 19.0828C18.0934 19.0561 18.1234 19.0428 18.1568 19.0428C18.1901 19.0428 18.2201 19.0494 18.2468 19.0628C18.2801 19.0761 18.2934 19.1061 18.2868 19.1528L18.2368 19.6028C18.2301 19.6761 18.2468 19.7261 18.2868 19.7528C18.3268 19.7794 18.3901 19.7928 18.4768 19.7928H19.6168C19.6434 19.7928 19.6668 19.8161 19.6868 19.8628C19.7068 19.9028 19.7168 19.9528 19.7168 20.0128C19.7168 20.0728 19.7068 20.1328 19.6868 20.1928C19.6668 20.2461 19.6434 20.2728 19.6168 20.2728H18.6268C18.4601 20.2728 18.3501 20.2861 18.2968 20.3128C18.2501 20.3394 18.2268 20.4194 18.2268 20.5528V22.5228C18.2268 22.7894 18.2834 22.9994 18.3968 23.1528C18.5101 23.3061 18.6734 23.3828 18.8868 23.3828C19.0801 23.3828 19.2301 23.3694 19.3368 23.3428C19.4434 23.3094 19.5401 23.2628 19.6268 23.2028C19.6401 23.1894 19.6534 23.1828 19.6668 23.1828C19.6934 23.1828 19.7101 23.1994 19.7168 23.2328C19.7301 23.2594 19.7368 23.2894 19.7368 23.3228C19.7368 23.3561 19.6801 23.4228 19.5668 23.5228C19.4601 23.6228 19.3168 23.7161 19.1368 23.8028C18.9634 23.8894 18.7734 23.9328 18.5668 23.9328ZM20.3113 23.8228C20.2446 23.8228 20.1946 23.8128 20.1613 23.7928C20.128 23.7794 20.1113 23.7528 20.1113 23.7128C20.1113 23.6594 20.1313 23.6261 20.1713 23.6128C20.2113 23.5928 20.268 23.5728 20.3413 23.5528C20.468 23.5194 20.5613 23.4728 20.6213 23.4128C20.688 23.3461 20.7213 23.2661 20.7213 23.1728V21.0228C20.7213 20.8428 20.6946 20.6861 20.6413 20.5528C20.588 20.4194 20.478 20.3361 20.3113 20.3028C20.2846 20.2961 20.2613 20.2794 20.2413 20.2528C20.2213 20.2261 20.2113 20.1994 20.2113 20.1728C20.2113 20.1061 20.2413 20.0661 20.3013 20.0528C20.4746 19.9994 20.6546 19.9228 20.8413 19.8228C21.0346 19.7161 21.1846 19.6294 21.2913 19.5628C21.3313 19.5361 21.3613 19.5194 21.3813 19.5128C21.408 19.4994 21.428 19.4928 21.4413 19.4928C21.4746 19.4928 21.4913 19.5161 21.4913 19.5628C21.4913 19.5828 21.488 19.6328 21.4813 19.7128C21.4813 19.7928 21.478 19.8861 21.4713 19.9928C21.4713 20.0994 21.468 20.2061 21.4613 20.3128C21.4613 20.3261 21.468 20.3328 21.4813 20.3328C21.588 20.1994 21.7046 20.0828 21.8313 19.9828C21.9646 19.8828 22.098 19.8028 22.2313 19.7428C22.3713 19.6828 22.5046 19.6528 22.6313 19.6528C22.7713 19.6528 22.8846 19.6828 22.9713 19.7428C23.0646 19.8028 23.1113 19.8794 23.1113 19.9728C23.1113 20.0394 23.0913 20.1128 23.0513 20.1928C23.018 20.2728 22.9713 20.3428 22.9113 20.4028C22.8513 20.4628 22.788 20.4928 22.7213 20.4928C22.6813 20.4928 22.638 20.4861 22.5913 20.4728C22.5446 20.4528 22.4946 20.4294 22.4413 20.4028C22.388 20.3828 22.3346 20.3628 22.2813 20.3428C22.228 20.3228 22.1746 20.3128 22.1213 20.3128C21.9613 20.3128 21.8046 20.3694 21.6513 20.4828C21.5046 20.5961 21.4313 20.8194 21.4313 21.1528V23.1728C21.4313 23.2594 21.478 23.3328 21.5713 23.3928C21.6646 23.4461 21.7946 23.4994 21.9613 23.5528C22.0346 23.5728 22.0913 23.5928 22.1313 23.6128C22.1713 23.6328 22.1913 23.6661 22.1913 23.7128C22.1913 23.7861 22.1246 23.8228 21.9913 23.8228C21.7913 23.8228 21.638 23.8128 21.5313 23.7928C21.4313 23.7794 21.2946 23.7728 21.1213 23.7728C21.008 23.7728 20.9146 23.7761 20.8413 23.7828C20.7746 23.7894 20.7013 23.7961 20.6213 23.8028C20.548 23.8161 20.4446 23.8228 20.3113 23.8228ZM25.2911 23.9428C24.9245 23.9428 24.6045 23.8528 24.3311 23.6728C24.0578 23.4928 23.8445 23.2394 23.6911 22.9128C23.5378 22.5794 23.4611 22.1961 23.4611 21.7628C23.4611 21.3761 23.5478 21.0261 23.7211 20.7128C23.9011 20.3928 24.1378 20.1361 24.4311 19.9428C24.7245 19.7494 25.0445 19.6528 25.3911 19.6528C25.6578 19.6528 25.8945 19.7061 26.1011 19.8128C26.3078 19.9194 26.4678 20.0694 26.5811 20.2628C26.7011 20.4494 26.7611 20.6661 26.7611 20.9128C26.7611 21.1194 26.6611 21.2228 26.4611 21.2228H24.3511C24.2578 21.2228 24.1911 21.2494 24.1511 21.3028C24.1178 21.3494 24.1011 21.4461 24.1011 21.5928C24.1011 21.9128 24.1711 22.2061 24.3111 22.4728C24.4511 22.7328 24.6378 22.9428 24.8711 23.1028C25.1045 23.2561 25.3611 23.3328 25.6411 23.3328C25.8411 23.3328 26.0211 23.2961 26.1811 23.2228C26.3478 23.1428 26.4945 23.0294 26.6211 22.8828C26.6478 22.8494 26.6678 22.8294 26.6811 22.8228C26.6945 22.8094 26.7111 22.8028 26.7311 22.8028C26.7845 22.8028 26.8111 22.8361 26.8111 22.9028C26.8111 23.0294 26.7511 23.1694 26.6311 23.3228C26.5311 23.4494 26.4111 23.5594 26.2711 23.6528C26.1311 23.7461 25.9778 23.8161 25.8111 23.8628C25.6445 23.9161 25.4711 23.9428 25.2911 23.9428ZM24.3711 20.9128H25.2811C25.4411 20.9128 25.5778 20.9094 25.6911 20.9028C25.8045 20.8961 25.9145 20.8828 26.0211 20.8628C26.0545 20.8561 26.0745 20.8361 26.0811 20.8028C26.0945 20.7628 26.1011 20.7094 26.1011 20.6428C26.1011 20.4494 26.0145 20.2861 25.8411 20.1528C25.6745 20.0128 25.4745 19.9428 25.2411 19.9428C25.0878 19.9428 24.9345 19.9894 24.7811 20.0828C24.6278 20.1694 24.5011 20.2794 24.4011 20.4128C24.3011 20.5461 24.2511 20.6794 24.2511 20.8128C24.2511 20.8794 24.2911 20.9128 24.3711 20.9128ZM28.9476 23.9328C28.621 23.9328 28.3643 23.8328 28.1776 23.6328C27.9976 23.4328 27.9076 23.1361 27.9076 22.7428V20.4228C27.9076 20.3694 27.8876 20.3328 27.8476 20.3128C27.8076 20.2861 27.721 20.2728 27.5876 20.2728H27.5276C27.4943 20.2728 27.4643 20.2528 27.4376 20.2128C27.4176 20.1661 27.4076 20.1194 27.4076 20.0728C27.4076 20.0594 27.4176 20.0394 27.4376 20.0128C27.4576 19.9861 27.471 19.9694 27.4776 19.9628C27.611 19.8694 27.731 19.7761 27.8376 19.6828C27.951 19.5894 28.051 19.4994 28.1376 19.4128C28.231 19.3194 28.3076 19.2361 28.3676 19.1628C28.401 19.1294 28.4276 19.1028 28.4476 19.0828C28.4743 19.0561 28.5043 19.0428 28.5376 19.0428C28.571 19.0428 28.601 19.0494 28.6276 19.0628C28.661 19.0761 28.6743 19.1061 28.6676 19.1528L28.6176 19.6028C28.611 19.6761 28.6276 19.7261 28.6676 19.7528C28.7076 19.7794 28.771 19.7928 28.8576 19.7928H29.9976C30.0243 19.7928 30.0476 19.8161 30.0676 19.8628C30.0876 19.9028 30.0976 19.9528 30.0976 20.0128C30.0976 20.0728 30.0876 20.1328 30.0676 20.1928C30.0476 20.2461 30.0243 20.2728 29.9976 20.2728H29.0076C28.841 20.2728 28.731 20.2861 28.6776 20.3128C28.631 20.3394 28.6076 20.4194 28.6076 20.5528V22.5228C28.6076 22.7894 28.6643 22.9994 28.7776 23.1528C28.891 23.3061 29.0543 23.3828 29.2676 23.3828C29.461 23.3828 29.611 23.3694 29.7176 23.3428C29.8243 23.3094 29.921 23.2628 30.0076 23.2028C30.021 23.1894 30.0343 23.1828 30.0476 23.1828C30.0743 23.1828 30.091 23.1994 30.0976 23.2328C30.111 23.2594 30.1176 23.2894 30.1176 23.3228C30.1176 23.3561 30.061 23.4228 29.9476 23.5228C29.841 23.6228 29.6976 23.7161 29.5176 23.8028C29.3443 23.8894 29.1543 23.9328 28.9476 23.9328ZM32.3321 23.9428C31.9988 23.9428 31.6955 23.8594 31.4221 23.6928C31.1555 23.5194 30.9421 23.2861 30.7821 22.9928C30.6288 22.6928 30.5521 22.3594 30.5521 21.9928C30.5521 21.5594 30.6455 21.1661 30.8321 20.8128C31.0255 20.4594 31.2821 20.1794 31.6021 19.9728C31.9221 19.7594 32.2755 19.6528 32.6621 19.6528C33.0955 19.6528 33.4755 19.7694 33.8021 20.0028C33.8821 20.0628 33.9221 20.1261 33.9221 20.1928C33.9221 20.2461 33.8988 20.3061 33.8521 20.3728C33.8055 20.4394 33.7488 20.4961 33.6821 20.5428C33.6155 20.5828 33.5521 20.6028 33.4921 20.6028C33.4588 20.6028 33.4255 20.5928 33.3921 20.5728C33.3588 20.5461 33.3221 20.5194 33.2821 20.4928C33.1355 20.3794 32.9721 20.2728 32.7921 20.1728C32.6121 20.0728 32.4621 20.0228 32.3421 20.0228C32.0155 20.0228 31.7488 20.1761 31.5421 20.4828C31.3421 20.7828 31.2421 21.1794 31.2421 21.6728C31.2421 21.9861 31.3088 22.2694 31.4421 22.5228C31.5821 22.7761 31.7655 22.9761 31.9921 23.1228C32.2255 23.2694 32.4821 23.3428 32.7621 23.3428C32.9555 23.3428 33.1221 23.3128 33.2621 23.2528C33.4021 23.1861 33.5521 23.0728 33.7121 22.9128C33.7255 22.8994 33.7421 22.8894 33.7621 22.8828C33.7821 22.8694 33.7988 22.8628 33.8121 22.8628C33.8855 22.8628 33.9221 22.9094 33.9221 23.0028C33.9221 23.0428 33.9088 23.0894 33.8821 23.1428C33.8621 23.1894 33.8255 23.2461 33.7721 23.3128C33.6655 23.4461 33.5388 23.5628 33.3921 23.6628C33.2455 23.7561 33.0821 23.8261 32.9021 23.8728C32.7288 23.9194 32.5388 23.9428 32.3321 23.9428ZM34.6644 23.8228C34.5311 23.8228 34.4644 23.7861 34.4644 23.7128C34.4644 23.6528 34.5411 23.5994 34.6944 23.5528C34.7944 23.5194 34.8877 23.4761 34.9744 23.4228C35.0677 23.3694 35.1177 23.2761 35.1244 23.1428V18.1328C35.1244 17.9528 35.0944 17.7961 35.0344 17.6628C34.9744 17.5228 34.8577 17.4394 34.6844 17.4128C34.6244 17.3994 34.5944 17.3528 34.5944 17.2728C34.5944 17.2128 34.6211 17.1728 34.6744 17.1528C34.7677 17.1194 34.8777 17.0828 35.0044 17.0428C35.1377 17.0028 35.2744 16.9594 35.4144 16.9128C35.5544 16.8594 35.6777 16.8094 35.7844 16.7628C35.8111 16.7494 35.8311 16.7428 35.8444 16.7428C35.8644 16.7428 35.8811 16.7494 35.8944 16.7628C35.9077 16.7761 35.9144 16.7928 35.9144 16.8128C35.9144 16.8528 35.9044 16.9094 35.8844 16.9828C35.8711 17.0561 35.8577 17.1828 35.8444 17.3628C35.8311 17.5428 35.8244 17.8128 35.8244 18.1728V19.9128C35.8244 20.0194 35.8277 20.0961 35.8344 20.1428C35.8477 20.1894 35.8677 20.2361 35.8944 20.2828C36.0011 20.2028 36.1311 20.1161 36.2844 20.0228C36.4444 19.9228 36.6211 19.8361 36.8144 19.7628C37.0077 19.6894 37.2077 19.6528 37.4144 19.6528C37.7411 19.6528 38.0111 19.7828 38.2244 20.0428C38.4444 20.2961 38.5544 20.6194 38.5544 21.0128V23.1128C38.5544 23.2461 38.5977 23.3461 38.6844 23.4128C38.7711 23.4728 38.8644 23.5194 38.9644 23.5528C39.0377 23.5728 39.0944 23.5961 39.1344 23.6228C39.1744 23.6428 39.1944 23.6728 39.1944 23.7128C39.1944 23.7861 39.1277 23.8228 38.9944 23.8228C38.8611 23.8228 38.7577 23.8161 38.6844 23.8028C38.6177 23.7961 38.5511 23.7894 38.4844 23.7828C38.4244 23.7761 38.3344 23.7728 38.2144 23.7728C38.1011 23.7728 38.0111 23.7761 37.9444 23.7828C37.8777 23.7894 37.8077 23.7961 37.7344 23.8028C37.6677 23.8161 37.5677 23.8228 37.4344 23.8228C37.3011 23.8228 37.2344 23.7861 37.2344 23.7128C37.2344 23.6661 37.2544 23.6361 37.2944 23.6228C37.3344 23.6028 37.3911 23.5794 37.4644 23.5528C37.5644 23.5194 37.6544 23.4728 37.7344 23.4128C37.8144 23.3461 37.8544 23.2461 37.8544 23.1128V21.0728C37.8544 20.9061 37.8044 20.7561 37.7044 20.6228C37.6111 20.4828 37.4944 20.3728 37.3544 20.2928C37.2144 20.2128 37.0711 20.1728 36.9244 20.1728C36.7977 20.1728 36.6511 20.1928 36.4844 20.2328C36.3177 20.2661 36.1877 20.3194 36.0944 20.3928C35.9877 20.4794 35.9144 20.5694 35.8744 20.6628C35.8411 20.7561 35.8244 20.9061 35.8244 21.1128V23.1428C35.8311 23.2761 35.8711 23.3694 35.9444 23.4228C36.0244 23.4761 36.1144 23.5194 36.2144 23.5528C36.2877 23.5728 36.3411 23.5961 36.3744 23.6228C36.4144 23.6428 36.4344 23.6728 36.4344 23.7128C36.4344 23.7861 36.3677 23.8228 36.2344 23.8228C36.1011 23.8228 36.0011 23.8161 35.9344 23.8028C35.8677 23.7961 35.8044 23.7894 35.7444 23.7828C35.6844 23.7761 35.5944 23.7728 35.4744 23.7728C35.3611 23.7728 35.2677 23.7761 35.1944 23.7828C35.1277 23.7894 35.0544 23.7961 34.9744 23.8028C34.9011 23.8161 34.7977 23.8228 34.6644 23.8228ZM12.0192 36.9828C12.0059 36.9828 11.9826 36.9694 11.9492 36.9428C11.9226 36.9161 11.9092 36.8961 11.9092 36.8828C11.9092 36.8161 11.9159 36.7228 11.9292 36.6028C11.9492 36.4761 11.9592 36.3694 11.9592 36.2828V36.2228C11.8592 36.3761 11.6992 36.5328 11.4792 36.6928C11.2592 36.8528 10.9826 36.9328 10.6492 36.9328C10.2692 36.9328 9.93922 36.8328 9.65922 36.6328C9.38589 36.4328 9.17255 36.1761 9.01922 35.8628C8.87255 35.5494 8.79922 35.2261 8.79922 34.8928C8.79922 34.5061 8.88922 34.1428 9.06922 33.8028C9.24922 33.4628 9.50589 33.1861 9.83922 32.9728C10.1792 32.7594 10.5826 32.6528 11.0492 32.6528C11.1826 32.6528 11.3159 32.6661 11.4492 32.6928C11.5892 32.7128 11.6959 32.7361 11.7692 32.7628C11.8292 32.7828 11.8726 32.7928 11.8992 32.7928C11.9459 32.7928 11.9692 32.7128 11.9692 32.5528V31.1328C11.9692 30.8594 11.9259 30.6761 11.8392 30.5828C11.7526 30.4894 11.6292 30.4294 11.4692 30.4028C11.4092 30.3894 11.3792 30.3461 11.3792 30.2728C11.3792 30.2128 11.4059 30.1728 11.4592 30.1528C11.7526 30.0794 11.9826 30.0094 12.1492 29.9428C12.3159 29.8761 12.4459 29.8228 12.5392 29.7828C12.5659 29.7694 12.5892 29.7628 12.6092 29.7628C12.6359 29.7561 12.6559 29.7528 12.6692 29.7528C12.7092 29.7528 12.7326 29.7728 12.7392 29.8128C12.7392 29.8528 12.7326 29.9228 12.7192 30.0228C12.7126 30.1161 12.7026 30.2561 12.6892 30.4428C12.6759 30.6294 12.6692 30.8728 12.6692 31.1728V35.6928C12.6692 35.9194 12.6859 36.0861 12.7192 36.1928C12.7526 36.2928 12.8059 36.3428 12.8792 36.3428C12.9126 36.3428 12.9692 36.3394 13.0492 36.3328C13.1359 36.3261 13.2226 36.3194 13.3092 36.3128C13.4292 36.3061 13.4892 36.3361 13.4892 36.4028C13.4892 36.4494 13.4726 36.4928 13.4392 36.5328C13.4126 36.5661 13.3826 36.5828 13.3492 36.5828C13.1626 36.6094 12.9792 36.6494 12.7992 36.7028C12.6192 36.7494 12.4126 36.8228 12.1792 36.9228C12.1259 36.9494 12.0892 36.9661 12.0692 36.9728C12.0559 36.9794 12.0392 36.9828 12.0192 36.9828ZM11.0092 36.4128C11.1826 36.4128 11.3526 36.3694 11.5192 36.2828C11.6859 36.1894 11.8326 36.0694 11.9592 35.9228L11.9692 34.1228C11.9692 33.9428 11.9159 33.7661 11.8092 33.5928C11.7092 33.4194 11.5659 33.2794 11.3792 33.1728C11.1992 33.0594 10.9859 33.0028 10.7392 33.0028C10.5859 33.0028 10.4126 33.0494 10.2192 33.1428C10.0259 33.2361 9.85922 33.4028 9.71922 33.6428C9.57922 33.8761 9.50922 34.2161 9.50922 34.6628C9.50922 35.0428 9.56589 35.3494 9.67922 35.5828C9.79255 35.8094 9.92922 35.9828 10.0892 36.1028C10.2559 36.2228 10.4226 36.3061 10.5892 36.3528C10.7626 36.3928 10.9026 36.4128 11.0092 36.4128ZM13.9478 36.8228C13.8878 36.8228 13.8378 36.8128 13.7978 36.7928C13.7645 36.7794 13.7478 36.7528 13.7478 36.7128C13.7478 36.6594 13.7711 36.6228 13.8178 36.6028C13.8711 36.5828 13.9245 36.5661 13.9778 36.5528C14.1178 36.5194 14.2245 36.4794 14.2978 36.4328C14.3711 36.3794 14.4078 36.2928 14.4078 36.1728V34.0028C14.4078 33.8228 14.3745 33.6628 14.3078 33.5228C14.2478 33.3828 14.1311 33.2994 13.9578 33.2728C13.9245 33.2661 13.8978 33.2528 13.8778 33.2328C13.8645 33.2128 13.8578 33.1828 13.8578 33.1428C13.8578 33.0694 13.8878 33.0294 13.9478 33.0228C14.2145 32.9628 14.4345 32.8828 14.6078 32.7828C14.7811 32.6761 14.9111 32.5894 14.9978 32.5228C15.0578 32.4761 15.1045 32.4528 15.1378 32.4528C15.1778 32.4528 15.1978 32.4694 15.1978 32.5028C15.1978 32.5561 15.1878 32.6628 15.1678 32.8228C15.1545 32.9761 15.1411 33.1494 15.1278 33.3428C15.1145 33.5294 15.1078 33.6994 15.1078 33.8528V36.1728C15.1078 36.2861 15.1445 36.3694 15.2178 36.4228C15.2978 36.4761 15.4045 36.5194 15.5378 36.5528C15.5911 36.5661 15.6411 36.5828 15.6878 36.6028C15.7411 36.6228 15.7678 36.6594 15.7678 36.7128C15.7678 36.7861 15.7011 36.8228 15.5678 36.8228C15.4411 36.8228 15.3378 36.8161 15.2578 36.8028C15.1845 36.7961 15.1111 36.7894 15.0378 36.7828C14.9711 36.7761 14.8778 36.7728 14.7578 36.7728C14.6445 36.7728 14.5511 36.7761 14.4778 36.7828C14.4045 36.7894 14.3311 36.7961 14.2578 36.8028C14.1845 36.8161 14.0811 36.8228 13.9478 36.8228ZM14.7478 31.6328C14.6078 31.6328 14.4878 31.5861 14.3878 31.4928C14.2945 31.3928 14.2478 31.2728 14.2478 31.1328C14.2478 30.9861 14.2945 30.8661 14.3878 30.7728C14.4878 30.6728 14.6078 30.6228 14.7478 30.6228C14.8945 30.6228 15.0145 30.6728 15.1078 30.7728C15.2078 30.8661 15.2578 30.9861 15.2578 31.1328C15.2578 31.2728 15.2078 31.3928 15.1078 31.4928C15.0145 31.5861 14.8945 31.6328 14.7478 31.6328ZM16.449 36.8228C16.3823 36.8228 16.3323 36.8128 16.299 36.7928C16.2657 36.7794 16.249 36.7528 16.249 36.7128C16.249 36.6594 16.269 36.6261 16.309 36.6128C16.349 36.5928 16.4057 36.5728 16.479 36.5528C16.6057 36.5194 16.699 36.4728 16.759 36.4128C16.8257 36.3461 16.859 36.2661 16.859 36.1728V34.0228C16.859 33.8428 16.8323 33.6861 16.779 33.5528C16.7257 33.4194 16.6157 33.3361 16.449 33.3028C16.4223 33.2961 16.399 33.2794 16.379 33.2528C16.359 33.2261 16.349 33.1994 16.349 33.1728C16.349 33.1061 16.379 33.0661 16.439 33.0528C16.6123 32.9994 16.7923 32.9228 16.979 32.8228C17.1723 32.7161 17.3223 32.6294 17.429 32.5628C17.469 32.5361 17.499 32.5194 17.519 32.5128C17.5457 32.4994 17.5657 32.4928 17.579 32.4928C17.6123 32.4928 17.629 32.5161 17.629 32.5628C17.629 32.5828 17.6257 32.6328 17.619 32.7128C17.619 32.7928 17.6157 32.8861 17.609 32.9928C17.609 33.0994 17.6057 33.2061 17.599 33.3128C17.599 33.3261 17.6057 33.3328 17.619 33.3328C17.7257 33.1994 17.8423 33.0828 17.969 32.9828C18.1023 32.8828 18.2357 32.8028 18.369 32.7428C18.509 32.6828 18.6423 32.6528 18.769 32.6528C18.909 32.6528 19.0223 32.6828 19.109 32.7428C19.2023 32.8028 19.249 32.8794 19.249 32.9728C19.249 33.0394 19.229 33.1128 19.189 33.1928C19.1557 33.2728 19.109 33.3428 19.049 33.4028C18.989 33.4628 18.9257 33.4928 18.859 33.4928C18.819 33.4928 18.7757 33.4861 18.729 33.4728C18.6823 33.4528 18.6323 33.4294 18.579 33.4028C18.5257 33.3828 18.4723 33.3628 18.419 33.3428C18.3657 33.3228 18.3123 33.3128 18.259 33.3128C18.099 33.3128 17.9423 33.3694 17.789 33.4828C17.6423 33.5961 17.569 33.8194 17.569 34.1528V36.1728C17.569 36.2594 17.6157 36.3328 17.709 36.3928C17.8023 36.4461 17.9323 36.4994 18.099 36.5528C18.1723 36.5728 18.229 36.5928 18.269 36.6128C18.309 36.6328 18.329 36.6661 18.329 36.7128C18.329 36.7861 18.2623 36.8228 18.129 36.8228C17.929 36.8228 17.7757 36.8128 17.669 36.7928C17.569 36.7794 17.4323 36.7728 17.259 36.7728C17.1457 36.7728 17.0523 36.7761 16.979 36.7828C16.9123 36.7894 16.839 36.7961 16.759 36.8028C16.6857 36.8161 16.5823 36.8228 16.449 36.8228ZM21.4288 36.9428C21.0622 36.9428 20.7422 36.8528 20.4688 36.6728C20.1955 36.4928 19.9822 36.2394 19.8288 35.9128C19.6755 35.5794 19.5988 35.1961 19.5988 34.7628C19.5988 34.3761 19.6855 34.0261 19.8588 33.7128C20.0388 33.3928 20.2755 33.1361 20.5688 32.9428C20.8622 32.7494 21.1822 32.6528 21.5288 32.6528C21.7955 32.6528 22.0322 32.7061 22.2388 32.8128C22.4455 32.9194 22.6055 33.0694 22.7188 33.2628C22.8388 33.4494 22.8988 33.6661 22.8988 33.9128C22.8988 34.1194 22.7988 34.2228 22.5988 34.2228H20.4888C20.3955 34.2228 20.3288 34.2494 20.2888 34.3028C20.2555 34.3494 20.2388 34.4461 20.2388 34.5928C20.2388 34.9128 20.3088 35.2061 20.4488 35.4728C20.5888 35.7328 20.7755 35.9428 21.0088 36.1028C21.2422 36.2561 21.4988 36.3328 21.7788 36.3328C21.9788 36.3328 22.1588 36.2961 22.3188 36.2228C22.4855 36.1428 22.6322 36.0294 22.7588 35.8828C22.7855 35.8494 22.8055 35.8294 22.8188 35.8228C22.8322 35.8094 22.8488 35.8028 22.8688 35.8028C22.9222 35.8028 22.9488 35.8361 22.9488 35.9028C22.9488 36.0294 22.8888 36.1694 22.7688 36.3228C22.6688 36.4494 22.5488 36.5594 22.4088 36.6528C22.2688 36.7461 22.1155 36.8161 21.9488 36.8628C21.7822 36.9161 21.6088 36.9428 21.4288 36.9428ZM20.5088 33.9128H21.4188C21.5788 33.9128 21.7155 33.9094 21.8288 33.9028C21.9422 33.8961 22.0522 33.8828 22.1588 33.8628C22.1922 33.8561 22.2122 33.8361 22.2188 33.8028C22.2322 33.7628 22.2388 33.7094 22.2388 33.6428C22.2388 33.4494 22.1522 33.2861 21.9788 33.1528C21.8122 33.0128 21.6122 32.9428 21.3788 32.9428C21.2255 32.9428 21.0722 32.9894 20.9188 33.0828C20.7655 33.1694 20.6388 33.2794 20.5388 33.4128C20.4388 33.5461 20.3888 33.6794 20.3888 33.8128C20.3888 33.8794 20.4288 33.9128 20.5088 33.9128ZM25.2277 36.9428C24.8943 36.9428 24.591 36.8594 24.3177 36.6928C24.051 36.5194 23.8377 36.2861 23.6777 35.9928C23.5243 35.6928 23.4477 35.3594 23.4477 34.9928C23.4477 34.5594 23.541 34.1661 23.7277 33.8128C23.921 33.4594 24.1777 33.1794 24.4977 32.9728C24.8177 32.7594 25.171 32.6528 25.5577 32.6528C25.991 32.6528 26.371 32.7694 26.6977 33.0028C26.7777 33.0628 26.8177 33.1261 26.8177 33.1928C26.8177 33.2461 26.7943 33.3061 26.7477 33.3728C26.701 33.4394 26.6443 33.4961 26.5777 33.5428C26.511 33.5828 26.4477 33.6028 26.3877 33.6028C26.3543 33.6028 26.321 33.5928 26.2877 33.5728C26.2543 33.5461 26.2177 33.5194 26.1777 33.4928C26.031 33.3794 25.8677 33.2728 25.6877 33.1728C25.5077 33.0728 25.3577 33.0228 25.2377 33.0228C24.911 33.0228 24.6443 33.1761 24.4377 33.4828C24.2377 33.7828 24.1377 34.1794 24.1377 34.6728C24.1377 34.9861 24.2043 35.2694 24.3377 35.5228C24.4777 35.7761 24.661 35.9761 24.8877 36.1228C25.121 36.2694 25.3777 36.3428 25.6577 36.3428C25.851 36.3428 26.0177 36.3128 26.1577 36.2528C26.2977 36.1861 26.4477 36.0728 26.6077 35.9128C26.621 35.8994 26.6377 35.8894 26.6577 35.8828C26.6777 35.8694 26.6943 35.8628 26.7077 35.8628C26.781 35.8628 26.8177 35.9094 26.8177 36.0028C26.8177 36.0428 26.8043 36.0894 26.7777 36.1428C26.7577 36.1894 26.721 36.2461 26.6677 36.3128C26.561 36.4461 26.4343 36.5628 26.2877 36.6628C26.141 36.7561 25.9777 36.8261 25.7977 36.8728C25.6243 36.9194 25.4343 36.9428 25.2277 36.9428ZM29.0599 36.9328C28.7333 36.9328 28.4766 36.8328 28.2899 36.6328C28.1099 36.4328 28.0199 36.1361 28.0199 35.7428V33.4228C28.0199 33.3694 27.9999 33.3328 27.9599 33.3128C27.9199 33.2861 27.8333 33.2728 27.6999 33.2728H27.6399C27.6066 33.2728 27.5766 33.2528 27.5499 33.2128C27.5299 33.1661 27.5199 33.1194 27.5199 33.0728C27.5199 33.0594 27.5299 33.0394 27.5499 33.0128C27.5699 32.9861 27.5833 32.9694 27.5899 32.9628C27.7233 32.8694 27.8433 32.7761 27.9499 32.6828C28.0633 32.5894 28.1633 32.4994 28.2499 32.4128C28.3433 32.3194 28.4199 32.2361 28.4799 32.1628C28.5133 32.1294 28.5399 32.1028 28.5599 32.0828C28.5866 32.0561 28.6166 32.0428 28.6499 32.0428C28.6833 32.0428 28.7133 32.0494 28.7399 32.0628C28.7733 32.0761 28.7866 32.1061 28.7799 32.1528L28.7299 32.6028C28.7233 32.6761 28.7399 32.7261 28.7799 32.7528C28.8199 32.7794 28.8833 32.7928 28.9699 32.7928H30.1099C30.1366 32.7928 30.1599 32.8161 30.1799 32.8628C30.1999 32.9028 30.2099 32.9528 30.2099 33.0128C30.2099 33.0728 30.1999 33.1328 30.1799 33.1928C30.1599 33.2461 30.1366 33.2728 30.1099 33.2728H29.1199C28.9533 33.2728 28.8433 33.2861 28.7899 33.3128C28.7433 33.3394 28.7199 33.4194 28.7199 33.5528V35.5228C28.7199 35.7894 28.7766 35.9994 28.8899 36.1528C29.0033 36.3061 29.1666 36.3828 29.3799 36.3828C29.5733 36.3828 29.7233 36.3694 29.8299 36.3428C29.9366 36.3094 30.0333 36.2628 30.1199 36.2028C30.1333 36.1894 30.1466 36.1828 30.1599 36.1828C30.1866 36.1828 30.2033 36.1994 30.2099 36.2328C30.2233 36.2594 30.2299 36.2894 30.2299 36.3228C30.2299 36.3561 30.1733 36.4228 30.0599 36.5228C29.9533 36.6228 29.8099 36.7161 29.6299 36.8028C29.4566 36.8894 29.2666 36.9328 29.0599 36.9328ZM30.7545 36.8228C30.6945 36.8228 30.6445 36.8128 30.6045 36.7928C30.5711 36.7794 30.5545 36.7528 30.5545 36.7128C30.5545 36.6594 30.5778 36.6228 30.6245 36.6028C30.6778 36.5828 30.7311 36.5661 30.7845 36.5528C30.9245 36.5194 31.0311 36.4794 31.1045 36.4328C31.1778 36.3794 31.2145 36.2928 31.2145 36.1728V34.0028C31.2145 33.8228 31.1811 33.6628 31.1145 33.5228C31.0545 33.3828 30.9378 33.2994 30.7645 33.2728C30.7311 33.2661 30.7045 33.2528 30.6845 33.2328C30.6711 33.2128 30.6645 33.1828 30.6645 33.1428C30.6645 33.0694 30.6945 33.0294 30.7545 33.0228C31.0211 32.9628 31.2411 32.8828 31.4145 32.7828C31.5878 32.6761 31.7178 32.5894 31.8045 32.5228C31.8645 32.4761 31.9111 32.4528 31.9445 32.4528C31.9845 32.4528 32.0045 32.4694 32.0045 32.5028C32.0045 32.5561 31.9945 32.6628 31.9745 32.8228C31.9611 32.9761 31.9478 33.1494 31.9345 33.3428C31.9211 33.5294 31.9145 33.6994 31.9145 33.8528V36.1728C31.9145 36.2861 31.9511 36.3694 32.0245 36.4228C32.1045 36.4761 32.2111 36.5194 32.3445 36.5528C32.3978 36.5661 32.4478 36.5828 32.4945 36.6028C32.5478 36.6228 32.5745 36.6594 32.5745 36.7128C32.5745 36.7861 32.5078 36.8228 32.3745 36.8228C32.2478 36.8228 32.1445 36.8161 32.0645 36.8028C31.9911 36.7961 31.9178 36.7894 31.8445 36.7828C31.7778 36.7761 31.6845 36.7728 31.5645 36.7728C31.4511 36.7728 31.3578 36.7761 31.2845 36.7828C31.2111 36.7894 31.1378 36.7961 31.0645 36.8028C30.9911 36.8161 30.8878 36.8228 30.7545 36.8228ZM31.5545 31.6328C31.4145 31.6328 31.2945 31.5861 31.1945 31.4928C31.1011 31.3928 31.0545 31.2728 31.0545 31.1328C31.0545 30.9861 31.1011 30.8661 31.1945 30.7728C31.2945 30.6728 31.4145 30.6228 31.5545 30.6228C31.7011 30.6228 31.8211 30.6728 31.9145 30.7728C32.0145 30.8661 32.0645 30.9861 32.0645 31.1328C32.0645 31.2728 32.0145 31.3928 31.9145 31.4928C31.8211 31.5861 31.7011 31.6328 31.5545 31.6328ZM35.1056 36.9328C34.7323 36.9328 34.3956 36.8461 34.0956 36.6728C33.7956 36.4994 33.5556 36.2628 33.3756 35.9628C33.2023 35.6561 33.1156 35.3094 33.1156 34.9228C33.1156 34.6428 33.169 34.3694 33.2756 34.1028C33.389 33.8361 33.5456 33.5928 33.7456 33.3728C33.9456 33.1528 34.179 32.9794 34.4456 32.8528C34.7123 32.7194 34.999 32.6528 35.3056 32.6528C35.6923 32.6528 36.039 32.7461 36.3456 32.9328C36.659 33.1194 36.9056 33.3661 37.0856 33.6728C37.2723 33.9728 37.3656 34.3028 37.3656 34.6628C37.3656 35.0494 37.279 35.4161 37.1056 35.7628C36.939 36.1094 36.689 36.3928 36.3556 36.6128C36.0223 36.8261 35.6056 36.9328 35.1056 36.9328ZM35.3156 36.6328C35.5423 36.6328 35.7456 36.5894 35.9256 36.5028C36.1056 36.4161 36.2456 36.2761 36.3456 36.0828C36.4256 35.9294 36.479 35.7428 36.5056 35.5228C36.5323 35.3028 36.5456 35.0961 36.5456 34.9028C36.5456 34.5828 36.4856 34.2761 36.3656 33.9828C36.2523 33.6828 36.089 33.4394 35.8756 33.2528C35.669 33.0594 35.4223 32.9628 35.1356 32.9628C34.9556 32.9628 34.7923 32.9928 34.6456 33.0528C34.5056 33.1061 34.3756 33.2094 34.2556 33.3628C34.1223 33.5294 34.0356 33.7328 33.9956 33.9728C33.9556 34.2128 33.9356 34.4528 33.9356 34.6928C33.9356 35.0194 33.9956 35.3328 34.1156 35.6328C34.2356 35.9261 34.399 36.1661 34.6056 36.3528C34.8123 36.5394 35.049 36.6328 35.3156 36.6328ZM38.1568 36.8228C38.0968 36.8228 38.0468 36.8128 38.0068 36.7928C37.9735 36.7794 37.9568 36.7528 37.9568 36.7128C37.9568 36.6594 37.9768 36.6261 38.0168 36.6128C38.0568 36.5928 38.1135 36.5728 38.1868 36.5528C38.2868 36.5261 38.3835 36.4894 38.4768 36.4428C38.5701 36.3961 38.6168 36.3061 38.6168 36.1728V34.0228C38.6168 33.8428 38.5968 33.6894 38.5568 33.5628C38.5235 33.4361 38.4201 33.3494 38.2468 33.3028C38.2201 33.2894 38.1968 33.2761 38.1768 33.2628C38.1568 33.2428 38.1468 33.2128 38.1468 33.1728C38.1468 33.0994 38.1768 33.0594 38.2368 33.0528C38.4701 32.9928 38.6601 32.9194 38.8068 32.8328C38.9535 32.7461 39.0968 32.6494 39.2368 32.5428C39.2568 32.5294 39.2735 32.5194 39.2868 32.5128C39.3068 32.4994 39.3268 32.4928 39.3468 32.4928C39.3601 32.4928 39.3701 32.4994 39.3768 32.5128C39.3901 32.5261 39.3968 32.5428 39.3968 32.5628C39.3968 32.6094 39.3868 32.7061 39.3668 32.8528C39.3535 32.9928 39.3468 33.1094 39.3468 33.2028C39.3468 33.2294 39.3468 33.2561 39.3468 33.2828C39.3535 33.3028 39.3601 33.3161 39.3668 33.3228C39.6001 33.1028 39.8468 32.9361 40.1068 32.8228C40.3735 32.7094 40.6635 32.6528 40.9768 32.6528C41.3035 32.6528 41.5735 32.7861 41.7868 33.0528C42.0001 33.3194 42.1068 33.6494 42.1068 34.0428V36.1728C42.1068 36.3061 42.1535 36.3961 42.2468 36.4428C42.3401 36.4828 42.4368 36.5194 42.5368 36.5528C42.5901 36.5728 42.6401 36.5961 42.6868 36.6228C42.7401 36.6428 42.7668 36.6794 42.7668 36.7328C42.7668 36.7728 42.7435 36.7961 42.6968 36.8028C42.6501 36.8161 42.6068 36.8228 42.5668 36.8228C42.4335 36.8228 42.3301 36.8161 42.2568 36.8028C42.1835 36.7961 42.1135 36.7894 42.0468 36.7828C41.9801 36.7761 41.8868 36.7728 41.7668 36.7728C41.6535 36.7728 41.5601 36.7761 41.4868 36.7828C41.4135 36.7894 41.3368 36.7961 41.2568 36.8028C41.1835 36.8161 41.0801 36.8228 40.9468 36.8228C40.9135 36.8228 40.8701 36.8161 40.8168 36.8028C40.7701 36.7961 40.7468 36.7728 40.7468 36.7328C40.7468 36.6794 40.7701 36.6428 40.8168 36.6228C40.8701 36.5961 40.9235 36.5728 40.9768 36.5528C41.0768 36.5194 41.1735 36.4828 41.2668 36.4428C41.3601 36.3961 41.4068 36.3061 41.4068 36.1728V34.0728C41.4068 33.7794 41.3235 33.5528 41.1568 33.3928C40.9968 33.2261 40.7801 33.1394 40.5068 33.1328C40.2668 33.1328 40.0568 33.1728 39.8768 33.2528C39.6968 33.3261 39.5368 33.4194 39.3968 33.5328C39.3701 33.5594 39.3501 33.5961 39.3368 33.6428C39.3235 33.6828 39.3168 33.7228 39.3168 33.7628V36.1728C39.3168 36.3061 39.3635 36.3961 39.4568 36.4428C39.5501 36.4894 39.6468 36.5261 39.7468 36.5528C39.9001 36.5928 39.9768 36.6461 39.9768 36.7128C39.9768 36.7528 39.9601 36.7794 39.9268 36.7928C39.8935 36.8128 39.8435 36.8228 39.7768 36.8228C39.6435 36.8228 39.5368 36.8161 39.4568 36.8028C39.3835 36.7961 39.3135 36.7894 39.2468 36.7828C39.1801 36.7761 39.0868 36.7728 38.9668 36.7728C38.8535 36.7728 38.7601 36.7761 38.6868 36.7828C38.6201 36.7894 38.5468 36.7961 38.4668 36.8028C38.3935 36.8161 38.2901 36.8228 38.1568 36.8228Z" fill="#56CCF2"/>
<path d="M165.769 20.8428C165.682 20.8428 165.612 20.8328 165.559 20.8128C165.505 20.7994 165.479 20.7728 165.479 20.7328C165.479 20.6528 165.589 20.5928 165.809 20.5528C166.062 20.5061 166.235 20.4294 166.329 20.3228C166.429 20.2161 166.479 20.0394 166.479 19.7928V15.5728C166.479 15.2728 166.439 15.0428 166.359 14.8828C166.285 14.7228 166.122 14.6194 165.869 14.5728C165.755 14.5528 165.672 14.5261 165.619 14.4928C165.565 14.4594 165.539 14.4194 165.539 14.3728C165.539 14.3328 165.565 14.3061 165.619 14.2928C165.672 14.2728 165.742 14.2628 165.829 14.2628C166.075 14.2628 166.282 14.2661 166.449 14.2728C166.622 14.2794 166.792 14.2861 166.959 14.2928C167.125 14.2928 167.322 14.2928 167.549 14.2928C167.742 14.2928 167.949 14.2928 168.169 14.2928C168.389 14.2928 168.602 14.2928 168.809 14.2928C169.022 14.2928 169.209 14.2761 169.369 14.2428C169.535 14.2094 169.679 14.1928 169.799 14.1928C169.832 14.1928 169.869 14.1994 169.909 14.2128C169.949 14.2261 169.972 14.2494 169.979 14.2828C169.992 14.3561 170.002 14.4661 170.009 14.6128C170.015 14.7528 170.019 14.8894 170.019 15.0228C170.025 15.1561 170.029 15.2461 170.029 15.2928C170.029 15.4328 169.999 15.5028 169.939 15.5028C169.905 15.5028 169.875 15.4928 169.849 15.4728C169.822 15.4461 169.802 15.4161 169.789 15.3828C169.762 15.2694 169.729 15.1728 169.689 15.0928C169.649 15.0061 169.605 14.9394 169.559 14.8928C169.465 14.7861 169.362 14.7161 169.249 14.6828C169.135 14.6428 169.015 14.6228 168.889 14.6228H167.619C167.465 14.6228 167.372 14.6728 167.339 14.7728C167.305 14.8728 167.285 14.9894 167.279 15.1228C167.272 15.2494 167.269 15.4061 167.269 15.5928C167.269 15.7728 167.269 15.9494 167.269 16.1228C167.269 16.2894 167.269 16.4594 167.269 16.6328C167.269 16.8061 167.272 16.9528 167.279 17.0728C167.279 17.1261 167.282 17.1761 167.289 17.2228C167.302 17.2694 167.332 17.2928 167.379 17.2928C167.592 17.2928 167.809 17.2894 168.029 17.2828C168.249 17.2694 168.419 17.2628 168.539 17.2628C168.685 17.2628 168.812 17.2228 168.919 17.1428C169.025 17.0628 169.102 16.9661 169.149 16.8528C169.162 16.8261 169.189 16.7928 169.229 16.7528C169.269 16.7061 169.302 16.6828 169.329 16.6828C169.355 16.6828 169.385 16.6994 169.419 16.7328C169.452 16.7594 169.465 16.7961 169.459 16.8428C169.452 16.9561 169.445 17.0561 169.439 17.1428C169.432 17.2294 169.429 17.3128 169.429 17.3928C169.429 17.4928 169.432 17.5961 169.439 17.7028C169.445 17.8028 169.452 17.9261 169.459 18.0728C169.459 18.1194 169.452 18.1594 169.439 18.1928C169.432 18.2261 169.409 18.2428 169.369 18.2428C169.302 18.2428 169.249 18.2128 169.209 18.1528C169.175 18.0928 169.152 18.0461 169.139 18.0128C169.092 17.8594 169.022 17.7561 168.929 17.7028C168.835 17.6428 168.749 17.6128 168.669 17.6128C168.582 17.6128 168.495 17.6128 168.409 17.6128C168.329 17.6061 168.249 17.6028 168.169 17.6028C168.055 17.6028 167.945 17.6028 167.839 17.6028C167.732 17.6028 167.625 17.6094 167.519 17.6228C167.452 17.6294 167.395 17.6528 167.349 17.6928C167.302 17.7261 167.279 17.7861 167.279 17.8728C167.279 18.1794 167.279 18.4928 167.279 18.8128C167.285 19.1261 167.295 19.4494 167.309 19.7828C167.322 19.9961 167.372 20.1661 167.459 20.2928C167.552 20.4194 167.722 20.5061 167.969 20.5528C168.082 20.5728 168.165 20.5961 168.219 20.6228C168.272 20.6494 168.299 20.6861 168.299 20.7328C168.299 20.7728 168.272 20.7994 168.219 20.8128C168.165 20.8328 168.095 20.8428 168.009 20.8428C167.829 20.8428 167.689 20.8361 167.589 20.8228C167.495 20.8094 167.409 20.7994 167.329 20.7928C167.255 20.7794 167.155 20.7728 167.029 20.7728C166.869 20.7728 166.725 20.7794 166.599 20.7928C166.479 20.7994 166.355 20.8094 166.229 20.8228C166.102 20.8361 165.949 20.8428 165.769 20.8428ZM172.333 20.9328C171.96 20.9328 171.623 20.8461 171.323 20.6728C171.023 20.4994 170.783 20.2628 170.603 19.9628C170.43 19.6561 170.343 19.3094 170.343 18.9228C170.343 18.6428 170.397 18.3694 170.503 18.1028C170.617 17.8361 170.773 17.5928 170.973 17.3728C171.173 17.1528 171.407 16.9794 171.673 16.8528C171.94 16.7194 172.227 16.6528 172.533 16.6528C172.92 16.6528 173.267 16.7461 173.573 16.9328C173.887 17.1194 174.133 17.3661 174.313 17.6728C174.5 17.9728 174.593 18.3028 174.593 18.6628C174.593 19.0494 174.507 19.4161 174.333 19.7628C174.167 20.1094 173.917 20.3928 173.583 20.6128C173.25 20.8261 172.833 20.9328 172.333 20.9328ZM172.543 20.6328C172.77 20.6328 172.973 20.5894 173.153 20.5028C173.333 20.4161 173.473 20.2761 173.573 20.0828C173.653 19.9294 173.707 19.7428 173.733 19.5228C173.76 19.3028 173.773 19.0961 173.773 18.9028C173.773 18.5828 173.713 18.2761 173.593 17.9828C173.48 17.6828 173.317 17.4394 173.103 17.2528C172.897 17.0594 172.65 16.9628 172.363 16.9628C172.183 16.9628 172.02 16.9928 171.873 17.0528C171.733 17.1061 171.603 17.2094 171.483 17.3628C171.35 17.5294 171.263 17.7328 171.223 17.9728C171.183 18.2128 171.163 18.4528 171.163 18.6928C171.163 19.0194 171.223 19.3328 171.343 19.6328C171.463 19.9261 171.627 20.1661 171.833 20.3528C172.04 20.5394 172.277 20.6328 172.543 20.6328ZM175.384 20.8228C175.324 20.8228 175.274 20.8128 175.234 20.7928C175.201 20.7794 175.184 20.7528 175.184 20.7128C175.184 20.6594 175.204 20.6261 175.244 20.6128C175.284 20.5928 175.341 20.5728 175.414 20.5528C175.514 20.5261 175.611 20.4894 175.704 20.4428C175.798 20.3961 175.844 20.3061 175.844 20.1728V18.0228C175.844 17.8428 175.824 17.6894 175.784 17.5628C175.751 17.4361 175.648 17.3494 175.474 17.3028C175.448 17.2894 175.424 17.2761 175.404 17.2628C175.384 17.2428 175.374 17.2128 175.374 17.1728C175.374 17.0994 175.404 17.0594 175.464 17.0528C175.698 16.9928 175.888 16.9194 176.034 16.8328C176.181 16.7461 176.324 16.6494 176.464 16.5428C176.484 16.5294 176.501 16.5194 176.514 16.5128C176.534 16.4994 176.554 16.4928 176.574 16.4928C176.588 16.4928 176.598 16.4994 176.604 16.5128C176.618 16.5261 176.624 16.5428 176.624 16.5628C176.624 16.6094 176.614 16.7061 176.594 16.8528C176.581 16.9928 176.574 17.1094 176.574 17.2028C176.574 17.2294 176.574 17.2561 176.574 17.2828C176.581 17.3028 176.588 17.3161 176.594 17.3228C176.828 17.1028 177.074 16.9361 177.334 16.8228C177.601 16.7094 177.891 16.6528 178.204 16.6528C178.531 16.6528 178.801 16.7861 179.014 17.0528C179.228 17.3194 179.334 17.6494 179.334 18.0428V20.1728C179.334 20.3061 179.381 20.3961 179.474 20.4428C179.568 20.4828 179.664 20.5194 179.764 20.5528C179.818 20.5728 179.868 20.5961 179.914 20.6228C179.968 20.6428 179.994 20.6794 179.994 20.7328C179.994 20.7728 179.971 20.7961 179.924 20.8028C179.878 20.8161 179.834 20.8228 179.794 20.8228C179.661 20.8228 179.558 20.8161 179.484 20.8028C179.411 20.7961 179.341 20.7894 179.274 20.7828C179.208 20.7761 179.114 20.7728 178.994 20.7728C178.881 20.7728 178.788 20.7761 178.714 20.7828C178.641 20.7894 178.564 20.7961 178.484 20.8028C178.411 20.8161 178.308 20.8228 178.174 20.8228C178.141 20.8228 178.098 20.8161 178.044 20.8028C177.998 20.7961 177.974 20.7728 177.974 20.7328C177.974 20.6794 177.998 20.6428 178.044 20.6228C178.098 20.5961 178.151 20.5728 178.204 20.5528C178.304 20.5194 178.401 20.4828 178.494 20.4428C178.588 20.3961 178.634 20.3061 178.634 20.1728V18.0728C178.634 17.7794 178.551 17.5528 178.384 17.3928C178.224 17.2261 178.008 17.1394 177.734 17.1328C177.494 17.1328 177.284 17.1728 177.104 17.2528C176.924 17.3261 176.764 17.4194 176.624 17.5328C176.598 17.5594 176.578 17.5961 176.564 17.6428C176.551 17.6828 176.544 17.7228 176.544 17.7628V20.1728C176.544 20.3061 176.591 20.3961 176.684 20.4428C176.778 20.4894 176.874 20.5261 176.974 20.5528C177.128 20.5928 177.204 20.6461 177.204 20.7128C177.204 20.7528 177.188 20.7794 177.154 20.7928C177.121 20.8128 177.071 20.8228 177.004 20.8228C176.871 20.8228 176.764 20.8161 176.684 20.8028C176.611 20.7961 176.541 20.7894 176.474 20.7828C176.408 20.7761 176.314 20.7728 176.194 20.7728C176.081 20.7728 175.988 20.7761 175.914 20.7828C175.848 20.7894 175.774 20.7961 175.694 20.8028C175.621 20.8161 175.518 20.8228 175.384 20.8228ZM182.118 20.9328C181.791 20.9328 181.534 20.8328 181.348 20.6328C181.168 20.4328 181.078 20.1361 181.078 19.7428V17.4228C181.078 17.3694 181.058 17.3328 181.018 17.3128C180.978 17.2861 180.891 17.2728 180.758 17.2728H180.698C180.664 17.2728 180.634 17.2528 180.608 17.2128C180.588 17.1661 180.578 17.1194 180.578 17.0728C180.578 17.0594 180.588 17.0394 180.608 17.0128C180.628 16.9861 180.641 16.9694 180.648 16.9628C180.781 16.8694 180.901 16.7761 181.008 16.6828C181.121 16.5894 181.221 16.4994 181.308 16.4128C181.401 16.3194 181.478 16.2361 181.538 16.1628C181.571 16.1294 181.598 16.1028 181.618 16.0828C181.644 16.0561 181.674 16.0428 181.708 16.0428C181.741 16.0428 181.771 16.0494 181.798 16.0628C181.831 16.0761 181.844 16.1061 181.838 16.1528L181.788 16.6028C181.781 16.6761 181.798 16.7261 181.838 16.7528C181.878 16.7794 181.941 16.7928 182.028 16.7928H183.168C183.194 16.7928 183.218 16.8161 183.238 16.8628C183.258 16.9028 183.268 16.9528 183.268 17.0128C183.268 17.0728 183.258 17.1328 183.238 17.1928C183.218 17.2461 183.194 17.2728 183.168 17.2728H182.178C182.011 17.2728 181.901 17.2861 181.848 17.3128C181.801 17.3394 181.778 17.4194 181.778 17.5528V19.5228C181.778 19.7894 181.834 19.9994 181.948 20.1528C182.061 20.3061 182.224 20.3828 182.438 20.3828C182.631 20.3828 182.781 20.3694 182.888 20.3428C182.994 20.3094 183.091 20.2628 183.178 20.2028C183.191 20.1894 183.204 20.1828 183.218 20.1828C183.244 20.1828 183.261 20.1994 183.268 20.2328C183.281 20.2594 183.288 20.2894 183.288 20.3228C183.288 20.3561 183.231 20.4228 183.118 20.5228C183.011 20.6228 182.868 20.7161 182.688 20.8028C182.514 20.8894 182.324 20.9328 182.118 20.9328ZM160.57 33.9828C160.557 33.9828 160.533 33.9694 160.5 33.9428C160.473 33.9161 160.46 33.8961 160.46 33.8828C160.46 33.8161 160.467 33.7228 160.48 33.6028C160.5 33.4761 160.51 33.3694 160.51 33.2828V33.2228C160.41 33.3761 160.25 33.5328 160.03 33.6928C159.81 33.8528 159.533 33.9328 159.2 33.9328C158.82 33.9328 158.49 33.8328 158.21 33.6328C157.937 33.4328 157.723 33.1761 157.57 32.8628C157.423 32.5494 157.35 32.2261 157.35 31.8928C157.35 31.5061 157.44 31.1428 157.62 30.8028C157.8 30.4628 158.057 30.1861 158.39 29.9728C158.73 29.7594 159.133 29.6528 159.6 29.6528C159.733 29.6528 159.867 29.6661 160 29.6928C160.14 29.7128 160.247 29.7361 160.32 29.7628C160.38 29.7828 160.423 29.7928 160.45 29.7928C160.497 29.7928 160.52 29.7128 160.52 29.5528V28.1328C160.52 27.8594 160.477 27.6761 160.39 27.5828C160.303 27.4894 160.18 27.4294 160.02 27.4028C159.96 27.3894 159.93 27.3461 159.93 27.2728C159.93 27.2128 159.957 27.1728 160.01 27.1528C160.303 27.0794 160.533 27.0094 160.7 26.9428C160.867 26.8761 160.997 26.8228 161.09 26.7828C161.117 26.7694 161.14 26.7628 161.16 26.7628C161.187 26.7561 161.207 26.7528 161.22 26.7528C161.26 26.7528 161.283 26.7728 161.29 26.8128C161.29 26.8528 161.283 26.9228 161.27 27.0228C161.263 27.1161 161.253 27.2561 161.24 27.4428C161.227 27.6294 161.22 27.8728 161.22 28.1728V32.6928C161.22 32.9194 161.237 33.0861 161.27 33.1928C161.303 33.2928 161.357 33.3428 161.43 33.3428C161.463 33.3428 161.52 33.3394 161.6 33.3328C161.687 33.3261 161.773 33.3194 161.86 33.3128C161.98 33.3061 162.04 33.3361 162.04 33.4028C162.04 33.4494 162.023 33.4928 161.99 33.5328C161.963 33.5661 161.933 33.5828 161.9 33.5828C161.713 33.6094 161.53 33.6494 161.35 33.7028C161.17 33.7494 160.963 33.8228 160.73 33.9228C160.677 33.9494 160.64 33.9661 160.62 33.9728C160.607 33.9794 160.59 33.9828 160.57 33.9828ZM159.56 33.4128C159.733 33.4128 159.903 33.3694 160.07 33.2828C160.237 33.1894 160.383 33.0694 160.51 32.9228L160.52 31.1228C160.52 30.9428 160.467 30.7661 160.36 30.5928C160.26 30.4194 160.117 30.2794 159.93 30.1728C159.75 30.0594 159.537 30.0028 159.29 30.0028C159.137 30.0028 158.963 30.0494 158.77 30.1428C158.577 30.2361 158.41 30.4028 158.27 30.6428C158.13 30.8761 158.06 31.2161 158.06 31.6628C158.06 32.0428 158.117 32.3494 158.23 32.5828C158.343 32.8094 158.48 32.9828 158.64 33.1028C158.807 33.2228 158.973 33.3061 159.14 33.3528C159.313 33.3928 159.453 33.4128 159.56 33.4128ZM162.499 33.8228C162.439 33.8228 162.389 33.8128 162.349 33.7928C162.315 33.7794 162.299 33.7528 162.299 33.7128C162.299 33.6594 162.322 33.6228 162.369 33.6028C162.422 33.5828 162.475 33.5661 162.529 33.5528C162.669 33.5194 162.775 33.4794 162.849 33.4328C162.922 33.3794 162.959 33.2928 162.959 33.1728V31.0028C162.959 30.8228 162.925 30.6628 162.859 30.5228C162.799 30.3828 162.682 30.2994 162.509 30.2728C162.475 30.2661 162.449 30.2528 162.429 30.2328C162.415 30.2128 162.409 30.1828 162.409 30.1428C162.409 30.0694 162.439 30.0294 162.499 30.0228C162.765 29.9628 162.985 29.8828 163.159 29.7828C163.332 29.6761 163.462 29.5894 163.549 29.5228C163.609 29.4761 163.655 29.4528 163.689 29.4528C163.729 29.4528 163.749 29.4694 163.749 29.5028C163.749 29.5561 163.739 29.6628 163.719 29.8228C163.705 29.9761 163.692 30.1494 163.679 30.3428C163.665 30.5294 163.659 30.6994 163.659 30.8528V33.1728C163.659 33.2861 163.695 33.3694 163.769 33.4228C163.849 33.4761 163.955 33.5194 164.089 33.5528C164.142 33.5661 164.192 33.5828 164.239 33.6028C164.292 33.6228 164.319 33.6594 164.319 33.7128C164.319 33.7861 164.252 33.8228 164.119 33.8228C163.992 33.8228 163.889 33.8161 163.809 33.8028C163.735 33.7961 163.662 33.7894 163.589 33.7828C163.522 33.7761 163.429 33.7728 163.309 33.7728C163.195 33.7728 163.102 33.7761 163.029 33.7828C162.955 33.7894 162.882 33.7961 162.809 33.8028C162.735 33.8161 162.632 33.8228 162.499 33.8228ZM163.299 28.6328C163.159 28.6328 163.039 28.5861 162.939 28.4928C162.845 28.3928 162.799 28.2728 162.799 28.1328C162.799 27.9861 162.845 27.8661 162.939 27.7728C163.039 27.6728 163.159 27.6228 163.299 27.6228C163.445 27.6228 163.565 27.6728 163.659 27.7728C163.759 27.8661 163.809 27.9861 163.809 28.1328C163.809 28.2728 163.759 28.3928 163.659 28.4928C163.565 28.5861 163.445 28.6328 163.299 28.6328ZM165 33.8228C164.933 33.8228 164.883 33.8128 164.85 33.7928C164.816 33.7794 164.8 33.7528 164.8 33.7128C164.8 33.6594 164.82 33.6261 164.86 33.6128C164.9 33.5928 164.956 33.5728 165.03 33.5528C165.156 33.5194 165.25 33.4728 165.31 33.4128C165.376 33.3461 165.41 33.2661 165.41 33.1728V31.0228C165.41 30.8428 165.383 30.6861 165.33 30.5528C165.276 30.4194 165.166 30.3361 165 30.3028C164.973 30.2961 164.95 30.2794 164.93 30.2528C164.91 30.2261 164.9 30.1994 164.9 30.1728C164.9 30.1061 164.93 30.0661 164.99 30.0528C165.163 29.9994 165.343 29.9228 165.53 29.8228C165.723 29.7161 165.873 29.6294 165.98 29.5628C166.02 29.5361 166.05 29.5194 166.07 29.5128C166.096 29.4994 166.116 29.4928 166.13 29.4928C166.163 29.4928 166.18 29.5161 166.18 29.5628C166.18 29.5828 166.176 29.6328 166.17 29.7128C166.17 29.7928 166.166 29.8861 166.16 29.9928C166.16 30.0994 166.156 30.2061 166.15 30.3128C166.15 30.3261 166.156 30.3328 166.17 30.3328C166.276 30.1994 166.393 30.0828 166.52 29.9828C166.653 29.8828 166.786 29.8028 166.92 29.7428C167.06 29.6828 167.193 29.6528 167.32 29.6528C167.46 29.6528 167.573 29.6828 167.66 29.7428C167.753 29.8028 167.8 29.8794 167.8 29.9728C167.8 30.0394 167.78 30.1128 167.74 30.1928C167.706 30.2728 167.66 30.3428 167.6 30.4028C167.54 30.4628 167.476 30.4928 167.41 30.4928C167.37 30.4928 167.326 30.4861 167.28 30.4728C167.233 30.4528 167.183 30.4294 167.13 30.4028C167.076 30.3828 167.023 30.3628 166.97 30.3428C166.916 30.3228 166.863 30.3128 166.81 30.3128C166.65 30.3128 166.493 30.3694 166.34 30.4828C166.193 30.5961 166.12 30.8194 166.12 31.1528V33.1728C166.12 33.2594 166.166 33.3328 166.26 33.3928C166.353 33.4461 166.483 33.4994 166.65 33.5528C166.723 33.5728 166.78 33.5928 166.82 33.6128C166.86 33.6328 166.88 33.6661 166.88 33.7128C166.88 33.7861 166.813 33.8228 166.68 33.8228C166.48 33.8228 166.326 33.8128 166.22 33.7928C166.12 33.7794 165.983 33.7728 165.81 33.7728C165.696 33.7728 165.603 33.7761 165.53 33.7828C165.463 33.7894 165.39 33.7961 165.31 33.8028C165.236 33.8161 165.133 33.8228 165 33.8228ZM169.98 33.9428C169.613 33.9428 169.293 33.8528 169.02 33.6728C168.746 33.4928 168.533 33.2394 168.38 32.9128C168.226 32.5794 168.15 32.1961 168.15 31.7628C168.15 31.3761 168.236 31.0261 168.41 30.7128C168.59 30.3928 168.826 30.1361 169.12 29.9428C169.413 29.7494 169.733 29.6528 170.08 29.6528C170.346 29.6528 170.583 29.7061 170.79 29.8128C170.996 29.9194 171.156 30.0694 171.27 30.2628C171.39 30.4494 171.45 30.6661 171.45 30.9128C171.45 31.1194 171.35 31.2228 171.15 31.2228H169.04C168.946 31.2228 168.88 31.2494 168.84 31.3028C168.806 31.3494 168.79 31.4461 168.79 31.5928C168.79 31.9128 168.86 32.2061 169 32.4728C169.14 32.7328 169.326 32.9428 169.56 33.1028C169.793 33.2561 170.05 33.3328 170.33 33.3328C170.53 33.3328 170.71 33.2961 170.87 33.2228C171.036 33.1428 171.183 33.0294 171.31 32.8828C171.336 32.8494 171.356 32.8294 171.37 32.8228C171.383 32.8094 171.4 32.8028 171.42 32.8028C171.473 32.8028 171.5 32.8361 171.5 32.9028C171.5 33.0294 171.44 33.1694 171.32 33.3228C171.22 33.4494 171.1 33.5594 170.96 33.6528C170.82 33.7461 170.666 33.8161 170.5 33.8628C170.333 33.9161 170.16 33.9428 169.98 33.9428ZM169.06 30.9128H169.97C170.13 30.9128 170.266 30.9094 170.38 30.9028C170.493 30.8961 170.603 30.8828 170.71 30.8628C170.743 30.8561 170.763 30.8361 170.77 30.8028C170.783 30.7628 170.79 30.7094 170.79 30.6428C170.79 30.4494 170.703 30.2861 170.53 30.1528C170.363 30.0128 170.163 29.9428 169.93 29.9428C169.776 29.9428 169.623 29.9894 169.47 30.0828C169.316 30.1694 169.19 30.2794 169.09 30.4128C168.99 30.5461 168.94 30.6794 168.94 30.8128C168.94 30.8794 168.98 30.9128 169.06 30.9128ZM173.778 33.9428C173.445 33.9428 173.142 33.8594 172.868 33.6928C172.602 33.5194 172.388 33.2861 172.228 32.9928C172.075 32.6928 171.998 32.3594 171.998 31.9928C171.998 31.5594 172.092 31.1661 172.278 30.8128C172.472 30.4594 172.728 30.1794 173.048 29.9728C173.368 29.7594 173.722 29.6528 174.108 29.6528C174.542 29.6528 174.922 29.7694 175.248 30.0028C175.328 30.0628 175.368 30.1261 175.368 30.1928C175.368 30.2461 175.345 30.3061 175.298 30.3728C175.252 30.4394 175.195 30.4961 175.128 30.5428C175.062 30.5828 174.998 30.6028 174.938 30.6028C174.905 30.6028 174.872 30.5928 174.838 30.5728C174.805 30.5461 174.768 30.5194 174.728 30.4928C174.582 30.3794 174.418 30.2728 174.238 30.1728C174.058 30.0728 173.908 30.0228 173.788 30.0228C173.462 30.0228 173.195 30.1761 172.988 30.4828C172.788 30.7828 172.688 31.1794 172.688 31.6728C172.688 31.9861 172.755 32.2694 172.888 32.5228C173.028 32.7761 173.212 32.9761 173.438 33.1228C173.672 33.2694 173.928 33.3428 174.208 33.3428C174.402 33.3428 174.568 33.3128 174.708 33.2528C174.848 33.1861 174.998 33.0728 175.158 32.9128C175.172 32.8994 175.188 32.8894 175.208 32.8828C175.228 32.8694 175.245 32.8628 175.258 32.8628C175.332 32.8628 175.368 32.9094 175.368 33.0028C175.368 33.0428 175.355 33.0894 175.328 33.1428C175.308 33.1894 175.272 33.2461 175.218 33.3128C175.112 33.4461 174.985 33.5628 174.838 33.6628C174.692 33.7561 174.528 33.8261 174.348 33.8728C174.175 33.9194 173.985 33.9428 173.778 33.9428ZM177.611 33.9328C177.284 33.9328 177.027 33.8328 176.841 33.6328C176.661 33.4328 176.571 33.1361 176.571 32.7428V30.4228C176.571 30.3694 176.551 30.3328 176.511 30.3128C176.471 30.2861 176.384 30.2728 176.251 30.2728H176.191C176.157 30.2728 176.127 30.2528 176.101 30.2128C176.081 30.1661 176.071 30.1194 176.071 30.0728C176.071 30.0594 176.081 30.0394 176.101 30.0128C176.121 29.9861 176.134 29.9694 176.141 29.9628C176.274 29.8694 176.394 29.7761 176.501 29.6828C176.614 29.5894 176.714 29.4994 176.801 29.4128C176.894 29.3194 176.971 29.2361 177.031 29.1628C177.064 29.1294 177.091 29.1028 177.111 29.0828C177.137 29.0561 177.167 29.0428 177.201 29.0428C177.234 29.0428 177.264 29.0494 177.291 29.0628C177.324 29.0761 177.337 29.1061 177.331 29.1528L177.281 29.6028C177.274 29.6761 177.291 29.7261 177.331 29.7528C177.371 29.7794 177.434 29.7928 177.521 29.7928H178.661C178.687 29.7928 178.711 29.8161 178.731 29.8628C178.751 29.9028 178.761 29.9528 178.761 30.0128C178.761 30.0728 178.751 30.1328 178.731 30.1928C178.711 30.2461 178.687 30.2728 178.661 30.2728H177.671C177.504 30.2728 177.394 30.2861 177.341 30.3128C177.294 30.3394 177.271 30.4194 177.271 30.5528V32.5228C177.271 32.7894 177.327 32.9994 177.441 33.1528C177.554 33.3061 177.717 33.3828 177.931 33.3828C178.124 33.3828 178.274 33.3694 178.381 33.3428C178.487 33.3094 178.584 33.2628 178.671 33.2028C178.684 33.1894 178.697 33.1828 178.711 33.1828C178.737 33.1828 178.754 33.1994 178.761 33.2328C178.774 33.2594 178.781 33.2894 178.781 33.3228C178.781 33.3561 178.724 33.4228 178.611 33.5228C178.504 33.6228 178.361 33.7161 178.181 33.8028C178.007 33.8894 177.817 33.9328 177.611 33.9328ZM179.305 33.8228C179.245 33.8228 179.195 33.8128 179.155 33.7928C179.122 33.7794 179.105 33.7528 179.105 33.7128C179.105 33.6594 179.129 33.6228 179.175 33.6028C179.229 33.5828 179.282 33.5661 179.335 33.5528C179.475 33.5194 179.582 33.4794 179.655 33.4328C179.729 33.3794 179.765 33.2928 179.765 33.1728V31.0028C179.765 30.8228 179.732 30.6628 179.665 30.5228C179.605 30.3828 179.489 30.2994 179.315 30.2728C179.282 30.2661 179.255 30.2528 179.235 30.2328C179.222 30.2128 179.215 30.1828 179.215 30.1428C179.215 30.0694 179.245 30.0294 179.305 30.0228C179.572 29.9628 179.792 29.8828 179.965 29.7828C180.139 29.6761 180.269 29.5894 180.355 29.5228C180.415 29.4761 180.462 29.4528 180.495 29.4528C180.535 29.4528 180.555 29.4694 180.555 29.5028C180.555 29.5561 180.545 29.6628 180.525 29.8228C180.512 29.9761 180.499 30.1494 180.485 30.3428C180.472 30.5294 180.465 30.6994 180.465 30.8528V33.1728C180.465 33.2861 180.502 33.3694 180.575 33.4228C180.655 33.4761 180.762 33.5194 180.895 33.5528C180.949 33.5661 180.999 33.5828 181.045 33.6028C181.099 33.6228 181.125 33.6594 181.125 33.7128C181.125 33.7861 181.059 33.8228 180.925 33.8228C180.799 33.8228 180.695 33.8161 180.615 33.8028C180.542 33.7961 180.469 33.7894 180.395 33.7828C180.329 33.7761 180.235 33.7728 180.115 33.7728C180.002 33.7728 179.909 33.7761 179.835 33.7828C179.762 33.7894 179.689 33.7961 179.615 33.8028C179.542 33.8161 179.439 33.8228 179.305 33.8228ZM180.105 28.6328C179.965 28.6328 179.845 28.5861 179.745 28.4928C179.652 28.3928 179.605 28.2728 179.605 28.1328C179.605 27.9861 179.652 27.8661 179.745 27.7728C179.845 27.6728 179.965 27.6228 180.105 27.6228C180.252 27.6228 180.372 27.6728 180.465 27.7728C180.565 27.8661 180.615 27.9861 180.615 28.1328C180.615 28.2728 180.565 28.3928 180.465 28.4928C180.372 28.5861 180.252 28.6328 180.105 28.6328ZM183.656 33.9328C183.283 33.9328 182.946 33.8461 182.646 33.6728C182.346 33.4994 182.106 33.2628 181.926 32.9628C181.753 32.6561 181.666 32.3094 181.666 31.9228C181.666 31.6428 181.72 31.3694 181.826 31.1028C181.94 30.8361 182.096 30.5928 182.296 30.3728C182.496 30.1528 182.73 29.9794 182.996 29.8528C183.263 29.7194 183.55 29.6528 183.856 29.6528C184.243 29.6528 184.59 29.7461 184.896 29.9328C185.21 30.1194 185.456 30.3661 185.636 30.6728C185.823 30.9728 185.916 31.3028 185.916 31.6628C185.916 32.0494 185.83 32.4161 185.656 32.7628C185.49 33.1094 185.24 33.3928 184.906 33.6128C184.573 33.8261 184.156 33.9328 183.656 33.9328ZM183.866 33.6328C184.093 33.6328 184.296 33.5894 184.476 33.5028C184.656 33.4161 184.796 33.2761 184.896 33.0828C184.976 32.9294 185.03 32.7428 185.056 32.5228C185.083 32.3028 185.096 32.0961 185.096 31.9028C185.096 31.5828 185.036 31.2761 184.916 30.9828C184.803 30.6828 184.64 30.4394 184.426 30.2528C184.22 30.0594 183.973 29.9628 183.686 29.9628C183.506 29.9628 183.343 29.9928 183.196 30.0528C183.056 30.1061 182.926 30.2094 182.806 30.3628C182.673 30.5294 182.586 30.7328 182.546 30.9728C182.506 31.2128 182.486 31.4528 182.486 31.6928C182.486 32.0194 182.546 32.3328 182.666 32.6328C182.786 32.9261 182.95 33.1661 183.156 33.3528C183.363 33.5394 183.6 33.6328 183.866 33.6328ZM186.708 33.8228C186.648 33.8228 186.598 33.8128 186.558 33.7928C186.524 33.7794 186.508 33.7528 186.508 33.7128C186.508 33.6594 186.528 33.6261 186.568 33.6128C186.608 33.5928 186.664 33.5728 186.738 33.5528C186.838 33.5261 186.934 33.4894 187.028 33.4428C187.121 33.3961 187.168 33.3061 187.168 33.1728V31.0228C187.168 30.8428 187.148 30.6894 187.108 30.5628C187.074 30.4361 186.971 30.3494 186.798 30.3028C186.771 30.2894 186.748 30.2761 186.728 30.2628C186.708 30.2428 186.698 30.2128 186.698 30.1728C186.698 30.0994 186.728 30.0594 186.788 30.0528C187.021 29.9928 187.211 29.9194 187.358 29.8328C187.504 29.7461 187.648 29.6494 187.788 29.5428C187.808 29.5294 187.824 29.5194 187.838 29.5128C187.858 29.4994 187.878 29.4928 187.898 29.4928C187.911 29.4928 187.921 29.4994 187.928 29.5128C187.941 29.5261 187.948 29.5428 187.948 29.5628C187.948 29.6094 187.938 29.7061 187.918 29.8528C187.904 29.9928 187.898 30.1094 187.898 30.2028C187.898 30.2294 187.898 30.2561 187.898 30.2828C187.904 30.3028 187.911 30.3161 187.918 30.3228C188.151 30.1028 188.398 29.9361 188.658 29.8228C188.924 29.7094 189.214 29.6528 189.528 29.6528C189.854 29.6528 190.124 29.7861 190.338 30.0528C190.551 30.3194 190.658 30.6494 190.658 31.0428V33.1728C190.658 33.3061 190.704 33.3961 190.798 33.4428C190.891 33.4828 190.988 33.5194 191.088 33.5528C191.141 33.5728 191.191 33.5961 191.238 33.6228C191.291 33.6428 191.318 33.6794 191.318 33.7328C191.318 33.7728 191.294 33.7961 191.248 33.8028C191.201 33.8161 191.158 33.8228 191.118 33.8228C190.984 33.8228 190.881 33.8161 190.808 33.8028C190.734 33.7961 190.664 33.7894 190.598 33.7828C190.531 33.7761 190.438 33.7728 190.318 33.7728C190.204 33.7728 190.111 33.7761 190.038 33.7828C189.964 33.7894 189.888 33.7961 189.808 33.8028C189.734 33.8161 189.631 33.8228 189.498 33.8228C189.464 33.8228 189.421 33.8161 189.368 33.8028C189.321 33.7961 189.298 33.7728 189.298 33.7328C189.298 33.6794 189.321 33.6428 189.368 33.6228C189.421 33.5961 189.474 33.5728 189.528 33.5528C189.628 33.5194 189.724 33.4828 189.818 33.4428C189.911 33.3961 189.958 33.3061 189.958 33.1728V31.0728C189.958 30.7794 189.874 30.5528 189.708 30.3928C189.548 30.2261 189.331 30.1394 189.058 30.1328C188.818 30.1328 188.608 30.1728 188.428 30.2528C188.248 30.3261 188.088 30.4194 187.948 30.5328C187.921 30.5594 187.901 30.5961 187.888 30.6428C187.874 30.6828 187.868 30.7228 187.868 30.7628V33.1728C187.868 33.3061 187.914 33.3961 188.008 33.4428C188.101 33.4894 188.198 33.5261 188.298 33.5528C188.451 33.5928 188.528 33.6461 188.528 33.7128C188.528 33.7528 188.511 33.7794 188.478 33.7928C188.444 33.8128 188.394 33.8228 188.328 33.8228C188.194 33.8228 188.088 33.8161 188.008 33.8028C187.934 33.7961 187.864 33.7894 187.798 33.7828C187.731 33.7761 187.638 33.7728 187.518 33.7728C187.404 33.7728 187.311 33.7761 187.238 33.7828C187.171 33.7894 187.098 33.7961 187.018 33.8028C186.944 33.8161 186.841 33.8228 186.708 33.8228Z" fill="#9B51E0"/>
<line x1="8.74228e-08" y1="42.0188" x2="200" y2="42.0188" stroke="#56CCF2" stroke-width="2"/>
<line x1="66.6865" y1="42.0188" x2="87.3875" y2="42.0188" stroke="#2F80ED" stroke-width="2"/>
<path d="M25.0175 65.7259C25.408 66.1164 26.0412 66.1164 26.4317 65.7259L32.7957 59.3619C33.1862 58.9714 33.1862 58.3382 32.7957 57.9477C32.4052 57.5572 31.772 57.5572 31.3815 57.9477L25.7246 63.6046L20.0678 57.9477C19.6772 57.5572 19.0441 57.5572 18.6535 57.9477C18.263 58.3382 18.263 58.9714 18.6535 59.3619L25.0175 65.7259ZM25.7246 43.0188L24.7246 43.0188L24.7246 65.0188L25.7246 65.0188L26.7246 65.0188L26.7246 43.0188L25.7246 43.0188Z" fill="#56CCF2"/>
<path d="M76.4408 65.7259C76.8313 66.1164 77.4644 66.1164 77.855 65.7259L84.2189 59.3619C84.6095 58.9714 84.6095 58.3382 84.2189 57.9477C83.8284 57.5572 83.1952 57.5572 82.8047 57.9477L77.1479 63.6046L71.491 57.9477C71.1005 57.5572 70.4673 57.5572 70.0768 57.9477C69.6863 58.3382 69.6863 58.9714 70.0768 59.3619L76.4408 65.7259ZM77.1479 43.0188L76.1479 43.0188L76.1479 65.0188L77.1479 65.0188L78.1479 65.0188L78.1479 43.0188L77.1479 43.0188Z" fill="#9B51E0"/>
<path d="M151.456 60.697C152.003 60.7734 152.509 60.392 152.585 59.845L153.83 50.9316C153.907 50.3846 153.525 49.8793 152.978 49.8028C152.432 49.7264 151.926 50.1079 151.85 50.6548L150.743 58.5779L142.82 57.4708C142.273 57.3944 141.767 57.7758 141.691 58.3228C141.614 58.8698 141.996 59.3752 142.543 59.4516L151.456 60.697ZM138.239 42.0121L137.441 42.6145L150.797 60.3091L151.595 59.7066L152.393 59.1042L139.037 41.4096L138.239 42.0121Z" fill="#9B51E0"/>
<path d="M127.22 166.28C126.42 166.28 125.727 166.093 125.14 165.72C124.553 165.347 124.06 164.853 123.66 164.24C123.273 163.613 122.987 162.927 122.8 162.18C122.613 161.433 122.52 160.693 122.52 159.96C122.52 159.2 122.613 158.433 122.8 157.66C122.987 156.887 123.28 156.18 123.68 155.54C124.08 154.887 124.593 154.367 125.22 153.98C125.847 153.58 126.587 153.38 127.44 153.38C128.24 153.38 128.933 153.567 129.52 153.94C130.12 154.313 130.607 154.813 130.98 155.44C131.367 156.053 131.653 156.733 131.84 157.48C132.04 158.213 132.14 158.94 132.14 159.66C132.14 160.42 132.047 161.187 131.86 161.96C131.673 162.733 131.38 163.447 130.98 164.1C130.593 164.753 130.087 165.28 129.46 165.68C128.847 166.08 128.1 166.28 127.22 166.28ZM127.52 165.38C127.947 165.38 128.287 165.133 128.54 164.64C128.807 164.133 129 163.473 129.12 162.66C129.24 161.847 129.3 160.967 129.3 160.02C129.3 159.313 129.253 158.62 129.16 157.94C129.067 157.26 128.927 156.647 128.74 156.1C128.553 155.54 128.327 155.1 128.06 154.78C127.793 154.447 127.48 154.28 127.12 154.28C126.693 154.28 126.353 154.533 126.1 155.04C125.847 155.533 125.66 156.187 125.54 157C125.433 157.8 125.38 158.673 125.38 159.62C125.38 160.327 125.42 161.02 125.5 161.7C125.593 162.38 125.727 163 125.9 163.56C126.087 164.107 126.313 164.547 126.58 164.88C126.847 165.213 127.16 165.38 127.52 165.38ZM146.932 166L139.072 162.22C138.859 162.113 138.639 162 138.412 161.88C138.199 161.76 138.092 161.667 138.092 161.6C138.092 161.493 138.165 161.32 138.312 161.08C138.459 160.84 138.645 160.673 138.872 160.58L146.932 156.64C146.985 156.6 147.032 156.58 147.072 156.58C147.192 156.58 147.272 156.627 147.312 156.72C147.365 156.813 147.392 156.913 147.392 157.02C147.392 157.207 147.325 157.393 147.192 157.58C147.059 157.767 146.885 157.913 146.672 158.02L140.052 161.24C139.999 161.253 139.972 161.28 139.972 161.32C139.972 161.36 139.999 161.393 140.052 161.42L146.692 164.62C146.919 164.713 147.092 164.86 147.212 165.06C147.332 165.247 147.392 165.433 147.392 165.62C147.392 165.82 147.339 165.947 147.232 166C147.125 166.053 147.025 166.053 146.932 166ZM151.538 171.82C150.605 171.82 149.932 171.66 149.518 171.34C149.092 171.02 148.878 170.673 148.878 170.3C148.878 169.967 148.992 169.693 149.218 169.48C149.445 169.267 149.678 169.16 149.918 169.16C150.038 169.16 150.178 169.253 150.338 169.44C150.485 169.64 150.625 169.833 150.758 170.02C150.892 170.22 151.038 170.407 151.198 170.58C151.358 170.767 151.558 170.86 151.798 170.86C151.998 170.86 152.178 170.773 152.338 170.6C152.485 170.44 152.632 170.2 152.778 169.88C152.912 169.573 153.038 169.2 153.158 168.76L155.878 159.08C155.932 158.84 155.838 158.72 155.598 158.72L154.398 158.74C154.265 158.74 154.172 158.713 154.118 158.66C154.065 158.607 154.038 158.52 154.038 158.4C154.038 158.293 154.098 158.153 154.218 157.98C154.338 157.807 154.505 157.713 154.718 157.7L155.978 157.64C156.085 157.64 156.165 157.547 156.218 157.36L156.378 156.86C156.765 155.647 157.252 154.68 157.838 153.96C158.438 153.227 159.078 152.7 159.758 152.38C160.438 152.047 161.078 151.88 161.678 151.88C162.278 151.88 162.785 152.02 163.198 152.3C163.612 152.58 163.818 152.94 163.818 153.38C163.818 153.727 163.732 154.047 163.558 154.34C163.385 154.633 163.165 154.78 162.898 154.78C162.672 154.78 162.505 154.673 162.398 154.46C162.305 154.233 162.205 153.987 162.098 153.72C161.992 153.453 161.865 153.22 161.718 153.02C161.572 152.807 161.365 152.7 161.098 152.7C160.845 152.7 160.612 152.827 160.398 153.08C160.185 153.32 159.992 153.647 159.818 154.06C159.645 154.46 159.478 154.92 159.318 155.44C159.238 155.72 159.165 155.987 159.098 156.24C159.045 156.493 158.992 156.733 158.938 156.96C158.925 157.027 158.912 157.093 158.898 157.16C158.898 157.213 158.892 157.273 158.878 157.34C158.865 157.46 158.892 157.54 158.958 157.58C159.025 157.62 159.105 157.64 159.198 157.64C159.558 157.64 159.892 157.633 160.198 157.62C160.505 157.593 160.825 157.58 161.158 157.58C161.292 157.58 161.358 157.673 161.358 157.86C161.358 157.927 161.325 158.027 161.258 158.16C161.192 158.28 161.118 158.393 161.038 158.5C160.958 158.593 160.885 158.64 160.818 158.64L159.198 158.7C158.972 158.713 158.798 158.753 158.678 158.82C158.572 158.887 158.492 159.007 158.438 159.18C158.038 160.607 157.625 162.067 157.198 163.56C156.785 165.053 156.378 166.527 155.978 167.98C155.858 168.433 155.625 168.88 155.278 169.32C154.932 169.773 154.525 170.187 154.058 170.56C153.605 170.947 153.158 171.253 152.718 171.48C152.278 171.707 151.885 171.82 151.538 171.82ZM174.901 166L167.041 162.22C166.827 162.113 166.607 162 166.381 161.88C166.167 161.76 166.061 161.667 166.061 161.6C166.061 161.493 166.134 161.32 166.281 161.08C166.427 160.84 166.614 160.673 166.841 160.58L174.901 156.64C174.954 156.6 175.001 156.58 175.041 156.58C175.161 156.58 175.241 156.627 175.281 156.72C175.334 156.813 175.361 156.913 175.361 157.02C175.361 157.207 175.294 157.393 175.161 157.58C175.027 157.767 174.854 157.913 174.641 158.02L168.021 161.24C167.967 161.253 167.941 161.28 167.941 161.32C167.941 161.36 167.967 161.393 168.021 161.42L174.661 164.62C174.887 164.713 175.061 164.86 175.181 165.06C175.301 165.247 175.361 165.433 175.361 165.62C175.361 165.82 175.307 165.947 175.201 166C175.094 166.053 174.994 166.053 174.901 166ZM183.207 166.06C183.127 166.06 183.047 166.033 182.967 165.98C182.887 165.927 182.847 165.86 182.847 165.78C182.847 165.567 182.974 165.427 183.227 165.36C183.601 165.267 183.921 165.173 184.187 165.08C184.454 164.987 184.661 164.86 184.807 164.7C184.954 164.527 185.027 164.3 185.027 164.02V156.78C185.027 156.46 184.941 156.22 184.767 156.06C184.607 155.887 184.394 155.76 184.127 155.68C183.874 155.6 183.601 155.54 183.307 155.5C183.201 155.473 183.087 155.427 182.967 155.36C182.847 155.293 182.787 155.187 182.787 155.04C182.787 154.867 182.847 154.747 182.967 154.68C183.101 154.6 183.247 154.553 183.407 154.54C184.194 154.473 184.901 154.347 185.527 154.16C186.154 153.973 186.774 153.7 187.387 153.34C187.414 153.327 187.447 153.313 187.487 153.3C187.527 153.287 187.567 153.28 187.607 153.28C187.701 153.28 187.787 153.3 187.867 153.34C187.961 153.38 188.007 153.427 188.007 153.48C188.007 153.653 187.987 153.853 187.947 154.08C187.921 154.293 187.907 154.58 187.907 154.94V164.04C187.907 164.293 187.987 164.5 188.147 164.66C188.307 164.82 188.534 164.953 188.827 165.06C189.121 165.153 189.461 165.253 189.847 165.36C189.954 165.4 190.041 165.447 190.107 165.5C190.174 165.553 190.207 165.64 190.207 165.76C190.207 165.947 190.107 166.04 189.907 166.04C189.601 166.04 189.234 166.033 188.807 166.02C188.394 166.007 187.981 165.993 187.567 165.98C187.167 165.967 186.821 165.96 186.527 165.96C186.247 165.96 185.907 165.967 185.507 165.98C185.107 165.993 184.701 166.007 184.287 166.02C183.874 166.047 183.514 166.06 183.207 166.06Z" fill="#F2994A"/>
<line x1="136.963" y1="42.0188" x2="150.234" y2="42.0188" stroke="#2F80ED" stroke-width="2"/>
</g>
<defs>
<clipPath id="clip0_1_40">
<rect width="200" height="200" fill="white"/>
</clipPath>
</defs>
</svg>
