<svg width="431" height="700" viewBox="0 0 863 1401" fill="none" xmlns="http://www.w3.org/2000/svg">
<rect x="268" y="20" width="332.782" height="170.334" rx="18" fill="white" stroke="#BDBDBD" stroke-width="4"/>
<line x1="266" y1="106.167" x2="602.782" y2="106.167" stroke="#BDBDBD" stroke-width="4"/>
<path d="M435.375 76.2672C435.119 76.2672 434.884 76.1605 434.671 75.9472C434.458 75.6912 434.33 75.4139 434.287 75.1152L433.455 69.2272C432.303 70.0379 430.618 71.1045 428.399 72.4272C428.228 72.5979 427.994 72.6832 427.695 72.6832C427.396 72.6832 427.119 72.6192 426.863 72.4912C426.65 72.3205 426.543 72.0859 426.543 71.7872C426.543 71.4459 426.735 71.0832 427.119 70.6992L431.791 66.9872C429.786 66.0485 428.036 65.1525 426.543 64.2992C426.33 64.2139 426.138 64.0645 425.967 63.8512C425.839 63.5952 425.775 63.3605 425.775 63.1472C425.775 62.7632 425.967 62.5072 426.351 62.3792C426.735 62.2085 427.076 62.1872 427.375 62.3152C428.612 62.8699 429.722 63.3179 430.703 63.6592C431.044 63.7872 431.386 63.9365 431.727 64.1072C432.111 64.2352 432.516 64.3845 432.943 64.5552C432.73 62.7205 432.602 60.7365 432.559 58.6032C432.559 58.2192 432.644 57.8992 432.815 57.6432C433.028 57.3445 433.306 57.1952 433.647 57.1952C433.946 57.1952 434.18 57.3232 434.351 57.5792C434.564 57.7925 434.692 58.0485 434.735 58.3472L435.567 64.2352C436.719 63.4245 438.404 62.3579 440.623 61.0352C440.794 60.8645 441.028 60.7792 441.327 60.7792C441.626 60.7792 441.882 60.8645 442.095 61.0352C442.351 61.1632 442.479 61.3765 442.479 61.6752C442.479 62.0165 442.287 62.3792 441.903 62.7632L437.231 66.4752C439.236 67.4139 440.986 68.3099 442.479 69.1632C442.692 69.2485 442.863 69.4192 442.991 69.6752C443.162 69.8885 443.247 70.1019 443.247 70.3152C443.247 70.6992 443.055 70.9765 442.671 71.1472C442.287 71.2752 441.946 71.2752 441.647 71.1472C440.41 70.5925 439.3 70.1445 438.319 69.8032C437.978 69.6752 437.615 69.5472 437.231 69.4192C436.89 69.2485 436.506 69.0779 436.079 68.9072C436.292 70.7419 436.42 72.7259 436.463 74.8592C436.463 75.2432 436.356 75.5845 436.143 75.8832C435.972 76.1392 435.716 76.2672 435.375 76.2672Z" fill="black"/>
<line x1="432.474" y1="192.334" x2="432.474" y2="108.167" stroke="#BDBDBD" stroke-width="4"/>
<circle cx="352.012" cy="150.251" r="7.37463" fill="#BDBDBD"/>
<circle cx="515.012" cy="150.251" r="7.37463" fill="#BDBDBD"/>
<rect x="109.602" y="1049" width="332.782" height="170.334" rx="18" fill="white" stroke="#BDBDBD" stroke-width="4"/>
<line x1="107.602" y1="1135.17" x2="444.384" y2="1135.17" stroke="#BDBDBD" stroke-width="4"/>
<path d="M276.977 1105.27C276.721 1105.27 276.486 1105.16 276.273 1104.95C276.059 1104.69 275.931 1104.41 275.889 1104.12L275.057 1098.23C273.905 1099.04 272.219 1100.1 270.001 1101.43C269.83 1101.6 269.595 1101.68 269.297 1101.68C268.998 1101.68 268.721 1101.62 268.465 1101.49C268.251 1101.32 268.145 1101.09 268.145 1100.79C268.145 1100.45 268.337 1100.08 268.721 1099.7L273.393 1095.99C271.387 1095.05 269.638 1094.15 268.145 1093.3C267.931 1093.21 267.739 1093.06 267.569 1092.85C267.441 1092.6 267.377 1092.36 267.377 1092.15C267.377 1091.76 267.569 1091.51 267.953 1091.38C268.337 1091.21 268.678 1091.19 268.977 1091.32C270.214 1091.87 271.323 1092.32 272.305 1092.66C272.646 1092.79 272.987 1092.94 273.329 1093.11C273.713 1093.24 274.118 1093.38 274.545 1093.56C274.331 1091.72 274.203 1089.74 274.161 1087.6C274.161 1087.22 274.246 1086.9 274.417 1086.64C274.63 1086.34 274.907 1086.2 275.249 1086.2C275.547 1086.2 275.782 1086.32 275.953 1086.58C276.166 1086.79 276.294 1087.05 276.337 1087.35L277.169 1093.24C278.321 1092.42 280.006 1091.36 282.225 1090.04C282.395 1089.86 282.63 1089.78 282.929 1089.78C283.227 1089.78 283.483 1089.86 283.697 1090.04C283.953 1090.16 284.081 1090.38 284.081 1090.68C284.081 1091.02 283.889 1091.38 283.505 1091.76L278.833 1095.48C280.838 1096.41 282.587 1097.31 284.081 1098.16C284.294 1098.25 284.465 1098.42 284.593 1098.68C284.763 1098.89 284.849 1099.1 284.849 1099.32C284.849 1099.7 284.657 1099.98 284.273 1100.15C283.889 1100.28 283.547 1100.28 283.249 1100.15C282.011 1099.59 280.902 1099.14 279.921 1098.8C279.579 1098.68 279.217 1098.55 278.833 1098.42C278.491 1098.25 278.107 1098.08 277.681 1097.91C277.894 1099.74 278.022 1101.73 278.065 1103.86C278.065 1104.24 277.958 1104.58 277.745 1104.88C277.574 1105.14 277.318 1105.27 276.977 1105.27Z" fill="black"/>
<line x1="274.076" y1="1221.33" x2="274.076" y2="1137.17" stroke="#BDBDBD" stroke-width="4"/>
<circle cx="193.614" cy="1179.25" r="7.37463" fill="#BDBDBD"/>
<circle cx="356.614" cy="1179.25" r="7.37463" fill="#BDBDBD"/>
<rect x="249.343" y="790.333" width="332.782" height="170.334" rx="18" fill="white" stroke="#BDBDBD" stroke-width="4"/>
<line x1="247.343" y1="876.5" x2="584.125" y2="876.5" stroke="#BDBDBD" stroke-width="4"/>
<path d="M415.196 854.792C415.068 854.792 414.94 854.712 414.812 854.552C414.684 854.424 414.62 854.28 414.62 854.12V843.992C414.62 843.832 414.556 843.752 414.428 843.752H404.732C404.572 843.752 404.412 843.704 404.252 843.608C404.124 843.48 404.06 843.336 404.06 843.176C404.06 842.824 404.156 842.44 404.348 842.024C404.54 841.576 404.828 841.352 405.212 841.352H414.284C414.412 841.352 414.492 841.336 414.524 841.304C414.588 841.24 414.62 841.128 414.62 840.968V832.76C414.62 832.312 414.908 831.96 415.484 831.704C416.06 831.416 416.508 831.272 416.828 831.272C416.988 831.272 417.132 831.336 417.26 831.464C417.42 831.592 417.5 831.736 417.5 831.896V841.064C417.5 841.256 417.532 841.352 417.596 841.352H427.436C427.596 841.352 427.74 841.4 427.868 841.496C427.996 841.592 428.06 841.704 428.06 841.832C428.06 842.28 427.916 842.712 427.628 843.128C427.34 843.544 426.988 843.752 426.572 843.752H417.692C417.564 843.752 417.5 843.816 417.5 843.944V853.64C417.5 854.056 417.228 854.344 416.684 854.504C416.14 854.696 415.644 854.792 415.196 854.792Z" fill="black"/>
<line x1="413.817" y1="962.667" x2="413.817" y2="878.5" stroke="#BDBDBD" stroke-width="4"/>
<circle cx="333.355" cy="920.584" r="7.37463" fill="#BDBDBD"/>
<circle cx="496.355" cy="920.584" r="7.37463" fill="#BDBDBD"/>
<rect x="396.463" y="274.5" width="332.782" height="170.334" rx="18" fill="white" stroke="#BDBDBD" stroke-width="4"/>
<line x1="394.463" y1="360.667" x2="731.245" y2="360.667" stroke="#BDBDBD" stroke-width="4"/>
<path d="M553.673 324.943C553.545 324.943 553.433 324.895 553.337 324.799C553.273 324.703 553.241 324.575 553.241 324.415C553.241 324.223 553.289 324.063 553.385 323.935L562.841 309.631H562.985L572.489 323.935C572.585 324.063 572.633 324.223 572.633 324.415C572.633 324.767 572.489 324.943 572.201 324.943C571.849 324.943 571.465 324.863 571.049 324.703C570.665 324.511 570.393 324.303 570.233 324.079L563.129 313.903C563.001 313.743 562.905 313.663 562.841 313.663C562.809 313.663 562.745 313.743 562.649 313.903L555.641 324.031C555.449 324.287 555.145 324.511 554.729 324.703C554.345 324.863 553.993 324.943 553.673 324.943Z" fill="black"/>
<line x1="560.937" y1="446.834" x2="560.937" y2="362.667" stroke="#BDBDBD" stroke-width="4"/>
<circle cx="480.475" cy="404.751" r="7.37463" fill="#BDBDBD"/>
<circle cx="643.475" cy="404.751" r="7.37463" fill="#BDBDBD"/>
<rect x="336.096" y="541" width="169.324" height="170.334" rx="18" fill="white" stroke="#BDBDBD" stroke-width="4"/>
<line x1="334.096" y1="627.167" x2="507.42" y2="627.167" stroke="#BDBDBD" stroke-width="4"/>
<path d="M401.393 605.747C400.401 605.747 399.473 605.587 398.609 605.267C397.745 604.979 397.009 604.563 396.401 604.019C396.145 603.507 395.969 602.227 395.873 600.179C395.873 599.891 396.081 599.747 396.497 599.747C396.849 599.747 397.041 599.859 397.073 600.083C397.457 601.555 398.081 602.659 398.945 603.395C399.841 604.099 400.801 604.451 401.825 604.451C402.753 604.451 403.537 604.147 404.177 603.539C404.849 602.899 405.185 602.115 405.185 601.187C405.185 600.355 404.897 599.635 404.321 599.027C403.777 598.387 402.769 597.603 401.297 596.675C399.633 595.651 398.449 594.707 397.745 593.843C397.073 592.947 396.737 591.907 396.737 590.723C396.737 589.123 397.297 587.811 398.417 586.787C399.537 585.731 401.137 585.203 403.217 585.203C404.113 585.203 404.881 585.299 405.521 585.491C406.193 585.651 406.705 585.859 407.057 586.115C407.313 586.467 407.521 587.027 407.681 587.795C407.873 588.531 407.969 589.235 407.969 589.907C407.969 590.131 407.809 590.243 407.489 590.243C407.297 590.243 407.105 590.211 406.913 590.147C406.721 590.051 406.609 589.939 406.577 589.811C406.129 588.723 405.585 587.907 404.945 587.363C404.337 586.819 403.585 586.547 402.689 586.547C401.857 586.547 401.137 586.803 400.529 587.315C399.921 587.827 399.617 588.515 399.617 589.379C399.617 590.147 399.841 590.819 400.289 591.395C400.769 591.939 401.649 592.579 402.929 593.315C404.945 594.467 406.369 595.507 407.201 596.435C408.033 597.331 408.449 598.483 408.449 599.891C408.449 601.619 407.793 603.027 406.481 604.115C405.169 605.203 403.473 605.747 401.393 605.747ZM412.108 605.219C411.468 605.219 411.148 605.043 411.148 604.691C411.148 604.467 411.228 604.307 411.388 604.211C411.58 604.115 411.868 604.019 412.252 603.923C412.988 603.731 413.516 603.523 413.836 603.299C414.156 603.043 414.316 602.643 414.316 602.099V591.683C414.316 589.571 413.596 588.403 412.156 588.179C411.836 588.147 411.676 587.939 411.676 587.555C411.676 587.203 411.82 587.011 412.108 586.979C414.06 586.531 415.74 585.731 417.148 584.579C417.436 584.355 417.66 584.243 417.82 584.243C418.012 584.243 418.108 584.323 418.108 584.483C418.108 584.835 418.06 585.443 417.964 586.307C417.932 586.691 417.868 587.411 417.772 588.467C417.708 589.491 417.676 590.323 417.676 590.963V602.099C417.676 602.611 417.836 602.995 418.156 603.251C418.508 603.507 419.036 603.731 419.74 603.923C420.124 604.019 420.396 604.115 420.556 604.211C420.748 604.307 420.844 604.467 420.844 604.691C420.844 605.043 420.524 605.219 419.884 605.219C419.084 605.219 418.412 605.171 417.868 605.075C417.164 605.011 416.54 604.979 415.996 604.979C415.484 604.979 414.876 605.011 414.172 605.075C413.66 605.171 412.972 605.219 412.108 605.219ZM415.948 580.307C415.276 580.307 414.7 580.083 414.22 579.635C413.772 579.155 413.548 578.579 413.548 577.907C413.548 577.203 413.772 576.627 414.22 576.179C414.7 575.699 415.276 575.459 415.948 575.459C416.652 575.459 417.228 575.699 417.676 576.179C418.156 576.627 418.396 577.203 418.396 577.907C418.396 578.579 418.156 579.155 417.676 579.635C417.228 580.083 416.652 580.307 415.948 580.307ZM423.874 605.219C423.234 605.219 422.914 605.043 422.914 604.691C422.914 604.467 422.994 604.323 423.154 604.259C423.314 604.163 423.602 604.051 424.018 603.923C424.69 603.763 425.202 603.571 425.554 603.347C425.906 603.091 426.082 602.675 426.082 602.099V591.779C426.082 590.755 425.97 589.971 425.746 589.427C425.522 588.883 425.042 588.515 424.306 588.323C423.986 588.227 423.826 588.019 423.826 587.699C423.826 587.347 423.97 587.155 424.258 587.123C425.25 586.867 426.082 586.547 426.754 586.163C427.458 585.779 428.226 585.283 429.058 584.675C429.282 584.515 429.458 584.435 429.586 584.435C429.746 584.435 429.826 584.547 429.826 584.771L429.73 585.779C429.698 586.035 429.666 586.355 429.634 586.739C429.602 587.091 429.586 587.459 429.586 587.843C429.586 588.163 429.618 588.355 429.682 588.419C430.834 587.331 432.034 586.531 433.282 586.019C434.53 585.475 435.906 585.203 437.41 585.203C438.946 585.203 440.226 585.843 441.25 587.123C442.306 588.403 442.834 589.987 442.834 591.875V602.099C442.834 602.675 442.994 603.075 443.314 603.299C443.666 603.491 444.194 603.699 444.898 603.923C445.282 604.051 445.554 604.179 445.714 604.307C445.906 604.403 446.002 604.563 446.002 604.787C446.002 605.075 445.682 605.219 445.042 605.219C444.178 605.219 443.49 605.171 442.978 605.075C442.338 605.011 441.746 604.979 441.202 604.979C440.69 604.979 440.082 605.011 439.378 605.075C438.866 605.171 438.162 605.219 437.266 605.219C436.626 605.219 436.306 605.075 436.306 604.787C436.306 604.563 436.386 604.403 436.546 604.307C436.738 604.179 437.026 604.051 437.41 603.923C438.114 603.699 438.626 603.491 438.946 603.299C439.298 603.075 439.474 602.675 439.474 602.099V592.019C439.474 590.643 439.074 589.555 438.274 588.755C437.506 587.955 436.466 587.539 435.154 587.507C433.17 587.507 431.394 588.147 429.826 589.427C429.57 589.683 429.442 590.051 429.442 590.531V602.099C429.442 602.675 429.618 603.091 429.97 603.347C430.322 603.571 430.834 603.763 431.506 603.923C431.89 604.019 432.162 604.131 432.322 604.259C432.514 604.355 432.61 604.499 432.61 604.691C432.61 605.043 432.29 605.219 431.65 605.219C430.818 605.219 430.13 605.171 429.586 605.075C428.882 605.011 428.274 604.979 427.762 604.979C427.25 604.979 426.642 605.011 425.938 605.075C425.426 605.171 424.738 605.219 423.874 605.219Z" fill="black"/>
<circle cx="420.108" cy="671.251" r="7.37463" fill="#BDBDBD"/>
<rect x="141.818" y="274.5" width="169.324" height="90.6386" rx="18" fill="white" stroke="#BDBDBD" stroke-width="4"/>
<path d="M209.689 331.441C207.641 331.441 205.881 330.705 204.409 329.233C202.969 327.729 201.881 325.825 201.145 323.521C200.441 321.185 200.089 318.769 200.089 316.273C200.089 313.681 200.441 311.185 201.145 308.785C201.881 306.385 203.001 304.417 204.505 302.881C206.041 301.313 207.929 300.529 210.169 300.529C212.217 300.529 213.961 301.281 215.401 302.785C216.873 304.257 217.961 306.145 218.665 308.449C219.401 310.753 219.769 313.137 219.769 315.601C219.769 318.161 219.401 320.657 218.665 323.089C217.961 325.521 216.841 327.521 215.305 329.089C213.801 330.657 211.929 331.441 209.689 331.441ZM210.505 330.193C212.297 330.193 213.625 328.897 214.489 326.305C215.385 323.681 215.833 320.401 215.833 316.465C215.833 313.969 215.577 311.617 215.065 309.409C214.553 307.169 213.801 305.361 212.809 303.985C211.817 302.577 210.633 301.873 209.257 301.873C207.465 301.873 206.153 303.137 205.321 305.665C204.489 308.193 204.073 311.441 204.073 315.409C204.073 317.905 204.313 320.289 204.793 322.561C205.305 324.833 206.041 326.673 207.001 328.081C207.961 329.489 209.129 330.193 210.505 330.193ZM226.512 331.441C225.808 331.441 225.184 331.185 224.64 330.673C224.128 330.129 223.872 329.505 223.872 328.801C223.872 328.065 224.128 327.441 224.64 326.929C225.184 326.417 225.808 326.161 226.512 326.161C227.248 326.161 227.872 326.417 228.384 326.929C228.896 327.441 229.152 328.065 229.152 328.801C229.152 329.505 228.896 330.129 228.384 330.673C227.872 331.185 227.248 331.441 226.512 331.441ZM237.19 330.913C236.966 330.913 236.79 330.865 236.662 330.769C236.534 330.641 236.47 330.497 236.47 330.337C236.47 330.209 236.534 330.097 236.662 330.001C236.822 329.873 236.998 329.777 237.19 329.713C238.662 329.361 239.734 329.057 240.406 328.801C241.078 328.513 241.59 328.129 241.942 327.649C242.294 327.169 242.47 326.465 242.47 325.537V307.201C242.47 306.369 242.118 305.809 241.414 305.521C240.71 305.201 239.718 304.993 238.438 304.897C238.086 304.865 237.782 304.785 237.526 304.657C237.302 304.529 237.19 304.337 237.19 304.081C237.19 303.857 237.302 303.681 237.526 303.553C237.75 303.393 238.038 303.281 238.39 303.217C240.15 302.961 241.542 302.657 242.566 302.305C243.59 301.921 244.598 301.233 245.59 300.241C245.622 300.209 245.702 300.193 245.83 300.193C245.99 300.193 246.134 300.241 246.262 300.337C246.39 300.401 246.438 300.497 246.406 300.625C246.278 301.489 246.214 302.625 246.214 304.033V326.113C246.214 326.913 246.358 327.521 246.646 327.937C246.934 328.321 247.382 328.625 247.99 328.849C248.63 329.073 249.734 329.377 251.302 329.761C251.526 329.825 251.718 329.921 251.878 330.049C252.038 330.145 252.118 330.257 252.118 330.385C252.118 330.545 252.054 330.673 251.926 330.769C251.798 330.865 251.638 330.913 251.446 330.913C250.134 330.913 248.918 330.865 247.798 330.769C246.326 330.705 245.19 330.673 244.39 330.673C243.142 330.673 241.942 330.721 240.79 330.817C239.254 330.881 238.054 330.913 237.19 330.913Z" fill="black"/>
<rect x="75.5892" y="1294.12" width="169.324" height="90.6386" rx="18" fill="white" stroke="#BDBDBD" stroke-width="4"/>
<path d="M142.367 1350.53C142.143 1350.53 141.967 1350.49 141.839 1350.39C141.711 1350.26 141.647 1350.12 141.647 1349.96C141.647 1349.83 141.711 1349.72 141.839 1349.62C141.999 1349.49 142.175 1349.4 142.367 1349.33C143.839 1348.98 144.911 1348.68 145.583 1348.42C146.255 1348.13 146.767 1347.75 147.119 1347.27C147.471 1346.79 147.647 1346.09 147.647 1345.16V1326.82C147.647 1325.99 147.295 1325.43 146.591 1325.14C145.887 1324.82 144.895 1324.61 143.615 1324.52C143.263 1324.49 142.959 1324.41 142.703 1324.28C142.479 1324.15 142.367 1323.96 142.367 1323.7C142.367 1323.48 142.479 1323.3 142.703 1323.17C142.927 1323.01 143.215 1322.9 143.567 1322.84C145.327 1322.58 146.719 1322.28 147.743 1321.93C148.767 1321.54 149.775 1320.85 150.767 1319.86C150.799 1319.83 150.879 1319.81 151.007 1319.81C151.167 1319.81 151.311 1319.86 151.439 1319.96C151.567 1320.02 151.615 1320.12 151.583 1320.25C151.455 1321.11 151.391 1322.25 151.391 1323.65V1345.73C151.391 1346.53 151.535 1347.14 151.823 1347.56C152.111 1347.94 152.559 1348.25 153.167 1348.47C153.807 1348.69 154.911 1349 156.479 1349.38C156.703 1349.45 156.895 1349.54 157.055 1349.67C157.215 1349.77 157.295 1349.88 157.295 1350.01C157.295 1350.17 157.231 1350.29 157.104 1350.39C156.976 1350.49 156.815 1350.53 156.623 1350.53C155.311 1350.53 154.095 1350.49 152.975 1350.39C151.503 1350.33 150.367 1350.29 149.567 1350.29C148.319 1350.29 147.119 1350.34 145.967 1350.44C144.431 1350.5 143.231 1350.53 142.367 1350.53ZM172.054 1351.06C170.006 1351.06 168.246 1350.33 166.774 1348.85C165.334 1347.35 164.246 1345.45 163.51 1343.14C162.806 1340.81 162.454 1338.39 162.454 1335.89C162.454 1333.3 162.806 1330.81 163.51 1328.41C164.246 1326.01 165.366 1324.04 166.87 1322.5C168.406 1320.93 170.294 1320.15 172.534 1320.15C174.582 1320.15 176.326 1320.9 177.766 1322.41C179.238 1323.88 180.326 1325.77 181.03 1328.07C181.766 1330.37 182.134 1332.76 182.134 1335.22C182.134 1337.78 181.766 1340.28 181.03 1342.71C180.326 1345.14 179.206 1347.14 177.67 1348.71C176.166 1350.28 174.294 1351.06 172.054 1351.06ZM172.87 1349.81C174.662 1349.81 175.99 1348.52 176.854 1345.93C177.75 1343.3 178.198 1340.02 178.198 1336.09C178.198 1333.59 177.942 1331.24 177.43 1329.03C176.918 1326.79 176.166 1324.98 175.174 1323.61C174.182 1322.2 172.998 1321.49 171.622 1321.49C169.83 1321.49 168.518 1322.76 167.686 1325.29C166.854 1327.81 166.438 1331.06 166.438 1335.03C166.438 1337.53 166.678 1339.91 167.158 1342.18C167.67 1344.45 168.406 1346.29 169.366 1347.7C170.326 1349.11 171.494 1349.81 172.87 1349.81Z" fill="black"/>
<rect x="524.633" y="1049" width="169.324" height="90.6386" rx="18" fill="white" stroke="#BDBDBD" stroke-width="4"/>
<path d="M604.468 1105.32C602.676 1105.19 601.156 1105.13 599.908 1105.13C600.26 1105.13 597.7 1105.17 592.228 1105.27L588.772 1105.37C588.644 1105.37 588.452 1105.27 588.196 1105.08C587.94 1104.85 587.812 1104.68 587.812 1104.55C587.812 1104.39 587.86 1104.26 587.956 1104.17C588.084 1104.04 588.164 1103.96 588.196 1103.93L596.404 1095.43C598.1 1093.7 599.444 1091.8 600.436 1089.72C601.46 1087.64 601.972 1085.59 601.972 1083.57C601.972 1081.91 601.476 1080.58 600.484 1079.59C599.492 1078.6 598.276 1078.1 596.836 1078.1C595.556 1078.1 594.34 1078.45 593.188 1079.16C592.068 1079.86 591.172 1080.81 590.5 1081.99C590.404 1082.18 590.276 1082.34 590.116 1082.47C589.956 1082.6 589.812 1082.66 589.684 1082.66C589.556 1082.66 589.396 1082.52 589.204 1082.23C589.044 1081.94 588.964 1081.61 588.964 1081.22C588.964 1080.68 589.396 1079.89 590.26 1078.87C591.124 1077.85 592.26 1076.95 593.668 1076.18C595.108 1075.41 596.66 1075.03 598.324 1075.03C600.692 1075.03 602.564 1075.77 603.94 1077.24C605.316 1078.68 606.004 1080.58 606.004 1082.95C606.004 1084.23 605.668 1085.64 604.996 1087.17C604.356 1088.71 603.524 1090.1 602.5 1091.35C601.892 1092.05 600.788 1093.22 599.188 1094.85C597.62 1096.49 596.484 1097.67 595.78 1098.41C593.54 1100.65 592.42 1101.8 592.42 1101.86C592.42 1101.96 592.484 1102.04 592.612 1102.1C592.74 1102.13 592.9 1102.17 593.092 1102.2C594.148 1102.29 595.556 1102.34 597.316 1102.34C599.236 1102.34 601.06 1102.29 602.788 1102.2C604.196 1102.13 605.156 1101.97 605.668 1101.72C606.212 1101.46 606.772 1100.87 607.348 1099.94C607.796 1099.21 608.196 1098.84 608.548 1098.84C608.772 1098.84 608.884 1099.03 608.884 1099.41C608.884 1099.57 608.756 1099.99 608.5 1100.66C607.956 1102.33 607.604 1103.53 607.444 1104.26C607.284 1105.03 606.932 1105.41 606.388 1105.41L604.468 1105.32ZM621.098 1105.94C619.05 1105.94 617.29 1105.21 615.818 1103.73C614.378 1102.23 613.29 1100.33 612.554 1098.02C611.85 1095.69 611.498 1093.27 611.498 1090.77C611.498 1088.18 611.85 1085.69 612.554 1083.29C613.29 1080.89 614.41 1078.92 615.914 1077.38C617.45 1075.81 619.338 1075.03 621.578 1075.03C623.626 1075.03 625.37 1075.78 626.81 1077.29C628.282 1078.76 629.37 1080.65 630.074 1082.95C630.81 1085.25 631.178 1087.64 631.178 1090.1C631.178 1092.66 630.81 1095.16 630.074 1097.59C629.37 1100.02 628.25 1102.02 626.714 1103.59C625.21 1105.16 623.338 1105.94 621.098 1105.94ZM621.914 1104.69C623.706 1104.69 625.034 1103.4 625.898 1100.81C626.794 1098.18 627.242 1094.9 627.242 1090.97C627.242 1088.47 626.986 1086.12 626.474 1083.91C625.962 1081.67 625.21 1079.86 624.218 1078.49C623.226 1077.08 622.042 1076.37 620.666 1076.37C618.874 1076.37 617.562 1077.64 616.73 1080.17C615.898 1082.69 615.482 1085.94 615.482 1089.91C615.482 1092.41 615.722 1094.79 616.202 1097.06C616.714 1099.33 617.45 1101.17 618.41 1102.58C619.37 1103.99 620.538 1104.69 621.914 1104.69Z" fill="black"/>
<rect x="317.227" y="1294.12" width="169.324" height="90.6386" rx="18" fill="white" stroke="#BDBDBD" stroke-width="4"/>
<path d="M393.059 1350.58C392.419 1350.58 392.099 1350.44 392.099 1350.15C392.099 1349.93 392.195 1349.75 392.387 1349.62C392.579 1349.49 392.851 1349.38 393.203 1349.29C393.747 1349.13 394.259 1348.85 394.739 1348.47C395.219 1348.05 395.779 1347.41 396.419 1346.55L400.115 1341.41C400.307 1341.19 400.403 1340.98 400.403 1340.79C400.403 1340.63 400.339 1340.47 400.211 1340.31L396.275 1334.31C395.891 1333.67 395.539 1333.21 395.219 1332.92C394.931 1332.63 394.547 1332.42 394.067 1332.29C393.715 1332.2 393.443 1332.09 393.251 1331.96C393.059 1331.83 392.963 1331.65 392.963 1331.43C392.963 1331.14 393.283 1331 393.923 1331C394.595 1331 395.187 1331.03 395.699 1331.09C396.339 1331.16 397.059 1331.19 397.859 1331.19L399.107 1331.14C399.331 1331.11 399.731 1331.09 400.307 1331.09H400.451C401.091 1331.09 401.411 1331.24 401.411 1331.53C401.411 1331.69 401.331 1331.81 401.171 1331.91C401.043 1332.01 400.835 1332.1 400.547 1332.2C400.227 1332.29 399.971 1332.41 399.779 1332.53C399.619 1332.63 399.539 1332.79 399.539 1333.01C399.539 1333.37 399.747 1333.88 400.163 1334.55L402.371 1337.86C402.499 1338.09 402.643 1338.09 402.803 1337.86L405.251 1334.17C405.507 1333.81 405.635 1333.46 405.635 1333.11C405.635 1332.73 405.427 1332.47 405.011 1332.34C404.627 1332.21 404.339 1332.1 404.147 1332.01C403.987 1331.88 403.907 1331.7 403.907 1331.48C403.907 1331.19 404.227 1331.05 404.867 1331.05C405.027 1331.05 405.395 1331.08 405.971 1331.14C406.579 1331.17 407.059 1331.19 407.411 1331.19C408.115 1331.19 408.739 1331.16 409.283 1331.09C409.827 1331 410.211 1330.95 410.435 1330.95C411.075 1330.95 411.395 1331.09 411.395 1331.38C411.395 1331.61 411.299 1331.78 411.107 1331.91C410.947 1332.01 410.675 1332.12 410.291 1332.25C408.755 1332.69 407.619 1333.45 406.883 1334.5L403.859 1339.06C403.731 1339.25 403.747 1339.46 403.907 1339.69L408.563 1347.27C408.947 1347.88 409.315 1348.33 409.667 1348.61C410.019 1348.9 410.435 1349.13 410.915 1349.29C411.267 1349.38 411.539 1349.49 411.731 1349.62C411.923 1349.75 412.019 1349.93 412.019 1350.15C412.019 1350.44 411.699 1350.58 411.059 1350.58C410.451 1350.58 409.859 1350.55 409.283 1350.49C408.643 1350.42 407.891 1350.39 407.027 1350.39L405.251 1350.44C404.835 1350.47 404.259 1350.49 403.523 1350.49C402.787 1350.49 402.419 1350.33 402.419 1350.01C402.419 1349.75 402.515 1349.56 402.707 1349.43C402.899 1349.27 403.203 1349.14 403.619 1349.05C404.515 1348.79 404.963 1348.41 404.963 1347.89C404.963 1347.64 404.867 1347.35 404.675 1347.03L401.843 1342.42C401.811 1342.39 401.763 1342.37 401.699 1342.37C401.635 1342.37 401.587 1342.39 401.555 1342.42L398.387 1347.17C398.227 1347.4 398.147 1347.7 398.147 1348.09C398.147 1348.31 398.195 1348.53 398.291 1348.76C398.419 1348.95 398.595 1349.08 398.819 1349.14C399.203 1349.27 399.475 1349.4 399.635 1349.53C399.827 1349.62 399.923 1349.78 399.923 1350.01C399.923 1350.29 399.603 1350.44 398.963 1350.44C398.771 1350.44 398.419 1350.42 397.907 1350.39C397.427 1350.36 396.883 1350.34 396.275 1350.34C395.859 1350.34 395.123 1350.39 394.067 1350.49C393.619 1350.55 393.283 1350.58 393.059 1350.58Z" fill="black"/>
<rect x="625.029" y="536.167" width="169.324" height="90.6386" rx="18" fill="white" stroke="#BDBDBD" stroke-width="4"/>
<path d="M716.394 592.485C714.602 592.357 713.082 592.293 711.834 592.293C712.186 592.293 709.626 592.341 704.154 592.437L700.698 592.533C700.57 592.533 700.378 592.437 700.122 592.245C699.866 592.021 699.738 591.845 699.738 591.717C699.738 591.557 699.786 591.429 699.882 591.333C700.01 591.205 700.09 591.125 700.122 591.093L708.33 582.597C710.026 580.869 711.37 578.965 712.362 576.885C713.386 574.805 713.898 572.757 713.898 570.741C713.898 569.077 713.402 567.749 712.41 566.757C711.418 565.765 710.202 565.269 708.762 565.269C707.482 565.269 706.266 565.621 705.114 566.325C703.994 567.029 703.098 567.973 702.426 569.157C702.33 569.349 702.202 569.509 702.042 569.637C701.882 569.765 701.738 569.829 701.61 569.829C701.482 569.829 701.322 569.685 701.13 569.397C700.97 569.109 700.89 568.773 700.89 568.389C700.89 567.845 701.322 567.061 702.186 566.037C703.05 565.013 704.186 564.117 705.594 563.349C707.034 562.581 708.586 562.197 710.25 562.197C712.618 562.197 714.49 562.933 715.866 564.405C717.242 565.845 717.93 567.749 717.93 570.117C717.93 571.397 717.594 572.805 716.922 574.341C716.282 575.877 715.45 577.269 714.426 578.517C713.818 579.221 712.714 580.389 711.114 582.021C709.546 583.653 708.41 584.837 707.706 585.573C705.466 587.813 704.346 588.965 704.346 589.029C704.346 589.125 704.41 589.205 704.538 589.269C704.666 589.301 704.826 589.333 705.018 589.365C706.074 589.461 707.482 589.509 709.242 589.509C711.162 589.509 712.986 589.461 714.714 589.365C716.122 589.301 717.082 589.141 717.594 588.885C718.138 588.629 718.698 588.037 719.274 587.109C719.722 586.373 720.122 586.005 720.474 586.005C720.698 586.005 720.81 586.197 720.81 586.581C720.81 586.741 720.682 587.157 720.426 587.829C719.882 589.493 719.53 590.693 719.37 591.429C719.21 592.197 718.858 592.581 718.314 592.581L716.394 592.485Z" fill="black"/>
<path d="M226.572 272.5L248.954 266.811L232.836 250.272L226.572 272.5ZM350.616 148.818L238.067 258.505L240.858 261.369L353.408 151.683L350.616 148.818Z" fill="#BDBDBD"/>
<path d="M562.865 272.528L566.329 249.695L544.823 258.112L562.865 272.528ZM513.15 150.98L554.443 256.495L558.168 255.037L516.875 149.522L513.15 150.98Z" fill="#BDBDBD"/>
<path d="M709.691 534.167L710.861 511.103L690.301 521.622L709.691 534.167ZM641.695 405.662L699.711 519.054L703.272 517.232L645.256 403.84L641.695 405.662Z" fill="#BDBDBD"/>
<path d="M420.85 543.437L439.357 529.624L418.141 520.502L420.85 543.437ZM478.638 403.961L426.122 526.11L429.797 527.69L482.312 405.54L478.638 403.961Z" fill="#BDBDBD"/>
<path d="M415.817 788.333L428.089 768.769L405.01 767.923L415.817 788.333ZM418.11 671.178L414.477 770.272L418.475 770.418L422.107 671.324L418.11 671.178Z" fill="#BDBDBD"/>
<path d="M276.076 1047L294.913 1033.64L273.924 1024.01L276.076 1047ZM332.278 919.749L281.766 1029.81L285.402 1031.47L335.914 921.418L332.278 919.749Z" fill="#BDBDBD"/>
<path d="M609.387 1047L604.699 1024.39L587.459 1039.75L609.387 1047ZM495.215 921.914L595.917 1034.89L598.903 1032.23L498.201 919.253L495.215 921.914Z" fill="#BDBDBD"/>
<path d="M401.967 1292.09L405.184 1269.22L383.771 1277.87L401.967 1292.09ZM354.54 1180L393.372 1276.15L397.081 1274.65L358.249 1178.5L354.54 1180Z" fill="#BDBDBD"/>
<path d="M160.251 1292.12L176.994 1276.21L154.847 1269.67L160.251 1292.12ZM191.696 1178.68L163.436 1274.29L167.272 1275.43L195.532 1179.82L191.696 1178.68Z" fill="#BDBDBD"/>
</svg>
